<?xml version="1.0" encoding="UTF-8" standalone="no"?>
<svg width="43px" height="51px" viewBox="0 0 43 51" version="1.1" xmlns="http://www.w3.org/2000/svg" xmlns:xlink="http://www.w3.org/1999/xlink" xmlns:sketch="http://www.bohemiancoding.com/sketch/ns">
    <!-- Generator: Sketch Beta 3.0.4 (8156) - http://www.bohemiancoding.com/sketch -->
    <title>apple-color</title>
    <desc>Created with Sketch Beta.</desc>
    <defs>
        <linearGradient x1="50%" y1="0%" x2="50%" y2="100%" id="linearGradient-1">
            <stop stop-color="#FFFFFF" offset="0%"></stop>
            <stop stop-color="#B7B7B7" offset="100%"></stop>
        </linearGradient>
    </defs>
    <g id="Page-1" stroke="none" stroke-width="1" fill="none" fill-rule="evenodd" sketch:type="MSPage">
        <g id="icons" sketch:type="MSLayerGroup" transform="translate(-191.000000, -67.000000)" fill="url(#linearGradient-1)">
            <path d="M214.909646,71.1291652 C216.776348,68.9929318 219.931604,67.4036867 222.535283,67.296875 C222.867385,70.2645528 221.64525,73.2361658 219.838616,75.3774587 C218.029094,77.5148163 215.067323,79.179954 212.16042,78.9578982 C211.765364,76.0543073 213.230077,73.0264777 214.909646,71.1291652 L214.909646,71.1291652 Z M229.721968,111.610787 C227.561284,114.694833 225.326672,117.760328 221.798883,117.824415 C218.327119,117.888502 217.214145,115.816356 213.252025,115.816356 C209.285862,115.816356 208.044667,117.760328 204.766966,117.888502 C201.361045,118.013303 198.77065,114.557664 196.593217,111.48711 C192.144207,105.209395 188.746949,93.7361355 193.31436,85.993414 C195.576119,82.148194 199.629494,79.7156988 204.020748,79.6510497 C207.366024,79.5908978 210.525902,81.8530565 212.568184,81.8530565 C214.615086,81.8530565 218.450719,79.1372293 222.482147,79.5358055 C224.169802,79.6038277 228.906441,80.1997243 231.949072,84.5458348 C231.708226,84.6998685 226.295254,87.7754823 226.360519,94.1819337 C226.426362,101.834708 233.228964,104.37795 233.308091,104.412805 C233.245713,104.592698 232.219952,108.044401 229.721968,111.610787 L229.721968,111.610787 Z" id="apple-color" sketch:type="MSShapeGroup"></path>
        </g>
    </g>
</svg>