<?xml version="1.0" encoding="UTF-8" standalone="no"?>
<svg width="19px" height="19px" viewBox="0 0 19 19" version="1.1" xmlns="http://www.w3.org/2000/svg" xmlns:xlink="http://www.w3.org/1999/xlink" xmlns:sketch="http://www.bohemiancoding.com/sketch/ns">
    <!-- Generator: Sketch Beta 3.0.4 (8156) - http://www.bohemiancoding.com/sketch -->
    <title>browser-small</title>
    <desc>Created with Sketch Beta.</desc>
    <defs></defs>
    <g id="Page-1" stroke="none" stroke-width="1" fill="none" fill-rule="evenodd" sketch:type="MSPage">
        <g id="icons" sketch:type="MSLayerGroup" transform="translate(-532.000000, -1.000000)" fill="#707070">
            <g id="browser-small" transform="translate(532.000000, 2.000000)" sketch:type="MSShapeGroup">
                <path d="M0.133261853,0.540213038 L0.133261853,17.5282885 C0.133261853,18.0769626 0.583593925,18.5217508 1.12672411,18.5217508 L18.1147996,18.5217508 C18.6634736,18.5217508 19.1082619,18.0714187 19.1082619,17.5282885 L19.1082619,0.540213038 C19.1082619,-0.00846101697 18.6579298,-0.45324922 18.1147996,-0.45324922 L1.12672411,-0.45324922 C0.578050057,-0.45324922 0.133261853,-0.00291714846 0.133261853,0.540213038 Z M18.1147996,1.54675078 C17.5569937,1.54675078 17.1082619,1.09974192 17.1082619,0.540213038 L17.1082619,17.5282885 C17.1082619,16.9704827 17.5552707,16.5217508 18.1147996,16.5217508 L1.12672411,16.5217508 C1.68452996,16.5217508 2.13326185,16.9687596 2.13326185,17.5282885 L2.13326185,0.540213038 C2.13326185,1.09801889 1.686253,1.54675078 1.12672411,1.54675078 L18.1147996,1.54675078 Z" id="Rectangle-174"></path>
                <path d="M18.920833,4.66781599 L18.920833,0.741954023 L1.21818675,0.741954123 L1.21818676,4.66781609 L18.920833,4.66781599 Z M4.05416667,3.60833333 C4.63636684,3.60833333 5.10833333,3.13636684 5.10833333,2.55416667 C5.10833333,1.97196649 4.63636684,1.5 4.05416667,1.5 C3.47196649,1.5 3,1.97196649 3,2.55416667 C3,3.13636684 3.47196649,3.60833333 4.05416667,3.60833333 Z M10.0541667,3.60833333 C10.6363668,3.60833333 11.1083333,3.13636684 11.1083333,2.55416667 C11.1083333,1.97196649 10.6363668,1.5 10.0541667,1.5 C9.47196649,1.5 9,1.97196649 9,2.55416667 C9,3.13636684 9.47196649,3.60833333 10.0541667,3.60833333 Z M7.05416667,3.60833333 C7.63636684,3.60833333 8.10833333,3.13636684 8.10833333,2.55416667 C8.10833333,1.97196649 7.63636684,1.5 7.05416667,1.5 C6.47196649,1.5 6,1.97196649 6,2.55416667 C6,3.13636684 6.47196649,3.60833333 7.05416667,3.60833333 Z" id="Path"></path>
            </g>
        </g>
    </g>
</svg>