<?xml version="1.0" encoding="UTF-8" standalone="no"?>
<svg width="37px" height="45px" viewBox="0 0 37 45" version="1.1" xmlns="http://www.w3.org/2000/svg" xmlns:xlink="http://www.w3.org/1999/xlink" xmlns:sketch="http://www.bohemiancoding.com/sketch/ns">
    <!-- Generator: Sketch Beta 3.0.4 (8156) - http://www.bohemiancoding.com/sketch -->
    <title>gplay-bw</title>
    <desc>Created with Sketch Beta.</desc>
    <defs></defs>
    <g id="Page-1" stroke="none" stroke-width="1" fill="none" fill-rule="evenodd" sketch:type="MSPage">
        <g id="icons" sketch:type="MSLayerGroup" transform="translate(-422.000000, -73.000000)" fill="#707070">
            <path d="M450.473882,90.0581126 C452.577585,91.4914465 457.168567,94.6158263 457.833665,95.0377981 L457.949697,95.1163793 C458.671768,95.6454434 458.718498,96.4987267 457.796997,97.1318811 L457.294259,97.4723545 C456.029146,98.3290275 453.033309,100.357955 451.124613,101.650632 L451.124613,101.650632 L445.760414,95.4953315 L450.161448,90.4185208 L450.473882,90.0581126 Z M448.082828,88.1987661 L440.922091,83.3489863 C440.922091,83.3489863 438.292148,81.5675908 435.112499,79.4138872 L435.112499,79.4138872 L426.896005,73.8488364 L443.753681,93.1926501 L447.9499,88.352105 L448.082828,88.1987661 Z M425.772417,118.552472 C430.421712,115.40319 440.735575,108.417665 440.735575,108.417665 L448.454149,103.190469 L448.454149,103.190469 L443.75951,97.8034732 L425.772417,118.552472 Z M422.277664,117.966297 L422.277664,95.9206477 L422.277664,73.1535264 L441.752777,95.5007918 L422.277664,117.966297 Z" id="gplay-bw" sketch:type="MSShapeGroup"></path>
        </g>
    </g>
</svg>