<?xml version="1.0" encoding="UTF-8" standalone="no"?>
<svg width="18px" height="17px" viewBox="0 0 18 17" version="1.1" xmlns="http://www.w3.org/2000/svg" xmlns:xlink="http://www.w3.org/1999/xlink" xmlns:sketch="http://www.bohemiancoding.com/sketch/ns">
    <!-- Generator: Sketch Beta 3.0.4 (8156) - http://www.bohemiancoding.com/sketch -->
    <title>info</title>
    <desc>Created with Sketch Beta.</desc>
    <defs></defs>
    <g id="Page-1" stroke="none" stroke-width="1" fill="none" fill-rule="evenodd" sketch:type="MSPage">
        <g id="icons" sketch:type="MSLayerGroup" transform="translate(-121.000000, -6.000000)" fill="#707070">
            <path d="M130.704286,22.68 C126.482857,22.68 123.049143,19.2462857 123.049143,15.0248571 C123.049143,10.8025714 126.482857,7.368 130.704286,7.368 C134.924857,7.368 138.359429,10.8025714 138.359429,15.0248571 C138.359429,19.2462857 134.924857,22.68 130.704286,22.68 Z M131.404571,10.4734286 C131.314571,10.404 131.21,10.3542857 131.09,10.3268571 C130.970857,10.2994286 130.843143,10.2857143 130.707714,10.2857143 C130.572286,10.2857143 130.443714,10.2994286 130.322,10.3268571 C130.200286,10.3542857 130.094857,10.404 130.004857,10.4734286 C129.914857,10.5428571 129.844571,10.6345714 129.792286,10.7485714 C129.74,10.8625714 129.714286,11.0048571 129.714286,11.1762857 C129.714286,11.3442857 129.74,11.4857143 129.792286,11.6005714 C129.844571,11.7162857 129.914857,11.8097143 130.004857,11.8791429 C130.094857,11.9485714 130.200286,11.9991429 130.322,12.0282857 C130.443714,12.0582857 130.572286,12.0737143 130.707714,12.0737143 C130.843143,12.0737143 130.970857,12.0582857 131.09,12.0282857 C131.21,11.9991429 131.314571,11.9485714 131.404571,11.8791429 C131.493714,11.8097143 131.565714,11.7162857 131.619714,11.6005714 C131.672857,11.4857143 131.700286,11.3442857 131.700286,11.1762857 C131.700286,11.0048571 131.672857,10.8625714 131.619714,10.7485714 C131.565714,10.6345714 131.493714,10.5428571 131.404571,10.4734286 Z M129.792286,12.9051429 L131.617143,12.9051429 L131.617143,19.5917143 L129.792286,19.5917143 L129.792286,12.9051429 Z M130.704286,6.07542857 C125.770571,6.07542857 121.756571,10.0902857 121.756571,15.0248571 C121.756571,19.9577143 125.770571,23.9725714 130.704286,23.9725714 C135.637143,23.9725714 139.652,19.9577143 139.652,15.0248571 C139.652,10.0902857 135.637143,6.07542857 130.704286,6.07542857 L130.704286,6.07542857 Z" id="info" sketch:type="MSShapeGroup"></path>
        </g>
    </g>
</svg>