<?xml version="1.0" encoding="UTF-8" standalone="no"?>
<svg width="41px" height="27px" viewBox="0 0 41 27" version="1.1" xmlns="http://www.w3.org/2000/svg" xmlns:xlink="http://www.w3.org/1999/xlink" xmlns:sketch="http://www.bohemiancoding.com/sketch/ns">
    <!-- Generator: Sketch Beta 3.0.4 (8156) - http://www.bohemiancoding.com/sketch -->
    <title>mail</title>
    <desc>Created with Sketch Beta.</desc>
    <defs></defs>
    <g id="Page-1" stroke="none" stroke-width="1" fill="none" fill-rule="evenodd" sketch:type="MSPage">
        <g id="icons" sketch:type="MSLayerGroup" transform="translate(-82.000000, -165.000000)" fill="#707070">
            <path d="M121.48144,165.462947 L83.6726354,165.462947 L83.3433765,165.462947 L82.3555997,165.462947 L82,165.462947 L82,191.803663 L123.157368,191.803663 L123.157368,165.462947 L121.733323,165.462947 L121.48144,165.462947 L121.48144,165.462947 Z M119.835146,167.109242 L103.935231,183.009157 C103.212508,183.735173 101.944861,183.735173 101.222137,183.009157 L85.3189302,167.109242 L119.835146,167.109242 L119.835146,167.109242 Z M83.6462947,167.764467 L94.3356864,178.452213 L83.6462947,189.141604 L83.6462947,167.764467 L83.6462947,167.764467 Z M84.9583916,190.157368 L95.5012631,179.617789 L100.058207,184.174733 C100.729895,184.846422 101.627126,185.218484 102.578684,185.218484 C103.530243,185.218484 104.427473,184.846422 105.099161,184.173087 L109.656105,179.616143 L120.195684,190.157368 L84.9583916,190.157368 L84.9583916,190.157368 Z M121.511074,189.144897 L110.820036,178.453859 L121.511074,167.761175 L121.511074,189.144897 L121.511074,189.144897 Z" id="mail" sketch:type="MSShapeGroup"></path>
        </g>
    </g>
</svg>