<?xml version="1.0" encoding="UTF-8" standalone="no"?>
<svg width="13px" height="19px" viewBox="0 0 13 19" version="1.1" xmlns="http://www.w3.org/2000/svg" xmlns:xlink="http://www.w3.org/1999/xlink" xmlns:sketch="http://www.bohemiancoding.com/sketch/ns">
    <!-- Generator: Sketch Beta 3.0.4 (8156) - http://www.bohemiancoding.com/sketch -->
    <title>mobile-small</title>
    <desc>Created with Sketch Beta.</desc>
    <defs></defs>
    <g id="Page-1" stroke="none" stroke-width="1" fill="none" fill-rule="evenodd" sketch:type="MSPage">
        <g id="icons" sketch:type="MSLayerGroup" transform="translate(-510.000000, -1.000000)" fill="#707070">
            <path d="M522.472727,21 L511.527273,21 C510.683455,21 510,20.3747059 510,19.6029412 L510,2.39705882 C510,1.62529412 510.683455,1 511.527273,1 L522.472727,1 C523.316545,1 524,1.62529412 524,2.39705882 L524,19.6029412 C524,20.3747059 523.316545,21 522.472727,21 L522.472727,21 Z M517,20.485433 C517.533246,20.485433 517.965152,20.0899101 517.965152,19.6029412 C517.965152,19.1159722 517.533246,18.7204493 517,18.7204493 C516.466754,18.7204493 516.034848,19.1159722 516.034848,19.6029412 C516.034848,20.0899101 516.466754,20.485433 517,20.485433 L517,20.485433 Z M519.8,2.17647059 L514.2,2.17647059 C513.989364,2.17647059 513.818182,2.55352941 513.818182,2.74647059 C513.818182,2.93941176 513.989364,3.35294118 514.2,3.35294118 L519.8,3.35294118 C520.010636,3.35294118 520.181818,2.93941176 520.181818,2.74647059 C520.181818,2.55352941 520.010636,2.17647059 519.8,2.17647059 L519.8,2.17647059 Z M522.189015,4.49294118 L511.810985,4.49294118 L511.810985,17.6666667 L522.189015,17.6666667 L522.189015,4.49294118 L522.189015,4.49294118 Z" id="mobile-small" sketch:type="MSShapeGroup"></path>
        </g>
    </g>
</svg>