<?xml version="1.0" encoding="UTF-8" standalone="no"?>
<svg width="44px" height="33px" viewBox="0 0 44 33" version="1.1" xmlns="http://www.w3.org/2000/svg" xmlns:xlink="http://www.w3.org/1999/xlink" xmlns:sketch="http://www.bohemiancoding.com/sketch/ns">
    <!-- Generator: Sketch Beta 3.0.4 (8156) - http://www.bohemiancoding.com/sketch -->
    <title>referrals</title>
    <desc>Created with Sketch Beta.</desc>
    <defs></defs>
    <g id="Page-1" stroke="none" stroke-width="1" fill="none" fill-rule="evenodd" sketch:type="MSPage">
        <g id="icons" sketch:type="MSLayerGroup" transform="translate(-387.000000, -159.000000)" fill="#707070">
            <path d="M411.694421,191.157368 L411.694421,179.633305 L413.340716,179.633305 L413.340716,189.511074 L429.803663,189.511074 L429.803663,161.524063 L413.340716,161.524063 L413.340716,171.401832 L411.694421,171.401832 L411.694421,159.877768 L431.449958,159.877768 L431.449958,191.157368 L411.694421,191.157368 L411.694421,191.157368 Z M398.524063,174.694421 L424.583262,174.694421 L418.20387,168.315029 L419.367801,167.151099 L427.734271,175.517568 L419.367801,183.884038 L418.20387,182.720108 L424.583262,176.340716 L398.524063,176.340716 L398.524063,174.694421 L398.524063,174.694421 Z M405.109242,161.524063 L388.646295,161.524063 L388.646295,189.511074 L405.109242,189.511074 L405.109242,179.633305 L406.755537,179.633305 L406.755537,191.157368 L387,191.157368 L387,159.877768 L406.755537,159.877768 L406.755537,171.401832 L405.109242,171.401832 L405.109242,161.524063 L405.109242,161.524063 Z" id="referrals" sketch:type="MSShapeGroup"></path>
        </g>
    </g>
</svg>