<?xml version="1.0" encoding="UTF-8" standalone="no"?>
<svg width="592px" height="5px" viewBox="0 0 592 5" version="1.1" xmlns="http://www.w3.org/2000/svg" xmlns:xlink="http://www.w3.org/1999/xlink" xmlns:sketch="http://www.bohemiancoding.com/sketch/ns">
    <!-- Generator: Sketch Beta 3.0.4 (8156) - http://www.bohemiancoding.com/sketch -->
    <title>dotted line</title>
    <desc>Created with Sketch Beta.</desc>
    <defs></defs>
    <g id="Data-Visualization-elements-" stroke="none" stroke-width="1" fill="none" fill-rule="evenodd" sketch:type="MSPage">
        <g id="Data-Visualization-Elements" sketch:type="MSArtboardGroup" transform="translate(-2334.000000, -1489.000000)" fill="#707070">
            <g id="lines" sketch:type="MSLayerGroup" transform="translate(2334.000000, 1489.000000)">
                <g id="dotted-line" sketch:type="MSShapeGroup">
                    <circle id="Oval-118" cx="303" cy="3" r="3"></circle>
                    <circle id="Oval-118" cx="316.048284" cy="3" r="3"></circle>
                    <circle id="Oval-119" cx="329.048284" cy="3" r="3"></circle>
                    <circle id="Oval-120" cx="342.048284" cy="3" r="3"></circle>
                    <circle id="Oval-121" cx="355.048284" cy="3" r="3"></circle>
                    <circle id="Oval-122" cx="368.048284" cy="3" r="3"></circle>
                    <circle id="Oval-123" cx="381.048284" cy="3" r="3"></circle>
                    <circle id="Oval-124" cx="394.048284" cy="3" r="3"></circle>
                    <circle id="Oval-125" cx="407.048284" cy="3" r="3"></circle>
                    <circle id="Oval-126" cx="420.048284" cy="3" r="3"></circle>
                    <circle id="Oval-127" cx="433.048284" cy="3" r="3"></circle>
                    <circle id="Oval-128" cx="446.048284" cy="3" r="3"></circle>
                    <circle id="Oval-129" cx="459.048284" cy="3" r="3"></circle>
                    <circle id="Oval-130" cx="472.048284" cy="3" r="3"></circle>
                    <circle id="Oval-131" cx="485.048284" cy="3" r="3"></circle>
                    <circle id="Oval-132" cx="498.048284" cy="3" r="3"></circle>
                    <circle id="Oval-133" cx="511.048284" cy="3" r="3"></circle>
                    <circle id="Oval-134" cx="524.048284" cy="3" r="3"></circle>
                    <circle id="Oval-135" cx="537.048284" cy="3" r="3"></circle>
                    <circle id="Oval-136" cx="550.048284" cy="3" r="3"></circle>
                    <circle id="Oval-137" cx="563.048284" cy="3" r="3"></circle>
                    <circle id="Oval-138" cx="576.048284" cy="3" r="3"></circle>
                    <circle id="Oval-139" cx="589.048284" cy="3" r="3"></circle>
                    <circle id="Oval-118" cx="3" cy="3" r="3"></circle>
                    <circle id="Oval-118" cx="16.0482838" cy="3" r="3"></circle>
                    <circle id="Oval-119" cx="29.0482838" cy="3" r="3"></circle>
                    <circle id="Oval-120" cx="42.0482838" cy="3" r="3"></circle>
                    <circle id="Oval-121" cx="55.0482838" cy="3" r="3"></circle>
                    <circle id="Oval-122" cx="68.0482838" cy="3" r="3"></circle>
                    <circle id="Oval-123" cx="81.0482838" cy="3" r="3"></circle>
                    <circle id="Oval-124" cx="94.0482838" cy="3" r="3"></circle>
                    <circle id="Oval-125" cx="107.048284" cy="3" r="3"></circle>
                    <circle id="Oval-126" cx="120.048284" cy="3" r="3"></circle>
                    <circle id="Oval-127" cx="133.048284" cy="3" r="3"></circle>
                    <circle id="Oval-128" cx="146.048284" cy="3" r="3"></circle>
                    <circle id="Oval-129" cx="159.048284" cy="3" r="3"></circle>
                    <circle id="Oval-130" cx="172.048284" cy="3" r="3"></circle>
                    <circle id="Oval-131" cx="185.048284" cy="3" r="3"></circle>
                    <circle id="Oval-132" cx="198.048284" cy="3" r="3"></circle>
                    <circle id="Oval-133" cx="211.048284" cy="3" r="3"></circle>
                    <circle id="Oval-134" cx="224.048284" cy="3" r="3"></circle>
                    <circle id="Oval-135" cx="237.048284" cy="3" r="3"></circle>
                    <circle id="Oval-136" cx="250.048284" cy="3" r="3"></circle>
                    <circle id="Oval-137" cx="263.048284" cy="3" r="3"></circle>
                    <circle id="Oval-138" cx="276.048284" cy="3" r="3"></circle>
                    <circle id="Oval-139" cx="289.048284" cy="3" r="3"></circle>
                </g>
            </g>
        </g>
    </g>
</svg>