<?xml version="1.0" encoding="UTF-8" standalone="no"?>
<svg width="272px" height="275px" viewBox="0 0 272 275" version="1.1" xmlns="http://www.w3.org/2000/svg" xmlns:xlink="http://www.w3.org/1999/xlink" xmlns:sketch="http://www.bohemiancoding.com/sketch/ns">
    <!-- Generator: Sketch Beta 3.0.4 (8156) - http://www.bohemiancoding.com/sketch -->
    <title>hollow pie stacked</title>
    <desc>Created with Sketch Beta.</desc>
    <defs>
        <filter x="-50%" y="-50%" width="200%" height="200%" filterUnits="objectBoundingBox" id="filter-1">
            <feOffset dx="0" dy="2" in="SourceAlpha" result="shadowOffsetOuter1"></feOffset>
            <feGaussianBlur stdDeviation="2" in="shadowOffsetOuter1" result="shadowBlurOuter1"></feGaussianBlur>
            <feColorMatrix values="0 0 0 0 0   0 0 0 0 0   0 0 0 0 0  0 0 0 0.35 0" in="shadowBlurOuter1" type="matrix" result="shadowMatrixOuter1"></feColorMatrix>
            <feMerge>
                <feMergeNode in="shadowMatrixOuter1"></feMergeNode>
                <feMergeNode in="SourceGraphic"></feMergeNode>
            </feMerge>
        </filter>
        <path d="M131,262 C203.349302,262 262,203.349302 262,131 C262,58.6506978 203.349302,0 131,0 C58.6506978,0 0,58.6506978 0,131 C0,203.349302 58.6506978,262 131,262 Z M131.5,256 C200.259451,256 256,200.259451 256,131.5 C256,62.7405486 200.259451,7 131.5,7 C62.7405486,7 7,62.7405486 7,131.5 C7,200.259451 62.7405486,256 131.5,256 Z" id="path-2"></path>
        <filter x="-50%" y="-50%" width="200%" height="200%" filterUnits="objectBoundingBox" id="filter-4">
            <feOffset dx="0" dy="2" in="SourceAlpha" result="shadowOffsetOuter1"></feOffset>
            <feGaussianBlur stdDeviation="2" in="shadowOffsetOuter1" result="shadowBlurOuter1"></feGaussianBlur>
            <feColorMatrix values="0 0 0 0 0   0 0 0 0 0   0 0 0 0 0  0 0 0 0.35 0" in="shadowBlurOuter1" type="matrix" result="shadowMatrixOuter1"></feColorMatrix>
            <feMerge>
                <feMergeNode in="shadowMatrixOuter1"></feMergeNode>
                <feMergeNode in="SourceGraphic"></feMergeNode>
            </feMerge>
        </filter>
        <path d="M138.5,277 C214.991438,277 277,214.991438 277,138.5 C277,62.0085622 214.991438,0 138.5,0 C62.0085622,0 0,62.0085622 0,138.5 C0,214.991438 62.0085622,277 138.5,277 Z M139.5,256 C203.841173,256 256,203.841173 256,139.5 C256,75.1588266 203.841173,23 139.5,23 C75.1588266,23 23,75.1588266 23,139.5 C23,203.841173 75.1588266,256 139.5,256 Z" id="path-5"></path>
        <filter x="-50%" y="-50%" width="200%" height="200%" filterUnits="objectBoundingBox" id="filter-7">
            <feOffset dx="0" dy="2" in="SourceAlpha" result="shadowOffsetOuter1"></feOffset>
            <feGaussianBlur stdDeviation="2" in="shadowOffsetOuter1" result="shadowBlurOuter1"></feGaussianBlur>
            <feColorMatrix values="0 0 0 0 0   0 0 0 0 0   0 0 0 0 0  0 0 0 0.35 0" in="shadowBlurOuter1" type="matrix" result="shadowMatrixOuter1"></feColorMatrix>
            <feMerge>
                <feMergeNode in="shadowMatrixOuter1"></feMergeNode>
                <feMergeNode in="SourceGraphic"></feMergeNode>
            </feMerge>
        </filter>
        <path d="M138.5,277 C214.991438,277 277,214.991438 277,138.5 C277,62.0085622 214.991438,0 138.5,0 C62.0085622,0 0,62.0085622 0,138.5 C0,214.991438 62.0085622,277 138.5,277 Z M140,229 C189.153343,229 229,189.153343 229,140 C229,90.8466573 189.153343,51 140,51 C90.8466573,51 51,90.8466573 51,140 C51,189.153343 90.8466573,229 140,229 Z" id="path-8"></path>
        <filter x="-50%" y="-50%" width="200%" height="200%" filterUnits="objectBoundingBox" id="filter-10">
            <feOffset dx="0" dy="2" in="SourceAlpha" result="shadowOffsetOuter1"></feOffset>
            <feGaussianBlur stdDeviation="2" in="shadowOffsetOuter1" result="shadowBlurOuter1"></feGaussianBlur>
            <feColorMatrix values="0 0 0 0 0   0 0 0 0 0   0 0 0 0 0  0 0 0 0.0787024457 0" in="shadowBlurOuter1" type="matrix" result="shadowMatrixOuter1"></feColorMatrix>
            <feMerge>
                <feMergeNode in="shadowMatrixOuter1"></feMergeNode>
                <feMergeNode in="SourceGraphic"></feMergeNode>
            </feMerge>
        </filter>
        <filter x="-50%" y="-50%" width="200%" height="200%" filterUnits="objectBoundingBox" id="filter-11">
            <feOffset dx="0" dy="1" in="SourceAlpha" result="shadowOffsetOuter1"></feOffset>
            <feGaussianBlur stdDeviation="1.5" in="shadowOffsetOuter1" result="shadowBlurOuter1"></feGaussianBlur>
            <feColorMatrix values="0 0 0 0 0   0 0 0 0 0   0 0 0 0 0  0 0 0 0.35 0" in="shadowBlurOuter1" type="matrix" result="shadowMatrixOuter1"></feColorMatrix>
            <feMerge>
                <feMergeNode in="shadowMatrixOuter1"></feMergeNode>
                <feMergeNode in="SourceGraphic"></feMergeNode>
            </feMerge>
        </filter>
    </defs>
    <g id="Data-Visualization-elements-" stroke="none" stroke-width="1" fill="none" fill-rule="evenodd" sketch:type="MSPage">
        <g id="Data-Visualization-Elements" sketch:type="MSArtboardGroup" transform="translate(-691.000000, -1279.000000)">
            <g id="Pies" sketch:type="MSLayerGroup" transform="translate(64.000000, 1279.000000)">
                <g id="hollow-pie-stacked" transform="translate(622.000000, 0.000000)">
                    <g id="hollow-pie-shape-2" transform="translate(9.000000, 8.000000)">
                        <mask id="mask-3" sketch:name="Mask" fill="white">
                            <use xlink:href="#path-2"></use>
                        </mask>
                        <use id="Mask" opacity="0.133803638" fill="#FFFFFF" filter="url(#filter-1)" sketch:type="MSShapeGroup" xlink:href="#path-2"></use>
                    </g>
                    <g id="hollow-pie-shape" transform="translate(1.000000, 0.000000)">
                        <mask id="mask-6" sketch:name="Mask" fill="white">
                            <use xlink:href="#path-5"></use>
                        </mask>
                        <use id="Mask" opacity="0" fill="#FFFFFF" filter="url(#filter-4)" sketch:type="MSShapeGroup" xlink:href="#path-5"></use>
                        <path d="M141.5,-26 L141.5,139.527188 L200,295.5 L380.5,171 L319.5,-7 L141.5,-26 Z" id="Path-298" fill="#FFFFFF" sketch:type="MSShapeGroup" mask="url(#mask-6)"></path>
                    </g>
                    <g id="hollow-pie-shape-2" transform="translate(1.000000, 0.000000)">
                        <mask id="mask-9" sketch:name="Mask" fill="white">
                            <use xlink:href="#path-8"></use>
                        </mask>
                        <use id="Mask" opacity="0" fill="#FFFFFF" filter="url(#filter-7)" sketch:type="MSShapeGroup" xlink:href="#path-8"></use>
                        <path d="M217.5,-43 L141.5,139.527188 L366,139.527191 L380.5,171 L322.5,-19.5 L217.5,-43 Z" id="Path-298" opacity="0.671408582" fill="#FFFFFF" sketch:type="MSShapeGroup" mask="url(#mask-9)"></path>
                    </g>
                    <text id="3,200" fill="white" filter="url(#filter-10)" sketch:type="MSTextLayer" font-family="Open Sans" font-size="58" font-weight="260" sketch:alignment="middle">
                        <tspan x="66.0566406" y="150" fill="#FFFFFF">3,200</tspan>
                    </text>
                    <text id="Hollow-label" opacity="0.899999976" fill="white" filter="url(#filter-11)" sketch:type="MSTextLayer" font-family="Open Sans" font-size="19" font-weight="526" sketch:alignment="middle">
                        <tspan x="82.0334473" y="180" fill="#FFFFFF">Hollow label</tspan>
                    </text>
                </g>
            </g>
        </g>
    </g>
</svg>