<?xml version="1.0" encoding="utf-8"?>
<!-- Generator: Adobe Illustrator 17.1.0, SVG Export Plug-In . SVG Version: 6.00 Build 0)  -->
<!DOCTYPE svg PUBLIC "-//W3C//DTD SVG 1.1//EN" "http://www.w3.org/Graphics/SVG/1.1/DTD/svg11.dtd">
<svg version="1.1" id="angel" xmlns="http://www.w3.org/2000/svg" xmlns:xlink="http://www.w3.org/1999/xlink" x="0px" y="0px"
	 viewBox="0 0 74.9995 75" enable-background="new 0 0 74.9995 75" xml:space="preserve">
<g id="angel-angel">
	<circle id="angel-label" fill="#434A54" cx="37.4997" cy="37.5" r="37.4998"/>
	<g id="angel-angel_1_">
		<path fill="#AAB2BC" d="M23.4438,45.3652l-1.2944-2.8691l1.2822,0.1758c-0.4477-0.7012-0.7588-1.4707-0.7597-2.3262
			c-0.002-0.0303-0.002-0.0645,0.0009-0.0986c0-0.0469-0.0009-0.0948,0.002-0.1397c0.0898-1.3428,0.9419-2.393,1.8247-3.2041
			c0.021-0.1328,0.0483-0.2803,0.0791-0.4424c-6.8081-1.6831-10.666,3.1914-13.4009,6.0557c0,0-5.2944,5.8994,3.7832,2.873
			c0,0-3.0244,7.4141,5.2949,1.8145c0,0-3.4809,6.959,3.7813,2.1201c0,0,2.477-0.2451,5.2417-0.2265
			c-0.8101-0.6202-1.5391-1.3545-2.1777-2.1729c-0.2867,0.0742-0.5909,0.1172-0.9068,0.1172
			C24.9634,47.042,23.9092,46.3994,23.4438,45.3652z"/>
		<path fill="#AAB2BC" d="M63.8208,42.5166c-2.71-2.8418-6.5293-7.6621-13.2334-6.0962c0.0039,0.1851-0.0039,0.376-0.0039,0.5659
			c0.0371,0.2891,0.0644,0.5835,0.0849,0.8809c1.502,0.1172,2.5918,1.208,2.6416,2.6455c0,0.0068,0,0.0137,0,0.0205
			c0.002,0.0342,0.004,0.0654,0.004,0.0967c0,0.0322-0.0079,0.0566-0.0079,0.0879c-0.0039,0.0273-0.0039,0.0566-0.0097,0.084
			c-0.0811,1.2919-1.0166,2.6552-2.5576,3.1787l0.4921,0.4424c0.3721,0.1064,0.7969,0.039,1.1895-0.3448
			c0,0-0.333,0.4209-0.7939,0.7051l0.4179,0.3789c-0.2148,0.2686-1.3623,1.6182-2.9316,1.6182
			c-0.2363,0-0.5508-0.0323-0.8916-0.1494c-0.6885,0.9384-1.4922,1.7714-2.3955,2.4638c2.7187-0.0107,5.1357,0.2295,5.1357,0.2295
			c7.2598,4.8389,3.7793-2.1201,3.7793-2.1201c8.3223,5.5996,5.2988-1.8145,5.2988-1.8145
			C69.1157,48.416,63.8208,42.5166,63.8208,42.5166z"/>
		<path fill="#FFFFFF" d="M46.0737,41.3711c-1.7715-0.79-4.1806-2.3018-5.8066-4.4775c-1.4473,1.2421-3.7188,2.7998-6.4951,3.3623
			l-0.5879,0.1201c-1.4326,0.2881-3.8833,0.7754-5.0381,1.2685c1.459,1.5528,1.2461,2.8867,0.9746,3.5655
			c-0.1636,0.4091-0.4263,0.7666-0.7559,1.0517c0.7383,1.0938,1.6348,2.0537,2.6543,2.836c1.8501,1.415,4.1021,2.248,6.5342,2.248
			c2.4326,0,4.6807-0.833,6.5322-2.251c1.1543-0.8857,2.1534-1.999,2.9414-3.2793c-0.205-0.2295-0.3994-0.5088-0.5732-0.8554
			C45.6089,43.2959,45.5737,42.2041,46.0737,41.3711z"/>
		<path fill="#FFCE54" d="M49.479,42.458c2.2148-0.0947,2.8623-2.7646,1.0176-2.8603c-0.1182-0.004-0.2256-0.0215-0.3282-0.042
			c-0.0322-0.0049-0.0595-0.0157-0.0927-0.0225c-0.0635-0.0186-0.128-0.0342-0.1895-0.0547
			c-0.0293-0.0137-0.0566-0.0273-0.0879-0.04c-0.0478-0.0254-0.1045-0.0479-0.1533-0.0772
			c-0.0225-0.0136-0.0439-0.0322-0.0674-0.0488c-0.0449-0.0293-0.0908-0.0596-0.1318-0.0908
			c-0.0195-0.0156-0.0352-0.0352-0.0527-0.0537c-0.0381-0.0342-0.0791-0.0752-0.1143-0.1123
			c-0.0098-0.0166-0.0205-0.0342-0.0342-0.0479c-0.0332-0.0459-0.0703-0.0898-0.0996-0.1377
			c-0.0068-0.0117-0.0127-0.0254-0.0185-0.039c-0.0293-0.0489-0.0625-0.1026-0.086-0.1543
			c-0.0039-0.0088-0.0058-0.0186-0.0097-0.0225c-0.0245-0.0596-0.0479-0.1172-0.0694-0.1768v-0.0019c0,0,0,0,0-0.0015
			c-0.1689-0.4966-0.126-0.9741-0.126-0.9741c0.0079-0.1782,0.0039-0.3452,0.0039-0.5186l0,0
			c0.002-0.1909-0.0078-0.372-0.0117-0.5561c-0.1025-4.3721-2.0371-6.8096-4.1064-8.1641
			c-0.0254-0.0136-0.0508-0.0302-0.0742-0.0454c-0.1358-0.0835-0.2696-0.167-0.4034-0.2446
			c-0.0654-0.0357-0.1298-0.0693-0.1933-0.1045c-0.0947-0.0522-0.1924-0.1064-0.2891-0.1538
			c-0.1621-0.0825-0.3252-0.1582-0.4844-0.23c0.254-0.3237,0.3975-0.6743,0.3975-1.0483c0-1.5371-2.4092-2.7803-5.3809-2.7803
			c-2.9716,0-5.3798,1.2432-5.3798,2.7803c0,0.0796,0.0058,0.1577,0.0205,0.2353c0.0092,0.062,0.0268,0.1211,0.0434,0.1792
			c0.0049,0.0166,0.0069,0.0322,0.0127,0.0484c0.0493,0.1504,0.124,0.2959,0.2158,0.4365l0,0
			c0.0049,0.0049,0.0059,0.0102,0.0108,0.0132c-0.1773,0.0747-0.3477,0.1523-0.5156,0.2339
			c-0.0454,0.0229-0.0977,0.0463-0.1421,0.0703h-0.002c-0.2055,0.104-0.4033,0.2124-0.5962,0.3237
			c-0.0283,0.0166-0.0542,0.0342-0.0805,0.0508c-0.1646,0.0976-0.3272,0.1992-0.4815,0.3071
			c-0.0332,0.0191-0.0649,0.0444-0.0976,0.0669c-0.1504,0.1045-0.2969,0.21-0.4385,0.3208
			c-0.0269,0.0239-0.0581,0.0464-0.0879,0.0693c-0.1465,0.1177-0.2852,0.2369-0.4253,0.3579
			c-0.0176,0.0162-0.0381,0.0328-0.0542,0.0484c-0.6406,0.5786-1.1807,1.2085-1.6377,1.8603
			c-0.0146,0.0157-0.0264,0.0362-0.0391,0.0557c-1.3662,1.9639-1.9961,4.0957-2.2734,5.4102
			c-0.0049,0.0131-0.0068,0.0288-0.0107,0.0444c-0.1568,0.7461-0.1963,1.2187-0.1963,1.2187
			c-2.3067,1.9078-2.2144,3.0513-0.2764,5.148c1.936,2.1025-0.8315,1.7168-0.8315,1.7168c0.0244,0.0547,0.0512,0.0986,0.0835,0.1465
			c0.0087,0.0117,0.0195,0.0254,0.0278,0.039c0.0225,0.0284,0.0488,0.0606,0.0737,0.0879c0.0137,0.0157,0.0254,0.0244,0.0381,0.0362
			c0.0288,0.0283,0.0601,0.0556,0.0908,0.0781c0.0039,0,0.0049,0.0049,0.0069,0.0049c0.1474-0.0967,0.2705-0.2207,0.3564-0.3701
			c0.1001,0.2099,0.2085,0.4179,0.3179,0.6152c0.0029,0.0049,0.0068,0.0049,0.0097,0.0049c0,0,0.001,0,0.004,0
			c0.1191,0.0117,0.2431,0.0088,0.3623-0.0069c0.0068,0,0.0117,0,0.0156,0c0.0581-0.0068,0.1152-0.0205,0.1723-0.0341
			c0,0,0.001,0,0.0049,0c0.3599-0.0831,0.6851-0.2784,0.854-0.5791l0,0c0.2617-0.459,0.1548-1.1495-0.7568-2.0235
			c-0.0107-0.0088-0.0186-0.0205-0.0283-0.0273l0,0c0-0.002-0.001-0.002-0.002-0.0049c-0.0869-0.085-0.1616-0.166-0.2275-0.2451
			c-0.0127-0.0137-0.0244-0.0264-0.0342-0.0401c-0.0561-0.0703-0.1074-0.1347-0.1479-0.2031
			c-0.0088-0.0137-0.0186-0.0273-0.0284-0.042c-0.0415-0.0683-0.0757-0.1377-0.1045-0.2041
			c-0.0029-0.0088-0.0087-0.0156-0.0107-0.0224c-0.062-0.1504-0.0884-0.292-0.0806-0.4317c0-0.0068,0.001-0.0137,0.0039-0.0234
			c0.0039-0.0586,0.0127-0.1143,0.0293-0.1709c0.0039-0.0117,0.0078-0.0264,0.0118-0.0381c0.018-0.0518,0.0395-0.1026,0.0668-0.1514
			c0.0054-0.0137,0.0113-0.0273,0.0191-0.0361c0.0342-0.0576,0.0718-0.1123,0.1162-0.169c0,0,0.001-0.0029,0.0049-0.0039
			c0,0,0,0,0,0.001c0.9238-1.0996,4.2114-1.6943,7.1479-2.2861c4.2432-0.8618,7.2256-4.4805,7.2256-4.4805
			c1.5039,3.8125,6.5196,6.1006,7.5352,6.1973c0.2734,0.0244,0.5371,0.0586,0.7558,0.1054
			c0.0274,0.0049,0.0508,0.0118,0.0772,0.0186c0.0195,0.0039,0.0371,0.0088,0.0566,0.0156
			c0.0215,0.0069,0.0449,0.0117,0.0655,0.0205c0.0156,0.0069,0.0332,0.0088,0.0488,0.0157c0.0332,0.0136,0.0644,0.0244,0.0928,0.04
			c0.0078,0.002,0.0136,0.0088,0.0253,0.0137c0.0176,0.0117,0.0372,0.0205,0.0528,0.0361c0.0097,0.0049,0.0176,0.0117,0.0254,0.0186
			c0.0146,0.0117,0.0244,0.0224,0.0361,0.0351c0.0039,0.0088,0.0117,0.0156,0.0156,0.0225c0.0117,0.0205,0.0215,0.039,0.0274,0.0615
			c0,0.0049-0.0039,0.0088,0,0.0117c0.0019,0.0176,0,0.0401-0.0059,0.0606c0,0.0068-0.0039,0.0175-0.0078,0.0244
			c-0.0059,0.0156-0.0137,0.039-0.0254,0.0595c-0.0039,0.0088-0.0078,0.0127-0.0137,0.0235
			c-0.0214,0.0273-0.042,0.0596-0.0732,0.0908c0,0.0029-0.002,0.0029-0.0039,0.0068c-0.0313,0.0284-0.0664,0.0606-0.1045,0.0928
			c-0.0117,0.0137-0.0254,0.0225-0.041,0.0332c-0.0332,0.0264-0.0713,0.0537-0.1143,0.083
			c-0.0136,0.0098-0.0293,0.0235-0.0468,0.0342c-0.0577,0.0381-0.1221,0.0811-0.1954,0.1221
			c-1.2617,0.748-1.8164,0.8584-0.8916,2.7314l0,0c0.0196,0.043,0.0391,0.083,0.0606,0.1299
			c0.3584,0.7051,0.7939,0.8955,1.209,0.8564c0.1045-0.1953,0.2011-0.3964,0.2949-0.6035
			C48.4751,44.1553,47.8472,42.5273,49.479,42.458z"/>
		<g>
			<path fill="#E9573F" d="M39.8696,47.335c-0.2773,0.4082-0.917,0.7295-1.4199,0.7773h-0.5933
				c-0.5048-0.0478-1.0996-0.3223-1.375-0.7353c-0.2729-0.4092-0.6386-0.6387-0.6386-0.6387s1.601-0.1377,2.103,0.1387
				c0,0,0.4585-0.2325,0.6855,0c0,0,1.2383-0.3702,1.878-0.1846C40.5093,46.6924,40.1431,46.9199,39.8696,47.335z"/>
			<path fill="#E9573F" d="M38.6099,46.1426l-0.3868,0.2051l-0.3667-0.2051c-0.436,0.0478-1.4882,0.5957-2.1298,0.5957
				c0,0,0.413-0.3906,0.7104-0.6885c0.187-0.1865,0.4805-0.7519,1.2124-0.8926c0,0,0.2964-0.0224,0.5737,0.208
				c0.2266-0.2304,0.6856-0.2304,0.6856-0.2304c0.5947,0.0927,0.9609,0.6875,1.0967,0.915
				c0.1865,0.3076,0.5927,0.6182,0.5927,0.6182C39.6157,46.624,38.7241,46.0498,38.6099,46.1426z"/>
		</g>
	</g>
</g>
</svg>
