<?xml version="1.0" encoding="utf-8"?>
<!-- Generator: Adobe Illustrator 17.1.0, SVG Export Plug-In . SVG Version: 6.00 Build 0)  -->
<!DOCTYPE svg PUBLIC "-//W3C//DTD SVG 1.1//EN" "http://www.w3.org/Graphics/SVG/1.1/DTD/svg11.dtd">
<svg version="1.1" id="bells" xmlns="http://www.w3.org/2000/svg" xmlns:xlink="http://www.w3.org/1999/xlink" x="0px" y="0px"
	 viewBox="0 0 74.9995 74.9995" enable-background="new 0 0 74.9995 74.9995" xml:space="preserve">
<g id="bells-bells">
	<circle id="bells-label" fill="#434A54" cx="37.4997" cy="37.5" r="37.4998"/>
	<g id="bells-bells_1_">
		<path fill="#A0D468" d="M50.2788,26.4033v-1.9697c0-2.3413-1.9004-4.2417-4.2461-4.2417c-2.3428,0-4.2441,1.9004-4.2441,4.2417
			v1.9429c-2.6573,1.0224-4.8496,2.9804-6.1802,5.4711c3.9956,1.877,6.7671,5.9297,6.7671,10.6382
			c0,1.9932-0.502,3.8633-1.376,5.5069c1.2402,0.583,2.5938,0.9629,4.0254,1.081v-9.4424c-0.8818-0.3838-1.5-1.2573-1.5-2.2739
			c0-1.3672,1.1025-2.4766,2.4726-2.4766c1.3672,0,2.4756,1.1094,2.4756,2.4766c0,0.9898-0.5879,1.8345-1.4267,2.229v9.4834
			c6.0078-0.5332,10.7177-5.5664,10.7177-11.7124C57.7641,32.3706,54.6577,28.1157,50.2788,26.4033z M48.1802,25.7969
			c-0.7071-0.1309-1.4336-0.2076-2.1827-0.2076c-0.7207,0-1.4238,0.0748-2.1064,0.1958V24.979c0-1.1831,0.958-2.1436,2.1455-2.1436
			c1.1807,0,2.1436,0.9605,2.1436,2.1436V25.7969z"/>
		<path fill="#FFCE54" d="M34.0029,32.4492c-0.2368-0.1123-0.4751-0.2158-0.7221-0.311v-1.9717
			c0-2.3413-1.8965-4.2456-4.2408-4.2456c-2.3447,0-4.2461,1.9043-4.2461,4.2456v1.9409c-4.416,1.6939-7.5595,5.9673-7.5595,10.9839
			c0,6.165,4.7534,11.2168,10.7915,11.7148v-9.4453c-0.8809-0.3759-1.4995-1.2558-1.4995-2.2695
			c0-1.3711,1.1079-2.4775,2.4731-2.4775c1.3672,0,2.4741,1.1064,2.4741,2.4775c0,0.9844-0.5864,1.8311-1.4238,2.2285v9.4824
			c4.0605-0.3584,7.522-2.7802,9.3433-6.205c0.874-1.6436,1.3759-3.5157,1.3759-5.5059
			C40.769,38.3789,37.9971,34.331,34.0029,32.4492z M31.1855,31.5327c-0.708-0.1357-1.437-0.2124-2.186-0.2124
			c-0.7168,0-1.4204,0.0767-2.1074,0.2007v-0.8111c0-1.1831,0.9619-2.1435,2.1479-2.1435c1.1807,0,2.1455,0.9604,2.1455,2.1435
			V31.5327z"/>
	</g>
</g>
</svg>
