<?xml version="1.0" encoding="utf-8"?>
<!-- Generator: Adobe Illustrator 17.1.0, SVG Export Plug-In . SVG Version: 6.00 Build 0)  -->
<!DOCTYPE svg PUBLIC "-//W3C//DTD SVG 1.1//EN" "http://www.w3.org/Graphics/SVG/1.1/DTD/svg11.dtd">
<svg version="1.1" id="calendar-2" xmlns="http://www.w3.org/2000/svg" xmlns:xlink="http://www.w3.org/1999/xlink" x="0px" y="0px"
	 viewBox="0 0 75 75" enable-background="new 0 0 75 75" xml:space="preserve">
<g id="calendar-2-calendar-2">
	<circle id="calendar-2-label" fill="#434A54" cx="37.5" cy="37.5" r="37.5"/>
	<g id="calendar-2-calendar-2_1_">
		<g>
			<path fill="#A0D468" d="M56.2061,24.228v4.7764v0.1562v25.2261c0,1.6279-1.3428,2.959-2.9571,2.959H21.7539
				c-1.6172,0-2.9604-1.3428-2.9604-2.959V29.1606v-0.1562V24.228c0-1.624,1.3335-2.9604,2.9604-2.9604h4.0576v0.4863
				c-0.3139,0.4478-0.4961,0.9932-0.4961,1.5806c0,1.5215,1.2325,2.7558,2.7539,2.7558c1.5235,0,2.7578-1.2343,2.7578-2.7558
				c0-0.5874-0.1831-1.1328-0.497-1.5806v-0.4863h14.3428v0.4863c-0.3135,0.4478-0.4981,0.9932-0.4981,1.5806
				c0,1.5215,1.2344,2.7558,2.7568,2.7558c1.5225,0,2.7588-1.2343,2.7588-2.7558c0-0.5874-0.1836-1.1328-0.498-1.5806v-0.4863
				h4.0566C54.877,21.2676,56.2061,22.6001,56.2061,24.228z"/>
			<path fill="#FFFFFF" d="M53.8926,29.1606H21.1113v24.4048c0,0.8047,0.6621,1.4649,1.4663,1.4649h29.8472
				c0.8066,0,1.4678-0.6602,1.4678-1.4649V29.1606z"/>
		</g>
		<path fill="#FFCE54" d="M26.6157,22.8687v-3.7603c0-0.7983,0.6533-1.4546,1.4536-1.4546c0.8013,0,1.4566,0.6553,1.4566,1.4546
			v3.7603c0,0.7993-0.6563,1.4541-1.4566,1.4541C27.271,24.3228,26.6157,23.667,26.6157,22.8687z"/>
		<path fill="#FFCE54" d="M46.9316,24.3228c0.7979,0,1.4551-0.6548,1.4551-1.4541v-3.7603c0-0.7993-0.6533-1.4546-1.4551-1.4546
			c-0.8017,0-1.4521,0.6563-1.4521,1.4546v3.7603C45.4795,23.667,46.1318,24.3228,46.9316,24.3228z"/>
		<path fill="#FC6E51" d="M37.6191,41.123h1.3594v-9.5058H38.063c-0.2075,0.6391-0.4439,1.1953-1.4951,1.1953v1.0596h1.0512V41.123z
			 M33.0635,50.2275V43.084h-1.3604v7.2519c0,0.7334-0.3447,0.9102-0.7793,0.9102c-0.1489,0-0.3193,0-0.4687-0.0147v1.3584
			c0.2226,0.0274,0.4072,0.0274,0.6562,0.0274C32.1353,52.6172,33.0635,52.1289,33.0635,50.2275z M35.4941,52.5898h-1.248
			l1.3857-9.5058h1.9893l1.3809,9.5058h-1.3711l-0.2344-1.7246h-1.668L35.4941,52.5898z M35.9009,49.5752h1.3105l-0.6533-4.8076
			L35.9009,49.5752z M41.458,45.7061l1.6943,6.8837h1.3956V43.084h-1.211v5.6894l-1.3974-5.6894h-1.7071v9.5058h1.2256V45.7061z"/>
	</g>
</g>
</svg>
