<?xml version="1.0" encoding="utf-8"?>
<!-- Generator: Adobe Illustrator 17.1.0, SVG Export Plug-In . SVG Version: 6.00 Build 0)  -->
<!DOCTYPE svg PUBLIC "-//W3C//DTD SVG 1.1//EN" "http://www.w3.org/Graphics/SVG/1.1/DTD/svg11.dtd">
<svg version="1.1" id="calendar" xmlns="http://www.w3.org/2000/svg" xmlns:xlink="http://www.w3.org/1999/xlink" x="0px" y="0px"
	 viewBox="0 0 75 75" enable-background="new 0 0 75 75" xml:space="preserve">
<g id="calendar-calendar">
	<circle id="calendar-label" fill="#434A54" cx="37.5" cy="37.499" r="37.5"/>
	<g id="calendar-calendar_1_">
		<path fill-rule="evenodd" clip-rule="evenodd" fill="#FC6E51" d="M46.9307,17.6538h-0.002c-0.7969,0-1.4541,0.6553-1.4541,1.4546
			v3.7583c0,0.7993,0.6572,1.4541,1.4541,1.4541h0.002c0.7968,0,1.4521-0.6528,1.4521-1.4541v-3.7583
			C48.3828,18.3091,47.7314,17.6538,46.9307,17.6538L46.9307,17.6538z"/>
		<path fill-rule="evenodd" clip-rule="evenodd" fill="#A0D468" d="M18.7935,29.0044v0.1553v25.227
			c0,1.6143,1.3432,2.959,2.9594,2.959h31.4922c1.6182,0,2.961-1.333,2.961-2.959v-25.227v-0.1553V24.228
			c0-1.6279-1.3331-2.9594-2.961-2.9594h-4.0586v0.4834c0.3155,0.4477,0.4981,0.9941,0.4981,1.5805
			c0,1.5235-1.2325,2.7559-2.7559,2.7559c-1.5205,0-2.7568-1.2324-2.7568-2.7559c0-0.5864,0.1836-1.1328,0.498-1.5805v-0.4834
			H30.3276v0.4834c0.3155,0.4477,0.4981,0.9941,0.4981,1.5805c0,1.5235-1.2334,2.7559-2.7564,2.7559
			c-1.5234,0-2.7573-1.2324-2.7573-2.7559c0-0.5864,0.1836-1.1328,0.4976-1.5805v-0.4834h-4.0567
			c-1.6284,0-2.9594,1.3335-2.9594,2.9594V29.0044L18.7935,29.0044z"/>
		<path fill-rule="evenodd" clip-rule="evenodd" fill="#FFFFFF" d="M53.8867,29.1597v24.4057c0,0.8018-0.6611,1.4639-1.4638,1.4639
			H22.5776c-0.8061,0-1.4672-0.6621-1.4672-1.4639V29.1597H53.8867L53.8867,29.1597z"/>
		<path fill-rule="evenodd" clip-rule="evenodd" fill="#FC6E51" d="M28.0693,17.6538L28.0693,17.6538
			c-0.8007,0-1.4546,0.6553-1.4546,1.4546v3.7583c0,0.7993,0.6553,1.4541,1.4546,1.4541l0,0c0.7994,0,1.4556-0.6528,1.4556-1.4541
			v-3.7583C29.5249,18.3091,28.8687,17.6538,28.0693,17.6538L28.0693,17.6538z"/>
		<g>
			<path fill="#E9573F" d="M34.7021,32.7129c-0.4311,0-0.7026,0.2558-0.7026,0.9341v1.0215h-1.2856v-0.9234
				c0-1.5224,0.6914-2.3906,2.0254-2.3906c1.3335,0,2.0268,0.8682,2.0268,2.3906c0,3.1221-2.9526,4.1948-2.6938,5.8672h2.5708
				v1.3535h-3.9292v-1.164c0-2.7979,2.6928-3.2593,2.6928-6.0035C35.4067,32.9443,35.1343,32.7129,34.7021,32.7129z"/>
			<path fill="#E9573F" d="M39.4443,37.8994v0.8828c0,0.6768,0.2686,0.9219,0.7051,0.9219c0.4307,0,0.7012-0.2451,0.7012-0.9219
				v-2.0913c0-0.6782-0.2705-0.935-0.7012-0.935c-0.4365,0-0.7051,0.2568-0.7051,0.935v0.2857h-1.2861l0.2481-5.5137h3.582v1.3574
				h-2.3574l-0.1114,2.2705c0.2442-0.4497,0.6407-0.6948,1.1846-0.6948c1,0,1.5078,0.7725,1.5078,2.1728v2.1197
				c0,1.5185-0.6924,2.3896-2.0254,2.3896c-1.3379,0-2.0283-0.8711-2.0283-2.3896v-0.7891H39.4443z"/>
			<path fill="#E9573F" d="M30.1191,42.9297h2.1519c1.3574,0,2.0229,0.8262,2.0229,2.3506v4.8056
				c0,1.5215-0.6655,2.3487-2.0229,2.3487h-2.1519V42.9297z M31.481,44.2881v6.789h0.7651c0.4302,0,0.6914-0.2451,0.6914-0.9228
				v-4.9424c0-0.6797-0.2612-0.9238-0.6914-0.9238H31.481z"/>
			<path fill="#E9573F" d="M37.1338,46.9355H39v1.3575h-1.8662v2.7841h2.3486v1.3575h-3.707v-9.5049h3.707v1.3584h-2.3486V46.9355z"
				/>
			<path fill="#E9573F" d="M44.876,48.8896v1.2647c0,1.5215-0.6914,2.3877-2.0235,2.3877c-1.333,0-2.0273-0.8662-2.0273-2.3877
				v-4.9424c0-1.5224,0.6943-2.3935,2.0273-2.3935c1.3321,0,2.0235,0.8711,2.0235,2.3935v0.9199h-1.2822v-1.0146
				c0-0.6817-0.2715-0.9385-0.7051-0.9385c-0.4326,0-0.7041,0.2568-0.7041,0.9385v5.1318c0,0.6768,0.2715,0.9248,0.7041,0.9248
				c0.4336,0,0.7051-0.248,0.7051-0.9248v-1.3594H44.876z"/>
		</g>
	</g>
</g>
</svg>
