<?xml version="1.0" encoding="utf-8"?>
<!-- Generator: Adobe Illustrator 17.1.0, SVG Export Plug-In . SVG Version: 6.00 Build 0)  -->
<!DOCTYPE svg PUBLIC "-//W3C//DTD SVG 1.1//EN" "http://www.w3.org/Graphics/SVG/1.1/DTD/svg11.dtd">
<svg version="1.1" id="candles" xmlns="http://www.w3.org/2000/svg" xmlns:xlink="http://www.w3.org/1999/xlink" x="0px" y="0px"
	 viewBox="0 0 75 74.9995" enable-background="new 0 0 75 74.9995" xml:space="preserve">
<g id="candles-candles">
	<circle id="candles-label" fill="#434A54" cx="37.5" cy="37.499" r="37.5"/>
	<g id="candles-candles_1_">
		<g>
			<path fill="#FFCE54" d="M30.0015,14.4224c10.6665,8.7636,1.9013,15.1914,1.9013,15.1914
				c2.7735-5.2579-1.6049-7.7398-1.6049-7.7398c-4.5254,3.9453-1.754,7.8853-1.754,7.8853
				C18.9014,22.0185,30.0015,14.4224,30.0015,14.4224z"/>
			<path fill="#E9573F" d="M30.9214,40.3852l-0.1641-0.8154c-0.1123-0.6279-0.3594-1.935-0.6782-2.0254
				c-0.0156-0.0058-0.4922-0.1201-1.9199,1.4356c-0.8604,0.9326-1.6929,1.2597-2.4824,0.9746
				c-0.502-0.1778-0.9043-0.6201-1.2251-1.1973v20.9102c0,0.3408,0.2793,0.6162,0.6157,0.6162h10.0234
				c0.3374,0,0.6138-0.2754,0.6138-0.6162V45.5347c-0.2891,0.1337-0.563,0.1728-0.8086,0.1533
				C32.9312,45.5522,31.2334,41.7964,30.9214,40.3852z"/>
			<path fill="#FFFFFF" d="M26.1196,38.7222c0.2344,0.0878,0.628-0.1436,1.0728-0.6319c1.3789-1.4956,2.3818-2.0537,3.251-1.8027
				c1.0962,0.312,1.351,1.6987,1.604,3.039l0.1518,0.7735c0.3643,1.6416,1.9248,4.2236,2.7901,4.2832
				c0.2275,0.0156,0.4804-0.3057,0.7153-0.8467V31.2524c0-0.3427-0.2764-0.6191-0.6138-0.6191H25.0674
				c-0.3364,0-0.6157,0.2764-0.6157,0.6191v1.5747c0.0273,0.062,0.0507,0.1289,0.0537,0.1988
				C24.6377,35.5454,25.3174,38.4331,26.1196,38.7222z"/>
		</g>
		<g>
			<path fill="#FFCE54" d="M44.8516,23.188c10.666,8.7612,1.9004,15.188,1.9004,15.188c2.7763-5.2549-1.6045-7.7427-1.6045-7.7427
				c-4.5254,3.9507-1.751,7.8896-1.751,7.8896C33.7568,30.7807,44.8516,23.188,44.8516,23.188z"/>
			<path fill="#FFFFFF" d="M49.9355,39.3989H39.9199c-0.3398,0-0.6133,0.2754-0.6133,0.6143v0.8935
				c0.0088,0.043,0.0293,0.0811,0.0323,0.128c0.1289,2.5156,0.8095,5.4052,1.6152,5.6982c0.2344,0.083,0.624-0.1475,1.0713-0.6357
				c1.3799-1.4942,2.3809-2.0567,3.248-1.8047c1.0977,0.3125,1.3536,1.7002,1.6075,3.0429l0.1543,0.7696
				c0.3662,1.6416,1.9199,4.2226,2.7851,4.2851c0.2305,0.0156,0.4961-0.3183,0.7276-0.8818V40.0132
				C50.5479,39.6743,50.2773,39.3989,49.9355,39.3989z"/>
			<path fill="#E9573F" d="M49.7305,53.6958c-1.9639-0.1358-3.6631-3.8975-3.9737-5.3047l-0.164-0.8135
				c-0.1133-0.6299-0.3662-1.9345-0.6797-2.0254c-0.0147-0.0058-0.4942-0.1201-1.919,1.4327
				c-0.8613,0.9355-1.6943,1.2636-2.4834,0.9785c-0.4941-0.1807-0.8877-0.6123-1.2041-1.169v13.166
				c0,0.3389,0.2735,0.6162,0.6133,0.6162h10.0156c0.3418,0,0.6124-0.2773,0.6124-0.6162v-6.4287
				C50.2607,53.6743,49.9756,53.7114,49.7305,53.6958z"/>
		</g>
	</g>
</g>
</svg>
