<?xml version="1.0" encoding="utf-8"?>
<!-- Generator: Adobe Illustrator 17.1.0, SVG Export Plug-In . SVG Version: 6.00 Build 0)  -->
<!DOCTYPE svg PUBLIC "-//W3C//DTD SVG 1.1//EN" "http://www.w3.org/Graphics/SVG/1.1/DTD/svg11.dtd">
<svg version="1.1" id="candy-cane" xmlns="http://www.w3.org/2000/svg" xmlns:xlink="http://www.w3.org/1999/xlink" x="0px" y="0px"
	 viewBox="0 0 75 75" enable-background="new 0 0 75 75" xml:space="preserve">
<g id="candy-cane-candy-cane">
	<circle id="candy-cane-label" fill="#434A54" cx="37.5" cy="37.5" r="37.5"/>
	<g id="candy-cane-candy-cane_1_">
		<path d="M36.1782,19.3198c-0.0078,0-0.0156,0.003-0.0234,0.0049C36.1626,19.3228,36.1685,19.3198,36.1782,19.3198z
			 M41.624,23.3096c0,0.0053,0,0.0112,0,0.0151C41.624,23.3208,41.624,23.3135,41.624,23.3096z"/>
		<g>
			<path fill="#FFFFFF" d="M45.9844,20.252c1.4658,1.06,0.2383,2.5322,0.2383,2.5322L21.751,56.5596
				c0,0-1.6104,2.3261,0.8637,4.2216c2.9507,2.2637,4.4585-0.2314,4.4585-0.2314l25.0235-34.5415c0,0,4.9883-5.8862-2.2481-11.1284
				L45.9844,20.252z"/>
			<path fill="#FFFFFF" d="M45.9521,20.2285c-1.4638-1.061-2.497,0.4517-2.497,0.4517l-1.9444,2.6865
				c0,0-1.5537,2.5137-4.2939,0.5337c-2.8711-2.0825-0.9883-4.4033-0.9883-4.4033l2.2842-3.1494
				c4.6309-5.9102,11.2988-1.4922,11.2988-1.4922L45.9521,20.2285z"/>
			<path fill="#E9573F" d="M41.4707,13.9067c-0.9707,0.5293-1.9287,1.064-2.9658,2.4312l-0.7876,1.0884
				c1.1548,0.6811,3.0513,2.2636,4.0903,5.5796l1.6738-2.3091c0,0,0.1895-0.2744,0.5186-0.5069
				C43.9375,18.7964,43.5615,16.1499,41.4707,13.9067z"/>
			<path fill="#E9573F" d="M53.3936,19.2095c-0.8086,1.2461-2.6543,2.7827-6.8731,3.0542c0.2334-0.5215,0.374-1.3496-0.5439-2.0166
				c-0.0401-0.0308-0.0801-0.0552-0.1192-0.0821c1.0176-1.1562,2.8643-3.5488,2.874-5.9116
				C48.7314,14.2534,51.9932,15.5713,53.3936,19.2095z"/>
			<path fill="#E9573F" d="M51.0645,27.4141c-3.0684-0.0909-5.6006-1.4195-6.6963-2.0918l-2.7442,3.7876
				c1.0948,0.6718,3.627,2.0014,6.6963,2.0913L51.0645,27.4141z"/>
			<path fill="#E9573F" d="M36.2705,36.5049c1.0947,0.6694,3.625,1.998,6.6943,2.0888l2.7452-3.7875
				c-3.0694-0.0904-5.6026-1.418-6.6944-2.0923L36.2705,36.5049z"/>
			<path fill="#E9573F" d="M25.6563,51.1523c1.0922,0.6739,3.6284,2.0039,6.6943,2.0938l2.7422-3.79
				c-3.0659-0.0899-5.5991-1.418-6.6929-2.0909L25.6563,51.1523z"/>
			<path fill="#E9573F" d="M30.8262,44.0156c1.0942,0.6748,3.6269,2.001,6.6963,2.0948l2.7431-3.7901
				c-3.0688-0.0918-5.602-1.4199-6.6943-2.0908L30.8262,44.0156z"/>
			<path fill="#E9573F" d="M21.7432,56.5557c0,0-0.8321,1.2011-0.3828,2.58c1.3212,0.6651,3.3271,1.4356,5.6381,1.5049
				c0.0435-0.0605,0.065-0.0957,0.065-0.0957l2.6762-3.6943c-3.0678-0.0908-5.601-1.419-6.6948-2.0938L21.7432,56.5557z"/>
		</g>
	</g>
</g>
</svg>
