<?xml version="1.0" encoding="utf-8"?>
<!-- Generator: Adobe Illustrator 17.1.0, SVG Export Plug-In . SVG Version: 6.00 Build 0)  -->
<!DOCTYPE svg PUBLIC "-//W3C//DTD SVG 1.1//EN" "http://www.w3.org/Graphics/SVG/1.1/DTD/svg11.dtd">
<svg version="1.1" id="champagne-bottle" xmlns="http://www.w3.org/2000/svg" xmlns:xlink="http://www.w3.org/1999/xlink" x="0px"
	 y="0px" viewBox="0 0 75 75" enable-background="new 0 0 75 75" xml:space="preserve">
<g id="champagne-bottle-champagne-bottle">
	<circle id="champagne-bottle-label" fill="#434A54" cx="37.5" cy="37.5" r="37.5"/>
	<g id="champagne-bottle-champagne-bottle_1_">
		<polygon fill="#FFFFFF" points="22.0688,50.6367 46.9971,50.6367 46.7012,52.5127 22.3711,52.5127 		"/>
		<path fill="#AAB2BC" d="M23.1426,57.4404c0.1841,1.166,1.2988,2.1241,2.4848,2.1241h17.8218c1.1797,0,2.2959-0.9581,2.4766-2.1241
			l0.541-3.4228H22.6021L23.1426,57.4404z"/>
		<path fill="#A0D468" d="M41.0283,27.1118c-0.4179,0.1685-0.8447,0.3692-1.2793,0.5874h11.1885
			c1.0996-1.6787,2.4102-3.3686,3.9385-4.9682l-2.7969-2.7959C48.4531,23.3906,44.3779,25.7183,41.0283,27.1118z"/>
		<path fill="#AAB2BC" d="M49.8154,32.7207l0.583-3.7114h-31.727l0.5835,3.7114c-2.0523,0.3218-3.6299,2.0796-3.6299,4.2251
			c0,2.3706,1.9243,4.2886,4.2905,4.2886h0.6807l1.2402,7.8994h25.396l1.2451-7.8994h0.6778c2.3701,0,4.292-1.918,4.292-4.2886
			C53.4473,34.8003,51.8721,33.0415,49.8154,32.7207z"/>
		<path fill="#FFCE54" d="M58.3623,16.4521c-0.9092-0.9067-2.0078-1.2768-2.4609-0.8193c0,0-1.8203,2.147-2.7627,3.2197
			l2.8164,2.8174c1.0722-0.9394,3.2256-2.7602,3.2256-2.7602C59.6357,18.4565,59.2617,17.3516,58.3623,16.4521z"/>
	</g>
</g>
</svg>
