<?xml version="1.0" encoding="utf-8"?>
<!-- Generator: Adobe Illustrator 17.1.0, SVG Export Plug-In . SVG Version: 6.00 Build 0)  -->
<!DOCTYPE svg PUBLIC "-//W3C//DTD SVG 1.1//EN" "http://www.w3.org/Graphics/SVG/1.1/DTD/svg11.dtd">
<svg version="1.1" id="deer" xmlns="http://www.w3.org/2000/svg" xmlns:xlink="http://www.w3.org/1999/xlink" x="0px" y="0px"
	 viewBox="0 0 74.9995 75" enable-background="new 0 0 74.9995 75" xml:space="preserve">
<g id="deer-deer">
	<circle id="deer-label" fill="#434A54" cx="37.4997" cy="37.5" r="37.4998"/>
	<g id="deer-deer_1_">
		<path fill="#FFFFFF" d="M15.6636,58.9658l1.0322-1.5137c0,0,0.3179-0.6015,1.0171-0.6181c0.3984-0.0088,0.6235-0.0039,0.7124,0
			l1.2597,2.3476c-0.0117,0.0118-0.0234,0.0254-0.0297,0.0323c-0.3374,0.3632-0.6553,0.9668-1.5586,1.0547
			c-0.7974,0.0791-1.6636,0.0732-1.6636,0.0732l0.8809-1.5342L15.6636,58.9658z"/>
		<path fill="#FFFFFF" d="M20.0659,54.9814c0.8159-1.1113,0.9351-1.5224,1.3335-2.373c0.2124-0.457,0.3633-1.1045,1.374-1.2022
			c1.0108-0.0986,2.8452-0.4023,2.7774-1.8261c-0.1026-2.1543-0.2271-5.3897-0.2271-5.3897s-0.1753-1.3613,0.2105-2.7314
			l0.1289-1.1406c-0.3072-0.462-0.6211-0.9434-0.8975-1.3848c-0.7983-1.2832-1.3496-1.6826-2.0947-2.1563
			c-0.4693-0.2988-1.0205-0.5097-1.0137-0.8647c0.0088-0.4243,1.1597-0.1987,3.2373,0.0176
			c0.7339,0.0776,1.2105,0.563,1.5196,0.9736c0.3002,0.4004,0.8032,1.0664,1.3149,1.7427c2.5005-1.5884,5.4404-0.6069,9.5664-0.7085
			c0.167-0.0029,0.3315-0.0088,0.6455-0.0264l1.9522,10.2515c-0.502-0.0029-0.7618-0.0332-1.0137-0.0772
			c-0.1201-0.0205-0.2383-0.042-0.3506-0.0683c-0.1934-0.043-0.3755-0.085-0.5542-0.127c-2.2837-0.5322-3.4272-0.8935-5.0581-0.5644
			l-1.7134,4.0703c0,0-0.5591,1.4502-2.3564,1.7314c-1.7979,0.2813-4.6558,0.7188-4.6558,0.7188s-3.0019,3.5791-4.1328,4.9033
			l-1.2236-2.2803C19.126,56.1592,19.5708,55.6562,20.0659,54.9814z"/>
		<path fill="#FFFFFF" d="M33.5581,16.7598c0.4834-0.4536,1.0801,0.4096,2.0561,1.5898c1.3072,1.5816,2.563,1.8858,3.1919,1.251
			c0.7598-0.7622,0.0459-2.1162-0.3476-2.8237c-0.3345-0.6036-1.1358-1.5918-0.6289-2.0147
			c0.4165-0.3486,0.9336,0.2065,1.5439,1.3115c0.6123,1.1045,0.8975,1.9361,1.0469,3.7442
			c0.0596,0.7383,0.4111,1.2182,0.9111,1.7558c0.67,0.7232,1.9805,1.6109,2.6602,1.981c0.124,0.0688,0.2519,0.1308,0.3799,0.1919
			c0.6904-1.0777,0.2968-2.0874-0.0342-2.8936c-0.2363-0.5727-0.3184-1.0058,0.0195-1.2046
			c0.459-0.2724,0.8311,0.2559,1.2149,1.1841c0.709,1.7134,0.2656,2.9121,0.0332,3.3643c1.2226,0.3247,2.4843,0.3169,3.5966-0.0288
			c0.587-0.1939,1.3702-0.5284,1.8819-1.2735c0.3203-0.4658,0.5527-0.9746,0.5215-2.2793c-0.0215-0.958-0.2735-1.7363,0.2949-1.8701
			c0.542-0.1289,0.7764,0.8838,0.8174,1.6611c0.0488,1.0088-0.0254,1.8448-0.3252,2.5328c-0.3574,0.8217-0.96,1.3867-1.4981,1.7573
			l1.0362,2.3052c0.3857-0.0425,0.8496-0.0147,1.3798,0.1606c1.6534,0.5469,3.8399,1.0806,4.753,1.2559
			c0.914,0.1767,1.3525,0.2841,1.2597,1.1416c-0.0859,0.7509-0.1904,1.5-1.499,1.4624c-1.3076-0.0376-2.4629,0.2617-2.9883,0.9052
			c-0.5254,0.6431-0.5927,2.0621-0.25,3.0494c0.3467,0.9873,0.7325,2.0048-0.2656,3.5839
			c-0.9101,1.4405-2.4199,3.8067-2.4199,3.8067s-0.2022,0.3662-0.6318,0.9072c1.083,0.1758,2.9375,0.4854,3.8642,0.6768
			c1.5313,0.3174,2.5137,1.7529,1.6592,3.3857c-0.75,1.4317-2.3721,4.6436-2.7578,5.4092l-0.9873-2.1875
			c0.084-0.4199,0.248-0.8545,0.456-1.3281c0.5274-1.2168,1.1953-2.7627,1.1953-2.7627s-2.0498-0.0323-4.3857,0.166
			c-0.9395,0.082-1.8027-0.1436-2.4961-0.4424c-0.4072,0.2207-0.8467,0.4287-1.3271,0.6074
			c-0.0997,0.0401-0.2002,0.0801-0.3047,0.1182c-0.3662,0.1367-0.7266,0.2588-1.083,0.375l-1.9502-10.2417
			c1.3994-0.4526,2.3838-1.0137,3.0664-1.5264c2.6045-1.9565,2.9052-5.1299,3.3799-6.5058c0.0947-0.2764,0.1953-0.502,0.2949-0.687
			l-1.249-2.8086c-0.1563,0.0146-0.2569,0.0156-0.2569,0.0156c-4.6387,0.3442-7.0703-2.4282-7.8086-3.1279
			c-0.7373-0.6998-1.1152-1.1348-2.186-1.2095c-1.6299-0.1113-2.5098-0.7461-3.6406-2.0493
			C33.896,18.1646,33.0976,17.1929,33.5581,16.7598z"/>
		<path fill="#FFFFFF" d="M53.8686,53.5937c-0.289,0.9502-1.1533,2.2198-1.1533,2.2198l-1.0293-2.2813l1.3106-1.872L53.8686,53.5937
			z"/>
		<path fill="#E9573F" d="M44.6743,47.7168c-0.415,0.0791-3.791,0.7217-4.208,0.7998c-0.085-0.457-1.9819-10.4141-2.0689-10.8721
			c0.4166-0.0796,3.7925-0.7221,4.2066-0.8017C42.6919,37.3013,44.5893,47.2578,44.6743,47.7168z"/>
		<g>
			<path fill="#FFCE54" d="M39.3638,38.9033c0.1142,0.6035,0.6943,0.9981,1.2968,0.8838c0.6026-0.1152,0.9981-0.6953,0.8838-1.2998
				c-0.1142-0.5986-0.6963-0.9932-1.2988-0.8789C39.6431,37.7236,39.2495,38.3042,39.3638,38.9033z"/>
			<circle fill="#FFCE54" cx="41.2471" cy="42.8555" r="1.11"/>
			<path fill="#FFCE54" d="M40.8911,46.9248c0.1162,0.6055,0.6943,1,1.2988,0.8857c0.6006-0.1152,0.9981-0.6943,0.8838-1.3007
				c-0.1162-0.6006-0.6982-0.9942-1.3008-0.8799C41.1704,45.7451,40.7768,46.3252,40.8911,46.9248z"/>
		</g>
	</g>
</g>
</svg>
