<?xml version="1.0" encoding="utf-8"?>
<!-- Generator: Adobe Illustrator 17.1.0, SVG Export Plug-In . SVG Version: 6.00 Build 0)  -->
<!DOCTYPE svg PUBLIC "-//W3C//DTD SVG 1.1//EN" "http://www.w3.org/Graphics/SVG/1.1/DTD/svg11.dtd">
<svg version="1.1" id="falling-star" xmlns="http://www.w3.org/2000/svg" xmlns:xlink="http://www.w3.org/1999/xlink" x="0px"
	 y="0px" viewBox="0 0 75 75" enable-background="new 0 0 75 75" xml:space="preserve">
<g id="falling-star-falling-star">
	<circle id="falling-star-label" fill="#434A54" cx="37.5" cy="37.5" r="37.5"/>
	<g id="falling-star-falling-star_1_">
		<polygon fill="#FFCE54" points="30.9883,45.3613 25.3716,49.4756 27.5093,56.1133 21.8423,52.0742 16.1714,56.1484 
			18.3091,49.4893 12.6924,45.3613 19.6523,45.3613 21.8423,38.6992 24.0273,45.3613 		"/>
		<path fill="#FFFFFF" d="M62.3076,31.3853c-2.914-0.8296-5.915-1.2442-9.001-1.2442c-5.1679,0-10.4238,1.4844-15.7563,4.4517
			c-5.3355,2.9673-9.229,6.0117-11.6836,9.1289c0.3965-1.958,1.3442-4.4854,2.8335-7.586c1.4932-3.101,4.7568-6.4345,9.7939-9.9985
			c5.0372-3.5644,10.7881-5.9946,17.25-7.2856L62.3076,31.3853z"/>
	</g>
</g>
</svg>
