<?xml version="1.0" encoding="utf-8"?>
<!-- Generator: Adobe Illustrator 17.1.0, SVG Export Plug-In . SVG Version: 6.00 Build 0)  -->
<!DOCTYPE svg PUBLIC "-//W3C//DTD SVG 1.1//EN" "http://www.w3.org/Graphics/SVG/1.1/DTD/svg11.dtd">
<svg version="1.1" id="fireworks" xmlns="http://www.w3.org/2000/svg" xmlns:xlink="http://www.w3.org/1999/xlink" x="0px" y="0px"
	 viewBox="0 0 75 74.9995" enable-background="new 0 0 75 74.9995" xml:space="preserve">
<g id="fireworks-fireworks">
	<circle id="fireworks-label" fill="#434A54" cx="37.5" cy="37.499" r="37.5"/>
	<g id="fireworks-fireworks_1_">
		<path fill="#FFCE54" d="M58.4727,34.7827c-2.0518-0.6045-4.1045-1.9805-5.9893-1.8159c2.3154-0.5049,5.2285-1.8692,7.0215,0.4477
			C59.5889,34.0141,59.1592,34.8711,58.4727,34.7827z M53.3174,40.9341c2.1377,0.9492,2.3017,4.1181,4.6972,4.5527
			c1.8877-0.9385,0.0069-2.3125-0.5878-3.2568C56.1436,41.4575,54.5176,40.5942,53.3174,40.9341z M58.4639,37.8642
			c-0.9346-1.8847-3.5069-1.121-5.1358-1.0405C54.6152,36.7432,57.1719,40.4302,58.4639,37.8642z M56.0156,25.1836
			c-0.5107-1.2007-1.7968-0.4321-2.6523-0.6909c-1.542,0.6801-3.7725,1.7866-3.9492,3.3286
			C51.2188,26.0273,55.5791,28.1807,56.0156,25.1836z M49.7832,48.9751c0.7676,1.1142,0.6768,3.9414,2.4717,4.5469
			c0.5156-0.1709,0.7724-0.4268,0.7744-1.0254C52.8623,50.9536,51.1543,49.4927,49.7832,48.9751z M51.252,44.4399
			c-1.1075-2.0586-3.418-2.6631-5.5586-3.0996c1.7968,1.291,2.5595,3.6904,4.5273,4.7256
			C50.7354,45.81,51.5938,45.2964,51.252,44.4399z M45.8906,32.3496c1.3721-0.8521,4.9649,0.8711,5.1407-1.4419
			c-0.9385-0.688-1.4522-0.689-2.6514-0.4351C47.5205,31.0703,45.4629,31.6636,45.8906,32.3496z M50.4141,38.1006
			c-1.3682-1.2896-3.5928-1.8941-5.3067-1.0415c1.7129,0.1743,2.9063,1.8896,4.4463,2.4951
			C50.1543,39.3852,50.584,38.7866,50.4141,38.1006z M49.4395,18.999c-0.3418-0.686-1.0264-0.688-1.626-0.6899
			c-2.0586,1.1084-2.6621,3.1631-2.9258,5.1308C46.2607,22.0747,49.0898,21.1396,49.4395,18.999z M47.2764,57.7895
			c2.0625-2.0488-0.1582-4.9677-1.6094-6.5996C47.1182,53.3374,44.2813,57.0972,47.2764,57.7895z M47.1904,26.958
			c0.1739-1.1128-1.1142-0.4307-1.7119-0.604c-0.9443,0.6821-3.0889,2.3047-2.4062,3.2471
			C44.3574,28.7485,46.6729,28.6689,47.1904,26.958z M41.5781,43.2153c1.1094,1.3721,1.0196,3.1699,1.7862,4.7149
			c0.6826,0.4287,1.8837,0.1767,1.7168-0.8526C44.7422,45.4497,43.2891,43.564,41.5781,43.2153z M43.2324,33.1133
			c-1.8828-0.0904-3.7705,0.7607-4.5459,2.4716c1.376-1.0239,3.4278-0.5058,4.9717-1.186
			C43.8311,33.8003,43.4023,33.5415,43.2324,33.1133z M39.2832,37.2143l3.0713,3.5196c0.6016-0.1699,1.0303-0.7696,0.8613-1.4551
			C42.2764,38.1626,40.9961,37.0454,39.2832,37.2143z M42.6807,16.0698c-0.8545-0.689-1.8809-0.6919-2.4844,0.4204
			c-0.5195,2.1406-0.7822,3.8521,0.1533,5.7398C40.2705,20.3452,42.6748,18.2104,42.6807,16.0698z M42.1523,52.4653
			c-0.2539-1.1992-1.1044-3.0849-1.6181-3.0869l-0.0098,3.5117c-0.0869,0.6856,0.2529,1.542,1.1944,1.2012
			C42.4922,53.8374,41.9805,52.9809,42.1523,52.4653z M42.0576,24.7163l-1.2822-0.6025c-1.9727,0.7656-1.2949,3.5942-1.4717,4.8789
			C40.251,27.5391,41.54,26.3432,42.0576,24.7163z M40.0781,59.8266c1.4571-0.4248,0.9492-2.997-0.417-4.1132
			C39.8271,56.9136,39.3096,58.4526,40.0781,59.8266z M40.5479,44.2397c-0.5958-0.7724-0.5088-2.1416-1.6202-2.3173
			c1.1953,1.374-0.6953,3.1689,0.7588,4.3701C40.9717,46.3813,40.373,44.9243,40.5479,44.2397z M31.9292,32.9106l-0.0039,1.4566
			l4.7085,0.6123C35.2676,33.8623,34.0703,32.3183,31.9292,32.9106z M34.9766,45.6802l1.0283,0.0039
			c0.7739-1.3701-0.6768-2.9151,0.4399-4.1104C35.1567,42.4282,34.5552,44.1372,34.9766,45.6802z M34.3379,59.2114l1.2007,0.1729
			c0.8598-1.3682-0.7627-2.9981,0.6113-4.1084l-0.772,0.4257C34.688,56.729,34.0859,57.7544,34.3379,59.2114z M34.0093,23.8384
			c-1.7178,1.4516,1.3608,3.2568,1.8696,4.9721c0.3447-1.0263,0.0938-2.5688,0.0098-3.3393
			C35.5483,24.8706,34.9497,23.7549,34.0093,23.8384z M36.0269,36.7749l-1.626,0.2529c-0.9439,0.6846-2.6568,1.1934-2.4912,2.6504
			C33.9619,41.395,34.3989,37.7143,36.0269,36.7749z M35.2266,17.0766c-0.4253-0.7724-0.5078-2.0576-1.7915-1.8896
			c-2.2349,2.1357,1.4428,4.2017,1.436,6.5991C35.5601,20.5019,35.1377,18.6162,35.2266,17.0766z M35.1396,48.7632
			c-1.5429,1.0254-2.1503,3.1631-1.8125,4.8769l1.4566,0.0059C34.873,52.0181,34.4502,50.1343,35.1396,48.7632z M30.8657,45.2417
			c-0.0859,0.7695-0.8594,1.7949-0.0053,2.4814c1.9726-0.4228,1.4648-3.3359,2.9233-4.7851
			C32.5859,43.2768,31.6411,44.2153,30.8657,45.2417z M28.2632,26.3057c-0.1753,2.227,2.9082,1.9794,4.2754,3.2675l-0.1704-1.0283
			C31.3438,27.2563,29.9775,25.54,28.2632,26.3057z M30.4985,23.6582c-0.4214-2.23-1.184-5.6553-4.0952-5.5776
			C24.6816,20.8159,29.6489,21.4282,30.4985,23.6582z M27.3804,36.4106c-1.2842,0.167-3.3433,0.9326-2.4917,2.6475
			c2.3125,0.4355,3.0893-2.561,5.146-2.4707C29.0928,36.2432,28.5791,36.4126,27.3804,36.4106z M28.7939,51.5718
			c-1.0307,1.7119-2.4067,3.8476-1.2148,5.9931c0.3418-0.084,0.6841,0.0869,1.0278,0.1739
			c1.9722-1.9649-0.5869-5.0547,1.3877-6.9346L28.7939,51.5718z M24.1416,30.2339c-0.6084,3.2534,4.1108,0.4404,5.5625,1.6426
			C28.2534,30.2446,26.2822,30.0693,24.1416,30.2339z M29.6797,41.1274l-1.0288-0.0039c-2.0557,0.7656-4.6284,1.4444-4.8086,4.0977
			C27.0933,47.0288,26.9375,41.9741,29.6797,41.1274z M25.7764,27.3271l-0.4263-0.8579c-1.5356-1.2885-3.7578-3.1782-6.1582-1.8149
			C19.2686,27.9956,24.3257,25.6099,25.7764,27.3271z M22.4517,53.0122c2.4848,0.0908,1.7221-2.9941,3.0952-4.2734l-2.315,1.1914
			C22.8867,50.7847,21.6831,52.0679,22.4517,53.0122z M22.6797,32.6294l-0.855-0.6026c-2.2275,0.0796-5.0508-1.1269-6.3403,1.0108
			C17.1035,36.125,19.9399,31.9365,22.6797,32.6294z M16.499,37.75c1.7066,2.145,3.6861-1.188,5.7422-1.1841l-2.0542-0.4331
			C18.9014,36.5571,16.6763,35.9526,16.499,37.75z M16.9067,45.2016c2.3995-0.4209,3.2647-3.5859,5.1524-4.6943
			c-2.1416-0.0928-3.7725,1.1006-5.4014,2.3818C16.4834,43.8315,16.2246,44.4302,16.9067,45.2016z"/>
	</g>
</g>
</svg>
