<?xml version="1.0" encoding="utf-8"?>
<!-- Generator: Adobe Illustrator 17.1.0, SVG Export Plug-In . SVG Version: 6.00 Build 0)  -->
<!DOCTYPE svg PUBLIC "-//W3C//DTD SVG 1.1//EN" "http://www.w3.org/Graphics/SVG/1.1/DTD/svg11.dtd">
<svg version="1.1" id="happy-new-year" xmlns="http://www.w3.org/2000/svg" xmlns:xlink="http://www.w3.org/1999/xlink" x="0px"
	 y="0px" viewBox="0 0 75 75" enable-background="new 0 0 75 75" xml:space="preserve">
<g id="happy-new-year-happy-new-year">
	<circle fill="#434A54" cx="37.5" cy="37.5" r="37.5"/>
	<g>
		<path fill="#FFFFFF" d="M16.4468,30.459c0.8554-1.4673,2.1396-1.5274,2.1396-1.5274l0.2324,0.9419c0,0-0.8935,0.231-1.4072,1.1128
			c-1.6509,2.8369,3.1436,5.5523,6.0781,0.4512l2.5796-4.4746c-1.3686,0.6973-3.5449,0.7344-4.1323,1.748
			c-0.624,1.064,0.4761,1.5176,0.4761,1.5176l-0.4761,0.8189c-0.8447-0.3296-1.8237-1.3579-1.0019-2.7891
			c1.038-1.8091,3.8383-1.1611,6.0761-2.9331l0.648,1.1103l-2.0425,3.5235h1.9082l1.8101-3.1177
			c1.4921-2.5688,3.5341-1.6279,3.8032-0.5986l-0.8438,0.4624c-0.3662-0.8306-1.1977-0.6958-1.9082,0.5259l-4.2055,7.29h-1.2842
			l2.2734-3.9497h-1.9062l-0.8203,1.4292C20.6772,38.5205,14.1113,34.4697,16.4468,30.459z M42.9102,30.5947l-3.8038,6.6167h-1.2827
			l1.9663-3.4121c-0.7002,0.4883-1.5068,0.8237-2.5024,0.8438h-0.0742c-1.1612,0-1.3936-1.0269-1.3936-1.0269l0.7227-0.3413
			c0.2319,0.4741,0.7075,0.3652,0.916,0l1.9214-3.3276c0.3281-0.5767-0.5635-1.2842-1.9824,0.6474l-3.8028,6.6167h-1.2851
			l1.8862-3.2695c-0.5605,0.4243-1.1187,0.7012-1.6377,0.7012c-0.6484,0-1.0391-0.3418-1.1011-0.8321
			c-0.6113,0.502-1.247,0.8321-1.7607,0.8321c-1.0283,0-1.4063-0.8682-0.8672-1.8111l1.7847-3.0815
			c0.5371-0.9292,1.4926-1.4663,2.1758-1.4663c0.8325,0,1.3828,0.7446,1.3344,1.2832h0.7207l-2.0551,3.5952
			c-0.2916,0.502-0.1338,0.6978,0.1474,0.6978c0.563,0,1.4541-0.8443,2.3731-1.9092l0.0849-0.0967c0,0,0.001,0.0019,0.002,0.0019
			l1.9897-3.4506h1.2725l-0.2588,0.4399c1.2959-1.1621,3.2158-0.4897,2.0322,1.5278l-1.4082,2.4112
			c-0.1582,0.2685-0.3193,0.622-0.5254,0.9526c0.7705-0.2676,1.6133-0.9526,2.3233-1.7861l0.0849-0.0967
			c0,0,0.002,0.0019,0.003,0.0019l1.9873-3.4506h1.2734l-0.2578,0.4399c1.2969-1.1621,3.2158-0.4897,2.0293,1.5278l-1.4053,2.4112
			c-0.1611,0.2685-0.3174,0.622-0.5254,0.9526c0.7715-0.2676,1.6143-0.9526,2.3242-1.7861l0.0772-0.0918l1.998-3.4536h1.2715
			l-2.4824,4.3286c-0.1592,0.269-0.4766,0.7451-0.1592,0.8818c0.2442,0.1094,1.002-0.3916,1.9805-1.2978l2.2529-3.9126h1.2705
			l-3.4863,5.9672c1.0039-0.4267,1.8955-1.2104,2.9482-2.4218l0.085-0.0967c0.1709,0.0727,0.3916,0.2671,0.4756,0.4409
			c-1.3926,1.6133-2.6885,2.5186-4.0088,2.9341l-0.9785,1.6753c-0.918,1.5654-2.7891,1.3096-2.7891,0.0864
			c0-0.9556,1.0762-1.6631,2.7998-2.1772l0.6973-1.1978c-0.5742,0.5127-1.2725,1.0269-1.8838,1.0269
			c-0.6016,0-0.916-0.4117-0.8135-1.0542c-0.7617,0.6049-1.6553,1.0312-2.791,1.0542h-0.0732c-1.1612,0-1.3936-1.0269-1.3936-1.0269
			l0.7207-0.3413c0.2334,0.4741,0.71,0.3652,0.919,0l1.9179-3.3276C45.2227,29.3706,44.3281,28.6631,42.9102,30.5947z
			 M47.1025,35.6694c-0.9785,0.3789-1.2841,0.7578-1.2841,1.0874c0,0.3438,0.4277,0.4175,0.6972-0.059L47.1025,35.6694z
			 M33.1201,30.3379c0.624-1.1494-0.7329-1.4536-1.4189-0.2695l-1.7715,3.0942c-0.2944,0.502-0.1338,0.6978,0.1455,0.6978
			c0.5273,0,1.2852-0.5757,2.0542-1.7862L33.1201,30.3379z M25.9033,41.374l0.8443-0.4638c-0.2696-1.0293-2.19-1.9688-3.6807,0.5986
			l-2.874,4.9658l0.9301-6.0918h-1.2714l-2.7647,4.8057c-3.1548,5.4931-7.8149,2.7051-5.8574-0.6719
			c0.9419-1.624,3.3013-1.7949,3.938-0.2559l0.8916-0.4668c-0.9053-2.4062-4.5235-2.2109-5.9424,0.2598
			c-2.4575,4.2783,3.5698,9.0606,8.1313,1.1348l1.1734-2.0528l-0.9165,6.0518h1.2847l4.206-7.2871
			C24.7046,40.6777,25.5361,40.5449,25.9033,41.374z M33.085,48.1738c-0.6714,0.6973-1.4537,1.1377-2.3453,1.1377
			c-0.6489,0-1.0405-0.3418-1.1142-0.8203c-0.5986,0.4893-1.2461,0.8203-1.749,0.8203c-0.7578,0-1.1665-0.4756-1.1084-1.1015
			c-0.813,0.6435-1.7242,1.1015-2.6426,1.1015c-1.5044,0-2.1904-1.248-1.3945-2.6045l1.3325-2.2871
			c0.5376-0.9306,1.3584-1.4678,2.3857-1.4678c1.0376,0,1.6997,0.8799,1.0156,2.0538l-0.1845,0.3183
			c-0.9551,1.6524-2.4961,1.8096-3.314,1.4678l-0.123,0.2207c-0.5865,1.0273-0.1221,1.5156,0.6601,1.5156
			c0.8931,0,2.0669-0.8437,2.9834-1.9062l0.0874-0.0996l0.001,0.0019l2-3.4492h1.2617l-2.727,4.7559
			c-0.2945,0.5009-0.1338,0.6972,0.1464,0.6972c0.5376,0,1.3082-0.5996,2.0923-1.8467l2.0899-3.6064h1.2588l-2.7266,4.7559
			c-0.293,0.5009-0.1338,0.6972,0.147,0.6972c0.2949,0,0.7085-0.2471,1.1611-0.7099c-0.0854-0.1202-0.1338-0.2803-0.1338-0.4512
			c0-0.416,0.3296-0.7588,0.7451-0.7588c0.1119,0,0.2085,0.0264,0.3072,0.0732c0.6108-0.9052,1.2348-2.1269,1.7597-3.6064h0.8179
			c-0.5122,1.5273-1.2207,3.2402-2.1489,4.4863c0.645,0,1.3681-0.3066,1.9551-0.9394l0.0854-0.0996
			c0.1704,0.0732,0.3926,0.2695,0.478,0.4414c-0.6484,0.7705-1.8462,1.2343-2.6059,1.2343
			C33.3799,48.1982,33.2344,48.1982,33.085,48.1738z M24.3335,46.168c0.478,0.1709,1.2959,0.1982,1.9062-0.8438l0.1841-0.3183
			c0.7578-1.3204-0.5376-1.5274-1.2715-0.2686L24.3335,46.168z M64.6006,46.9639c-1.0537,1.2216-2.2637,2.3476-3.3145,2.3476
			c-1.0273,0-1.4072-0.8681-0.8701-1.8095l1.3457-2.337c0.1465-0.2568,0.086-0.5136-0.0722-0.7207l-0.1729-0.2089
			c-1.0117,1.3818-1.4902,2.0156-2.1006,2.7265l0.002,0.002c-1.0528,1.2216-2.2637,2.3476-3.3164,2.3476
			c-0.6475,0-1.0391-0.3418-1.0996-0.831c-0.6114,0.5-1.2481,0.831-1.7627,0.831c-0.7579,0-1.1612-0.4775-1.1016-1.1054
			c-0.8145,0.6464-1.7295,1.1054-2.6484,1.1054c-1.0254,0-1.6553-0.5859-1.71-1.3857c-1.0596,1.0263-2.0772,1.6484-3.1172,1.9707
			l-0.9658,1.6777c-0.919,1.5645-2.7891,1.3067-2.7891,0.084c0-0.9531,1.0772-1.6621,2.8018-2.1758l0.4277-0.7334
			c-1.8965,1.2588-3.6445,0.2315-1.9814-2.6416l2.7129-4.7197c-1.6485,0.8184-4.461,1.0283-4.461,2.6152
			c0,0.625,0.6729,0.8936,0.6729,0.8936l-0.4785,0.8203c-0.6241-0.2451-1.3086-0.8584-1.3086-1.7363
			c0-2.6065,3.9746-2.3731,6.3838-3.9873l0.6494,1.1123l-3.2178,5.5644c-1.333,2.3106,0.9053,2.2998,2.2871-0.1474l0.0137,0.0107
			l3.5078-6.1357h1.2715l-5.0244,8.6445c1.0009-0.4268,1.9082-1.2109,2.9589-2.4199l0.0625-0.0723l1.2432-2.1299
			c0.5361-0.9306,1.3565-1.4678,2.3848-1.4678c1.0381,0,1.6992,0.8799,1.0127,2.0538l-0.1817,0.3183
			c-0.9541,1.6524-2.4961,1.8096-3.3144,1.4678l-0.1221,0.2207c-0.5859,1.0273-0.1221,1.5156,0.6592,1.5156
			c0.8945,0,2.0674-0.8437,2.9844-1.9062l0.0849-0.0996l0.002,0.0019l1.2207-2.1045c0.5371-0.9306,1.4892-1.4678,2.1748-1.4678
			c0.832,0,1.3818,0.7452,1.334,1.2833h0.7207l-2.0547,3.5957c-0.292,0.5009-0.1338,0.6972,0.1474,0.6972
			c0.5645,0,1.4551-0.8437,2.3731-1.9062l0.085-0.0977c-0.001,0-0.002,0-0.002-0.0019c0.8311-0.9776,1.5889-2.0528,2.1514-2.8477
			l-0.1094-0.1484c-0.4531-0.5869-0.3906-1.3077,0.3301-1.9551l0.6601,0.7217c-0.2558,0.2422-0.2558,0.5009-0.0732,0.7324
			l0.709,0.8574c0.417,0.501,0.625,0.9531,0.1836,1.7227l-1.2725,2.2256c-0.2939,0.5009-0.1338,0.6972,0.1484,0.6972
			c0.5616,0,1.4541-0.8437,2.3711-1.9062l0.085-0.0996C64.2939,46.5957,64.5127,46.792,64.6006,46.9639z M49.6963,46.168
			c0.4785,0.1709,1.2969,0.1982,1.9092-0.8438l0.1826-0.3183c0.7568-1.3204-0.5371-1.5274-1.2715-0.2686L49.6963,46.168z
			 M43.2197,50.3389c-0.9912,0.3798-1.2851,0.7588-1.2851,1.0869c0,0.3437,0.4277,0.416,0.6972-0.0596L43.2197,50.3389z
			 M56.666,45.0059c0.624-1.1495-0.7353-1.4541-1.4189-0.2686l-1.7735,3.0938c-0.2939,0.5009-0.1347,0.6972,0.1475,0.6972
			c0.5254,0,1.2852-0.5742,2.0537-1.7842L56.666,45.0059z"/>
		<g>
			<path fill="#FFFFFF" d="M57.1953,26.7437l-1.582,0.9536c0,0,4.1933,2.7578,3.1191,8.0312
				C58.7324,35.7285,61.1533,30.7354,57.1953,26.7437z"/>
			<path fill="#FFFFFF" d="M62.2109,25.8271c0,0,2.8155,6.8829-2.914,12.4317c0,0,7.1426-4.0767,5.6465-12.272L62.2109,25.8271z"/>
			<polygon fill="#FFCE54" points="65.4531,18.9717 63.126,19.2686 61.5635,17.5234 61.127,19.8237 58.9834,20.7686 61.04,21.8936 
				61.2764,24.228 62.9805,22.624 65.2725,23.1206 64.2715,20.9951 			"/>
			<polygon fill="#FFCE54" points="53.4639,25.9551 54.4873,27.165 54.8223,25.6216 56.2881,25.0215 54.9219,24.2212 
				54.8057,22.6455 53.625,23.6978 52.0879,23.3218 52.7217,24.7686 51.8906,26.1118 			"/>
			<polygon fill="#FFCE54" points="36.377,13.147 37.1514,14.6943 37.4556,12.9932 39.165,12.7344 37.6396,11.9185 37.9214,10.2119 
				36.6753,11.4116 35.1396,10.6138 35.8945,12.1714 34.6636,13.3862 			"/>
			<polygon fill="#FFCE54" points="21.0649,18.0698 21.98,19.8926 22.3384,17.8857 24.356,17.5796 22.5576,16.6182 22.8906,14.6035 
				21.4199,16.0181 19.6074,15.0791 20.4971,16.9146 19.0435,18.3486 			"/>
			<polygon fill="#FFCE54" points="46.6709,17.0688 47.2451,18.2134 47.4678,16.9546 48.7334,16.7607 47.6055,16.1597 
				47.8145,14.8989 46.8916,15.7837 45.7578,15.1963 46.3145,16.3447 45.4053,17.2441 			"/>
			<polygon fill="#FFCE54" points="34.8208,62.1025 34.2749,60.4629 33.7305,62.1025 32.0015,62.1133 33.3931,63.1377 
				32.8701,64.7881 34.2749,63.7793 35.6802,64.7881 35.1567,63.1387 36.5503,62.1133 			"/>
			<polygon fill="#FFCE54" points="50.6787,59.4297 50.0352,57.4902 49.3926,59.4297 47.3516,59.4424 48.9961,60.6523 
				48.377,62.5986 50.0352,61.4072 51.6943,62.5986 51.0762,60.6523 52.7197,59.4424 			"/>
			<polygon fill="#FFCE54" points="25.1943,56.7471 24.79,55.5332 24.3887,56.7471 23.1099,56.7559 24.1387,57.5146 23.751,58.7314 
				24.79,57.9863 25.8291,58.7314 25.4434,57.5146 26.4722,56.7559 			"/>
		</g>
	</g>
</g>
</svg>
