<?xml version="1.0" encoding="utf-8"?>
<!-- Generator: Adobe Illustrator 17.1.0, SVG Export Plug-In . SVG Version: 6.00 Build 0)  -->
<!DOCTYPE svg PUBLIC "-//W3C//DTD SVG 1.1//EN" "http://www.w3.org/Graphics/SVG/1.1/DTD/svg11.dtd">
<svg version="1.1" id="hipster-deer" xmlns="http://www.w3.org/2000/svg" xmlns:xlink="http://www.w3.org/1999/xlink" x="0px"
	 y="0px" viewBox="0 0 75 74.998" enable-background="new 0 0 75 74.998" xml:space="preserve">
<g id="hipster-deer-hipster-deer">
	<path id="hipster-deer-label" fill="#A0D468" d="M75,37.501C75,16.7905,58.21,0,37.499,0C16.7905,0,0,16.7905,0,37.501
		c0,20.706,16.7905,37.497,37.499,37.497C58.21,74.998,75,58.207,75,37.501z"/>
	<g id="hipster-deer-hipster-deer_1_">
		<g>
			<path fill="#E9573F" d="M33.938,51.4365l-0.5488,2.0166l0.5087,11.334l5.7613-1.8281l-3.042-11.209
				C35.6812,51.7392,34.7837,51.6318,33.938,51.4365z"/>
			<path fill="#E9573F" d="M29.8862,49.5586l-0.9702,1.7422l-4.5078,8.1064l1.981,1.4492l3.2353,2.3682l2.7173-9.9873l0.4438-1.6338
				l0.1241-0.4531c-0.0484-0.0147-0.0987-0.0303-0.1465-0.0459c-0.1773-0.0625-0.3545-0.127-0.5269-0.1934
				C31.3555,50.5508,30.5615,50.0967,29.8862,49.5586z"/>
			<path fill="#E9573F" d="M29.6538,50.8008c0.1318,0.1416,0.273,0.2773,0.4224,0.414c0.1426,0.125,0.2925,0.2461,0.4497,0.3662
				c0.4834,0.3633,1.0317,0.6905,1.6416,0.9629c0.1704,0.0772,0.3476,0.1504,0.5278,0.2178
				c0.1738,0.0644,0.3491,0.1299,0.5264,0.1865c0.0176,0.0039,0.0395,0.0088,0.0561,0.0186
				c0.1665,0.0517,0.3394,0.0996,0.5118,0.1465c0.1723,0.04,0.3432,0.0849,0.5205,0.124c0.6123,0.1308,1.2558,0.2129,1.9174,0.2471
				c0.1822,0.0048,0.3711,0.0117,0.5562,0.0117c0.0039,0,0.0088,0,0.0088,0c0.1821,0,0.3618-0.0059,0.54-0.0117
				c2.9361-0.1329,5.5093-1.3145,6.8404-2.9678c0.5507-0.6875,0.8945-1.4561,0.9521-2.2627
				c0.0088-0.0879,0.0117-0.1738,0.0117-0.2608c0-0.0156,0-0.0293,0-0.042c-0.0029-0.1162-0.0117-0.2304-0.0215-0.3505
				c-0.1045-0.876-0.5244-1.7061-1.2031-2.4327c-0.1875,0.1905-0.3896,0.3692-0.5937,0.5391
				c-0.0567,0.044-0.1153,0.084-0.169,0.1279c-0.0605,0.045-0.1181,0.087-0.1728,0.128c-1.6475,1.208-3.6612,1.789-5.8692,1.789
				c-0.456,0-0.9077-0.0312-1.3515-0.0771c-0.0459-0.0059-0.0894-0.0137-0.1338-0.0156c-1.8081-0.2256-3.4908-0.8731-4.9121-1.9727
				c-0.0591-0.0488-0.1211-0.0986-0.1841-0.1494c-0.0591-0.0498-0.125-0.0967-0.1821-0.1533
				c-0.1622-0.1348-0.316-0.2793-0.4664-0.4268c-0.6626,0.6436-1.123,1.3799-1.3217,2.166
				c-0.0337,0.1436-0.0591,0.2813-0.0786,0.4258c-0.0132,0.1172-0.025,0.2354-0.0279,0.3535c0,0.0322-0.0039,0.0615-0.0039,0.0908
				c0,0.6192,0.1694,1.2237,0.4736,1.7823C29.1118,50.1377,29.3579,50.4785,29.6538,50.8008z"/>
		</g>
		<g>
			<path fill="#434A54" d="M32.3379,17.2846c0.561-0.1318,1.4853,0.5943,1.188,2.3116c-0.2964,1.7168-1.0894,2.0796-1.4195,2.3779
				c-0.3315,0.2964-0.7587,1.187-0.2319,1.9795c0.5283,0.793,1.4526,1.8491,1.4526,1.8491l0.0069,0.0068
				c-0.2837,0.251-0.5444,0.5494-0.7695,0.9029l-0.0289-0.0181l-3.0039-4.1265c0,0-0.8266-0.9262-2.4111-0.2973
				c-1.5835,0.6279-3.1357-1.3867-3.1357-1.3867s-0.4624-1.1221,0.1635-1.2549c0.6299-0.1309,1.3887,1.1889,1.3887,1.1889
				s1.0225,1.1231,1.98,0.2647c0.958-0.8594-0.7588-2.7085-1.188-3.1699c-0.4297-0.4619-2.2114-1.5513-1.2871-4.2915
				c0.9233-2.7408,1.7822-3.17,1.7822-3.17s0.9234-0.3632,0.5611,0.9903c-0.3624,1.354-1.5518,3.73-0.4942,5.1494
				c1.0552,1.4219,1.814,1.0254,2.4419,0.1987c0.6279-0.8247,1.0571-1.7827,0.4292-2.3769
				c-0.6269-0.5943-0.2983-0.7261-0.0659-0.9575c0.2314-0.2305,0.9892-0.1319,1.5185,1.0244
				c0.5284,1.1552-0.8574,3.2334-1.2539,3.8296c-0.3964,0.5942-0.8925,2.0136,0.1646,2.6079
				c1.0561,0.5937,1.9809-0.3296,1.8491-1.3868C31.8408,18.4736,31.7749,17.4175,32.3379,17.2846z"/>
			<path fill="#434A54" d="M51.6113,19.4321c0.625,0.1328,0.1641,1.2559,0.1641,1.2559s-1.5518,2.0127-3.1367,1.3867
				c-1.583-0.6279-2.4092,0.2973-2.4092,0.2973l-2.9902,4.106c-0.211-0.3809-0.461-0.6968-0.7334-0.9575
				c0.2324-0.2671,0.9423-1.1074,1.3798-1.7627c0.5274-0.7925,0.0997-1.6831-0.2324-1.9805
				c-0.3291-0.2973-1.123-0.6601-1.4189-2.376c-0.2969-1.7182,0.626-2.4443,1.1865-2.3125
				c0.5645,0.1329,0.4971,1.1885,0.3643,2.2456c-0.1319,1.0562,0.7929,1.9815,1.8486,1.3868
				c1.0576-0.5943,0.5615-2.0127,0.166-2.6089c-0.3975-0.5938-1.7832-2.6734-1.2549-3.8296
				c0.5293-1.1563,1.2881-1.2539,1.5196-1.0234c0.2294,0.2309,0.5605,0.3637-0.0684,0.9584
				c-0.626,0.5933-0.1963,1.5513,0.4316,2.376c0.628,0.8257,1.3848,1.2222,2.4414-0.1987c1.0567-1.4194-0.1318-3.7964-0.4931-5.1484
				c-0.3643-1.3536,0.5605-0.9913,0.5605-0.9913s0.8574,0.4283,1.7813,3.169c0.9248,2.7402-0.8565,3.8315-1.2881,4.2925
				c-0.4287,0.4604-2.1455,2.3105-1.1865,3.1689c0.957,0.8594,1.9804-0.2646,1.9804-0.2646S50.9834,19.3003,51.6113,19.4321z"/>
		</g>
		<path fill="#FFFFFF" d="M49.9717,22.8008l-6.7959,3.3662c0,0-4.4219-1.4034-5.8965-1.4034c-1.5127,0-6.0498,1.4034-6.0498,1.4034
			l-6.7979-3.3662c0,0-5.7417,9.9043,6.2754,9.3154c-5.7339,5.6474-1.0273,16.4121,6.23,16.914c0,0,0.1192,0,0.1587,0
			C44.252,49.042,49.915,38.789,43.3203,32.0947C55.833,32.9067,49.9717,22.8008,49.9717,22.8008z"/>
		<path fill="#CCD1D9" d="M25.167,24.2636c0,0,5.6943,3.7666,4.6787,6.646C29.8457,30.9096,21.7617,31.8603,25.167,24.2636z"/>
		<path fill="#CCD1D9" d="M49.1719,24.2636c0,0-5.6963,3.7666-4.6826,6.646C44.4893,30.9096,52.5752,31.8603,49.1719,24.2636z"/>
		<circle fill="#434A54" cx="31.9904" cy="36.1133" r="0.8542"/>
		<circle fill="#434A54" cx="42.2417" cy="36.1133" r="0.855"/>
		<g>
			<path fill="#FC6E51" d="M36.4243,44.0527c0.2276,0.0938,0.4361,0.3106,0.5943,0.5498c0.0161,0,0.0336-0.0029,0.0502-0.0039
				c0.1377-0.2187,0.2666-0.4707,0.4864-0.5859c0.3672-0.1934,0.6909-0.2061,0.978-0.1114
				c0.1318-0.1816,0.2139-0.3857,0.2139-0.6044c0-0.7237-0.8159-1.3125-1.8189-1.3125c-1.0049,0-1.8169,0.5888-1.8169,1.3125
				c0,0.2773,0.1201,0.5341,0.3238,0.746C35.7246,43.9228,36.0513,43.9013,36.4243,44.0527z"/>
			<path fill="#434A54" d="M44.0615,46.582c-0.2715,1.1563-2.4668,0.584-3.1484-0.3799c-0.2559-0.4511-0.8828-1.3867-1.9199-1.6054
				c-0.3692-0.0782-0.7876-0.0665-1.2618,0.0908c-0.2836,0.0947-0.4506,0.2998-0.6269,0.4785
				c-0.021,0.0019-0.0425,0.0029-0.0649,0.0039c-0.2032-0.1943-0.4717-0.373-0.7662-0.4492
				c-0.4809-0.124-0.9013-0.1074-1.2744-0.0088c-0.9741,0.2578-1.6098,1.085-2.04,1.5312c-0.7149,1.003-2.874,1.3829-3.2315,0.3389
				c-0.1572,1.4219,3.6529,1.4766,5.5503,0.8457c1.1099-0.3682,1.6197-0.8642,1.7408-1.3535
				C37.7163,47.6465,44.3896,48.6963,44.0615,46.582z"/>
		</g>
		<path fill="#434A54" d="M37.2715,34.2314c-0.793,0-2.2017-0.5293-3.1079-0.8633c-0.7647-0.2851-2.1114-0.477-2.7901-0.4961
			c-1.7588-0.0517-2.9506,0.0259-4.623,0.2984c-0.1494,0.0239-0.1792,0.1518-0.1792,0.3042v0.8779
			c0,0.1094-0.0195,0.2124,0.0698,0.2735l0.3242,0.249c0.1397,0.0976,0.2085,0.2539,0.2173,0.4243
			c0.2046,3.7397,1.1143,4.6743,4.0479,4.8491c2.9194,0.1758,4.539-1.665,4.8574-3.3716c0.1338-0.7158,0.6406-1.063,1.1865-1.063
			c0.5464,0,1.0542,0.3472,1.188,1.063c0.3198,1.7066,1.9419,3.5474,4.8638,3.3716c2.9316-0.1748,3.8506-1.1094,4.0556-4.8491
			c0.0098-0.1704,0.0996-0.3267,0.2412-0.4243l0.3418-0.249c0.0889-0.0611,0.1309-0.1641,0.1309-0.2735v-0.8779
			c0-0.1524-0.0908-0.2803-0.2412-0.3042c-1.6719-0.2725-2.9385-0.3501-4.6963-0.2984c-0.6797,0.0191-2.0186,0.211-2.7842,0.4961
			C39.4678,33.7021,38.0649,34.2314,37.2715,34.2314z M27.3911,34.3681c-0.0952,0-0.1728-0.1504-0.1728-0.3374
			c0-0.187,0.0776-0.3374,0.1728-0.3374c0.0947,0,0.1724,0.1504,0.1724,0.3374C27.5635,34.2177,27.4858,34.3681,27.3911,34.3681z
			 M46.9814,34.0307c0-0.187,0.0752-0.3374,0.1709-0.3374c0.0967,0,0.1729,0.1504,0.1729,0.3374
			c0,0.187-0.0762,0.3374-0.1729,0.3374C47.0566,34.3681,46.9814,34.2177,46.9814,34.0307z M33.5811,39.0918
			c-1.1675,0.7158-3.8848,0.3877-4.6231-0.1866c-0.7598-0.5913-1.4468-3.2753-0.3374-4.6235
			c0.8604-1.0464,6.4634-0.4223,6.6826,0.9624C35.5415,36.7529,34.9321,38.2646,33.5811,39.0918z M39.2402,35.2441
			c0.2198-1.3847,5.8213-2.0088,6.6836-0.9624c1.1084,1.3482,0.4219,4.0322-0.3379,4.6235c-0.7373,0.5743-3.455,0.9024-4.625,0.1866
			C39.6113,38.2646,39.001,36.7529,39.2402,35.2441z"/>
		<path fill="#434A54" d="M34.6992,49.7168c0.2027-0.4737,0.6924-1.3125,1.0874-1.7823c0.1133-0.1347,0.1143-0.3261-0.0171-0.4443
			l-0.0136-0.0137c0.207-0.2431,0.4707-0.4287,0.7363-0.5664l0,0c0.0815-0.042,0.1626-0.081,0.2422-0.1152l0,0
			c0.0454-0.0195,0.0913-0.0381,0.1347-0.0527c0.189-0.0713,0.3633-0.1192,0.5-0.1504c-0.0117-0.0264-0.0224-0.0547-0.0337-0.0801
			c-0.0019-0.0049-0.0039-0.0088-0.0058-0.0127c0-0.001-0.001-0.002-0.001-0.002c-0.0224-0.0498-0.0459-0.1005-0.0698-0.1503
			c-0.002-0.004-0.0039-0.0079-0.0059-0.0108c-0.0254-0.0517-0.0512-0.1025-0.0786-0.1543
			c-0.001-0.0019-0.0019-0.0039-0.0029-0.0068c-0.001,0-0.001-0.001-0.001-0.001c-0.0171,0.0049-0.0356,0.0098-0.0542,0.0147
			c-0.1221,0.0322-0.2588,0.0742-0.4058,0.1289c-0.0244,0.0097-0.0498,0.0214-0.0747,0.0312c0-0.001-0.0009,0-0.0019,0
			c-0.4053,0.1611-0.8692,0.419-1.2261,0.8389c-0.1299-0.0606-0.2934-0.0567-0.4009,0.0332
			c-0.9653,0.8037-1.666,2.6347-1.666,2.6347l-0.4004-0.9658c-0.084-0.2031-0.3203-0.3056-0.5278-0.2314
			c0,0-0.4429,0.1113-0.6938,0.206c-0.2452,0.0918-0.6309,0.2813-0.6309,0.2813c-0.2066,0.0771-0.3506,0.3154-0.3003,0.5293
			c0.063,0.2724,0.1763,0.6699,0.374,1.1474c0.3809,0.9151,1.2266,1.1895,1.9527,0.8995
			C34.022,51.3613,34.5454,50.0781,34.6992,49.7168z"/>
	</g>
</g>
</svg>
