<?xml version="1.0" encoding="utf-8"?>
<!-- Generator: Adobe Illustrator 17.1.0, SVG Export Plug-In . SVG Version: 6.00 Build 0)  -->
<!DOCTYPE svg PUBLIC "-//W3C//DTD SVG 1.1//EN" "http://www.w3.org/Graphics/SVG/1.1/DTD/svg11.dtd">
<svg version="1.1" id="holly" xmlns="http://www.w3.org/2000/svg" xmlns:xlink="http://www.w3.org/1999/xlink" x="0px" y="0px"
	 viewBox="0 0 74.9995 74.9995" enable-background="new 0 0 74.9995 74.9995" xml:space="preserve">
<g id="holly-holly">
	<circle fill="#434A54" cx="37.4997" cy="37.499" r="37.4998"/>
	<g id="holly-holly_1_">
		<path fill="#FC6E51" d="M37.3149,29.9194c0.9126,1.002,1.3711,2.1558,1.3711,3.46c0,1.4346-0.4804,2.6313-1.437,3.5849
			c-0.9556,0.9581-2.043,1.4361-3.2607,1.4361c-1.3492,0-2.4673-0.4971-3.3609-1.4995c-0.8925-1.002-1.3374-2.1743-1.3374-3.5215
			c0-1.3487,0.4663-2.5137,1.4033-3.4912c0.9341-0.9776,2.0313-1.4673,3.295-1.4673C35.3349,28.4209,36.4438,28.917,37.3149,29.9194
			z M33.269,31.9433c0.1734-0.1743,0.2608-0.393,0.2608-0.6518c0-0.2183-0.0874-0.4258-0.2608-0.6201
			c-0.1743-0.1948-0.3896-0.294-0.6518-0.294c-0.1739,0-0.3579,0.0747-0.5547,0.2261c-0.1948,0.1548-0.2915,0.3613-0.2915,0.6201
			c0,0.2188,0.0854,0.4253,0.2598,0.6211c0.1733,0.1939,0.3896,0.2935,0.6513,0.2935
			C32.8564,32.1382,33.0522,32.0752,33.269,31.9433z M39.2729,40.8179c0.9131,0.9101,1.3702,2.0634,1.3702,3.455
			c0,1.3955-0.4786,2.5684-1.4366,3.5215c-0.9555,0.958-2.0449,1.4405-3.2607,1.4405c-1.3047,0-2.4033-0.4883-3.294-1.4717
			c-0.8935-0.9785-1.3383-2.1436-1.3383-3.4903c0-1.3486,0.4673-2.5136,1.4013-3.4922c0.9341-0.9765,2.0118-1.4667,3.231-1.4667
			C37.2925,39.314,38.4033,39.8159,39.2729,40.8179z M35.2934,42.8374c0.129-0.2158,0.1949-0.4131,0.1949-0.584
			c0-0.2637-0.0977-0.5019-0.2925-0.7207c-0.1939-0.2187-0.4033-0.3252-0.6206-0.3252c-0.2188,0-0.4028,0.0752-0.5562,0.2266
			c-0.1508,0.1552-0.2265,0.3818-0.2265,0.6875c0,0.2197,0.0854,0.4209,0.2597,0.6162c0.1734,0.2002,0.3916,0.2929,0.6529,0.2929
			C34.8799,43.0307,35.0757,42.9692,35.2934,42.8374z M47.3647,33.7681c0.9121,0.914,1.3702,2.0678,1.3702,3.4594
			c0,1.3902-0.4805,2.5689-1.4366,3.522c-0.959,0.958-2.0429,1.4365-3.2617,1.4365c-1.3066,0-2.4072-0.4902-3.2969-1.4678
			c-0.8916-0.9785-1.3369-2.1435-1.3369-3.4907c0-1.3476,0.4688-2.5127,1.4053-3.4912c0.9336-0.978,2.0078-1.4673,3.2285-1.4673
			C45.3833,32.269,46.4927,32.771,47.3647,33.7681z M43.3159,35.7246c0.1738-0.1714,0.2637-0.3906,0.2637-0.6519
			c0-0.2153-0.0899-0.4218-0.2637-0.6167c-0.1728-0.1982-0.3896-0.2944-0.6494-0.2944c-0.1768,0-0.3604,0.0767-0.5547,0.2266
			c-0.1973,0.1552-0.2939,0.3628-0.2939,0.6206c0,0.1313,0.0966,0.3252,0.2939,0.5879c0.1943,0.2588,0.4014,0.3896,0.6182,0.3896
			C42.9497,35.9863,43.1431,35.8989,43.3159,35.7246z"/>
		<path fill="#A0D468" d="M30.0732,40.5561c-0.1299,0.2188-0.3042,0.5948-0.5234,1.1397c-0.2168,0.5439-0.3237,1.0576-0.3237,1.5342
			l-0.3931,3.9131c-0.6089-0.0831-1.0225-0.1319-1.2397-0.1319c-1.2178,0-2.522,0.3496-3.9136,1.0449
			c-1.3936,0.6963-2.2183,1.6788-2.481,2.9346l-1.2383-0.8447c-0.435-0.2637-0.914-0.499-1.435-0.7178
			c-0.5225-0.2168-1.0244-0.3252-1.5015-0.3252H16.436c-1.1758,0-2.2607,0.2832-3.2627,0.8467l0.9805-0.7832
			c0.6084-0.6084,1.1406-1.3799,1.5991-2.3135c0.4561-0.9385,0.6831-2.0801,0.6831-3.4267c0-0.6084-0.0215-1.0664-0.0649-1.3721
			c0.3476,0.1318,0.6753,0.1992,0.9775,0.1992c0.6543,0,1.5884-0.3935,2.8067-1.1758c1.435-1.0429,2.4795-2.4345,3.1328-4.1767
			l3.3916,1.6972c0.3467,0.1729,0.7075,0.291,1.0776,0.3584c0.3682,0.0645,0.8799,0.0957,1.5327,0.0957l-9.1347,6.5909
			L30.0732,40.5561z"/>
		<path fill="#A0D468" d="M50.3003,21.1099l-0.8487,0.456c-0.6103,0.5254-1.1435,1.3482-1.5986,2.4819
			c-0.456,1.1329-0.6846,2.2818-0.6846,3.4585c0,0.7828,0.085,1.4546,0.2598,2.0196l-3.7187,0.7197
			c-0.7832,0.1318-1.5664,0.5215-2.3496,1.1738l3.9169-10.958l-5.4169,10.2417c0-1.0903-0.2383-1.999-0.7188-2.7432l-1.8262-3.392
			l1.3067-0.8467c0.8681-0.7383,1.4883-1.4351,1.8584-2.0864c0.3662-0.6519,0.6728-1.3169,0.9131-1.9922
			c0.2363-0.6724,0.3584-1.2481,0.3584-1.73l-0.1934-1.1724c0.9551,0,1.7578-0.0678,2.4131-0.1958
			c0.6504-0.1308,1.4453-0.4804,2.3799-1.0454c0.9375-0.564,1.7089-1.4985,2.3173-2.8066c-0.3916,0.915-0.5869,1.8925-0.5869,2.9384
			C48.0815,17.6308,48.8179,19.4595,50.3003,21.1099z"/>
		<path fill="#A0D468" d="M53.8862,51.7759c-0.9111,1.5654-1.3701,3.0927-1.3701,4.5673c0,1.4346,0.4141,2.7618,1.2422,3.9795
			l-0.8486-0.9111c-0.6534-0.6123-1.3614-1.0644-2.1211-1.3701c-0.7618-0.3027-1.5772-0.458-2.4473-0.458
			c-0.4766,0-0.9365,0-1.3701,0c-0.4785,0.1299-0.8047,0.2178-0.9795,0.2617c0.043-0.1318,0.0664-0.3701,0.0664-0.7187
			c0-0.9551-0.5215-2.0987-1.5664-3.4229c-1.042-1.3271-2.3936-2.2305-4.044-2.7129l1.2383-3.7178
			c0.1739-0.4746,0.2617-1.083,0.2617-1.8232c0-0.4385-0.0234-0.7637-0.0644-0.9785l7.1133,8.9385l-5.8086-9.9834
			c0.8701,0.4765,1.7187,0.7148,2.5429,0.7148l3.7207-0.0635c0,0.9571,0.0987,1.8487,0.295,2.6758
			c0.1933,0.8281,0.6396,1.8359,1.3369,3.0332C51.7778,50.9849,52.7153,51.6479,53.8862,51.7759z"/>
	</g>
</g>
</svg>
