<?xml version="1.0" encoding="utf-8"?>
<!-- Generator: Adobe Illustrator 17.1.0, SVG Export Plug-In . SVG Version: 6.00 Build 0)  -->
<!DOCTYPE svg PUBLIC "-//W3C//DTD SVG 1.1//EN" "http://www.w3.org/Graphics/SVG/1.1/DTD/svg11.dtd">
<svg version="1.1" id="joy" xmlns="http://www.w3.org/2000/svg" xmlns:xlink="http://www.w3.org/1999/xlink" x="0px" y="0px"
	 viewBox="0 0 75 74.9995" enable-background="new 0 0 75 74.9995" xml:space="preserve">
<g id="joy-joy">
	<circle id="joy-label" fill="#434A54" cx="37.5" cy="37.5" r="37.5"/>
	<g id="joy-joy_1_">
		<path fill="#A0D468" d="M52.1367,51.3452V42.854l-5.1074-14.7739h5.6943L54.1035,33.5c0.3779,1.4487,0.7236,3.1416,1.001,4.7974
			h0.0693c0.2061-1.6202,0.4834-3.2793,0.8272-4.9014l1.1064-5.3159h5.5196L57.4854,42.647v8.6982H52.1367z"/>
		<g>
			<path fill="#FFFFFF" d="M46.3857,34.5317h-20.394c1.7915-3.4209,5.252-5.8413,9.2891-6.1592l-5.75-2.4516l1.4038-1.814
				l4.7949,4.2412c0.1523-0.0049,0.3052-0.0132,0.4585-0.0132c0.0825,0,0.1636,0.004,0.2441,0.0083l4.5855-4.6899l1.1826,1.9653
				l-5.3272,2.7383C41.0098,28.602,44.5625,31.0454,46.3857,34.5317z"/>
			<path fill="#E9573F" d="M46.1846,45.5112H26.1953c-0.9575-1.6758-1.5117-3.6103-1.5117-5.6728
				c0-1.439,0.2788-2.814,0.7637-4.0855h21.4824c0.4873,1.2715,0.7666,2.6465,0.7666,4.0855
				C47.6963,41.9009,47.1396,43.8354,46.1846,45.5112z"/>
			<g>
				<path fill="#FFCE54" d="M30.3428,40.9536c0-1.2773-1.043-2.3184-2.3218-2.3184c-1.2734,0-2.3135,1.0411-2.3135,2.3184
					c0,1.2744,1.0401,2.3154,2.3135,2.3154C29.2998,43.269,30.3428,42.228,30.3428,40.9536z"/>
				<path fill="#FFCE54" d="M31.6064,39.2554c0.6397,0,1.1587-0.5215,1.1587-1.1582c0-0.6397-0.519-1.1582-1.1587-1.1582
					c-0.6357,0-1.1582,0.5185-1.1582,1.1582C30.4482,38.7339,30.9707,39.2554,31.6064,39.2554z"/>
				<path fill="#FFCE54" d="M34.2285,40.8481c0-0.6621-0.5444-1.209-1.2095-1.209c-0.6665,0-1.2114,0.5469-1.2114,1.209
					c0,0.667,0.5449,1.2139,1.2114,1.2139C33.6841,42.062,34.2285,41.5151,34.2285,40.8481z"/>
				<path fill="#FFCE54" d="M37.374,38.3535c0-0.687-0.562-1.248-1.2519-1.248c-0.69,0-1.251,0.561-1.251,1.248
					c0,0.6929,0.561,1.2524,1.251,1.2524C36.812,39.6059,37.374,39.0464,37.374,38.3535z"/>
				<path fill="#FFCE54" d="M41.6768,40.7788c0-1.2773-1.0401-2.3164-2.3164-2.3164c-1.2759,0-2.316,1.0391-2.316,2.3164
					c0,1.2754,1.0401,2.3164,2.316,2.3164C40.6367,43.0952,41.6768,42.0542,41.6768,40.7788z"/>
				<circle fill="#FFCE54" cx="44.3764" cy="42.0522" r="1.0307"/>
				<path fill="#FFCE54" d="M46.0156,38.562c0-0.8306-0.6797-1.5127-1.5117-1.5127c-0.833,0-1.5117,0.6821-1.5117,1.5127
					c0,0.833,0.6787,1.5137,1.5117,1.5137C45.3359,40.0757,46.0156,39.395,46.0156,38.562z"/>
			</g>
			<path fill="#FFFFFF" d="M27.0054,46.729c-0.295-0.3877-0.5659-0.791-0.8101-1.2178c1.9834,3.4756,5.7193,5.834,9.9927,5.834
				c4.2641,0,7.9907-2.3447,9.979-5.8047c-0.2402,0.4131-0.5049,0.8086-0.793,1.1885H27.0054z"/>
		</g>
		<path fill="#A0D468" d="M16.5493,27.8047h5.3511v15.4624c0,7.3535-3.73,8.0781-7.0083,8.0781
			c-1.0347,0-2.002-0.1728-2.5195-0.3818l0.4497-4.4844c0.4497,0.1377,0.9311,0.2051,1.5527,0.2051
			c1.0713,0,2.1743-0.4473,2.1743-3.1397V27.8047z"/>
	</g>
</g>
</svg>
