<?xml version="1.0" encoding="utf-8"?>
<!-- Generator: Adobe Illustrator 17.1.0, SVG Export Plug-In . SVG Version: 6.00 Build 0)  -->
<!DOCTYPE svg PUBLIC "-//W3C//DTD SVG 1.1//EN" "http://www.w3.org/Graphics/SVG/1.1/DTD/svg11.dtd">
<svg version="1.1" id="santa" xmlns="http://www.w3.org/2000/svg" xmlns:xlink="http://www.w3.org/1999/xlink" x="0px" y="0px"
	 viewBox="0 0 75 75" enable-background="new 0 0 75 75" xml:space="preserve">
<g id="santa-santa">
	<circle id="santa-label" fill="#434A54" cx="37.5" cy="37.5" r="37.5"/>
	<g id="santa-santa_1_">
		<path fill="#E9573F" d="M26.3833,19.6289c0,0,2.2656-4.5825,7.1396-5.7085c0,0,5.316-2.1816,12.0669,1.4429
			c6.1553,3.3061,7.9248,9.1787,6.3741,17.9707l-0.083,1.9917l-2.1612,0.251L26.3833,19.6289z"/>
		<path fill="#AF412F" d="M48.6514,31.2427c0,0,1.6279-6.3316,0.667-10.6504c0,0,0.4804,4.8955-1.5371,6.8149L48.6514,31.2427z"/>
		<g>
			<circle fill="#A0D468" cx="50.4824" cy="35.6724" r="5.0674"/>
		</g>
		<circle fill="#FFFFFF" cx="25.5361" cy="27.9917" r="3.0835"/>
		<ellipse fill="#F6B3B3" cx="35.3872" cy="34.0278" rx="11.8784" ry="13.7417"/>
		
			<ellipse transform="matrix(-0.992 -0.1263 0.1263 -0.992 75.698 53.7923)" fill="#F6F2E1" cx="39.5547" cy="24.4958" rx="2.6728" ry="0.911"/>
		<path fill="#713C1A" d="M39.0469,28.979c0,0,1.3467-1.3672,2.7978,0.0342c0,0,0.7002,0.3447,0.8203-0.374
			c0,0-0.2578,0.3505-0.6572,0.0097C42.0078,28.6489,40.3223,26.8301,39.0469,28.979z"/>
		<path fill="#713C1A" d="M31.6797,28.979c0,0-1.3467-1.3672-2.8003,0.0342c0,0-0.6978,0.3447-0.8198-0.374
			c0,0,0.2578,0.3505,0.6572,0.0097C28.7168,28.6489,30.4048,26.8301,31.6797,28.979z"/>
		<path fill="#FFFFFF" d="M46.1191,28.0498c2.3907,5.7979-6.3574,4.6709-6.3574,4.6709l0.0928,0.1704
			c-1.4282-0.4726-2.9419-0.7275-4.5156-0.7275c-1.6607,0-3.2618,0.2895-4.7578,0.8169c-1.5894,0.1367-8.1265,0.4008-6.0176-4.7066
			c0,0-7.9248,8.2154-4.043,23.7583l0.0562-0.1045c1.5444,7.167,7.4462,9.8018,14.644,9.8018c7.252,0,13.4307-2.7158,14.9219-9.9619
			l0.0185,0.039C54.042,36.2627,46.1191,28.0498,46.1191,28.0498z"/>
		<path fill="#AF412F" d="M36.2461,39.042c0,0.748-0.3701,1.3525-0.8257,1.3525c-0.4575,0-0.8296-0.6045-0.8296-1.3525
			c0-0.7495,0.3721-1.356,0.8296-1.356C35.876,37.686,36.2461,38.2925,36.2461,39.042z"/>
		
			<ellipse transform="matrix(0.9895 -0.1445 0.1445 0.9895 -3.1862 4.7326)" fill="#F6F2E1" cx="30.9937" cy="24.3051" rx="2.6736" ry="0.9081"/>
		<path fill="#A0D468" d="M40.7871,17.5708c0,0-7.706-3.5054-15.0825,2.3887c-1.5772,1.2597-0.6665,3.0464-0.6065,3.1543
			c0.9302,1.6279,1.754,1.2353,1.754,1.2353s12.268-6.7212,20.5629,6.6543c0,0,0.7891,1.3071,1.4502-0.6152
			C48.8652,30.3882,50.0527,22.0728,40.7871,17.5708z"/>
		<path fill="#22252A" d="M35.4438,26.7988c-0.851,0-2.3608-0.5669-3.3334-0.9253c-0.8199-0.3051-2.2637-0.5117-2.9908-0.5312
			c-1.8857-0.0562-3.1631,0.0273-4.9575,0.3188c-0.1592,0.0264-0.1899,0.1641-0.1899,0.3267v0.9409
			c0,0.1172-0.0215,0.2275,0.0737,0.2935l0.3486,0.2656c0.1494,0.1055,0.2232,0.2725,0.2329,0.4556
			c0.2188,4.0087,1.1939,5.0127,4.3374,5.1997c3.1319,0.188,4.8663-1.7857,5.2095-3.6153c0.1416-0.7675,0.6861-1.1386,1.2715-1.1386
			c0.585,0,1.1318,0.3711,1.2749,1.1386c0.3413,1.8296,2.0801,3.8033,5.2139,3.6153c3.1435-0.187,4.1279-1.191,4.3467-5.1997
			c0.0097-0.1831,0.1064-0.3501,0.2578-0.4556l0.3662-0.2656c0.0967-0.066,0.1396-0.1763,0.1396-0.2935v-0.9409
			c0-0.1626-0.0967-0.3003-0.2578-0.3267c-1.791-0.2915-3.1494-0.375-5.0332-0.3188c-0.7285,0.0195-2.165,0.2261-2.9844,0.5312
			C37.7964,26.2319,36.2925,26.7988,35.4438,26.7988z M24.8501,26.9463c-0.1006,0-0.1841-0.1621-0.1841-0.3623
			c0-0.1997,0.0835-0.3618,0.1841-0.3618s0.1841,0.1621,0.1841,0.3618C25.0342,26.7842,24.9507,26.9463,24.8501,26.9463z
			 M45.8516,26.584c0-0.1997,0.081-0.3618,0.1855-0.3618c0.1006,0,0.1846,0.1621,0.1846,0.3618c0,0.2002-0.084,0.3623-0.1846,0.3623
			C45.9326,26.9463,45.8516,26.7842,45.8516,26.584z M31.4883,32.0103c-1.2544,0.7666-4.167,0.416-4.958-0.2007
			c-0.814-0.6338-1.5523-3.5117-0.3623-4.9566c0.9243-1.122,6.9306-0.4536,7.165,1.0323
			C33.5889,29.5015,32.936,31.1226,31.4883,32.0103z M37.5542,27.8853c0.2344-1.4859,6.2407-2.1543,7.1636-1.0323
			c1.1894,1.4449,0.4531,4.3228-0.3604,4.9566c-0.791,0.6167-3.706,0.9673-4.958,0.2007
			C37.9517,31.1226,37.2964,29.5015,37.5542,27.8853z"/>
		<path fill="#E9573F" d="M33.6841,36.2734c-1.2388-0.6367-2.0835-1.9248-2.0835-3.4111c0-2.1167,1.7148-3.8315,3.8315-3.8315
			c2.1162,0,3.8316,1.7148,3.8316,3.8315c0,1.459-0.8159,2.7275-2.0176,3.376"/>
	</g>
</g>
</svg>
