<?xml version="1.0" encoding="utf-8"?>
<!-- Generator: Adobe Illustrator 17.1.0, SVG Export Plug-In . SVG Version: 6.00 Build 0)  -->
<!DOCTYPE svg PUBLIC "-//W3C//DTD SVG 1.1//EN" "http://www.w3.org/Graphics/SVG/1.1/DTD/svg11.dtd">
<svg version="1.1" id="skate" xmlns="http://www.w3.org/2000/svg" xmlns:xlink="http://www.w3.org/1999/xlink" x="0px" y="0px"
	 viewBox="0 0 75 75" enable-background="new 0 0 75 75" xml:space="preserve">
<g id="skate-skate">
	<circle id="skate-label" fill="#434A54" cx="37.5" cy="37.5" r="37.5"/>
	<g id="skate-skate_1_">
		<path fill="#FFFFFF" d="M40.834,48.6152c0.1269,0,13.3935,0,16.5312,0c-0.1738-4.0283-3.5517-5.5654-6.7636-6.8574l-1.4356,2.0869
			c-0.207,0.3008-0.6172,0.378-0.916,0.1709c-0.3027-0.207-0.377-0.6172-0.1719-0.9189l1.2676-1.8438
			c-0.0205-0.0088-0.04-0.0166-0.0596-0.0244c-0.7031-0.2861-1.3955-0.5683-2.0703-0.8525l-1.7021,2.1826
			c-0.2237,0.2871-0.6387,0.3369-0.9248,0.1143c-0.2881-0.2247-0.3399-0.6397-0.1143-0.9278l1.4863-1.9062
			c-0.7539-0.333-1.4824-0.6758-2.1767-1.0401l-2.0567,2.1104c-0.2558,0.2597-0.6718,0.2656-0.9326,0.0107
			c-0.2607-0.2539-0.2666-0.6719-0.0117-0.9336l1.8145-1.8603c-0.6182-0.376-1.1993-0.7813-1.7403-1.2212l-2.5732,1.8266
			c-0.2979,0.211-0.7105,0.1416-0.9209-0.1572c-0.211-0.2949-0.1416-0.707,0.1572-0.918l2.3399-1.6611
			c-0.4454-0.4565-0.8555-0.9458-1.2168-1.4873c-0.002-0.0029-0.003-0.0058-0.0049-0.0098l-2.9673,1.1744
			c-0.3394,0.1347-0.7227-0.0308-0.8574-0.3692c-0.1338-0.3403,0.0327-0.7231,0.3701-0.8564l2.7617-1.0933
			c-0.3169-0.5776-0.5874-1.1611-0.8071-1.7558l-3.0469,0.4321c-0.3613,0.0513-0.6958-0.1997-0.7471-0.5611
			c-0.0512-0.3613,0.2007-0.6948,0.562-0.746l2.8306-0.4014c-0.1772-0.6812-0.2993-1.3867-0.3721-2.124l-2.9497,0.0996
			c-0.3633,0.0136-0.6684-0.273-0.6811-0.6358c-0.0127-0.3642,0.2729-0.6694,0.6367-0.6821l2.9145-0.0996
			c-0.0039-0.1523-0.0068-0.3062-0.0068-0.4624c0-0.6328,0-1.1997,0-1.7085h-2.9951c-0.3643,0-0.6587-0.2944-0.6587-0.6597
			c0-0.3633,0.2944-0.6592,0.6587-0.6592h2.9951c0-1.123,0-1.7006,0-1.7006c0-2.6133,0-3.6724-1.4932-4.667
			c-1.2133-0.8091-3.5473,0-3.5473,0l-9.707,2.2397c0.311,4.606-0.1871,8.2764-0.8101,14.2515
			c-0.4663,4.4741-0.4692,8.4438-0.4556,9.7505h9.1167C29.3823,43.2637,40.7012,48.5537,40.834,48.6152z"/>
		<path fill="#22252A" d="M57.3682,50.7646c0-0.3867,0-1.1025,0-1.4892c-0.6348,0-16.6807,0-16.6807,0s-11.3198-5.29-11.4517-5.3516
			c-0.1372,0-8.3618,0-8.9702,0c0,0.5528,0,4.6719,0,5.2237c0.5904,0,7.8755,0,8.4654,0c0-0.545,0-3.7979,0-3.7979
			s11.4741,5.3545,11.604,5.415C40.4775,50.7646,56.7363,50.7646,57.3682,50.7646z"/>
		<path fill="#AAB2BC" d="M57.6875,53.3604c-0.498-0.8702-1.2461-1.8672-1.2461-1.8672h-2.6123c0,0,0.4961,0.872,1.1191,2.3652
			c0.6221,1.4932-0.0527,2.6836-4.3466,2.6836c-4.295,0-4.2598-2.2813-4.2598-3.0244c0-0.7412,0.0195-2.0244,0.0195-2.0244h-2.1162
			v2.5752c0,2.1435-2.2754,2.1543-2.2754,2.1543H27.8164c-2.9858,0-2.8638-2.5127-2.8638-2.5127v-3.8204h-2.3632
			c0,0,0.0019,1.5723,0,3.7666c-0.003,2.2549-2.4903,2.0684-2.4903,2.0684h-2.7368l-0.8711,2.6143h38.333
			c1.4922,0,2.9873-0.3721,3.541-1.7237C58.8555,55.4248,57.9668,53.8525,57.6875,53.3604z"/>
	</g>
</g>
</svg>
