<?xml version="1.0" encoding="utf-8"?>
<!-- Generator: Adobe Illustrator 17.1.0, SVG Export Plug-In . SVG Version: 6.00 Build 0)  -->
<!DOCTYPE svg PUBLIC "-//W3C//DTD SVG 1.1//EN" "http://www.w3.org/Graphics/SVG/1.1/DTD/svg11.dtd">
<svg version="1.1" id="sleigh-xmas-gifts" xmlns="http://www.w3.org/2000/svg" xmlns:xlink="http://www.w3.org/1999/xlink" x="0px"
	 y="0px" viewBox="0 0 75 74.9995" enable-background="new 0 0 75 74.9995" xml:space="preserve">
<g id="sleigh-xmas-gifts-sleigh-xmas-gifts">
	<circle id="sleigh-xmas-gifts-label" fill="#434A54" cx="37.5" cy="37.5" r="37.5"/>
	<g id="sleigh-xmas-gifts-sleigh-xmas-gifts_1_">
		<polygon fill="#AAB2BC" points="51.3965,40.019 12.6924,40.019 12.6924,41.9741 51.7002,41.9741 		"/>
		<polygon fill="#AAB2BC" points="48.3877,49.3686 51.3965,42.9165 12.6924,42.9165 14.1479,49.3686 		"/>
		<path fill="#FFFFFF" d="M62.0654,45.5796c-0.417,0.9199-0.832,1.8095-1.2402,2.6728c-0.415,0.8604-0.9854,1.5323-1.7139,2.0186
			c-0.7285,0.4853-1.7978,0.7295-3.209,0.7295H12.6924v1.6494h44.0039c1.9756,0,3.3994-0.4981,4.2851-1.4981
			c0.8858-1.0009,1.3262-2.2392,1.3262-3.7138C62.3076,46.8755,62.2266,46.2554,62.0654,45.5796z"/>
		<g>
			<polygon fill="#E9573F" points="21.2104,27.2002 16.1016,27.2002 16.1016,32.5522 21.2104,32.6152 			"/>
			<rect x="16.1016" y="33.812" fill="#E9573F" width="5.1088" height="5.209"/>
			<path fill="#E9573F" d="M19.9604,26.1504c0.3042,0,0.4537-0.0161,0.4537-0.0493c0-0.1724-0.1011-0.4312-0.3067-0.7774
				c-0.2031-0.3457-0.4204-0.519-0.6509-0.519c-0.186,0-0.353,0.146-0.5,0.4389c-0.0971,0.1656-0.1455,0.2837-0.1455,0.3575
				C18.811,25.9653,19.1929,26.1504,19.9604,26.1504z"/>
			<path fill="#E9573F" d="M21.7104,22.3994c-0.0952-0.0347-0.2114-0.0493-0.3413-0.0493c-0.3681,0-0.6201,0.3506-0.7578,1.0503
				l1.4033,2.4053L21.7104,22.3994z"/>
			<path fill="#E9573F" d="M23.2607,22.3501c-0.0966,0-0.1919,0.0146-0.2905,0.0493l-0.2075,3.4063l1.4053-2.4053
				C24.0303,22.7007,23.728,22.3501,23.2607,22.3501z"/>
			<polygon fill="#E9573F" points="28.9238,27.2002 23.4722,27.2002 23.4722,32.5522 28.9238,32.6152 			"/>
			<rect x="23.4722" y="33.812" fill="#E9573F" width="5.4516" height="5.209"/>
			<path fill="#E9573F" d="M25.9141,25.5498c0-0.0571-0.0308-0.1592-0.0948-0.3062c-0.1977-0.2929-0.3798-0.4389-0.5527-0.4389
				c-0.2461,0-0.4805,0.1753-0.707,0.5259c-0.229,0.3491-0.3433,0.6069-0.3433,0.7705c0.0659,0.063,0.2344,0.0981,0.4981,0.0981
				C25.5132,26.1992,25.9141,25.9849,25.9141,25.5498z"/>
		</g>
		<g>
			<polygon fill="#FFFFFF" points="34.5,31.0278 30.6025,31.0278 30.6025,34.6064 34.5,34.5464 			"/>
			<rect x="30.6025" y="35.5425" fill="#FFFFFF" width="3.8975" height="3.5195"/>
			<path fill="#FFFFFF" d="M34.002,30.0288c0.4941,0,0.7382-0.4526,0.7382-1.3589c0-0.9468-0.2441-1.4214-0.7382-1.4214
				c-1.2813,0.376-1.919,0.8672-1.919,1.4805C32.083,29.3457,32.7207,29.7798,34.002,30.0288z"/>
			<path fill="#FFFFFF" d="M36.4185,30.0288c1.3198-0.2607,1.979-0.6948,1.979-1.2998c0-0.6133-0.6592-1.1045-1.979-1.4805
				c-0.5039,0-0.7559,0.4746-0.7559,1.4214C35.6626,29.5762,35.9146,30.0288,36.4185,30.0288z"/>
			<polygon fill="#FFFFFF" points="39.6963,31.0278 36.0386,31.0278 36.0386,34.3642 39.6963,34.3042 			"/>
			<rect x="36.0386" y="35.5425" fill="#FFFFFF" width="3.6577" height="3.5195"/>
		</g>
		<g>
			<polygon fill="#A0D468" points="45.2637,32.6333 42.1455,32.6333 42.1455,35.4971 45.2637,35.4507 			"/>
			<rect x="42.1455" y="36.2471" fill="#A0D468" width="3.1182" height="2.8149"/>
			<path fill="#A0D468" d="M44.8633,31.8349c0.3945,0,0.5928-0.3623,0.5928-1.0864c0-0.7568-0.1983-1.1377-0.5928-1.1377
				c-1.0235,0.3028-1.5352,0.6939-1.5352,1.1836C43.3281,31.2886,43.8398,31.6362,44.8633,31.8349z"/>
			<path fill="#A0D468" d="M46.7949,31.8349c1.0586-0.2094,1.584-0.5551,1.584-1.0405c0-0.4897-0.5254-0.8808-1.584-1.1836
				c-0.4013,0-0.6006,0.3809-0.6006,1.1377C46.1943,31.4726,46.3936,31.8349,46.7949,31.8349z"/>
			<polygon fill="#A0D468" points="49.4189,32.6333 46.4932,32.6333 46.4932,35.3032 49.4189,35.2568 			"/>
			<rect x="46.4932" y="36.2471" fill="#A0D468" width="2.9257" height="2.8149"/>
		</g>
	</g>
</g>
</svg>
