<?xml version="1.0" encoding="utf-8"?>
<!-- Generator: Adobe Illustrator 17.1.0, SVG Export Plug-In . SVG Version: 6.00 Build 0)  -->
<!DOCTYPE svg PUBLIC "-//W3C//DTD SVG 1.1//EN" "http://www.w3.org/Graphics/SVG/1.1/DTD/svg11.dtd">
<svg version="1.1" id="snowflake-3" xmlns="http://www.w3.org/2000/svg" xmlns:xlink="http://www.w3.org/1999/xlink" x="0px"
	 y="0px" viewBox="0 0 75 75" enable-background="new 0 0 75 75" xml:space="preserve">
<g id="snowflake-3-snowflake-3">
	<circle id="snowflake-3-label" fill="#434A54" cx="37.5" cy="37.5" r="37.5"/>
	<g id="snowflake-3-snowflake-3_1_">
		<path id="snowflake-3-snowflake-3_2_" fill="#FFFFFF" d="M48.4326,43.8105l-0.915,0.5274l-9.103-5.2559v10.5117l-0.9126,0.5274
			l-0.9131-0.5274V39.082l-9.105,5.2559l-0.9126-0.5274v-1.0546l9.103-5.2559l-9.103-5.2559v-1.0556l0.9126-0.5269l9.105,5.2569
			V25.4053l0.9131-0.5259l0.9126,0.5259v10.5132l9.103-5.2569l0.915,0.5269v1.0556L39.3271,37.5l9.1055,5.2559V43.8105z
			 M32.9341,45.4082v5.2412l-4.146,2.3926v2.1103l5.0625-2.9248l1.8237,1.0537l-6.8862,3.9747v2.1084l7.8008-4.502v2.1231
			l-3.6548,2.1083v2.1104l3.6548-2.1104v2.2217h1.8257v-2.2217l3.6518,2.1104v-2.1104l-3.6518-2.1083v-2.1231l7.8012,4.502v-2.1084
			l-6.8887-3.9747l1.8223-1.0537l5.0664,2.9248V53.042l-4.1494-2.3936v-5.2402l4.5371,2.6201v4.7891l1.8291,1.0547v-5.8477
			l1.8223-1.0527v7.9531l1.8252,1.0547v-9.0078l1.8398,1.0615v4.2188l1.8252,1.0537v-4.2168l1.9229,1.1093l0.914-1.582
			l-1.9238-1.1103l3.6533-2.1094l-1.8261-1.0537l-3.6534,2.1093l-1.8388-1.0625l7.8007-4.5029l-1.8281-1.0547l-6.8857,3.9766
			v-2.1045l5.0664-2.9238l-1.8281-1.0557l-4.1495,2.3945L46.6318,37.5l4.5371-2.6201l4.1495,2.3955l1.8281-1.0557l-5.0664-2.9233
			v-2.105l6.8857,3.9771l1.8281-1.0552l-7.8007-4.5034l1.8388-1.062l3.6534,2.1088l1.8261-1.0542l-3.6533-2.1088l1.9238-1.1104
			l-0.914-1.5825l-1.9229,1.1113v-4.2183l-1.8252,1.0542v4.2193l-1.8398,1.0605v-9.0063l-1.8252,1.0542v7.9521l-1.8223-1.0517
			V21.127l-1.8291,1.0551v4.7891l-4.5371,2.6206v-5.2397l4.1494-2.3956v-2.1084l-5.0664,2.9253l-1.8223-1.0532l6.8887-3.977v-2.1084
			l-7.8012,4.5029v-2.1231l3.6518-2.1088v-2.1084l-3.6518,2.1084v-2.2212h-1.8257v2.2212l-3.6548-2.1084v2.1084l3.6548,2.1088
			v2.1231l-7.8008-4.5029v2.1084l6.8862,3.977l-1.8237,1.0532l-5.0625-2.9253v2.1084l4.146,2.3956v5.2397l-4.5371-2.6206v-4.7891
			l-1.8257-1.0542v5.8482l-1.8237,1.0517v-7.9521l-1.8257-1.0542v9.0063l-1.8394-1.0605V22.749l-1.8257-1.0552v4.2183
			l-1.9243-1.1113l-0.9131,1.5835l1.9244,1.1094l-3.6529,2.1088l1.8257,1.0542l3.6528-2.1088l1.8394,1.062l-7.8008,4.5034
			l1.8276,1.0552l6.8863-3.9771v2.105l-5.0645,2.9233l1.8257,1.0557l4.1475-2.3955L28.3677,37.5l-4.5371,2.6191l-4.1475-2.3945
			l-1.8257,1.0557l5.0645,2.9238v2.1045l-6.8863-3.9766l-1.8276,1.0547l7.8008,4.5029l-1.8394,1.0625l-3.6528-2.1093l-1.8257,1.0537
			l3.6529,2.1094l-1.9244,1.1103l0.9131,1.582l1.9243-1.1093v4.2168l1.8257-1.0537v-4.2188l1.8394-1.0615v9.0078l1.8276-1.0547
			v-7.9531l1.8218,1.0527v5.8477l1.8257-1.0547v-4.7891L32.9341,45.4082 M40.2344,50.6494l-2.7422,1.5811l-2.7402-1.5811
			l-0.0098-8.3828l-7.2603,4.1787l-2.7422-1.584v-3.164l7.2544-4.1993l-7.2485-4.1987l0.002-3.165l2.7382-1.5845l7.2622,4.1836
			l0.0118-8.3774l2.7422-1.5816l2.7421,1.5816l0.0098,8.3813l7.2598-4.1787l2.7412,1.5845l0.0019,3.165l-7.2548,4.1978
			l7.2509,4.1992l-0.0019,3.165l-2.7432,1.584l-7.2598-4.1826L40.2344,50.6494z"/>
	</g>
</g>
</svg>
