<?xml version="1.0" encoding="utf-8"?>
<!-- Generator: Adobe Illustrator 17.1.0, SVG Export Plug-In . SVG Version: 6.00 Build 0)  -->
<!DOCTYPE svg PUBLIC "-//W3C//DTD SVG 1.1//EN" "http://www.w3.org/Graphics/SVG/1.1/DTD/svg11.dtd">
<svg version="1.1" id="snowman" xmlns="http://www.w3.org/2000/svg" xmlns:xlink="http://www.w3.org/1999/xlink" x="0px" y="0px"
	 viewBox="0 0 75 74.9995" enable-background="new 0 0 75 74.9995" xml:space="preserve">
<g id="snowman-snowman">
	<circle id="snowman-label" fill="#434A54" cx="37.5" cy="37.5" r="37.5"/>
	<g id="snowman-snowman_1_">
		<path fill="#FFFFFF" d="M46.6387,35.2036c0.8652-1.4849,1.3603-3.1914,1.3603-5.0073c0-5.7261-3.8418-10.419-10.9175-10.3667
			c-6.0297,0.0473-10.9194,4.6406-10.9194,10.3667c0,1.978,0.5942,3.8178,1.606,5.3906c-4.1651,2.7407-6.8853,7.1821-6.8853,12.2095
			c0,8.332,7.4424,15.0879,16.6172,15.0879c9.1768,0,16.6172-6.7559,16.6172-15.0879
			C54.1172,42.5327,51.1426,37.9023,46.6387,35.2036z"/>
		<g>
			
				<ellipse transform="matrix(0.9959 -0.0905 0.0905 0.9959 -2.4744 3.2808)" fill="#434A54" cx="34.9341" cy="28.9206" rx="0.9468" ry="1.4745"/>
			
				<ellipse transform="matrix(0.9959 -0.0906 0.0906 0.9959 -2.3639 4.0988)" fill="#434A54" cx="43.9834" cy="28.0979" rx="0.9463" ry="1.4755"/>
		</g>
		<g>
			<path fill="#E9573F" d="M31.0454,40.7397l-2.2637-0.7031c-1.917,1.0908-5.1381,4.9326-4.7978,6.7793
				c-0.1406,0.4551-0.3779,1.333-0.1939,1.4981c0.1548,0.1396,0.3809-0.4307,0.4351-0.9747
				c0.1406,0.1719,0.3169,0.3116,0.5186,0.4239c-0.2422,0.6533-0.2095,1.2988,0.145,1.0586c0.2143-0.1455,0.312-0.4864,0.355-0.8409
				c0.1357,0.0459,0.2758,0.0811,0.4204,0.1123c-0.2046,0.7149-0.3936,1.5733-0.1309,1.6241
				c0.29,0.0556,0.4712-0.8008,0.5147-1.5567c0.2045,0.0274,0.4135,0.0489,0.623,0.0567c-0.1733,0.4804-0.3389,1.0869-0.0552,1.1162
				c0.3965,0.041,0.4043-0.6065,0.3506-1.1045c0.2222,0.0039,0.4409-0.002,0.6504-0.0117c-0.125,0.7519-0.2305,1.707,0.0503,1.7246
				c0.3091,0.0234,0.3779-0.9629,0.312-1.7461c0.2329-0.0195,0.4497-0.041,0.6416-0.0654c-0.1299,0.4687,0.0039,1.248,0.1563,1.3818
				c0.1821,0.1641,0.1987-0.8242,0.1821-1.4287c0.2983-0.0449,0.4824-0.0791,0.4824-0.0791h0.0107
				C27.415,46.814,31.0454,40.7397,31.0454,40.7397z"/>
			<path fill="#E9573F" d="M33.9512,49.5542c-1.563-2.6817-0.7925-9.0879-0.7925-9.0879l-2.1553-0.5059
				c0,0-4.7441,8.336-2.8555,10.6368c-0.0253,0.5039-0.0097,1.2402,0.2623,1.5712c0.3608,0.4405,0.5981-0.3095,0.4497-1.0517
				c0.2192,0.1162,0.4497,0.2226,0.6797,0.3096c-0.1919,1.1435-0.1377,1.5878,0.206,1.3554
				c0.1831-0.124,0.2192-0.8476,0.1621-1.2236c0.21,0.0664,0.4224,0.1221,0.6289,0.1689c-0.0815,0.502-0.1792,1.583,0.2139,1.3662
				c0.2598-0.1435,0.4014-0.8935,0.3916-1.2656c0.2451,0.0293,0.4844,0.043,0.7163,0.041c-0.0981,0.6123-0.1445,1.376,0.2305,1.4131
				c0.4253,0.044,0.4253-0.7715,0.2568-1.4385c0.2808-0.0273,0.5435-0.081,0.7764-0.1572c-0.0884,0.502-0.064,1.3379,0.3554,1.1045
				c0.3643-0.2012,0.2984-0.876,0.1675-1.3467C34.2471,51.0581,34.4551,50.4184,33.9512,49.5542z"/>
			<path fill="#E9573F" d="M47.041,34.7441c-0.6015,0.6568-1.0537,1.2461-1.6435,1.7657c-0.8741,0.7729-1.7344,1.4028-2.5713,1.9096
				c-1.293,0.7783-2.5362,1.2647-3.7158,1.5225c-1.2237,0.2666-2.3829,0.2959-3.4556,0.1601
				c-1.375-0.1738-2.6133-0.6142-3.6831-1.1513c-1.3023-0.6612-2.3521-1.4693-3.0904-2.1289
				c-0.7885-0.7066-1.2221-1.2442-1.2221-1.2442c-2.8325,1.19-1.2256,3.2442-1.2256,3.2442c0.1821,0.2304,0.3682,0.457,0.562,0.6699
				c0.8701,0.9785,1.854,1.8027,2.9209,2.4697c1.4048,0.8779,2.9517,1.4805,4.5659,1.794c1.6387,0.3203,3.3452,0.3378,5.044,0.0468
				c1.3799-0.2363,2.7568-0.6787,4.084-1.3388c0.2802-0.1377,0.5488-0.2871,0.8115-0.4405
				c1.1767-0.6992,2.1455-1.5293,2.8574-2.2597c0.6807-0.6973,1.1279-1.3047,1.3047-1.6226
				C50.1318,35.3359,47.041,34.7441,47.041,34.7441z"/>
		</g>
		<g>
			<path fill="#434A54" d="M42.1689,54.5181c0.0225,1.0234-0.7929,1.8701-1.8232,1.8896c-1.0225,0.0098-1.8672-0.8066-1.8813-1.8301
				c-0.0166-1.0312,0.8042-1.8662,1.8276-1.8857C41.3164,52.6802,42.1582,53.4946,42.1689,54.5181z"/>
			<path fill="#434A54" d="M42.0879,47.9087c0.0156,1.0234-0.7998,1.8779-1.8281,1.8877c-1.0196,0.0215-1.8672-0.8037-1.876-1.8291
				c-0.0225-1.0215,0.7988-1.8662,1.8232-1.8799C41.2354,46.0737,42.0703,46.8891,42.0879,47.9087z"/>
		</g>
		<g>
			<path fill="#656D78" d="M35.2588,22.3867c-3.3735,0.8511-7.3716,1.5147-10.6314,0.6118c-0.5429-0.1513-1.04,0.1646-1.3461,0.5288
				c-0.816,0.9673-0.1573,2.3877,0.7084,3.0215c3.4942,2.562,8.167,1.8569,13.1788,0.3994c5.9272-1.7231,8.8042-3.5844,10.06-6.2749
				c0.6455-1.3769,0.4981-2.9253-0.6748-3.4594c-0.415-0.188-1.1328-0.0494-1.5156,0.2182
				C41.7266,19.7627,39.5879,21.2939,35.2588,22.3867L35.2588,22.3867z"/>
			<path fill="#656D78" d="M24.3926,18.2373c1.3608,1.3423,3.166,3.5825,3.9692,6.6069c0.168,0.6338,0.565,0.813,1.2832,0.9131
				c3.5137,0.4951,9.1157-0.9897,12.0171-3.3852c0.627-0.5171,0.8897-0.6578,0.792-1.2549
				c-0.4121-2.4932-0.876-4.9732,0.0361-7.8452c0.2159-0.6802,0.3575-1.1436-0.6172-1.1553
				c-4.6572-0.0542-12.4589,1.9956-17.4223,4.8628C23.5332,17.5068,23.8906,17.7441,24.3926,18.2373L24.3926,18.2373z"/>
			<path fill="#434A54" d="M27.1245,21.4497c0.4107,0.9194,0.7774,1.916,1.0659,2.9868c0.2134,0.7915,0.6299,1.0357,1.3692,1.2061
				c3.6176,0.8383,9.2402-0.6192,12.0439-3.377c0.6065-0.5957,0.8653-0.7519,0.7266-1.4912
				c-0.2139-1.1328-0.4346-2.2637-0.5928-3.4121c0.0313,0.6328-0.1924,0.8247-0.7607,1.3809
				c-2.8052,2.7578-9.1822,4.2446-12.6495,3.5991C27.6934,22.2261,27.418,21.9897,27.1245,21.4497L27.1245,21.4497z"/>
			<path fill="#AAB2BC" d="M25.3511,18.0195c2.5581,0.3574,5.2094,0.1123,7.8579-0.6089c2.855-0.7788,5.706-2.1084,8.4424-3.8325
				c0.0507-0.0307,0.1211-0.0249,0.1631,0.0454c0.041,0.0679,0.0136,0.1406-0.0372,0.1719
				c-2.7529,1.7363-5.5488,3.3384-8.4248,4.1221c-2.6767,0.728-5.4316,0.7114-8.0229,0.352
				c-0.0591-0.0088-0.1074-0.0649-0.1074-0.1396C25.2222,18.0522,25.292,18.0137,25.3511,18.0195L25.3511,18.0195z"/>
		</g>
		<path fill="#E9573F" d="M39.2607,30.5683c-1.1445,0.1753-1.3652,1.7862-0.5918,2.4664c0.6368,0.5581,1.3799,0.3305,1.6709,0.2226
			c0.5987-0.2207,3.585-1.6802,4.9678-2.1684c0.1748-0.0611,0.5987-0.1871,0.5381-0.5069c-0.0449-0.2241-0.415-0.2153-0.5664-0.2134
			C43.7734,30.396,39.4395,30.5405,39.2607,30.5683z"/>
	</g>
</g>
</svg>
