<?xml version="1.0" encoding="utf-8"?>
<!-- Generator: Adobe Illustrator 17.1.0, SVG Export Plug-In . SVG Version: 6.00 Build 0)  -->
<!DOCTYPE svg PUBLIC "-//W3C//DTD SVG 1.1//EN" "http://www.w3.org/Graphics/SVG/1.1/DTD/svg11.dtd">
<svg version="1.1" id="snowboot" xmlns="http://www.w3.org/2000/svg" xmlns:xlink="http://www.w3.org/1999/xlink" x="0px" y="0px"
	 viewBox="0 0 75 75" enable-background="new 0 0 75 75" xml:space="preserve">
<g id="snowboot-snowboot">
	<circle id="snowboot-label" fill="#434A54" cx="37.5" cy="37.5" r="37.5"/>
	<g id="snowboot-snowboot_1_">
		<path fill="#E9573F" d="M20.7725,42.5684c-0.9961,2.4677-2.628,7.6074-2.3047,12.6787l0.5547,2.4453h13.2138
			c0,0-0.6357-5.6436,10.6153-0.0137v0.0068h0.0127c0.0058,0,0.0087,0.0049,0.0136,0.0069h14.1885l0.0059-0.0069h1.4795v-2.3007
			H57.873c0.8545-3.336,1.1563-9.3926-6.6767-12.043c0,0-3.4404-1.1338-7.7656-0.3545c-5.5874,0.5117-5.1187-5.7353-5.1187-5.7353
			c0-0.0293-0.0019-0.0513-0.0019-0.0787l0.5004-9.3413h-20.268L20.7725,42.5684z"/>
		<path fill="#FFFFFF" d="M17.6812,17.3081h23.4614c0.6797,0,1.2295,0.5581,1.2295,1.2549v6.9141
			c0,0.6918-0.5498,1.2578-1.2295,1.2578H17.6812c-0.6812,0-1.2334-0.566-1.2334-1.2578V18.563
			C16.4478,17.8662,17,17.3081,17.6812,17.3081z"/>
		<path fill="#FFFFFF" d="M23.4761,38.248l0.6948,0.4082l-0.5845,0.3379l-0.1025,0.4082l0.4009,0.1075l0.5932-0.3418l0.0059,0.8261
			l0.5698-0.3242l0.0137-0.8428l0.4463-0.2568l-0.0064,1.2754l0.5698-0.3223l0.0318-1.2939l0.2026-0.1172l2.4595,1.4209v0.0527
			h0.0059v0.1875l-1.0884,0.6651l0.0049,0.6552l1.0835-0.6328v0.5137l-0.7027,0.4238l0.002,0.6563l0.7007-0.3994v0.6767
			l0.3002,0.292l0.2974-0.292v-0.6855l0.7183,0.4082l0.0058-0.6563l-0.7241-0.4326v-0.5156l1.1021,0.6435l0.0039-0.6552
			l-1.106-0.6758v-0.2324l2.4653-1.4248l0.2095,0.1201l0.0298,1.2754l0.5718,0.3252l-0.0088-1.2559l0.4487,0.2568l0.0117,0.8233
			l0.5718,0.3213l0.0039-0.8057l0.584,0.3369l0.4053-0.1123l-0.1055-0.4033l-0.5952-0.3428l0.7153-0.417l-0.5659-0.333
			l-0.7363,0.4097l-0.4468-0.2568l1.1084-0.6328l-0.5649-0.3311l-1.1387,0.6191l-0.2144-0.1211V34.751l0.2222-0.1309l1.1172,0.6104
			l0.5679-0.3335l-1.0913-0.6201l0.4477-0.2588l0.7153,0.3994l0.566-0.3316l-0.6939-0.4077l0.5845-0.3384l0.1025-0.4057
			l-0.4018-0.1109l-0.5952,0.3433l-0.003-0.8276l-0.5708,0.3247l-0.0137,0.8447l-0.4467,0.2568l0.0088-1.2768l-0.5718,0.3218
			l-0.0308,1.3003l-0.2192,0.1259l-2.4497-1.4131v-0.2651l1.0884-0.6631l-0.0049-0.6557l-1.0835,0.6352v-0.5151l0.7055-0.4248
			l-0.0058-0.6548l-0.6997,0.3979v-0.6753l-0.3003-0.2934l-0.2964,0.2934v0.6851l-0.7212-0.4077l-0.0029,0.6548l0.7241,0.4336
			v0.5161l-1.103-0.645l-0.0059,0.6557l1.1089,0.6763v0.2519l-2.4458,1.4112l-0.23-0.1328l-0.0317-1.2686l-0.5698-0.3247
			l0.0068,1.2529l-0.4468-0.2563l-0.0107-0.8208l-0.5708-0.3218l-0.0059,0.8042l-0.5854-0.3384l-0.4029,0.1153l0.1045,0.4033
			l0.5952,0.3423l-0.7143,0.4194l0.5649,0.3315l0.7403-0.413l0.4477,0.2597l-1.1142,0.6328l0.5659,0.3316l1.1445-0.624
			l0.2026,0.1171v2.8482l-0.2153,0.124l-1.1201-0.6128l-0.564,0.3335l1.0908,0.6221l-0.4477,0.2568l-0.7168-0.3994L23.4761,38.248z
			 M28.771,34.0112l-1.4131,0.8159L26.8232,34.52l1.9478-1.124V34.0112z M27.582,36.689v-1.044l0.5161,0.2979v0.4458L27.582,36.689z
			 M28.394,36.9067l0.377,0.2193v0.5967l-0.8936-0.5152L28.394,36.9067z M28.771,35.2305l-0.356,0.2026l-0.518-0.2944l0.874-0.5049
			V35.2305z M31.3223,34.5229l-0.5327,0.3082l-1.4219-0.8218V33.396L31.3223,34.5229z M29.7349,35.4429l-0.3672-0.2124v-0.5996
			l0.8857,0.5112L29.7349,35.4429z M30.5576,35.6567v1.0069l-0.518-0.2954v-0.4117L30.5576,35.6567z M31.6274,37.2808
			l-0.5307-0.3062v-1.6289l0.5307-0.311V37.2808z M29.3677,38.3452l1.4516-0.8384l0.5362,0.3062l-1.9878,1.147V38.3452z
			 M29.3677,37.126l0.3945-0.2295l0.5186,0.2993l-0.9131,0.5269V37.126z M28.606,36.4409v-0.5273l0.4555-0.2617l0.4556,0.2617
			v0.5273l-0.4556,0.2637L28.606,36.4409z M26.8076,37.8267l0.5318-0.3081l1.4316,0.8266V38.96L26.8076,37.8267z M26.5103,35.0298
			l0.5336,0.3042V37l-0.5336,0.3081V35.0298z"/>
	</g>
</g>
</svg>
