<?xml version="1.0" encoding="utf-8"?>
<!-- Generator: Adobe Illustrator 17.1.0, SVG Export Plug-In . SVG Version: 6.00 Build 0)  -->
<!DOCTYPE svg PUBLIC "-//W3C//DTD SVG 1.1//EN" "http://www.w3.org/Graphics/SVG/1.1/DTD/svg11.dtd">
<svg version="1.1" id="snowy-mountains" xmlns="http://www.w3.org/2000/svg" xmlns:xlink="http://www.w3.org/1999/xlink" x="0px"
	 y="0px" viewBox="0 0 74.9995 74.998" enable-background="new 0 0 74.9995 74.998" xml:space="preserve">
<g id="snowy-mountains-snowy-mountains">
	<circle id="snowy-mountains-label" fill="#434A54" cx="37.4997" cy="37.498" r="37.4998"/>
	<g id="snowy-mountains-snowy-mountains_1_">
		<g>
			<polygon fill="#A0D468" points="22.9023,28.7309 22.8769,28.6592 22.8769,28.8017 12.6914,56.2177 23.9004,56.2177 
				33.1152,56.2177 41.8852,56.2177 51.0776,56.2177 62.3071,56.2177 52.1225,28.8017 52.1225,28.6592 52.0972,28.7309 
				52.0718,28.6592 52.0718,28.8017 46.4829,43.8427 37.5234,19.7275 37.5234,19.5415 37.4912,19.6367 37.4565,19.5415 
				37.4565,19.7275 28.5083,43.8154 22.9307,28.8017 22.9307,28.6592 			"/>
			<polygon fill="#FFFFFF" points="49.1567,41.0029 52.0972,33.082 55.4849,42.2051 56.5913,45.1806 53.3979,43.3095 50.7329,48.29 
				48.1958,43.584 			"/>
			<polygon fill="#FFFFFF" points="33.5752,35.9687 37.4892,25.4267 41.9995,37.5649 43.4692,41.5263 39.2202,39.04 35.6753,45.664 
				32.2983,39.4013 			"/>
			<polygon fill="#FFFFFF" points="26.291,42.2051 27.397,45.1806 24.2026,43.3095 21.5381,48.29 19.001,43.584 19.9624,41.0029 
				22.9023,33.082 			"/>
		</g>
		<path fill="#FFFFFF" d="M49.6011,21.9043l-1.2246,0.7124l1.2207,0.706c0.0986-0.0869,0.2187-0.1489,0.3701-0.1967
			c0.25-0.065,0.4941-0.0298,0.7207,0.101c0.2304,0.1319,0.374,0.3208,0.4463,0.5777c0.0654,0.249,0.0361,0.4922-0.0996,0.7216
			c-0.1309,0.2325-0.3194,0.376-0.5772,0.4429c-0.25,0.0698-0.498,0.0381-0.7207-0.0957c-0.2246-0.126-0.376-0.3208-0.4502-0.5766
			c-0.0361-0.1358-0.0381-0.2706-0.0176-0.4014l-1.2304-0.7085v1.4053c0.1396,0.0512,0.2558,0.1259,0.3505,0.2251
			c0.1866,0.1889,0.2813,0.4106,0.2813,0.6733c0,0.2686-0.0928,0.4883-0.2813,0.6763c-0.1933,0.186-0.4179,0.2763-0.6777,0.2763
			c-0.2578,0-0.4785-0.0922-0.665-0.2763c-0.1875-0.188-0.2793-0.4077-0.2793-0.6763c0-0.2627,0.0937-0.4844,0.2793-0.6733
			c0.0947-0.0992,0.209-0.1748,0.3349-0.2203v-1.4174l-1.2148,0.7002c0.0234,0.1425,0.0176,0.2841-0.0274,0.417
			c-0.0615,0.2558-0.205,0.4487-0.4414,0.5766c-0.2265,0.1338-0.4707,0.1685-0.7207,0.1016
			c-0.2597-0.0728-0.4462-0.2193-0.5761-0.4488c-0.1377-0.2285-0.169-0.4765-0.1026-0.7216
			c0.0655-0.2491,0.2188-0.4449,0.4492-0.5777c0.2237-0.1308,0.4756-0.165,0.7178-0.0942c0.1436,0.0361,0.2617,0.0952,0.3662,0.1802
			l1.2227-0.711l-1.2168-0.7007c-0.0986,0.087-0.2246,0.1524-0.3721,0.19c-0.2597,0.0659-0.5019,0.0337-0.7178-0.0982
			c-0.2304-0.1342-0.3837-0.3242-0.4492-0.5742c-0.0664-0.251-0.0351-0.4868,0.1026-0.7251
			c0.1318-0.2314,0.3281-0.3808,0.5761-0.4438c0.25-0.0708,0.4883-0.0386,0.7207,0.0942c0.2364,0.1353,0.3799,0.3281,0.4434,0.5781
			c0.0391,0.1455,0.0469,0.2842,0.0254,0.4063l1.2266,0.7065v-1.4072c-0.126-0.0444-0.2461-0.1182-0.3526-0.2266
			c-0.1875-0.1782-0.2812-0.4062-0.2812-0.6728c0-0.2593,0.0937-0.4854,0.2812-0.6714c0.1865-0.1841,0.4131-0.2778,0.6709-0.2778
			c0.2695,0,0.4942,0.0927,0.6777,0.2778c0.1866,0.186,0.2813,0.4121,0.2813,0.6714c0,0.2666-0.0947,0.4946-0.2813,0.6728
			c-0.1044,0.1055-0.2167,0.1763-0.3427,0.2198v1.4258l1.2226-0.7085c-0.0205-0.1319-0.0185-0.2745,0.0176-0.4161
			c0.0742-0.2524,0.2217-0.4428,0.4502-0.5781c0.2246-0.1328,0.4688-0.165,0.7207-0.0942c0.2539,0.0669,0.4443,0.2104,0.5772,0.4438
			c0.1357,0.2305,0.165,0.4741,0.0996,0.7212c-0.0723,0.2578-0.2159,0.4439-0.4463,0.5781
			c-0.2266,0.1309-0.4707,0.1631-0.7207,0.0982C49.8315,22.0552,49.7056,21.9902,49.6011,21.9043z"/>
		<path fill="#FFFFFF" d="M29.7563,23.5547l-1.2255,0.7109l1.2226,0.7075c0.0972-0.0874,0.2192-0.1509,0.3682-0.1977
			c0.25-0.065,0.4941-0.0288,0.7221,0.0991c0.2305,0.1328,0.3741,0.3218,0.4449,0.5781c0.0669,0.2495,0.0356,0.4927-0.0972,0.7212
			c-0.1318,0.2354-0.3208,0.3789-0.5815,0.4448c-0.2452,0.0689-0.4961,0.0376-0.7178-0.0952
			c-0.2276-0.1289-0.378-0.3213-0.4507-0.5781c-0.0347-0.1348-0.0366-0.2686-0.0166-0.3994l-1.2305-0.7105v1.4053
			c0.1406,0.0522,0.2578,0.125,0.3487,0.2266c0.187,0.186,0.2802,0.4091,0.2802,0.6718c0,0.2681-0.0893,0.4903-0.2802,0.6773
			c-0.19,0.185-0.4165,0.2773-0.6763,0.2773c-0.2568,0-0.4815-0.0942-0.6655-0.2773c-0.1861-0.187-0.2793-0.4092-0.2793-0.6773
			c0-0.2627,0.0952-0.4858,0.2793-0.6718c0.0937-0.1016,0.2089-0.1763,0.3339-0.2198v-1.4199l-1.2148,0.7007
			c0.023,0.1436,0.0181,0.2842-0.0264,0.417c-0.063,0.2568-0.2085,0.4482-0.4399,0.5781c-0.2285,0.1328-0.4707,0.167-0.7227,0.1011
			c-0.2607-0.0718-0.4448-0.2183-0.5756-0.4507c-0.1368-0.2275-0.17-0.4756-0.1021-0.7212c0.063-0.248,0.2153-0.4448,0.4497-0.5781
			c0.2241-0.1279,0.4741-0.1641,0.7183-0.0923c0.1416,0.0371,0.2588,0.0942,0.3623,0.1802l1.226-0.711l-1.2163-0.7006
			c-0.1015,0.0849-0.2275,0.1518-0.372,0.1899c-0.2608,0.0669-0.503,0.0337-0.7183-0.0981
			c-0.2344-0.1329-0.3867-0.3257-0.4497-0.5738c-0.0679-0.2529-0.0347-0.4883,0.1021-0.7256
			c0.1357-0.2304,0.3266-0.3808,0.5756-0.4438c0.2481-0.0708,0.4903-0.0396,0.7227,0.0928
			c0.2314,0.1377,0.3769,0.3305,0.4448,0.5786c0.0376,0.1465,0.0415,0.2851,0.0215,0.4072l1.2275,0.7056v-1.4053
			c-0.1259-0.0464-0.2431-0.1201-0.3535-0.2275c-0.186-0.1797-0.2783-0.4063-0.2783-0.6719c0-0.2608,0.0923-0.4863,0.2783-0.6724
			c0.1861-0.186,0.4126-0.2793,0.6724-0.2793c0.2705,0,0.4922,0.0923,0.6763,0.2793c0.187,0.1861,0.2802,0.4116,0.2802,0.6724
			c0,0.2656-0.0932,0.4922-0.2802,0.6719c-0.0997,0.1064-0.2139,0.1762-0.3409,0.2207v1.4233l1.2227-0.7061
			c-0.02-0.1328-0.0181-0.2753,0.0166-0.4179c0.0727-0.252,0.2202-0.4409,0.4507-0.5786c0.2236-0.1324,0.4658-0.1636,0.7178-0.0928
			c0.2558,0.0659,0.4448,0.2104,0.5815,0.4438c0.1328,0.2295,0.1641,0.4727,0.0972,0.7207
			c-0.0708,0.2579-0.2144,0.4458-0.4449,0.5787c-0.228,0.1289-0.4721,0.163-0.7221,0.0981
			C29.9839,23.7046,29.8608,23.6406,29.7563,23.5547z"/>
	</g>
</g>
</svg>
