<?xml version="1.0" encoding="utf-8"?>
<!-- Generator: Adobe Illustrator 17.1.0, SVG Export Plug-In . SVG Version: 6.00 Build 0)  -->
<!DOCTYPE svg PUBLIC "-//W3C//DTD SVG 1.1//EN" "http://www.w3.org/Graphics/SVG/1.1/DTD/svg11.dtd">
<svg version="1.1" id="snowflake" xmlns="http://www.w3.org/2000/svg" xmlns:xlink="http://www.w3.org/1999/xlink" x="0px" y="0px"
	 viewBox="0 0 75 74.9995" enable-background="new 0 0 75 74.9995" xml:space="preserve">
<g id="snowflake-snowflake">
	<circle id="snowflake-label" fill="#434A54" cx="37.5" cy="37.5" r="37.5"/>
	<g id="snowflake-snowflake_1_">
		<path fill="#FFFFFF" d="M56.9482,47.0522l-1.8525-1.0693l1.791-0.9834l-2.5195-1.4531l-1.835,0.9551l-0.9267-0.5362l3.1191-1.7021
			l-2.5205-1.4571l-3.1689,1.6778l-1.4805-0.8721v-8.2847l1.4805-0.809l3.1689,1.6767l2.5205-1.4516l-3.1191-1.7066l0.9267-0.5322
			l1.8379,0.9555l2.5205-1.4575l-1.791-0.9814l1.8545-1.0698l0.5332-1.9888l-1.9893-0.5317l-1.8544,1.0708l0.0449-2.043
			l-2.5196,1.4546l-0.0927,2.0688l-0.9229,0.5342l0.0821-3.5518l-2.5206,1.4546l-0.1318,3.5796l-1.6914,0.9239l-6.9395-4.0064
			v-1.8994l3.0362-1.9038v-2.9121l-3.0362,1.8506v-1.0664l1.752-1.1148v-2.9126l-1.752,1.061v-2.1416l-1.4531-1.4536l-1.4536,1.4536
			v2.1416l-1.7461-1.061v2.9126l1.7461,1.1148v1.0664l-3.0361-1.8506v2.9121l3.0361,1.9038v2.0332l-6.8076,3.9336l-1.8218-0.9849
			l-0.1338-3.5796l-2.5224-1.4585l0.0854,3.5518l-0.9233-0.5303l-0.0933-2.0727l-2.5166-1.4517l0.043,2.04l-1.854-1.0698
			l-1.9883,0.5318l0.5317,1.9897l1.857,1.0698l-1.793,0.9795l2.5205,1.4585l1.8394-0.9555l0.9233,0.5322l-3.1172,1.7055
			l2.5195,1.4546l3.1685-1.6757l1.7173,0.9321v8.0356L25.9585,42.48L22.79,40.8061l-2.5156,1.4551l3.1172,1.7041l-0.9233,0.5322
			l-1.8404-0.9531l-2.5195,1.4531l1.793,0.9834l-1.857,1.0674l-0.5317,1.9883l1.9883,0.5371l1.8501-1.0732l-0.0401,2.04
			l2.5176-1.4531l0.0933-2.0703l0.9214-0.5322l-0.0835,3.5537l2.5195-1.4571l0.1367-3.582l1.5528-0.8984l7.0737,4.0869v1.7988
			l-3.0362,1.9033v2.9112l3.0362-1.8516v1.0684l-1.7432,1.1142v2.9131l1.7432-1.0625v2.1396l1.4536,1.4541l1.456-1.4541v-2.1396
			l1.7452,1.0625v-2.9131l-1.7452-1.1142v-1.0684l3.0342,1.8516v-2.9112l-3.0342-1.9033v-1.6611l7.2061-4.1592l1.4238,0.8369
			l0.1299,3.584l2.5235,1.4512l-0.0889-3.5537l0.9297,0.538l0.0918,2.0684l2.5205,1.4512l-0.0449-2.042l1.8515,1.0732l1.9893-0.5332
			L56.9482,47.0522z M44.9209,40.0581l-2.4824-1.4561c0-0.8115,0-1.7465,0-2.4829l2.4824-1.353
			C44.9209,36.2046,44.9209,38.4775,44.9209,40.0581z M43.1787,32.4018l-2.5488,1.3887c-0.5557-0.3179-1.1582-0.6684-1.6778-0.9692
			V29.959C40.1406,30.647,41.8867,31.6548,43.1787,32.4018z M35.3799,38.9126c0-0.0274,0-2.5532,0-2.584
			c0.0249-0.0156,1.3349-0.7744,1.3349-0.7744s0.8746-0.5039,0.9053-0.5186c0.0244,0.0147,2.21,1.2774,2.2373,1.293
			c0,0.0308,0,2.5566,0,2.584c-0.0273,0.0176-2.2129,1.2773-2.2373,1.291C37.5894,40.1899,35.4048,38.9302,35.3799,38.9126z
			 M36.0454,30.0996v2.8613c-0.2207,0.1289-0.376,0.2183-0.376,0.2183s-0.5444,0.314-1.1572,0.6675l-2.5552-1.3848
			C33.1772,31.7544,34.8359,30.7954,36.0454,30.0996z M30.3184,34.8818l2.4799,1.3448c0,0.6938,0,1.5468,0,2.2983l-2.4799,1.4336
			C30.3184,38.4272,30.3184,36.2934,30.3184,34.8818z M31.6035,42.5815l2.4766-1.4384c0.602,0.3505,1.3276,0.7656,1.9624,1.1337
			v2.8663C34.7148,44.3755,32.8389,43.2944,31.6035,42.5815z M38.9521,45.2788v-2.8623c0.668-0.3858,1.4727-0.8467,2.1417-1.2344
			l2.4531,1.4434C42.2295,43.3872,40.2539,44.5307,38.9521,45.2788z"/>
	</g>
</g>
</svg>
