<?xml version="1.0" encoding="utf-8"?>
<!-- Generator: Adobe Illustrator 17.1.0, SVG Export Plug-In . SVG Version: 6.00 Build 0)  -->
<!DOCTYPE svg PUBLIC "-//W3C//DTD SVG 1.1//EN" "http://www.w3.org/Graphics/SVG/1.1/DTD/svg11.dtd">
<svg version="1.1" id="snowball-house" xmlns="http://www.w3.org/2000/svg" xmlns:xlink="http://www.w3.org/1999/xlink" x="0px"
	 y="0px" viewBox="0 0 74.9995 74.998" enable-background="new 0 0 74.9995 74.998" xml:space="preserve">
<g id="snowball-house-snowball-house">
	<circle id="snowball-house-label" fill="#434A54" cx="37.4997" cy="37.5" r="37.4998"/>
	<g id="snowball-house-snowball-house_1_">
		<path fill="#A0D468" d="M53.3315,40.0117c-2.2734-1.5137-4.2754-5.0874-4.2754-5.0874c3.4659-0.2695,2.6514-1.2983,2.6514-1.2983
			c-1.4072-1.1924-3.8408-4.9791-3.8408-4.9791c2.9766-0.5952,2.2168-1.5117,2.2168-1.5117
			c-1.6729-1.1357-5.3955-6.0122-6.0547-6.8901l-0.0039-0.1489c0,0-0.0215,0.0268-0.0557,0.0732
			c-0.0351-0.0464-0.0547-0.0732-0.0547-0.0732l-0.0039,0.1489c-0.6572,0.8779-4.3838,5.7544-6.0542,6.8901
			c0,0-0.7607,0.9165,2.2173,1.5117c0,0-2.436,3.7867-3.8423,4.9791c0,0-0.812,1.0288,2.6499,1.2983
			c0,0-2.0014,3.5737-4.2758,5.0874c0,0-1.4942,1.709,7.8481,2.0371c-0.1553,0.791-0.4795,2.3623-0.7539,3.1904
			c0,0,0.1875,0.4707,2.1641,0.4707c1.9795,0,2.165-0.4707,2.165-0.4707c-0.2734-0.8242-0.5967-2.3925-0.752-3.1845
			C54.8491,41.75,53.3315,40.0117,53.3315,40.0117z"/>
		<path fill="#FFFFFF" d="M26.1738,50.084l-5.2407,5.7285h32.6064l-4.8437-5.6319c5.0986-3.5488,8.4404-9.4404,8.4404-16.1245
			c0-10.8437-8.791-19.6328-19.6343-19.6328c-10.8496,0-19.6396,8.7891-19.6396,19.6328
			C17.8623,40.6845,21.1494,46.5273,26.1738,50.084z M37.4458,16.4311c9.7051,0,17.5742,7.8706,17.5742,17.5747
			c0,4.2984-1.5469,8.2286-4.1094,11.2774H23.98c-2.562-3.0488-4.107-6.979-4.107-11.2774
			C19.873,24.3017,27.7397,16.4311,37.4458,16.4311z M19.873,60.5771h34.9331v-3.5976H19.873V60.5771z"/>
		<path fill="#A0D468" d="M34.0986,39.3349c1.3023-0.9184,3.2901-3.6723,3.2901-3.6723l-1.4546-0.4595
			c-1.375-0.6143-0.8394-1.835-0.3033-2.2964c0.4205-0.3584,1.7305-1.8452,2.2769-2.4712
			c-1.2769-1.4087-2.7129-3.2886-3.0552-3.7441l-0.0058-0.1104c0,0-0.0127,0.0171-0.0396,0.0523
			c-0.0263-0.0352-0.042-0.0523-0.042-0.0523l-0.0034,0.1104c-0.4966,0.6645-3.3135,4.3472-4.5762,5.2016
			c0,0-0.5737,0.6958,1.6778,1.1456c0,0-1.8404,2.8623-2.9024,3.7617c0,0-0.6147,0.7832,2.003,0.9809
			c0,0-1.5147,2.6992-3.233,3.8467c0,0-1.1298,1.2949,5.9307,1.5352c-0.1172,0.6025-0.3603,1.789-0.5698,2.415
			c0,0,0.1406,0.3584,1.6367,0.3584c1.4932,0,1.6328-0.3584,1.6328-0.3584c-0.2075-0.626-0.4487-1.8105-0.5659-2.4072
			c1.3594-0.041,2.4199-0.126,3.251-0.2266C31.0327,41.3545,34.0986,39.3349,34.0986,39.3349z"/>
		<circle fill="#FFFFFF" cx="36.5601" cy="20.3965" r="1.2133"/>
		<path fill="#FFFFFF" d="M29.6875,28.8852c0,0.4497-0.3613,0.8101-0.8091,0.8101c-0.4477,0-0.8101-0.3604-0.8101-0.8101
			c0-0.4438,0.3624-0.8081,0.8101-0.8081C29.3262,28.0771,29.6875,28.4414,29.6875,28.8852z"/>
		<circle fill="#FFFFFF" cx="23.2187" cy="34.1391" r="0.8833"/>
		<path fill="#FFFFFF" d="M25.6416,26.8637c0,0.5601-0.4522,1.0137-1.0078,1.0137c-0.5591,0-1.0132-0.4536-1.0132-1.0137
			c0-0.5542,0.4541-1.0078,1.0132-1.0078C25.1894,25.8559,25.6416,26.3095,25.6416,26.8637z"/>
		<path fill="#FFFFFF" d="M30.2934,22.0166c0,0.4438-0.3627,0.8042-0.8105,0.8042c-0.4453,0-0.8062-0.3604-0.8062-0.8042
			c0-0.4478,0.3609-0.812,0.8062-0.812C29.9307,21.2046,30.2934,21.5688,30.2934,22.0166z"/>
		<circle fill="#FFFFFF" cx="26.6551" cy="39.1943" r="0.8079"/>
	</g>
</g>
</svg>
