<?xml version="1.0" encoding="utf-8"?>
<!-- Generator: Adobe Illustrator 17.1.0, SVG Export Plug-In . SVG Version: 6.00 Build 0)  -->
<!DOCTYPE svg PUBLIC "-//W3C//DTD SVG 1.1//EN" "http://www.w3.org/Graphics/SVG/1.1/DTD/svg11.dtd">
<svg version="1.1" id="snowflake-2" xmlns="http://www.w3.org/2000/svg" xmlns:xlink="http://www.w3.org/1999/xlink" x="0px"
	 y="0px" viewBox="0 0 75 74.9995" enable-background="new 0 0 75 74.9995" xml:space="preserve">
<g id="snowflake-2-snowflake-2">
	<circle id="snowflake-2-label" fill="#434A54" cx="37.5" cy="37.499" r="37.5"/>
	<g id="snowflake-2-snowflake-2_1_">
		<path id="snowflake-2-snowflake-2_2_" fill="#FFFFFF" d="M54.5381,40.7241l-4.4365,2.5645l-3.7286-2.1534l2.7803-1.6474
			l-2.5742-1.4907l-2.7666,1.6616l-3.7363-2.1568l3.7431-2.1601l2.9424,1.7397l2.5762-1.4839l-2.9541-1.7402l3.7178-2.1445
			l4.4365,2.561l2.5771-1.4863l-4.4384-2.563l4.3105-2.4888l-1.2891-2.2295l-4.3086,2.4864v-5.1221l-2.5781,1.4883v5.1201
			l-3.7256,2.1543l-0.041-3.2324l-2.5742,1.4882l0.0537,3.2222l-3.7363,2.1568v-4.3189l2.9795-1.6792v-2.9751l-2.9795,1.6909v-4.291
			l4.4385-2.563v-2.977l-4.4385,2.5634v-4.975h-2.5762v4.975l-4.436-2.5634v2.977l4.436,2.563v4.3008l-2.8188-1.5815v2.977
			l2.8188,1.564v4.313l-3.7392-2.1578l0.0336-3.4238l-2.5786-1.4844l-0.0229,3.4253l-3.7163-2.1484v-5.1201l-2.5786-1.4883v5.1221
			l-4.3077-2.4864l-1.2885,2.2295l4.31,2.4888l-4.4389,2.563l2.5786,1.4863l4.436-2.561l3.7261,2.1504l-2.7783,1.6513l2.5766,1.4864
			l2.7637-1.6573l3.7358,2.1582l-3.7387,2.1587l-2.9468-1.7422l-2.5767,1.4883l2.9556,1.7364l-3.7173,2.1455l-4.436-2.5645
			l-2.5786,1.4912l4.4389,2.5596l-4.31,2.4883l1.2885,2.2295l4.3077-2.4873v5.125l2.5786-1.4864v-5.125l3.7251-2.1513l0.0405,3.2314
			l2.5757-1.4863l-0.0532-3.2256l3.7353-2.1572v4.3203l-2.9795,1.6787v2.9766l2.9795-1.6905v4.291l-4.436,2.5625v2.9746
			l4.436-2.5615v4.9746h2.5762v-4.9746l4.4385,2.5615v-2.9746l-4.4385-2.5625v-4.3046l2.8193,1.582v-2.9727l-2.8193-1.5664V39.73
			l3.7412,2.1591l-0.0332,3.4229l2.5742,1.4883l0.0264-3.4268l3.7148,2.1455v5.1231l2.5781,1.4883v-5.125l4.3077,2.4873l1.29-2.2276
			l-4.3105-2.4902l4.4384-2.5596L54.5381,40.7241z M37.502,37.5019L37.502,37.5019L37.502,37.5019L37.502,37.5019z"/>
	</g>
</g>
</svg>
