<?xml version="1.0" encoding="utf-8"?>
<!-- Generator: Adobe Illustrator 17.1.0, SVG Export Plug-In . SVG Version: 6.00 Build 0)  -->
<!DOCTYPE svg PUBLIC "-//W3C//DTD SVG 1.1//EN" "http://www.w3.org/Graphics/SVG/1.1/DTD/svg11.dtd">
<svg version="1.1" id="snowcap" xmlns="http://www.w3.org/2000/svg" xmlns:xlink="http://www.w3.org/1999/xlink" x="0px" y="0px"
	 viewBox="0 0 74.9995 75" enable-background="new 0 0 74.9995 75" xml:space="preserve">
<g id="snowcap-snowcap">
	<circle id="snowcap-label" fill="#434A54" cx="37.4997" cy="37.5" r="37.4998"/>
	<g id="snowcap-snowcap_1_">
		<path fill="#A0D468" d="M32.02,22.4897c-0.1494-0.5078-0.2529-1.0332-0.2529-1.5893c0-3.1235,2.5332-5.6563,5.6562-5.6563
			c3.127,0,5.6621,2.5328,5.6621,5.6563c0,0.5454-0.0996,1.0571-0.2421,1.5571c-0.8028-0.1782-1.6612-0.3179-2.5899-0.4096h-5.5063
			C33.7641,22.1416,32.8623,22.2979,32.02,22.4897z"/>
		<path fill="#FFFFFF" d="M54.7134,51.5732H20.2871c-1.3276,0-2.4033,1.0782-2.4033,2.4053v3.3731
			c0,1.3281,1.0757,2.4052,2.4033,2.4052h34.4263c1.33,0,2.4013-1.0771,2.4013-2.4052v-3.3731
			C57.1147,52.6514,56.0434,51.5732,54.7134,51.5732z"/>
		<path fill="#E9573F" d="M21.6128,50.1924h31.7754V34.9941c0,0,0.2031-9.4946-10.5449-11.8852
			c-0.8028-0.1782-1.6612-0.3198-2.5899-0.4131h-5.5063c-0.983,0.1021-1.8848,0.248-2.7271,0.4487
			c-10.604,2.4409-10.4072,11.8496-10.4072,11.8496V50.1924z"/>
		<path fill="#FFFFFF" d="M46.4712,41.626l-0.8418-0.4864l0.8144-0.4433l-1.1455-0.6631l-0.831,0.4346l-0.4209-0.2432l1.415-0.7715
			l-1.1435-0.6592l-1.4366,0.7569l-0.6738-0.3916v-3.7593l0.6738-0.3652l1.4366,0.7568l1.1435-0.6597l-1.415-0.7705l0.4209-0.2431
			l0.833,0.4321l1.1435-0.6602l-0.8144-0.4467l0.8437-0.4864l0.2403-0.9008L45.81,31.8164l-0.8369,0.4868l0.0166-0.9287
			l-1.1386,0.6611l-0.045,0.939l-0.4189,0.2412l0.0371-1.6113l-1.1435,0.6606l-0.0606,1.625l-0.7666,0.417l-3.1455-1.8169v-0.8608
			l1.376-0.8652v-1.3208l-1.376,0.8383v-0.4819l0.79-0.5049v-1.3208l-0.79,0.48v-0.9712l-0.6616-0.6597l-0.6592,0.6597v0.9712
			l-0.7935-0.48v1.3208l0.7935,0.5049v0.4819l-1.3779-0.8383v1.3208l1.3779,0.8652v0.9219l-3.0884,1.7866l-0.8266-0.4478
			l-0.0621-1.6298l-1.143-0.6597l0.0386,1.6152l-0.4166-0.2412l-0.0439-0.939l-1.1406-0.6611l0.0195,0.9248l-0.8433-0.4829
			l-0.9008,0.2398l0.2402,0.9008l0.8433,0.4864l-0.8145,0.4467l1.1436,0.6602l0.8354-0.4321l0.4185,0.2402l-1.4146,0.7734
			l1.1416,0.6597l1.438-0.7617l0.7808,0.4263v3.6416l-0.7818,0.4531l-1.437-0.7569l-1.1416,0.6592l1.4146,0.7715l-0.4185,0.2432
			l-0.8354-0.4346l-1.1436,0.6611l0.8145,0.4453l-0.8433,0.4844l-0.2402,0.8994l0.9008,0.2432l0.8394-0.4863l-0.0176,0.9287
			l1.1426-0.6602l0.0439-0.9384l0.4166-0.2432l-0.0386,1.6133l1.1411-0.6621l0.064-1.6221l0.7036-0.4082l3.2094,1.8496v0.8184
			l-1.3779,0.8632v1.3203l1.3779-0.8378v0.4814l-0.7915,0.5098v1.3164l0.7915-0.4785v0.9697l0.6592,0.6601l0.6636-0.6601v-0.9697
			l0.79,0.4785V45.293l-0.79-0.5098v-0.4814l1.376,0.8378v-1.3203l-1.376-0.8632v-0.7549l3.2656-1.8858l0.6465,0.3809l0.0606,1.6269
			l1.1435,0.6573l-0.0391-1.6133l0.4209,0.2432l0.0411,0.9404l1.1425,0.6582l-0.0166-0.9287l0.8369,0.4863l0.9014-0.2383
			L46.4712,41.626z M41.0132,38.4517l-1.126-0.6612c0-0.3672,0-0.7925,0-1.1269l1.126-0.6123
			C41.0132,36.7075,41.0132,37.7363,41.0132,38.4517z M40.2241,34.9785l-1.1582,0.6328c-0.2519-0.1465-0.5234-0.3061-0.7578-0.4438
			v-1.2954C38.8442,34.1831,39.6372,34.6382,40.2241,34.9785z M36.686,37.9331c0-0.0137,0-1.1558,0-1.1743
			c0.0108-0.0049,0.6055-0.3472,0.6055-0.3472s0.3935-0.2295,0.4092-0.2392c0.0136,0.0097,1.0039,0.5815,1.0156,0.5864
			c0,0.0185,0,1.1606,0,1.1743c-0.0117,0.0088-1.002,0.5786-1.0156,0.5884C37.685,38.5117,36.6968,37.9419,36.686,37.9331z
			 M36.9873,33.9351v1.2983c-0.1016,0.0562-0.1714,0.0986-0.1714,0.0986s-0.2471,0.1397-0.5244,0.3028l-1.1597-0.6319
			C35.686,34.686,36.439,34.251,36.9873,33.9351z M34.3882,36.1055l1.1264,0.6084c0,0.3149,0,0.7026,0,1.0429l-1.1264,0.6494
			C34.3882,37.7124,34.3882,36.7471,34.3882,36.1055z M34.9717,39.5937l1.125-0.6464c0.2715,0.1591,0.6001,0.3466,0.8886,0.5107
			v1.3008C36.3828,40.4121,35.5337,39.9209,34.9717,39.5937z M38.3081,40.8203v-1.2959c0.2998-0.1738,0.6641-0.3877,0.9707-0.5615
			l1.1123,0.6533C39.7905,39.9629,38.897,40.4814,38.3081,40.8203z"/>
	</g>
</g>
</svg>
