<?xml version="1.0" encoding="utf-8"?>
<!-- Generator: Adobe Illustrator 17.1.0, SVG Export Plug-In . SVG Version: 6.00 Build 0)  -->
<!DOCTYPE svg PUBLIC "-//W3C//DTD SVG 1.1//EN" "http://www.w3.org/Graphics/SVG/1.1/DTD/svg11.dtd">
<svg version="1.1" id="xmas-bells" xmlns="http://www.w3.org/2000/svg" xmlns:xlink="http://www.w3.org/1999/xlink" x="0px" y="0px"
	 viewBox="0 0 74.9995 74.9995" enable-background="new 0 0 74.9995 74.9995" xml:space="preserve">
<g id="xmas-bells-xmas-bells">
	<circle fill="#434A54" cx="37.4997" cy="37.499" r="37.4998"/>
	<g id="xmas-bells-xmas-bells_1_">
		<path fill="#FFCE54" d="M35.8989,37.7153c-0.02-0.0097-0.0405-0.0156-0.063-0.0254c-0.3872-0.1338-0.937-0.2695-1.5659-0.2675
			c-1.0996,0.0087-2.4243,0.373-3.748,1.9804c-2.1631,2.6514-3.4839,4.291-5.0596,5.71c0,0,0.0029,0,0.0068,0
			c2.0489,0.001,4.2417,0.6426,6.5181,1.7803c1.5859,0.7968,2.9648,1.7138,4.0679,2.7519
			c-0.3565-1.4883-0.8926-3.1523-1.6524-5.5332c-0.2568-0.7998-0.3652-1.54-0.3652-2.2148
			C34.0513,39.8325,35.061,38.4824,35.8989,37.7153z M36.9224,57.8071L36.9224,57.8071v0.002V57.8071z M36.4834,51.9888
			c-1.0689-1.5235-2.7813-2.8721-5.0459-4.0059c-2.1548-1.0781-4.1763-1.6494-5.9683-1.6475c-0.6577,0-1.2817,0.0772-1.8808,0.2305
			l-1.9766,2.3027c0.5742-0.1709,1.2217-0.2539,1.9038-0.2539c1.9429,0.002,4.3203,0.6162,6.7022,1.8077
			c1.9428,0.9716,3.5747,2.1767,4.7412,3.4267c0.7715,0.835,1.3481,1.6865,1.6572,2.5371l0.3218-1.4541
			C36.938,54.9321,36.5195,52.2964,36.4834,51.9888z M34.0669,54.6802c-1.0479-1.1202-2.5713-2.252-4.3941-3.1661
			c-2.2382-1.122-4.4712-1.6787-6.1572-1.6787c-1.5366,0-2.501,0.461-2.7915,1.0948c-0.1001,0.1943-0.1514,0.4072-0.1514,0.6572
			c-0.0117,0.7558,0.5293,1.8682,1.5826,2.9902c1.0473,1.1221,2.5708,2.2559,4.3964,3.167
			c1.1802,0.5947,2.3614,1.0254,3.4654,1.3047c-0.3604-0.4639-0.4478-1.1064-0.1685-1.6689
			c0.3892-0.7774,1.336-1.0928,2.1133-0.7032c0.7803,0.3907,1.0981,1.3369,0.7056,2.1162c-0.128,0.2579-0.3218,0.459-0.5479,0.6084
			c0.2027,0.0098,0.3965,0.0215,0.5845,0.0215c1.5371,0.002,2.501-0.4599,2.7969-1.0918l-0.003-0.0019
			c0.0967-0.1934,0.146-0.4024,0.146-0.6563C35.6577,56.9175,35.1221,55.8032,34.0669,54.6802z M42.6411,46.6069
			c2.2002-1.2851,4.3516-2.0605,6.4033-2.1904c-1.6679-1.3193-3.0888-2.8701-5.4267-5.3818
			c-1.3018-1.3902-2.544-1.7373-3.5869-1.7442c-1.0469-0.0019-1.9029,0.3887-2.2383,0.5786
			c-0.1153,0.0611-0.1529,0.0894-0.1529,0.0894l-0.0371,0.0239L37.5669,38c0,0-0.0176,0.0068-0.0816,0.0444
			c-0.0561,0.0342-0.146,0.0894-0.2568,0.1641c-0.2178,0.1538-0.5151,0.3896-0.8091,0.7099
			c-0.5854,0.6456-1.1596,1.5967-1.1596,2.9786c0,0.5449,0.0849,1.1513,0.3081,1.8427c1.0385,3.2618,1.6909,5.2647,2.0244,7.3633
			C38.7085,49.3823,40.4497,47.8891,42.6411,46.6069z M54.4849,48.4302h-0.002H54.4849L54.4849,48.4302z M44.6313,50.0141
			c2.5176-1.4697,5.0743-2.2509,7.1133-2.2548c0.4863,0,0.9453,0.0507,1.3799,0.1513l-2.126-2.1738
			c-0.4443-0.0859-0.8955-0.126-1.3603-0.126c-1.9248-0.0019-4.0938,0.709-6.3809,2.0479c-2.8467,1.6611-4.7441,3.624-5.4761,5.7969
			l0.856,2.9326C39.2632,54.2056,41.5288,51.8608,44.6313,50.0141z M48.7651,57.0854c3.4483-1.9765,5.6289-4.8369,5.5703-6.4091
			c-0.0019-0.3038-0.0673-0.5518-0.1933-0.7715c-0.3086-0.5459-1.1123-0.9239-2.3975-0.9239
			c-1.7285-0.0039-4.1357,0.7012-6.4971,2.085c-3.4472,1.9785-5.6298,4.834-5.5693,6.4092c0,0.3047,0.0635,0.5527,0.1934,0.7715
			c0.3047,0.5468,1.1142,0.9228,2.3994,0.9267c0.3203,0,0.6709-0.0312,1.0351-0.082c-0.2285-0.1338-0.4345-0.3193-0.5781-0.5654
			c-0.4375-0.75-0.1855-1.7188,0.5645-2.1573c0.7539-0.4394,1.7187-0.1855,2.1572,0.5645c0.3174,0.542,0.2695,1.1894-0.0586,1.6777
			C46.4712,58.2602,47.6225,57.7563,48.7651,57.0854z"/>
		<g>
			<path fill="#E9573F" d="M15.772,38.0766l4.663,1.295l-0.2636,4.7578c8.1177-4.0332,13.5718-10.4321,16.0727-13.8623h-2.5776
				c-3.9868,0.6616-7.1846,1.0698-9.6797,1.1611C20.0766,34.8159,17.2085,37.0166,15.772,38.0766z"/>
			<path fill="#E9573F" d="M41.8061,34.124c2.9707,3.2915,7.3125,7.2134,12.9307,10.0054l-0.2637-4.7578l4.75-1.3203
				c-1.3037-1.0777-3.959-3.3052-7.6884-6.6109c-2.5811-0.0376-5.9727-0.4526-10.295-1.1733h-2.5752
				C39.438,31.3213,40.4819,32.6577,41.8061,34.124z"/>
			<path fill="#E9573F" d="M18.5493,25.1816c-0.3516,0.6397-0.6133,1.0957-0.6221,2.0347c0,0.2734,0.0244,0.5835,0.0855,0.9517
				c0.0068,0.0117,0.0088,0.0234,0.0117,0.0351c0.0064-0.0098,0.0083-0.0185,0.0132-0.0293c0.3061-0.501,0.9033-0.9775,1.8179-1.185
				c1.0659-0.253,2.3286-0.4087,3.7329-0.4087c2.8325,0,6.2602,0.6401,9.8525,2.4399v-6.7309
				c-0.2588-0.3541-0.6157-0.7989-1.0933-1.3038c-1.122-1.1889-2.8686-2.6499-5.3637-3.7402
				c-2.0962-0.9185-4.7056-1.6724-6.4722-1.6689c-0.6582,0-1.1406,0.1225-1.4692,0.3432c-0.5791,0.3965-0.8091,1.2036-0.773,1.6416
				c0.0611,0.6929,0.2344,1.3013,0.52,2.0445c0.2774,0.7348,0.5982,1.601,0.5982,2.7085c0,0.0737-0.0029,0.1445-0.0049,0.2182
				C19.3472,23.7617,18.9004,24.5576,18.5493,25.1816z"/>
			<path fill="#E9573F" d="M23.5884,27.7998c-1.314,0-2.4834,0.1475-3.4527,0.376c-0.6626,0.1621-0.9243,0.416-1.0639,0.6465
				c-0.2232,0.3701,0.0947,0.7617,0.2597,0.8564c0.813,0.4585,1.9556,0.5513,3.6724,0.5479
				c2.0894,0.0009,4.8589-0.2881,8.3437-0.8238C28.5054,28.2309,25.8345,27.8008,23.5884,27.7998z"/>
			<path fill="#E9573F" d="M55.0522,26.9888c0.917,0.2094,1.5088,0.687,1.8145,1.187c0.0098,0.0107,0.0117,0.0205,0.0176,0.0332
				c0.0019-0.0157,0.0078-0.0274,0.0097-0.0391c0.0596-0.3701,0.083-0.6802,0.083-0.9517
				c-0.0097-0.9399-0.2656-1.3969-0.6201-2.0366c-0.3486-0.624-0.7929-1.4218-0.833-2.6406
				c-0.0019-0.0815-0.0039-0.1553-0.0039-0.2261c0-1.1064,0.3174-1.9736,0.5986-2.7085c0.2832-0.7431,0.5176-1.3486,0.5176-2.0405
				c-0.0019-0.2993,0.0488-1.1328-0.7754-1.6465c-0.3388-0.2085-0.9131-0.2617-1.5654-0.2597
				c-1.7715-0.004-4.2773,0.6669-6.3711,1.5854c-3.5449,1.5454-5.581,3.855-6.456,5.042V29.02
				c3.5898-1.7998,7.0185-2.4399,9.8515-2.4399C52.7251,26.5801,53.9849,26.7358,55.0522,26.9888z"/>
			<path fill="#E9573F" d="M55.8315,28.8223c-0.1162-0.2403-0.3984-0.4844-1.0576-0.6465c-0.9717-0.2285-2.1396-0.376-3.4541-0.375
				c-2.248,0-4.9189,0.4301-7.7578,1.602c3.4844,0.5357,6.25,0.7798,8.3379,0.8238c1.9336,0.0405,3.1562-0.1021,3.6641-0.5088
				C55.7974,29.5356,55.9927,29.147,55.8315,28.8223z"/>
			<rect x="34.6597" y="22.311" fill="#E9573F" width="5.5859" height="6.732"/>
		</g>
	</g>
</g>
</svg>
