<?xml version="1.0" encoding="utf-8"?>
<!-- Generator: Adobe Illustrator 17.1.0, SVG Export Plug-In . SVG Version: 6.00 Build 0)  -->
<!DOCTYPE svg PUBLIC "-//W3C//DTD SVG 1.1//EN" "http://www.w3.org/Graphics/SVG/1.1/DTD/svg11.dtd">
<svg version="1.1" id="xmas-owl" xmlns="http://www.w3.org/2000/svg" xmlns:xlink="http://www.w3.org/1999/xlink" x="0px" y="0px"
	 viewBox="0 0 75 75" enable-background="new 0 0 75 75" xml:space="preserve">
<g id="xmas-owl-xmas-owl">
	<circle id="xmas-owl-label" fill="#434A54" cx="37.5" cy="37.5" r="37.5"/>
	<g id="xmas-owl-xmas-owl_1_">
		<g>
			<path fill="#FFCE54" d="M34.7759,60.6602l-0.3321-0.3184l0.3794-3.709c0.0914-0.8935-0.0405-1.6787-0.2944-1.6973l-0.0122-0.0009
				c-0.2534-0.0186-0.5361,0.6904-0.6274,1.582l-0.3921,3.874l-0.2852,0.1651c-0.8848,0.5078-1.4805,1.0664-1.3354,1.2392
				l0.0078,0.0078c0.1274,0.1524,0.7734-0.0371,1.518-0.4218c-0.0449,0.7988,0.0826,1.5029,0.313,1.5029h0.0127
				c0.2354,0,0.4922-0.668,0.6026-1.4766c0.6215,0.5381,1.207,0.8574,1.374,0.7344l0.0073-0.0068
				C35.9082,61.9961,35.4883,61.3359,34.7759,60.6602z"/>
			<path fill="#FFCE54" d="M42.8633,60.5557l-0.2842-0.1651l-0.3926-3.874c-0.0927-0.8916-0.373-1.6006-0.6279-1.582l-0.0117,0.0009
				c-0.253,0.0186-0.3848,0.8038-0.2959,1.6973l0.3808,3.709l-0.333,0.3184c-0.7109,0.6757-1.1299,1.3359-0.9345,1.4746
				l0.0068,0.0068c0.168,0.123,0.7529-0.1963,1.373-0.7344c0.1114,0.8086,0.3682,1.4766,0.6026,1.4766h0.0137
				c0.2314,0,0.3593-0.7041,0.3125-1.5029c0.7451,0.3847,1.3906,0.5742,1.5185,0.4218l0.0068-0.0078
				C44.3447,61.6221,43.748,61.0635,42.8633,60.5557z"/>
		</g>
		<g>
			<path fill="#A0D468" d="M51.0371,31.6045c-0.0625-2.1011,1.5674-6.9219,0.5322-7.3467c-0.8359-0.3398-3.4785,0.065-4.8847,1.0176
				c-2.5742-1.5869-5.919-2.2549-9.8072-2.2549c-3.7231,0-6.9253,0.6201-9.4223,2.0591c-1.4165-0.7954-4.2344-1.3867-5.1177-1.0269
				c-1.0395,0.4263,0.7251,5.1104,0.6611,7.2124c-0.0991,3.0371-1.3759,5.4878-1.4712,8.5298l0.0665-0.1582
				c0.2329,12.5713,6.354,17.2598,15.4301,17.2598c9.0034,0,14.9556-4.6074,15.2788-16.9356l0.0733,0.169
				C52.2793,37.0918,51.1387,34.6421,51.0371,31.6045"/>
			<path fill="#FFFFFF" d="M45.8604,51.3574c0,4.7246-3.6807,5.5762-8.6822,5.5762c-4.9995,0-9.4267-0.8516-9.4267-5.5762
				c0-4.7256,4.0542-8.5527,9.0547-8.5527C41.8066,42.8047,45.8604,46.6318,45.8604,51.3574"/>
			<g>
				<path fill="#434A54" d="M37.0386,50.5869h-0.02c-0.8287,0-1.4698-0.54-1.6319-1.2139
					c-0.0317-0.1279,0.0484-0.3066,0.1782-0.3398c0.1304-0.0312,0.2647,0.0254,0.295,0.1563
					c0.1318,0.5429,0.7099,0.7314,1.163,0.7343c0.5147,0.002,1.1231-0.2343,1.2598-0.7558
					c0.0337-0.1319,0.1675-0.2119,0.2944-0.1778c0.1319,0.0332,0.21,0.2608,0.1749,0.3916
					C38.5537,50.1523,37.7495,50.5869,37.0386,50.5869"/>
				<path fill="#434A54" d="M31.8384,50.5869h-0.0196c-0.8271,0-1.4677-0.54-1.6303-1.2139
					c-0.0313-0.1279,0.0498-0.3066,0.1782-0.3398c0.1294-0.0312,0.2637,0.0254,0.2944,0.1563
					c0.1338,0.5429,0.7119,0.7314,1.1636,0.7343c0.5151,0.002,1.1221-0.2343,1.2588-0.7558
					c0.0327-0.1319,0.167-0.2119,0.2974-0.1778c0.1284,0.0332,0.2109,0.2608,0.1757,0.3916
					C33.354,50.1523,32.5508,50.5869,31.8384,50.5869"/>
				<path fill="#434A54" d="M42.2334,50.5869h-0.0166c-0.8281,0-1.4707-0.54-1.6357-1.2139
					c-0.0284-0.1279,0.0517-0.3066,0.1796-0.3398c0.1319-0.0312,0.2637,0.0254,0.2979,0.1563
					c0.1318,0.5429,0.707,0.7314,1.1602,0.7343c0.5146,0.002,1.125-0.2343,1.2607-0.7558c0.0342-0.1319,0.168-0.2119,0.2959-0.1778
					c0.1289,0.0332,0.21,0.2608,0.1748,0.3916C43.749,50.1523,42.9473,50.5869,42.2334,50.5869"/>
				<path fill="#434A54" d="M39.5547,53.7588h-0.0195c-0.8291,0-1.4668-0.4209-1.6299-1.0938
					c-0.0332-0.1298,0.0493-0.248,0.1787-0.2793c0.1308-0.0332,0.2627,0.0547,0.2934,0.1866
					c0.1314,0.5439,0.7085,0.7441,1.1597,0.748c0.5195,0.002,1.127-0.2266,1.2617-0.748c0.0323-0.1319,0.167-0.209,0.2989-0.1719
					c0.1298,0.0312,0.205,0.1387,0.1728,0.2685C41.0703,53.4395,40.2676,53.7588,39.5547,53.7588"/>
				<path fill="#434A54" d="M34.521,53.7588h-0.02c-0.8306,0-1.4717-0.4209-1.6314-1.0938
					c-0.0342-0.1298,0.0474-0.248,0.1792-0.2793c0.1304-0.0332,0.2637,0.0547,0.295,0.1866
					c0.1293,0.5439,0.7075,0.7441,1.1621,0.748c0.5141,0.002,1.123-0.2266,1.2573-0.748c0.0356-0.1319,0.1689-0.209,0.2998-0.1719
					c0.1269,0.0312,0.207,0.1387,0.1709,0.2685C36.0342,53.4395,35.2334,53.7588,34.521,53.7588"/>
			</g>
			<g>
				<path fill="#FFFFFF" d="M42.8477,28.6138c-2.5469,0-4.751,1.1772-5.814,3.3125c-1.0625-2.1353-3.2642-3.3125-5.8149-3.3125
					c-3.5821,0-6.3414,2.6157-6.3414,6.1982c0,3.5835,2.7593,6.1978,6.3414,6.1978c2.5473,0,4.7514-1.1768,5.8139-3.3111
					c1.064,2.1382,3.2681,3.3169,5.815,3.3169c3.583,0,6.3457-2.6152,6.3457-6.2007
					C49.1934,31.2295,46.4307,28.6138,42.8477,28.6138"/>
				<path fill="#434A54" d="M40.5156,36.876c0,1.6435,0.1748-1.9102,3.0987-1.9497c2.665-0.0367,2.8574,3.5932,2.8574,1.9497
					c0-1.6416-1.335-2.9781-2.9776-2.9781C41.8477,33.8979,40.5156,35.2344,40.5156,36.876"/>
				<path fill="#434A54" d="M33.3135,36.876c0,1.6435-0.1739-1.9102-3.0977-1.9497c-2.6684-0.0367-2.8589,3.5932-2.8589,1.9497
					c0-1.6416,1.3345-2.9781,2.9795-2.9781C31.9805,33.8979,33.3135,35.2344,33.3135,36.876"/>
			</g>
			<path fill="#E9573F" d="M38.5166,36.8437c0.2969,0.1465-1.5737,3.168-1.5737,3.168s-1.2896-2.4062-1.419-3.2402
				C36.2476,36.061,37.6763,35.8159,38.5166,36.8437"/>
			<path fill="#A0D468" d="M37.0361,36.0337c-7.1484-4.9043-11.8257-4.687-13.6533-6.2988
				c3.7105-3.812,11.0073-3.9351,15.9258-3.9351c3.918,0,8.9971,1.2915,11.7978,4.1641
				C47.9609,29.9209,42.751,32.4639,37.0361,36.0337"/>
			<path fill="#8CC152" d="M27.9648,43.9219c-2.2314-2.3965-4.4614-3.958-5.5893-4.0157c-0.0796-0.0273-0.1567-0.041-0.2334-0.038
				c-0.0986,0.0068-0.1948,0.041-0.2822,0.1015c-0.0015,0-0.0025,0.001-0.0059,0.003c-0.0596,0.0351-0.1133,0.0888-0.1582,0.1455
				c-0.6973,0.8222-0.8921,3.5507-0.4087,6.7548c0.5728,3.8096,1.8897,6.8467,2.9331,6.7852
				c0.6436-0.0361,1.0347-1.2314,1.1094-3.0293c1.2275,1.7266,2.376,2.6836,2.9658,2.3262
				c0.5161-0.3115,0.4995-1.5508,0.0518-3.2315c1.6841,1.3037,3.0493,1.8467,3.4809,1.25
				C32.4761,50.0684,30.7451,46.9102,27.9648,43.9219"/>
			<path fill="#8CC152" d="M46.5322,43.9219c2.2315-2.3965,4.46-3.958,5.5889-4.0157c0.0801-0.0273,0.1562-0.041,0.2334-0.038
				c0.0967,0.0068,0.1934,0.041,0.2822,0.1015c0.002,0,0.002,0.001,0.0069,0.003c0.0576,0.0351,0.1103,0.0888,0.1543,0.1455
				c0.6992,0.8222,0.8945,3.5507,0.4121,6.7548c-0.5733,3.8096-1.8887,6.8467-2.9356,6.7852
				c-0.6416-0.0361-1.0332-1.2314-1.1094-3.0293c-1.2275,1.7266-2.375,2.6836-2.9648,2.3262
				c-0.5176-0.3115-0.4981-1.5508-0.0527-3.2315c-1.6827,1.3037-3.0479,1.8467-3.4786,1.25
				C42.0205,50.0684,43.751,46.9102,46.5322,43.9219"/>
		</g>
		<g>
			<path fill="#E9573F" d="M53.4863,28.7515c0,0,1.0772-11.9327-8.6289-15.5445c-2.7187-1.0088-5.7002-1.3476-10.3374,1.8101
				l-1.0825,0.4595c0,0,2.7539,1.0893,4.8013,0.4746c0,0-1.4346,0.5708-2.4883,1.0566c-1.8423,0.8506-6.9287,2.9854-7.5249,6.311
				C28.2256,23.3188,47.1348,29.8389,53.4863,28.7515z"/>
			<path fill="#FFFFFF" d="M39.9082,29.5278c2.5918,0.6402,7.9395,2.44,10.9356,3.8374c0.4023,0.19,1.3593-0.4409,2.4785-2.7841
				c0.6328-1.3306,1.0869-3.5933,0.0078-4.0362c-2.3662-0.9707-9.0567-3.103-11.5615-3.7319
				c-2.9395-0.7363-9.4551-2.4717-11.7198-2.3316c-0.8447,0.0528-1.54,0.8956-2.2114,3.0831
				c-0.5024,1.6367-0.1367,2.9619,2.5898,3.9609C32.6577,28.3437,37.2842,28.8784,39.9082,29.5278z"/>
			<polygon fill="#FFFFFF" points="28.9141,14.6489 29.2695,14.7974 28.8872,14.8369 29.249,14.9639 28.8726,15.0269 
				29.2422,15.1318 28.8682,15.2178 29.2432,15.3003 28.875,15.4077 29.2544,15.4668 28.8965,15.5977 29.2773,15.6348 
				28.9277,15.7856 29.311,15.7993 28.9707,15.9717 29.3545,15.9609 29.0273,16.1538 29.4082,16.1201 29.0938,16.333 
				29.4722,16.2769 29.1724,16.5088 29.5464,16.4292 29.2603,16.6782 29.6289,16.5767 29.3594,16.8428 29.7212,16.7187 29.4678,17 
				29.8203,16.8564 29.5859,17.1509 29.9292,16.9854 29.7134,17.2954 30.0454,17.1094 29.8511,17.4321 30.1685,17.2256 
				29.9961,17.5591 30.3013,17.334 30.146,17.6782 30.4375,17.4351 30.3071,17.7876 30.5811,17.5278 30.4717,17.8867 
				30.731,17.6094 30.644,17.9756 30.8828,17.6841 30.8208,18.0562 31.042,17.75 31.002,18.1221 31.2026,17.8032 31.189,18.1802 
				31.3682,17.8496 31.376,18.2256 31.5386,17.8848 31.5679,18.2598 31.7075,17.9097 31.7617,18.2827 31.8774,17.9253 
				31.9556,18.2935 32.0493,17.9302 32.1494,18.2925 32.2192,17.9243 32.3442,18.2803 32.3906,17.9067 32.5361,18.2568 
				32.5596,17.8818 32.7266,18.2217 32.7251,17.8437 32.9146,18.1743 32.8896,17.7983 33.0981,18.1162 33.0508,17.7412 
				33.2773,18.0444 33.2061,17.6753 33.4541,17.9648 33.3599,17.5986 33.6235,17.874 33.5049,17.5156 33.7856,17.7744 
				33.6479,17.4214 33.9443,17.6626 33.7832,17.3208 34.0928,17.5435 33.9106,17.2109 34.2363,17.4146 34.0332,17.0937 
				34.3691,17.2769 34.147,16.9697 34.4941,17.1338 34.252,16.8379 34.6104,16.9795 34.3486,16.7017 34.7148,16.8228 
				34.438,16.5571 34.8101,16.6567 34.5176,16.4106 34.8931,16.4863 34.5889,16.2578 34.9673,16.311 34.6475,16.1025 
				35.0303,16.1318 34.6963,15.9409 35.0811,15.9478 34.7354,15.7788 35.1196,15.7607 34.7656,15.6123 35.1475,15.5723 
				34.7861,15.4453 35.1636,15.3838 34.7939,15.2769 35.167,15.1919 34.793,15.1094 35.1602,15.0029 34.7803,14.9424 
				35.1392,14.812 34.7583,14.7759 35.1069,14.624 34.7227,14.6113 35.0635,14.4385 34.6812,14.4482 35.0093,14.2554 
				34.626,14.2896 34.9419,14.0762 34.5645,14.1333 34.8638,13.9019 34.4897,13.9805 34.7744,13.7305 34.4053,13.833 
				34.6768,13.5664 34.314,13.6904 34.5679,13.4097 34.2158,13.5552 34.4492,13.2583 34.1045,13.4243 34.3208,13.1143 
				33.9907,13.3013 34.1855,12.9785 33.8667,13.1836 34.041,12.8506 33.7339,13.0752 33.8892,12.7324 33.5972,12.9746 
				33.728,12.6226 33.4541,12.8833 33.5635,12.5239 33.3047,12.7993 33.3911,12.4336 33.1523,12.7256 33.2153,12.3545 
				32.9937,12.6606 33.0327,12.2866 32.8311,12.6055 32.8481,12.2305 32.6665,12.5605 32.6577,12.1855 32.4971,12.5259 
				32.4658,12.1509 32.3286,12.4995 32.2734,12.1274 32.1582,12.4854 32.0796,12.1157 31.9863,12.4795 31.8857,12.1167 
				31.8145,12.4863 31.6919,12.1294 31.6445,12.5015 31.5,12.1528 31.4766,12.5278 31.3076,12.1895 31.311,12.5654 31.1216,12.2363 
				31.1455,12.6123 30.937,12.2964 30.9858,12.6694 30.7563,12.3633 30.8286,12.7354 30.5811,12.4443 30.6753,12.8096 
				30.4131,12.5356 30.5303,12.894 30.2485,12.6362 30.3872,12.9883 30.0908,12.7476 30.2529,13.0898 29.9429,12.8672 
				30.1245,13.1982 29.7998,12.9956 30.0015,13.3164 29.666,13.1313 29.8892,13.4404 29.541,13.2769 29.7822,13.5723 
				29.4268,13.4292 29.686,13.709 29.3213,13.5879 29.5972,13.8525 29.2256,13.7524 29.5171,14 29.1421,13.9243 29.4482,14.1519 
				29.0674,14.0986 29.3887,14.3081 29.0054,14.2788 29.3394,14.4687 28.9561,14.4629 29.2974,14.6313 			"/>
		</g>
		<g>
			<path fill="#E9573F" d="M45.2363,45.8447c0.1016,0.1533,0.2032,0.3076,0.3018,0.4619c3.499-0.2861,6.3135-0.9277,7.8799-1.3515
				c0.1621-2.2803-0.0576-4.0947-0.586-4.7813c-0.0898-0.0869-0.166-0.1572-0.2343-0.2187
				c-0.0772-0.044-0.1582-0.0801-0.2413-0.0869c-0.0019-0.0303-0.0068-0.0586-0.0068-0.0909
				c-3.5107,1.0323-6.1953,2.1602-8.8535,2.6436C44.2686,43.3535,44.8311,44.6084,45.2363,45.8447z"/>
			<path fill="#E9573F" d="M37.292,47c0.0395-0.001,0.0767-0.0049,0.1157-0.0049c0.0049-2.4775,0.6411-4.2519,0.7363-4.5029
				c-0.3505-0.0156-0.7021-0.0322-1.0322-0.0303c-8.2187,0.0742-14.1909-1.9765-15.5-2.4678
				c0.0029,0.0821,0.0088,0.1631,0.0108,0.2471c-0.5498,0.8047-0.7456,2.8848-0.4864,5.4277
				C27.0112,47.4834,33.1084,47.0361,37.292,47z"/>
			<path fill="#E9573F" d="M45.2363,45.8447c0.7373,2.252,0.9551,4.4297,0.9551,4.4297c-1.5615,1.2139-4.7109,1.2266-6.6025,1.1065
				c-0.1504,1.2959-0.0069,2.3144,0.1943,4.042c0,0,2.7148,0.0029,5.7959-0.5958c1.1211-0.6679,2.1104-1.5253,2.9746-2.5625
				c-0.5664-1.4453-1.5596-3.6855-3.0156-5.958C45.4395,46.1523,45.3379,45.998,45.2363,45.8447z"/>
			<path fill="#FC6E51" d="M43.457,42.3662c0,0-2.0381-0.1582-2.4912-0.1435c-1.0527,0.038-2.8081,0.2334-2.8081,0.2334
				s-0.0049,0.0175-0.0137,0.0361c-0.0952,0.251-0.7314,2.0254-0.7363,4.5029c-0.0029,1.2676,0.1607,2.7168,0.6509,4.2403
				c0,0,0.6201,0.0878,1.5303,0.1455c1.8916,0.1201,5.041,0.1074,6.6025-1.1065c0,0-0.2178-2.1777-0.9551-4.4297
				c-0.4052-1.2363-0.9677-2.4912-1.7402-3.4238C43.4814,42.4043,43.4717,42.3838,43.457,42.3662z"/>
		</g>
	</g>
</g>
</svg>
