<?xml version="1.0" encoding="utf-8"?>
<!-- Generator: Adobe Illustrator 17.1.0, SVG Export Plug-In . SVG Version: 6.00 Build 0)  -->
<!DOCTYPE svg PUBLIC "-//W3C//DTD SVG 1.1//EN" "http://www.w3.org/Graphics/SVG/1.1/DTD/svg11.dtd">
<svg version="1.1" id="xmas-card" xmlns="http://www.w3.org/2000/svg" xmlns:xlink="http://www.w3.org/1999/xlink" x="0px" y="0px"
	 viewBox="0 0 75 75" enable-background="new 0 0 75 75" xml:space="preserve">
<g id="xmas-card-xmas-card">
	<circle id="xmas-card-label" fill="#434A54" cx="37.5" cy="37.5" r="37.5"/>
	<g id="xmas-card-xmas-card_1_">
		<path fill="#FFFFFF" d="M18.0977,23.0391c-0.7945,0-1.4361,0.6421-1.4361,1.435v26.0493c0,0.793,0.6416,1.4375,1.4361,1.4375
			h38.8027c0.7949,0,1.4375-0.6445,1.4375-1.4375V24.4741c0-0.7929-0.6426-1.435-1.4375-1.435H18.0977z"/>
		<path fill="#A0D468" d="M55.4639,25.9121c0,2.416,0,20.7578,0,23.1758c-2.5635,0-33.3658,0-35.9297,0c0-2.418,0-20.7598,0-23.1758
			C22.0981,25.9121,52.9004,25.9121,55.4639,25.9121z"/>
		<path fill="#FFFFFF" d="M27.6118,40.3223c-0.5679,0-1.0273,0.4589-1.0273,1.0263c0,0.5674,0.4594,1.0274,1.0273,1.0274h9.8535
			c0.566,0,1.0269-0.46,1.0269-1.0274c0-0.5674-0.4609-1.0263-1.0269-1.0263H27.6118z"/>
		<path fill="#FFFFFF" d="M27.6118,35.3604c-0.5679,0-1.0273,0.4599-1.0273,1.0268c0,0.5674,0.4594,1.0274,1.0273,1.0274h9.8535
			c0.566,0,1.0269-0.46,1.0269-1.0274c0-0.5669-0.4609-1.0268-1.0269-1.0268H27.6118z"/>
		<g>
			<path fill="#FFFFFF" d="M53.5879,29.6235c0.0117,0,0.0234,0.003,0.0332,0.0035v-1.3458h-1.5039
				c0,0.0108,0.0039,0.0215,0.0039,0.0333c0,0.3925-0.3184,0.7109-0.7119,0.7109c-0.3906,0-0.711-0.3184-0.711-0.7109
				c0-0.0118,0.0039-0.0225,0.0059-0.0333h-1.1865c0,0.0108,0.0019,0.0215,0.0019,0.0333c0,0.3925-0.3174,0.7109-0.709,0.7109
				c-0.3935,0-0.7109-0.3184-0.7109-0.7109c0-0.0118,0.002-0.0225,0.0039-0.0333H46.917c0,0.0108,0.0039,0.0215,0.0039,0.0333
				c0,0.3925-0.3193,0.7109-0.7109,0.7109c-0.3936,0-0.712-0.3184-0.712-0.7109c0-0.0118,0.004-0.0225,0.004-0.0333h-1.4668v1.3458
				c0.0117-0.0005,0.0214-0.0035,0.0351-0.0035c0.3916,0,0.709,0.3179,0.709,0.7105c0,0.3926-0.3174,0.7114-0.709,0.7114
				c-0.0137,0-0.0234-0.0029-0.0351-0.0029v1.185c0.0117-0.0009,0.0214-0.0039,0.0351-0.0039c0.3916,0,0.709,0.3189,0.709,0.7115
				c0,0.392-0.3174,0.7099-0.709,0.7099c-0.0137,0-0.0234-0.0029-0.0351-0.0034v1.186c0.0117-0.0005,0.0214-0.0029,0.0351-0.0029
				c0.3916,0,0.709,0.3174,0.709,0.71c0,0.3925-0.3174,0.7114-0.709,0.7114c-0.0137,0-0.0234-0.0029-0.0351-0.0029v1.1494
				c0.0078,0,0.0156-0.002,0.0253-0.002c0.3838,0,0.6954,0.3067,0.7071,0.689c0.0039,0.019,0.0097,0.0366,0.0117,0.0561
				c-0.0059,0.0611-0.0234,0.1182-0.0449,0.1753c-0.0889,0.2886-0.3565,0.5015-0.6739,0.5015c-0.0097,0-0.0175-0.002-0.0253-0.002
				v1.378h1.4668c0-0.0117-0.004-0.0225-0.004-0.0342c0-0.3916,0.3184-0.71,0.712-0.71c0.3916,0,0.7109,0.3184,0.7109,0.71
				c0,0.0117-0.0039,0.0225-0.0039,0.0342h1.1865c-0.0019-0.0117-0.0039-0.0225-0.0039-0.0342c0-0.3916,0.3174-0.71,0.7109-0.71
				c0.3916,0,0.709,0.3184,0.709,0.71c0,0.0117-0.0019,0.0225-0.0019,0.0342h1.1865c-0.002-0.0117-0.0059-0.0225-0.0059-0.0342
				c0-0.3916,0.3204-0.71,0.711-0.71c0.3935,0,0.7119,0.3184,0.7119,0.71c0,0.0117-0.0039,0.0225-0.0039,0.0342h1.5039v-1.3457
				c-0.0098,0-0.0215,0.0029-0.0332,0.0029c-0.3936,0-0.7109-0.3184-0.7109-0.71c0-0.3935,0.3173-0.7114,0.7109-0.7114
				c0.0117,0,0.0234,0.0025,0.0332,0.0039v-1.185c-0.0098,0-0.0215,0.0029-0.0332,0.0029c-0.3936,0-0.7109-0.3189-0.7109-0.7114
				c0-0.3926,0.3173-0.71,0.7109-0.71c0.0117,0,0.0234,0.0024,0.0332,0.0029v-1.186c-0.0098,0.0005-0.0215,0.0034-0.0332,0.0034
				c-0.3936,0-0.7109-0.3179-0.7109-0.7099c0-0.3926,0.3173-0.7115,0.7109-0.7115c0.0117,0,0.0234,0.003,0.0332,0.0039v-1.185
				c-0.0098,0-0.0215,0.0029-0.0332,0.0029c-0.3936,0-0.7109-0.3188-0.7109-0.7114C52.877,29.9414,53.1943,29.6235,53.5879,29.6235z
				"/>
			<rect x="45.4209" y="29.666" fill="#FC6E51" width="6.7793" height="9.1377"/>
		</g>
	</g>
</g>
</svg>
