<?xml version="1.0" encoding="utf-8"?>
<!-- Generator: Adobe Illustrator 17.1.0, SVG Export Plug-In . SVG Version: 6.00 Build 0)  -->
<!DOCTYPE svg PUBLIC "-//W3C//DTD SVG 1.1//EN" "http://www.w3.org/Graphics/SVG/1.1/DTD/svg11.dtd">
<svg version="1.1" id="xmas-tree" xmlns="http://www.w3.org/2000/svg" xmlns:xlink="http://www.w3.org/1999/xlink" x="0px" y="0px"
	 viewBox="0 0 75 75" enable-background="new 0 0 75 75" xml:space="preserve">
<g id="xmas-tree-xmas-tree">
	<circle id="xmas-tree-label" fill="#434A54" cx="37.5" cy="37.499" r="37.5"/>
	<g id="xmas-tree-xmas-tree_1_">
		<polyline fill="#FFCE54" points="36.7856,18.0215 35.9917,16.5889 33.4482,16.5889 34.7197,14.3652 33.4482,12.1401 
			35.9917,12.1401 37.3418,9.7573 38.6943,12.1401 41.3145,12.1401 40.043,14.3652 41.3145,16.5889 38.6943,16.5889 
			38.0557,17.7827 		"/>
		<polyline fill="#A0D468" points="38.0557,17.7827 46.1611,29.2236 41.3936,29.2236 51.5625,41.1396 43.46,41.1396 
			58.9521,56.3955 16.0483,56.3955 31.543,41.1396 23.4375,41.1396 33.6069,29.2236 28.8413,29.2236 36.7856,17.7817 		"/>
		<g>
			<path fill="#FFFFFF" d="M25.7422,53.1387c0-0.8477-0.4243-1.2979-1.272-1.3506c-0.8486,0-1.2715,0.4502-1.2715,1.3506
				c0,0.8467,0.4229,1.2978,1.2715,1.3496C25.3179,54.4883,25.7422,54.04,25.7422,53.1387z"/>
			<path fill="#FFFFFF" d="M32.6538,47.3379c0-0.8467-0.4243-1.2979-1.2715-1.3496c-0.7939,0-1.1914,0.4492-1.1914,1.3496
				c0,0.7949,0.3975,1.2461,1.1914,1.3516C32.2295,48.6895,32.6538,48.2393,32.6538,47.3379z"/>
			<path fill="#FFFFFF" d="M33.29,37.4854c0-0.8458-0.4243-1.2974-1.2719-1.3497c-0.8487,0-1.2715,0.4497-1.2715,1.3497
				c0,0.8491,0.4228,1.2988,1.2715,1.3515C32.8657,38.8369,33.29,38.3867,33.29,37.4854z"/>
			<path fill="#FFFFFF" d="M36.9443,29.3823c0-0.8481-0.4243-1.2973-1.2714-1.3511c-0.8477,0-1.272,0.4507-1.272,1.3511
				c0,0.8472,0.4243,1.2984,1.272,1.3501C36.52,30.7324,36.9443,30.2837,36.9443,29.3823z"/>
			<path fill="#FFFFFF" d="M39.8047,22.6279c0-0.8467-0.4248-1.2964-1.2715-1.3515c-0.7944,0-1.1914,0.4526-1.1914,1.3515
				c0,0.795,0.397,1.2447,1.1914,1.3501C39.3799,23.978,39.8047,23.5283,39.8047,22.6279z"/>
			<path fill="#FFFFFF" d="M40.043,44.2383c0-0.8467-0.4248-1.2969-1.2715-1.3496c-0.8472,0-1.2715,0.4502-1.2715,1.3496
				c0,0.8496,0.4243,1.2988,1.2715,1.3525C39.6182,45.5908,40.043,45.1406,40.043,44.2383z"/>
			<path fill="#FFFFFF" d="M41.71,51.3896c0-0.7949-0.3955-1.2431-1.1895-1.3505c-0.8486,0-1.2715,0.4521-1.2715,1.3505
				c0,0.8487,0.4229,1.2979,1.2715,1.3516C41.3145,52.7412,41.71,52.291,41.71,51.3896z"/>
			<path fill="#FFFFFF" d="M44.0957,34.7856c0-0.8476-0.4248-1.2973-1.2715-1.3515c-0.8486,0-1.2705,0.4492-1.2705,1.3515
				c0,0.8472,0.4219,1.2969,1.2705,1.3501C43.6709,36.1357,44.0957,35.6851,44.0957,34.7856z"/>
			<path fill="#FFFFFF" d="M52.2002,53.6934c0-0.8448-0.4258-1.2959-1.2715-1.3497c-0.8486,0-1.2724,0.4493-1.2724,1.3497
				c0,0.8496,0.4238,1.2998,1.2724,1.3525C51.7744,55.0459,52.2002,54.5957,52.2002,53.6934z"/>
		</g>
	</g>
</g>
</svg>
