<?xml version="1.0" encoding="utf-8"?>
<!-- Generator: Adobe Illustrator 17.1.0, SVG Export Plug-In . SVG Version: 6.00 Build 0)  -->
<!DOCTYPE svg PUBLIC "-//W3C//DTD SVG 1.1//EN" "http://www.w3.org/Graphics/SVG/1.1/DTD/svg11.dtd">
<svg version="1.1" id="xmas-cake" xmlns="http://www.w3.org/2000/svg" xmlns:xlink="http://www.w3.org/1999/xlink" x="0px" y="0px"
	 viewBox="0 0 74.9995 75" enable-background="new 0 0 74.9995 75" xml:space="preserve">
<g id="xmas-cake-xmas-cake">
	<circle id="xmas-cake-label" fill="#434A54" cx="37.4997" cy="37.5" r="37.4998"/>
	<g id="xmas-cake-xmas-cake_1_">
		<g>
			<path fill="#FFCE54" d="M22.4331,25.7812c0,0-1.2168-1.7304,0.7754-3.4614c0,0,1.9111,1.1001,0.6938,3.3887
				c0,0,3.8394-2.812-0.8208-6.6523C23.0815,19.0562,18.2046,22.3916,22.4331,25.7812z"/>
			<path fill="#E9573F" d="M20.918,36.5259h4.3906c0.144,0,0.2607-0.1074,0.2607-0.27v-3.5704
				c-0.126,0.0728-0.2427,0.0728-0.351,0.0728c-0.8565-0.0728-1.6045-1.7129-1.7491-2.3257l-0.063-0.3603
				c-0.0444-0.2705-0.1533-0.8477-0.2973-0.8838c-0.0088,0-0.2163-0.0542-0.8384,0.6308c-0.3789,0.4151-0.7481,0.5591-1.0913,0.4331
				c-0.2246-0.0898-0.396-0.27-0.5308-0.5229v6.5264C20.6484,36.3999,20.7646,36.5259,20.918,36.5259z"/>
			<path fill="#FFFFFF" d="M21.3779,29.7119c0.1001,0.0357,0.2705-0.0727,0.4605-0.289c0.6123-0.649,1.0444-0.9009,1.4321-0.775
				c0.479,0.126,0.5952,0.7393,0.7036,1.3345l0.063,0.3242c0.1616,0.7212,0.8481,1.857,1.2256,1.8746
				c0.0913,0,0.2075-0.1436,0.3066-0.3609v-5.3896c0-0.1446-0.1167-0.2705-0.2695-0.2705h-4.3906
				c-0.1446,0-0.2608,0.1259-0.2608,0.2705v0.7026c0.0088,0.0181,0.0176,0.0542,0.0176,0.0728
				C20.729,28.3047,21.0264,29.585,21.3779,29.7119z"/>
		</g>
		<g>
			<path fill="#FFCE54" d="M36.2519,25.7632c0,0-1.2075-1.7124,0.7749-3.4434c0,0,1.919,1.0816,0.7017,3.3887
				c0,0,3.8413-2.812-0.8276-6.6523C36.9009,19.0562,32.0239,22.374,36.2519,25.7632z"/>
			<path fill="#E9573F" d="M37.3052,30.4146l-0.0806-0.3423c-0.0356-0.2705-0.1528-0.8477-0.2964-0.8838
				c0,0-0.2168-0.0542-0.8393,0.6308c-0.378,0.4151-0.7383,0.5411-1.0899,0.4151c-0.2163-0.0718-0.3965-0.2705-0.5322-0.5225
				l0.0088,6.544c0,0.144,0.1172,0.27,0.2705,0.27h4.3794c0.1533,0,0.2715-0.126,0.2715-0.27v-3.5704
				c-0.126,0.0547-0.252,0.0728-0.3526,0.0547C38.1792,32.6855,37.4311,31.0454,37.3052,30.4146z"/>
			<path fill="#FFFFFF" d="M34.4941,27.2061c0.0542,1.0986,0.3506,2.3613,0.7036,2.4873c0.1075,0.0361,0.2789-0.0542,0.4678-0.2705
				c0.604-0.649,1.0459-0.9009,1.4331-0.7935c0.4683,0.1445,0.5855,0.7578,0.7017,1.3345l0.0542,0.3427
				c0.1631,0.7027,0.8481,1.8384,1.2261,1.8746c0.0996,0,0.2177-0.1436,0.3164-0.378v-5.3725c0-0.1631-0.1182-0.2705-0.2715-0.2705
				h-4.3882c-0.1445,0-0.2705,0.1074-0.2705,0.2705v0.685C34.4756,27.1333,34.4844,27.1875,34.4941,27.2061z"/>
		</g>
		<g>
			<path fill="#FFCE54" d="M49.5464,25.7632c0,0-1.2168-1.731,0.7754-3.4434c0,0,1.9111,1.0816,0.7031,3.3887
				c0,0,3.832-2.8306-0.8467-6.6699C50.1782,19.0386,45.3198,22.374,49.5464,25.7632z"/>
			<path fill="#E9573F" d="M50.5933,30.4146L50.52,30.0723c-0.0547-0.2886-0.1533-0.8477-0.2871-0.8838
				c-0.0195-0.0186-0.2266-0.0542-0.8564,0.6133c-0.3702,0.415-0.7315,0.5586-1.0821,0.4326
				c-0.2168-0.0718-0.3877-0.2705-0.542-0.5225l0.0088,6.544c0,0.144,0.1192,0.2529,0.2617,0.2529h4.3995
				c0.1435,0,0.2695-0.1089,0.2617-0.2705l0.0078-3.5698c-0.126,0.0717-0.252,0.0898-0.3604,0.0717
				C51.4673,32.6855,50.7368,31.0454,50.5933,30.4146z"/>
			<path fill="#FFFFFF" d="M47.7788,27.2061c0.0469,1.0986,0.3603,2.3613,0.7139,2.4873c0.1084,0.0361,0.2685-0.0718,0.4687-0.2705
				c0.6026-0.6666,1.0449-0.9009,1.4248-0.7935c0.4668,0.1269,0.585,0.7393,0.7012,1.3345l0.0732,0.3427
				c0.1534,0.7027,0.8379,1.8384,1.2178,1.8746c0.0889-0.0176,0.2051-0.1436,0.3135-0.378v-5.3725
				c-0.0078-0.1631-0.126-0.2891-0.2783-0.2891h-4.3907c-0.1425,0-0.2705,0.126-0.2705,0.2891v0.685
				C47.7612,27.1333,47.7788,27.1689,47.7788,27.2061z"/>
		</g>
		<g>
			<polygon fill="#FC6E51" points="16.0058,53.6895 16.0058,55.9609 58.6968,55.9609 58.6968,53.6709 			"/>
			<path fill="#7F6951" d="M17.3218,45.4873c0.018,0,0.0532,0,0.0727,0.0166c-0.0195,0-0.0195,0-0.0273-0.0166
				C17.3486,45.4873,17.3306,45.4873,17.3218,45.4873z"/>
			<path fill="#FC6E51" d="M57.1558,37.3555L17.249,37.3198c0,0-1.2519,0-1.2519,1.19v4.3623c0,0-0.3702,1.9843,1.5048,1.9843
				c0,0,1.5503,0.4317,3.5513-1.1191c2.0098-1.5859,3.353-0.7568,4.543,0.2354c1.1811,1.0097,3.1011,1.3701,4.5439,0.1259
				c1.4331-1.2451,1.9292-2.2363,3.542-1.3164c0,0,1.6861,1.3701,3.4263-0.1806c1.7554-1.5498,2.4321-0.3057,2.938,0.3789
				c0.4961,0.6855,3.1728,3.6591,5.5967,0.4873c0,0,0.9384-2.1817,2.6767-0.3067c1.7402,1.875,2.1826,0.9912,2.8047,0.3067
				c0.6221-0.6856,1.8018-1.2451,2.8037,0.1259c0.9912,1.3702,2.4248,1.3155,3.7315,1.2442
				c1.3076-0.0723,1.3154-0.8838,1.3701-1.2988v-4.795C59.0298,38.7441,59.0298,37.3555,57.1558,37.3555z"/>
		</g>
		<path fill="#FFFFFF" d="M17.4018,53.1846l-0.0073-7.6807c0.3233,0.0732,2.0098,0.3438,4.0562-1.2617
			c1.6494-1.2979,2.622-0.6846,3.7221,0.2353c1.3975,1.1709,3.7046,1.586,5.3907,0.126l0.7036-0.6494
			c0.9458-0.9014,1.1802-1.1172,2.0913-0.5957c0.6396,0.541,2.4785,1.2627,4.1899-0.2695c0.4507-0.3965,0.8384-0.6133,1.0908-0.5772
			c0.2891,0.0362,0.5508,0.3965,0.7657,0.7041l0.1006,0.1426c0.0712,0.0908,1.6123,2.1826,3.6689,2.2002
			c1.1162,0.0185,2.1182-0.5596,2.9922-1.6953c0.0273-0.0352,0.0547-0.0899,0.081-0.126c0.0899-0.1982,0.3614-0.6133,0.667-0.666
			c0.2344-0.0547,0.5684,0.1445,0.9288,0.54c0.874,0.9375,1.5488,1.335,2.1992,1.335c0.6845-0.0186,1.1181-0.5049,1.415-0.8652
			l0.1455-0.1631c0.2324-0.2705,0.6123-0.5225,0.9727-0.5225c0.2793,0.0176,0.5508,0.2158,0.8203,0.5772
			c1.1357,1.5498,2.7578,1.5859,4.0215,1.5312v7.6455L17.4018,53.1846z"/>
		<g>
			<path fill="#E9573F" d="M48.8901,47.5049c0,0.8301,0.666,1.498,1.4864,1.498c0.8291,0,1.4863-0.6679,1.496-1.498
				c-0.0097-0.8281-0.6767-1.4961-1.5058-1.4961C49.5464,46.0088,48.8804,46.6943,48.8901,47.5049z"/>
			<path fill="#E9573F" d="M39.9106,47.5234c0,0.8116,0.667,1.4961,1.4961,1.4961c0.8194-0.0166,1.4961-0.6845,1.4961-1.5146
				c0-0.8106-0.667-1.4776-1.4961-1.4776C40.5864,46.0273,39.9106,46.6943,39.9106,47.5234z"/>
			<path fill="#E9573F" d="M30.9512,47.5234c0,0.8301,0.6665,1.4961,1.4873,1.4961c0.8383,0,1.4965-0.6845,1.4965-1.4961
				c0-0.8291-0.6582-1.4961-1.4965-1.4961C31.6177,46.0273,30.9414,46.6943,30.9512,47.5234z"/>
			<path fill="#E9573F" d="M21.9912,47.5234c0,0.8301,0.6572,1.4961,1.4868,1.4961c0.8296,0,1.4961-0.666,1.4961-1.4961
				c-0.0078-0.8291-0.6753-1.4961-1.4961-1.4961C22.6484,46.0273,21.9819,46.6943,21.9912,47.5234z"/>
		</g>
		<g>
			<path fill="#E9573F" d="M43.6216,35.0996c0.1474-0.1792,0.3838-0.2373,0.5898-0.1675c0.0791,0.0176,0.1563,0.0562,0.2227,0.1114
				c0.2304,0.1948,0.2597,0.5376,0.0634,0.7695c-0.1445,0.1792-0.3818,0.2373-0.5849,0.1665
				c-0.0391-0.0098-0.0733-0.022-0.1065-0.0376c-0.0078-0.0039-0.0117-0.0117-0.0156-0.0137
				c-0.041-0.0346-0.0849-0.0639-0.1318-0.0874C43.4595,35.6436,43.438,35.3198,43.6216,35.0996z"/>
			<path fill="#A0D468" d="M45.1294,35.1528l-0.2559,0.4991c0.0449,0.0244,0.0899,0.0537,0.128,0.0883
				c0.0332,0.0274,0.0625,0.0562,0.0898,0.0894c0.4316-0.2666,1.1162-0.5855,1.8486-0.5078c0,0-0.6201-1.7486,0.252-2.3047
				c0,0-0.3408-0.9595-0.0469-1.7798l0.082-0.1157c-0.0234,0.0293-0.0468,0.06-0.0722,0.0893
				c0.0097-0.0234,0.0176-0.0463,0.0273-0.0678l-0.0469,0.0903c-0.0127,0.0161-0.0263,0.0327-0.0419,0.0474l0.0888-0.1377
				c-0.1064,0.1494-0.2324,0.2763-0.3701,0.3838c-0.5625,0.4013-1.2715,0.5009-1.2715,0.5009
				c-0.0234,1.0342-1.8232,1.4126-1.8232,1.4126c0.0088,0.0137,0.0205,0.0293,0.0322,0.0459l0,0
				c0.0117,0.0176,0.0254,0.0357,0.0391,0.0542c0.0273,0.0406,0.0527,0.0806,0.0791,0.1201
				c0.0058,0.0098,0.0078,0.0176,0.0136,0.0225c0.0039,0.0103,0.0098,0.02,0.0157,0.0288c0.1865,0.3325,0.2695,0.6939,0.2988,1.0264
				c0.1318,0.0195,0.2558,0.0727,0.3603,0.1626c0.045,0.0381,0.085,0.0835,0.1202,0.1328l0.1298-0.2007
				c-0.0156-0.1919-0.0566-0.4145-0.1474-0.646c-0.0293-0.0884-0.0674-0.1792-0.1162-0.2705l0.4883,0.5659l0.3818-0.5913
				c-0.0117-0.1431-0.043-0.314-0.1084-0.4902c-0.0234-0.0659-0.0508-0.1358-0.083-0.2036l0.3642,0.4238l0.4336-0.6719
				c-0.0058-0.1172-0.0283-0.2637-0.0869-0.4106c-0.0156-0.0464-0.0351-0.0972-0.0586-0.1475l0.2891,0.3335l0.6123-0.9497
				l0.3281-0.4751l-0.7812,1.5264l0.5156,0.0884c-0.2871,0.0039-0.5176,0.1123-0.6631,0.1997l-0.3408,0.6655l0.6572,0.1094
				c-0.3574,0.0058-0.6474,0.1318-0.8359,0.2426l-0.2881,0.562l0.8623,0.147C45.7651,34.8467,45.3833,35.0078,45.1294,35.1528z"/>
			<path fill="#A0D468" d="M40.9839,33.1401l-1.3682-1.2954c0.043,0.0425,0.082,0.0869,0.1162,0.1319l-0.1797-0.1709
				c0.6338,0.663,0.6875,1.7793,0.6875,1.7793c0.3008,0.0639,0.5157,0.2714,0.667,0.5351c0.3604,0.6182,0.3741,1.5347,0.3741,1.5347
				c0-0.0029,0.0019-0.0029,0.0039-0.0029c0,0.0087,0,0.0117,0,0.0117c0.1894-0.0948,0.3818-0.1568,0.5693-0.1949
				c0.5918-0.1025,1.1709,0.0352,1.5195,0.1495c-0.0176-0.0718-0.0215-0.1436-0.0136-0.2173l-0.5596-0.5337
				c-0.2149-0.0205-0.5176-0.0435-0.8164,0.0117l0.5117-0.2959l-0.5059-0.4873c-0.083-0.0098-0.1738-0.0137-0.2695-0.0098
				c-0.1064-0.0088-0.2227-0.0107-0.3369,0.0049l0.3721-0.2168l-0.5772-0.5508c-0.165-0.0229-0.3838-0.0219-0.6103,0.0601
				L40.9839,33.1401z"/>
			<path fill="#A0D468" d="M43.6782,32.8623c0,0-1.834,0.2837-2.2168-0.6777c0,0-1.0859,0.1699-1.8457-0.3399l1.4961,1.1587
				l0.1826-0.4912c-0.0508,0.2861,0.0117,0.5322,0.0733,0.6909l0.5898,0.4575l0.2305-0.624
				c-0.0625,0.3506,0.0097,0.6607,0.083,0.8653l0.498,0.3886l0.3028-0.8208c-0.0801,0.4556,0.0097,0.8633,0.1045,1.1387
				l0.4111,0.3198c0.0693-0.0678,0.1543-0.1201,0.248-0.1533C43.6509,34.3003,43.4653,33.5674,43.6782,32.8623z"/>
			<path fill="#E9573F" d="M44.06,36.5928c0.0274,0.04,0.0577,0.0766,0.0948,0.1098c0.0176,0.0142,0.0351,0.0249,0.0547,0.0376
				c0.2265,0.1714,0.5517,0.1377,0.7382-0.0874c0.1914-0.2324,0.1631-0.5771-0.0664-0.768
				c-0.0136-0.0127-0.0263-0.0244-0.042-0.0323c-0.0429-0.0337-0.0878-0.0571-0.1357-0.0756
				c-0.0234,0.0478-0.0527,0.0932-0.0879,0.1367c-0.124,0.1523-0.3017,0.2451-0.4961,0.2607c-0.04,0.0039-0.081,0.0039-0.1181,0
				C44.0581,36.3042,44.0835,36.4487,44.06,36.5928z"/>
			<path fill="#E9573F" d="M42.9878,36.9067c0.0312,0.0254,0.0644,0.0489,0.0976,0.064c0.2246,0.1377,0.5225,0.0942,0.6973-0.1152
				c0.1924-0.2315,0.1631-0.5767-0.0654-0.7705c-0.0293-0.0249-0.0645-0.0474-0.0996-0.0655
				c-0.2246-0.1386-0.5205-0.0932-0.6953,0.1172C42.73,36.3682,42.7593,36.7129,42.9878,36.9067z"/>
		</g>
		<g>
			<path fill="#E9573F" d="M29.9375,35.8408c-0.0454,0.0235-0.0899,0.0528-0.1309,0.0874c-0.0039,0.002-0.0088,0.0098-0.0151,0.0137
				c-0.0332,0.0156-0.0689,0.0278-0.1069,0.0376c-0.2037,0.0708-0.44,0.0127-0.5855-0.1665
				c-0.1953-0.2319-0.1665-0.5747,0.0645-0.7695c0.0654-0.0552,0.143-0.0938,0.2226-0.1114
				c0.2046-0.0698,0.4419-0.0117,0.5894,0.1675C30.1597,35.3198,30.1382,35.6436,29.9375,35.8408z"/>
			<path fill="#A0D468" d="M27.3677,34.8408l0.8632-0.147l-0.2885-0.562c-0.188-0.1108-0.4795-0.2368-0.8355-0.2426l0.6572-0.1094
				l-0.3413-0.6655c-0.1455-0.0874-0.3759-0.1958-0.6626-0.1997l0.5157-0.0884l-0.7813-1.5264l0.3277,0.4751l0.6123,0.9497
				l0.2876-0.3335c-0.022,0.0503-0.0425,0.1011-0.0581,0.1475c-0.0572,0.1469-0.0811,0.2934-0.086,0.4106l0.4341,0.6719
				l0.3643-0.4238c-0.0328,0.0678-0.0611,0.1377-0.0835,0.2036c-0.066,0.1762-0.0967,0.3471-0.1084,0.4902l0.3818,0.5913
				l0.4883-0.5659c-0.0484,0.0913-0.0869,0.1821-0.1172,0.2705c-0.0903,0.2315-0.1309,0.4541-0.1465,0.646l0.1299,0.2007
				c0.0351-0.0493,0.0747-0.0947,0.1201-0.1328c0.105-0.0899,0.229-0.1431,0.3608-0.1626c0.0289-0.3325,0.1123-0.6939,0.2984-1.0264
				c0.0058-0.0088,0.0107-0.0185,0.0156-0.0288c0.0049-0.0049,0.0078-0.0127,0.0132-0.0225
				c0.0264-0.0395,0.0518-0.0795,0.0786-0.1201c0.0147-0.0185,0.0273-0.0366,0.04-0.0542l0,0
				c0.0113-0.0166,0.022-0.0322,0.0328-0.0459c0,0-1.8003-0.3784-1.8247-1.4126c0,0-0.7085-0.0996-1.2706-0.5009
				c-0.1377-0.1075-0.2641-0.2344-0.371-0.3838l0.0903,0.1377c-0.0156-0.0147-0.0293-0.0313-0.043-0.0474l-0.0473-0.0903
				c0.0097,0.0215,0.0185,0.0444,0.0283,0.0678c-0.0264-0.0293-0.0484-0.06-0.0718-0.0893l0.0806,0.1157
				c0.2954,0.8203-0.0459,1.7798-0.0459,1.7798c0.872,0.5561,0.2519,2.3047,0.2519,2.3047c0.7329-0.0777,1.417,0.2412,1.8491,0.5078
				c0.0274-0.0332,0.0552-0.062,0.0884-0.0894c0.0396-0.0346,0.084-0.0639,0.1284-0.0883l-0.2553-0.4991
				C28.2139,35.0078,27.832,34.8467,27.3677,34.8408z"/>
			<path fill="#A0D468" d="M33.0298,33.3833c-0.2266-0.082-0.4458-0.083-0.6104-0.0601l-0.5776,0.5508l0.3721,0.2168
				c-0.1143-0.0156-0.2305-0.0137-0.3374-0.0049c-0.0948-0.0039-0.1861,0-0.2691,0.0098l-0.5058,0.4873l0.5107,0.2959
				c-0.2979-0.0552-0.6001-0.0322-0.8149-0.0117l-0.5606,0.5337c0.0078,0.0737,0.0039,0.1455-0.0132,0.2173
				c0.3487-0.1143,0.9282-0.252,1.5191-0.1495c0.1884,0.0381,0.3798,0.1001,0.5698,0.1949c0,0-0.001-0.003,0-0.0117
				c0.0019,0,0.0039,0,0.0039,0.0029c0,0,0.0137-0.9165,0.374-1.5347c0.1514-0.2637,0.3667-0.4712,0.666-0.5351
				c0,0,0.0552-1.1163,0.689-1.7793l-0.1802,0.1709c0.0347-0.045,0.0738-0.0894,0.1162-0.1319l-1.3681,1.2954L33.0298,33.3833z"/>
			<path fill="#A0D468" d="M29.7622,34.7749c0.0928,0.0332,0.1772,0.0855,0.248,0.1533l0.4112-0.3198
				c0.0947-0.2754,0.1841-0.6831,0.1045-1.1387l0.3022,0.8208l0.4981-0.3886c0.0737-0.2046,0.1455-0.5147,0.0835-0.8653
				l0.2304,0.624l0.5894-0.4575c0.062-0.1587,0.123-0.4048,0.0737-0.6909l0.1812,0.4912l1.497-1.1587
				c-0.7597,0.5098-1.8462,0.3399-1.8462,0.3399c-0.3837,0.9614-2.2163,0.6777-2.2163,0.6777
				C30.1313,33.5674,29.9463,34.3003,29.7622,34.7749z"/>
			<path fill="#E9573F" d="M29.5957,36.1743c-0.0371,0.0039-0.0776,0.0039-0.1187,0c-0.1933-0.0156-0.372-0.1084-0.4961-0.2607
				c-0.0346-0.0435-0.0639-0.0889-0.0878-0.1367c-0.0474,0.0185-0.0923,0.0419-0.1348,0.0756
				c-0.0156,0.0079-0.0293,0.0196-0.0425,0.0323c-0.229,0.1909-0.2588,0.5356-0.0669,0.768
				c0.187,0.2251,0.5127,0.2588,0.7393,0.0874c0.0185-0.0127,0.0366-0.0234,0.0532-0.0376
				c0.0376-0.0332,0.0679-0.0698,0.0952-0.1098C29.5141,36.4487,29.5386,36.3042,29.5957,36.1743z"/>
			<path fill="#E9573F" d="M30.6748,36.1367c-0.1743-0.2104-0.4707-0.2558-0.6953-0.1172
				c-0.0352,0.0181-0.0698,0.0406-0.1001,0.0655c-0.2285,0.1938-0.2569,0.539-0.065,0.7705
				c0.1744,0.2094,0.4722,0.2529,0.6978,0.1152c0.0332-0.0151,0.0659-0.0386,0.0962-0.064
				C30.8379,36.7129,30.8667,36.3682,30.6748,36.1367z"/>
		</g>
	</g>
</g>
</svg>
