<?xml version="1.0" encoding="utf-8"?>
<!-- Generator: Adobe Illustrator 17.1.0, SVG Export Plug-In . SVG Version: 6.00 Build 0)  -->
<!DOCTYPE svg PUBLIC "-//W3C//DTD SVG 1.1//EN" "http://www.w3.org/Graphics/SVG/1.1/DTD/svg11.dtd">
<svg version="1.1" id="barcode-scanning" xmlns="http://www.w3.org/2000/svg" xmlns:xlink="http://www.w3.org/1999/xlink" x="0px"
	 y="0px" viewBox="0 0 1010 1010" enable-background="new 0 0 1010 1010" xml:space="preserve">
<g id="barcode-scanning-barcode-scanning">
	<path id="barcode-scanning-label" fill="#3BAFDA" d="M1010,505c0,278.9141-226.0859,505-505,505C226.106,1010,0,783.9141,0,505
		C0,226.0957,226.106,0,505,0C783.9141,0,1010,226.0957,1010,505z"/>
	<g id="barcode-scanning-barcode-scanning_1_">
		<rect x="232.2998" y="276.1816" fill="#FFFFFF" width="545.4004" height="457.6368"/>
		<g>
			<g>
				<polygon fill="#454545" points="271.3193,685.4092 251.1191,685.4092 251.1191,519.627 271.3193,519.627 271.3193,685.4092 				
					"/>
			</g>
			<g>
				<polygon fill="#454545" points="758.9004,685.4092 738.7012,685.4092 738.7012,519.627 758.9004,519.627 758.9004,685.4092 				
					"/>
			</g>
			<g>
				<polygon fill="#454545" points="310.3184,607.4004 290.1187,607.4004 290.1187,519.627 310.3184,519.627 310.3184,607.4004 				
					"/>
			</g>
			<g>
				<polygon fill="#454545" points="339.5732,607.4004 319.373,607.4004 319.373,519.627 339.5732,519.627 339.5732,607.4004 				
					"/>
			</g>
			<g>
				<polygon fill="#454545" points="388.3174,607.4004 368.1172,607.4004 368.1172,519.627 388.3174,519.627 388.3174,607.4004 				
					"/>
			</g>
			<g>
				<polygon fill="#454545" points="417.5918,607.4004 397.3916,607.4004 397.3916,519.627 417.5918,519.627 417.5918,607.4004 				
					"/>
			</g>
			<g>
				<polygon fill="#454545" points="446.8462,607.4004 426.6465,607.4004 426.6465,519.627 446.8462,519.627 446.8462,607.4004 				
					"/>
			</g>
			<g>
				<polygon fill="#454545" points="505.3555,607.4004 485.1553,607.4004 485.1553,519.627 505.3555,519.627 505.3555,607.4004 				
					"/>
			</g>
			<g>
				<polygon fill="#454545" points="554.1191,607.4004 533.9189,607.4004 533.9189,519.627 554.1191,519.627 554.1191,607.4004 				
					"/>
			</g>
			<g>
				<polygon fill="#454545" points="583.374,607.4004 563.1738,607.4004 563.1738,519.627 583.374,519.627 583.374,607.4004 				"/>
			</g>
			<g>
				<polygon fill="#454545" points="632.1182,607.4004 611.918,607.4004 611.918,519.627 632.1182,519.627 632.1182,607.4004 				
					"/>
			</g>
			<g>
				<polygon fill="#454545" points="661.373,607.4004 641.1729,607.4004 641.1729,519.627 661.373,519.627 661.373,607.4004 				"/>
			</g>
			<g>
				<polygon fill="#454545" points="719.8818,607.4004 699.6816,607.4004 699.6816,519.627 719.8818,519.627 719.8818,607.4004 				
					"/>
			</g>
		</g>
		<g>
			<g>
				<polygon fill="#454545" points="271.3193,461.1182 251.1191,461.1182 251.1191,324.6006 271.3193,324.6006 271.3193,461.1182 
									"/>
			</g>
			<g>
				<polygon fill="#454545" points="758.9004,461.1182 738.7012,461.1182 738.7012,324.6006 758.9004,324.6006 758.9004,461.1182 
									"/>
			</g>
			<g>
				<polygon fill="#454545" points="310.3184,461.1182 290.1187,461.1182 290.1187,324.6006 310.3184,324.6006 310.3184,461.1182 
									"/>
			</g>
			<g>
				<polygon fill="#454545" points="339.5732,461.1182 319.373,461.1182 319.373,324.6006 339.5732,324.6006 339.5732,461.1182 				
					"/>
			</g>
			<g>
				<polygon fill="#454545" points="388.3174,461.1182 368.1172,461.1182 368.1172,324.6006 388.3174,324.6006 388.3174,461.1182 
									"/>
			</g>
			<g>
				<polygon fill="#454545" points="417.5918,461.1182 397.3916,461.1182 397.3916,324.6006 417.5918,324.6006 417.5918,461.1182 
									"/>
			</g>
			<g>
				<polygon fill="#454545" points="446.8462,461.1182 426.6465,461.1182 426.6465,324.6006 446.8462,324.6006 446.8462,461.1182 
									"/>
			</g>
			<g>
				<polygon fill="#454545" points="505.3555,461.1182 485.1553,461.1182 485.1553,324.6006 505.3555,324.6006 505.3555,461.1182 
									"/>
			</g>
			<g>
				<polygon fill="#454545" points="554.1191,461.1182 533.9189,461.1182 533.9189,324.6006 554.1191,324.6006 554.1191,461.1182 
									"/>
			</g>
			<g>
				<polygon fill="#454545" points="583.374,461.1182 563.1738,461.1182 563.1738,324.6006 583.374,324.6006 583.374,461.1182 				
					"/>
			</g>
			<g>
				<polygon fill="#454545" points="632.1182,461.1182 611.918,461.1182 611.918,324.6006 632.1182,324.6006 632.1182,461.1182 				
					"/>
			</g>
			<g>
				<polygon fill="#454545" points="661.373,461.1182 641.1729,461.1182 641.1729,324.6006 661.373,324.6006 661.373,461.1182 				
					"/>
			</g>
			<g>
				<polygon fill="#454545" points="719.8818,461.1182 699.6816,461.1182 699.6816,324.6006 719.8818,324.6006 719.8818,461.1182 
									"/>
			</g>
		</g>
		<g>
			<g>
				<polygon fill="#454545" points="310.3184,681.2373 290.1187,681.2373 290.1187,661.0371 310.3184,661.0371 310.3184,681.2373 
									"/>
			</g>
			<g>
				<polygon fill="#454545" points="339.5732,681.2373 319.373,681.2373 319.373,661.0371 339.5732,661.0371 339.5732,681.2373 				
					"/>
			</g>
			<g>
				<polygon fill="#454545" points="368.8276,681.2373 348.6279,681.2373 348.6279,661.0371 368.8276,661.0371 368.8276,681.2373 
									"/>
			</g>
			<g>
				<polygon fill="#454545" points="398.082,681.2373 377.8818,681.2373 377.8818,661.0371 398.082,661.0371 398.082,681.2373 				
					"/>
			</g>
			<g>
				<polygon fill="#454545" points="427.3369,681.2373 407.1367,681.2373 407.1367,661.0371 427.3369,661.0371 427.3369,681.2373 
									"/>
			</g>
			<g>
				<polygon fill="#454545" points="456.5908,681.2373 436.3911,681.2373 436.3911,661.0371 456.5908,661.0371 456.5908,681.2373 
									"/>
			</g>
			<g>
				<polygon fill="#454545" points="485.8457,681.2373 465.6455,681.2373 465.6455,661.0371 485.8457,661.0371 485.8457,681.2373 
									"/>
			</g>
			<g>
				<polygon fill="#454545" points="515.1001,681.2373 494.9004,681.2373 494.9004,661.0371 515.1001,661.0371 515.1001,681.2373 
									"/>
			</g>
			<g>
				<polygon fill="#454545" points="544.3545,681.2373 524.1543,681.2373 524.1543,661.0371 544.3545,661.0371 544.3545,681.2373 
									"/>
			</g>
			<g>
				<polygon fill="#454545" points="573.6094,681.2373 553.4092,681.2373 553.4092,661.0371 573.6094,661.0371 573.6094,681.2373 
									"/>
			</g>
			<g>
				<polygon fill="#454545" points="602.8633,681.2373 582.6641,681.2373 582.6641,661.0371 602.8633,661.0371 602.8633,681.2373 
									"/>
			</g>
			<g>
				<polygon fill="#454545" points="632.1182,681.2373 611.918,681.2373 611.918,661.0371 632.1182,661.0371 632.1182,681.2373 				
					"/>
			</g>
			<g>
				<polygon fill="#454545" points="661.373,681.2373 641.1729,681.2373 641.1729,661.0371 661.373,661.0371 661.373,681.2373 				
					"/>
			</g>
			<g>
				<polygon fill="#454545" points="690.627,681.2373 670.4268,681.2373 670.4268,661.0371 690.627,661.0371 690.627,681.2373 				
					"/>
			</g>
			<g>
				<polygon fill="#454545" points="719.8818,681.2373 699.6816,681.2373 699.6816,661.0371 719.8818,661.0371 719.8818,681.2373 
									"/>
			</g>
		</g>
		<g>
			<g>
				<polygon fill="#454545" points="290.4736,754.0176 212.1001,754.0176 212.1001,685.4092 232.2998,685.4092 232.2998,733.8184 
					290.4736,733.8184 290.4736,754.0176 				"/>
			</g>
			<g>
				<polygon fill="#454545" points="797.9004,754.0176 729.291,754.0176 729.291,733.8184 777.7002,733.8184 777.7002,685.4092 
					797.9004,685.4092 797.9004,754.0176 				"/>
			</g>
			<g>
				<polygon fill="#454545" points="797.9004,324.6006 777.7002,324.6006 777.7002,276.1816 719.5459,276.1816 719.5459,255.9814 
					797.9004,255.9814 797.9004,324.6006 				"/>
			</g>
			<g>
				<polygon fill="#454545" points="232.2998,324.6006 212.1001,324.6006 212.1001,255.9814 280.709,255.9814 280.709,276.1816 
					232.2998,276.1816 232.2998,324.6006 				"/>
			</g>
		</g>
		<g>
			<polygon fill="#FC6E51" points="767.5996,500.4727 242.4004,500.4727 242.4004,480.2725 767.5996,480.2725 767.5996,500.4727 			
				"/>
		</g>
	</g>
</g>
</svg>
