<?xml version="1.0" encoding="utf-8"?>
<!-- Generator: Adobe Illustrator 17.1.0, SVG Export Plug-In . SVG Version: 6.00 Build 0)  -->
<!DOCTYPE svg PUBLIC "-//W3C//DTD SVG 1.1//EN" "http://www.w3.org/Graphics/SVG/1.1/DTD/svg11.dtd">
<svg version="1.1" id="basket" xmlns="http://www.w3.org/2000/svg" xmlns:xlink="http://www.w3.org/1999/xlink" x="0px" y="0px"
	 viewBox="0 0 1010 1010" enable-background="new 0 0 1010 1010" xml:space="preserve">
<g id="basket-basket">
	<path id="basket-label" fill="#3BAFDA" d="M1010,505c0,278.9043-226.1055,505-505,505C226.0859,1010,0,783.9043,0,505
		S226.0859,0,505,0C783.8945,0,1010,226.0957,1010,505z"/>
	<g id="basket-basket_1_">
		<g>
			<g>
				<path fill="#FC6E51" d="M344.1104,427.0801l141.4199-141.4102c8.6797-8.6699,8.6797-22.7344,0-31.4043v-0.02
					c-8.6797-8.6694-22.7647-8.6694-31.4053,0L281.2813,427.0801H344.1104z"/>
				<path fill="#454545" d="M344.1104,437.1797h-62.8291c-4.0835,0-7.7725-2.4551-9.3311-6.2334
					c-1.5679-3.7774-0.7002-8.1172,2.1899-11.0073l172.8443-172.8345c12.1318-12.1709,33.456-12.2305,45.6865,0
					c6.1055,6.1152,9.4687,14.2329,9.4687,22.8633c0,8.6303-3.3632,16.748-9.4687,22.8432L351.251,434.2207
					C349.3574,436.1152,346.793,437.1797,344.1104,437.1797L344.1104,437.1797z M305.6631,416.98h34.2651l138.4605-138.4507
					c2.2885-2.2886,3.5508-5.3262,3.5508-8.5615c0-3.2354-1.2623-6.273-3.5508-8.5616c-4.5957-4.5961-12.5752-4.5859-17.1123-0.0292
					L305.6631,416.98L305.6631,416.98z"/>
			</g>
			<g>
				<path fill="#FC6E51" d="M665.8701,427.0801L524.4502,285.6699c-8.6597-8.6699-8.6597-22.7344,0-31.4043l0.02-0.02
					c8.6597-8.6694,22.7251-8.6694,31.4048,0l172.8438,172.8345H665.8701z"/>
				<path fill="#454545" d="M728.7188,437.1797h-62.8487c-2.6826,0-5.2471-1.0645-7.1406-2.959L517.3096,292.811
					c-12.586-12.5952-12.586-33.0913,0-45.6865c12.2304-12.2305,33.4956-12.2305,45.706-0.02L735.8604,419.939
					c2.8896,2.8901,3.7578,7.2299,2.1894,11.0073C736.4912,434.7246,732.8027,437.1797,728.7188,437.1797L728.7188,437.1797z
					 M670.0527,416.98h34.2842l-155.603-155.5933c-4.5767-4.5566-12.5464-4.5766-17.1226,0
					c-4.7343,4.7344-4.7343,12.4278-0.0195,17.1426L670.0527,416.98L670.0527,416.98z"/>
			</g>
		</g>
		<g>
			<rect x="222.2002" y="427.0801" fill="#FFFFFF" width="565.5996" height="41.9092"/>
			<path fill="#454545" d="M787.7998,479.0889H222.2002c-5.583,0-10.1001-4.5166-10.1001-10.0996v-41.9092
				c0-5.583,4.5171-10.1001,10.1001-10.1001h565.5996c5.583,0,10.1006,4.5171,10.1006,10.1001v41.9092
				C797.9004,474.5723,793.3828,479.0889,787.7998,479.0889L787.7998,479.0889z M232.2998,458.8887h545.4004v-21.709H232.2998
				V458.8887L232.2998,458.8887z"/>
		</g>
		<g>
			<path fill="#FFB933" d="M321.3652,762.2637h367.2696c20.831,0,38.5058-15.3477,41.4453-35.9706l36.7705-257.3037H243.1494
				l36.751,257.3037C282.8594,746.916,300.5146,762.2637,321.3652,762.2637z"/>
			<path fill="#454545" d="M688.6348,772.3633H321.3652c-25.6836,0-47.8071-19.1934-51.4663-44.6406l-36.7505-257.3038
				c-0.414-2.8994,0.4537-5.8388,2.3672-8.0478c1.9234-2.21,4.7046-3.4824,7.6338-3.4824h523.7012
				c2.9287,0,5.7109,1.2724,7.6338,3.4824c1.914,2.209,2.7812,5.1484,2.3672,8.0478L740.082,727.7227
				C736.4521,753.1699,714.3379,772.3633,688.6348,772.3633L688.6348,772.3633z M254.7983,479.0889l35.1031,245.7734
				c2.2295,15.5645,15.7617,27.3018,31.4638,27.3018h367.2696c15.7119,0,29.2246-11.7372,31.4443-27.292l35.123-245.7832H254.7983
				L254.7983,479.0889z"/>
		</g>
		<g>
			<g>
				<path fill="#454545" d="M693.5273,562.8779h-41.8994c-5.583,0-10.1006-4.5175-10.1006-10.1006
					c0-5.582,4.5176-10.0995,10.1006-10.0995h41.8994c5.5821,0,10.0997,4.5176,10.0997,10.0995
					C703.627,558.3604,699.1094,562.8779,693.5273,562.8779L693.5273,562.8779z"/>
			</g>
			<g>
				<path fill="#454545" d="M609.7285,562.8779h-41.8799c-5.582,0-10.0995-4.5175-10.0995-10.1006
					c0-5.582,4.5176-10.0995,10.0995-10.0995h41.8799c5.582,0,10.0995,4.5176,10.0995,10.0995
					C619.8281,558.3604,615.3105,562.8779,609.7285,562.8779L609.7285,562.8779z"/>
			</g>
			<g>
				<path fill="#454545" d="M525.9497,562.8779h-41.8989c-5.583,0-10.1006-4.5175-10.1006-10.1006
					c0-5.582,4.5176-10.0995,10.1006-10.0995h41.8989c5.5825,0,10.1001,4.5176,10.1001,10.0995
					C536.0498,558.3604,531.5322,562.8779,525.9497,562.8779L525.9497,562.8779z"/>
			</g>
			<g>
				<path fill="#454545" d="M442.1514,562.8779h-41.8799c-5.582,0-10.0996-4.5175-10.0996-10.1006
					c0-5.582,4.5176-10.0995,10.0996-10.0995h41.8799c5.5825,0,10.0996,4.5176,10.0996,10.0995
					C452.251,558.3604,447.7339,562.8779,442.1514,562.8779L442.1514,562.8779z"/>
			</g>
			<g>
				<path fill="#454545" d="M358.3525,562.8779h-41.8989c-5.5825,0-10.1001-4.5175-10.1001-10.1006
					c0-5.582,4.5176-10.0995,10.1001-10.0995h41.8989c5.583,0,10.1006,4.5176,10.1006,10.0995
					C368.4531,558.3604,363.9355,562.8779,358.3525,562.8779L358.3525,562.8779z"/>
			</g>
			<g>
				<path fill="#454545" d="M693.5273,625.7168h-41.8994c-5.583,0-10.1006-4.5176-10.1006-10.0996
					c0-5.583,4.5176-10.1006,10.1006-10.1006h41.8994c5.5821,0,10.0997,4.5176,10.0997,10.1006
					C703.627,621.1992,699.1094,625.7168,693.5273,625.7168L693.5273,625.7168z"/>
			</g>
			<g>
				<path fill="#454545" d="M609.7285,625.7168h-41.8799c-5.582,0-10.0995-4.5176-10.0995-10.0996
					c0-5.583,4.5176-10.1006,10.0995-10.1006h41.8799c5.582,0,10.0995,4.5176,10.0995,10.1006
					C619.8281,621.1992,615.3105,625.7168,609.7285,625.7168L609.7285,625.7168z"/>
			</g>
			<g>
				<path fill="#454545" d="M525.9497,625.7168h-41.8989c-5.583,0-10.1006-4.5176-10.1006-10.0996
					c0-5.583,4.5176-10.1006,10.1006-10.1006h41.8989c5.5825,0,10.1001,4.5176,10.1001,10.1006
					C536.0498,621.1992,531.5322,625.7168,525.9497,625.7168L525.9497,625.7168z"/>
			</g>
			<g>
				<path fill="#454545" d="M442.1514,625.7168h-41.8799c-5.582,0-10.0996-4.5176-10.0996-10.0996
					c0-5.583,4.5176-10.1006,10.0996-10.1006h41.8799c5.5825,0,10.0996,4.5176,10.0996,10.1006
					C452.251,621.1992,447.7339,625.7168,442.1514,625.7168L442.1514,625.7168z"/>
			</g>
			<g>
				<path fill="#454545" d="M358.3525,625.7168h-41.8989c-5.5825,0-10.1001-4.5176-10.1001-10.0996
					c0-5.583,4.5176-10.1006,10.1001-10.1006h41.8989c5.583,0,10.1006,4.5176,10.1006,10.1006
					C368.4531,621.1992,363.9355,625.7168,358.3525,625.7168L358.3525,625.7168z"/>
			</g>
			<g>
				<path fill="#454545" d="M693.5273,688.5557h-41.8994c-5.583,0-10.1006-4.5176-10.1006-10.1006
					c0-5.5821,4.5176-10.0995,10.1006-10.0995h41.8994c5.5821,0,10.0997,4.5175,10.0997,10.0995
					C703.627,684.0381,699.1094,688.5557,693.5273,688.5557L693.5273,688.5557z"/>
			</g>
			<g>
				<path fill="#454545" d="M609.7285,688.5557h-41.8799c-5.582,0-10.0995-4.5176-10.0995-10.1006
					c0-5.5821,4.5176-10.0995,10.0995-10.0995h41.8799c5.582,0,10.0995,4.5175,10.0995,10.0995
					C619.8281,684.0381,615.3105,688.5557,609.7285,688.5557L609.7285,688.5557z"/>
			</g>
			<g>
				<path fill="#454545" d="M525.9497,688.5557h-41.8989c-5.583,0-10.1006-4.5176-10.1006-10.1006
					c0-5.5821,4.5176-10.0995,10.1006-10.0995h41.8989c5.5825,0,10.1001,4.5175,10.1001,10.0995
					C536.0498,684.0381,531.5322,688.5557,525.9497,688.5557L525.9497,688.5557z"/>
			</g>
			<g>
				<path fill="#454545" d="M442.1514,688.5557h-41.8799c-5.582,0-10.0996-4.5176-10.0996-10.1006
					c0-5.5821,4.5176-10.0995,10.0996-10.0995h41.8799c5.5825,0,10.0996,4.5175,10.0996,10.0995
					C452.251,684.0381,447.7339,688.5557,442.1514,688.5557L442.1514,688.5557z"/>
			</g>
			<g>
				<path fill="#454545" d="M358.3525,688.5557h-41.8989c-5.5825,0-10.1001-4.5176-10.1001-10.1006
					c0-5.5821,4.5176-10.0995,10.1001-10.0995h41.8989c5.583,0,10.1006,4.5175,10.1006,10.0995
					C368.4531,684.0381,363.9355,688.5557,358.3525,688.5557L358.3525,688.5557z"/>
			</g>
		</g>
	</g>
</g>
</svg>
