<?xml version="1.0" encoding="utf-8"?>
<!-- Generator: Adobe Illustrator 17.1.0, SVG Export Plug-In . SVG Version: 6.00 Build 0)  -->
<!DOCTYPE svg PUBLIC "-//W3C//DTD SVG 1.1//EN" "http://www.w3.org/Graphics/SVG/1.1/DTD/svg11.dtd">
<svg version="1.1" id="bitcoin-coin" xmlns="http://www.w3.org/2000/svg" xmlns:xlink="http://www.w3.org/1999/xlink" x="0px"
	 y="0px" viewBox="0 0 1010 1010" enable-background="new 0 0 1010 1010" xml:space="preserve">
<g id="bitcoin-coin-bitcoin-coin">
	<path id="bitcoin-coin-label" fill="#FC6E51" d="M505,1010c278.875,0,505-226.0859,505-505.0098C1010,226.1255,783.875,0,505,0
		C226.106,0,0,226.1255,0,504.9902C0,783.9141,226.106,1010,505,1010z"/>
	<g id="bitcoin-coin-bitcoin-coin_1_">
		<g>
			<g>
				<path fill="#FFFFFF" d="M787.7998,505c0,156.1748-126.624,282.7998-282.7998,282.7998
					c-156.1948,0-282.7998-126.625-282.7998-282.7998c0-156.1851,126.605-282.7998,282.7998-282.7998
					C661.1758,222.2002,787.7998,348.8149,787.7998,505z"/>
				<path fill="#454545" d="M505,797.9004c-161.5059,0-292.8999-131.3994-292.8999-292.9004
					c0-161.5015,131.394-292.9004,292.8999-292.9004S797.9004,343.4985,797.9004,505
					C797.9004,666.501,666.5059,797.9004,505,797.9004L505,797.9004z M505,232.2998
					c-150.3657,0-272.7002,122.3345-272.7002,272.7002c0,150.3652,122.3345,272.7002,272.7002,272.7002
					c150.3652,0,272.7002-122.335,272.7002-272.7002C777.7002,354.6343,655.3652,232.2998,505,232.2998L505,232.2998z"/>
			</g>
			<path fill="#FFB933" d="M722.1504,505c0,119.9375-97.2324,217.1504-217.1504,217.1504S287.8501,624.9375,287.8501,505
				S385.082,287.8496,505,287.8496S722.1504,385.0625,722.1504,505z"/>
		</g>
		<g>
			<g>
				<path fill="#454545" d="M542.1353,652.0312H433.5308c-5.5777,0-10.1001-4.5166-10.1001-10.0996V387.627
					c0-5.5831,4.5224-10.1001,10.1001-10.1001h108.6045c36.7504,0,61.4389,35.5668,61.4389,68.7866
					c0,21.5117-11.289,41.8701-27.7803,54.7802c29.8506,11.7178,49.7842,38.9805,49.7842,72.3672
					C625.5781,618.25,589.7061,652.0312,542.1353,652.0312L542.1353,652.0312z M443.6309,631.832h98.5044
					c36.6469,0,63.2436-24.5497,63.2436-58.3711c0-33.8213-26.5967-58.3613-63.2436-58.3613h-89.0552v-20.1992h84.1435
					c23.7207,0,46.1505-23.6133,46.1505-48.5869c0-23.4649-16.5703-48.5869-41.2387-48.5869h-98.5044V631.832L443.6309,631.832z"/>
			</g>
			<g>
				<path fill="#454545" d="M483.3008,419.9092c-5.5777,0-10.0996-4.5171-10.0996-10.0996v-48.9121
					c0-5.583,4.5219-10.1001,10.0996-10.1001c5.5781,0,10.1001,4.5171,10.1001,10.1001v48.9121
					C493.4009,415.3921,488.8789,419.9092,483.3008,419.9092L483.3008,419.9092z"/>
			</g>
			<g>
				<path fill="#454545" d="M522.4287,419.9092c-5.5781,0-10.1001-4.5171-10.1001-10.0996v-48.9121
					c0-5.583,4.522-10.1001,10.1001-10.1001c5.5772,0,10.0996,4.5171,10.0996,10.1001v48.9121
					C532.5283,415.3921,528.0059,419.9092,522.4287,419.9092L522.4287,419.9092z"/>
			</g>
			<g>
				<path fill="#454545" d="M483.3008,675.5361c-5.5777,0-10.0996-4.5175-10.0996-10.1006v-48.9218
					c0-5.5822,4.5219-10.0996,10.0996-10.0996c5.5781,0,10.1001,4.5175,10.1001,10.0996v48.9218
					C493.4009,671.0186,488.8789,675.5361,483.3008,675.5361L483.3008,675.5361z"/>
			</g>
			<g>
				<path fill="#454545" d="M522.4287,675.5361c-5.5781,0-10.1001-4.5175-10.1001-10.1006v-48.9218
					c0-5.5822,4.522-10.0996,10.1001-10.0996c5.5772,0,10.0996,4.5175,10.0996,10.0996v48.9218
					C532.5283,671.0186,528.0059,675.5361,522.4287,675.5361L522.4287,675.5361z"/>
			</g>
		</g>
	</g>
</g>
</svg>
