<?xml version="1.0" encoding="utf-8"?>
<!-- Generator: Adobe Illustrator 17.1.0, SVG Export Plug-In . SVG Version: 6.00 Build 0)  -->
<!DOCTYPE svg PUBLIC "-//W3C//DTD SVG 1.1//EN" "http://www.w3.org/Graphics/SVG/1.1/DTD/svg11.dtd">
<svg version="1.1" id="calculator" xmlns="http://www.w3.org/2000/svg" xmlns:xlink="http://www.w3.org/1999/xlink" x="0px" y="0px"
	 viewBox="0 0 1010 1010" enable-background="new 0 0 1010 1010" xml:space="preserve">
<g id="calculator-calculator">
	<path id="calculator-label" fill="#ACAF48" d="M1010,505c0,278.9141-226.0957,505-505,505C226.0962,1010,0,783.9141,0,505
		C0,226.1055,226.0962,0,505,0C783.9043,0,1010,226.1055,1010,505z"/>
	<g id="calculator-calculator_1_">
		<g>
			<rect x="287.8501" y="222.2002" fill="#FFFFFF" width="434.3003" height="565.5996"/>
			<path fill="#454545" d="M732.25,797.9004h-454.5V212.0996h454.5V797.9004L732.25,797.9004z M297.9502,777.7002h414.0996V232.2998
				H297.9502V777.7002L297.9502,777.7002z"/>
		</g>
		<g>
			<rect x="358.5498" y="272.7197" fill="#3BAFDA" width="292.9004" height="100.9702"/>
			<path fill="#454545" d="M661.5498,383.79H348.4502V262.6196h313.0996V383.79L661.5498,383.79z M368.6504,363.5898h272.6992
				v-80.7705H368.6504V363.5898L368.6504,363.5898z"/>
		</g>
		<g>
			<g>
				<rect x="358.4912" y="438.8369" fill="#FFB933" width="71.7061" height="71.7256"/>
				<path fill="#454545" d="M440.2969,520.6631h-91.9063v-91.9258h91.9063V520.6631L440.2969,520.6631z M368.5908,500.4629h51.5059
					v-51.5254h-51.5059V500.4629L368.5908,500.4629z"/>
			</g>
			<g>
				<rect x="470.9326" y="438.8369" fill="#BDC3C7" width="71.7354" height="71.7256"/>
				<path fill="#454545" d="M552.7681,520.6631H460.832v-91.9258h91.9361V520.6631L552.7681,520.6631z M481.0322,500.4629h51.5357
					v-51.5254h-51.5357V500.4629L481.0322,500.4629z"/>
			</g>
			<g>
				<rect x="579.7734" y="438.8369" fill="#ACAF48" width="71.7364" height="71.7256"/>
				<path fill="#454545" d="M661.6094,520.6631h-91.9356v-91.9258h91.9356V520.6631L661.6094,520.6631z M589.873,500.4629h51.5362
					v-51.5254H589.873V500.4629L589.873,500.4629z"/>
			</g>
		</g>
		<g>
			<g>
				<rect x="358.4912" y="554.4746" fill="#BDC3C7" width="71.7061" height="71.7451"/>
				<path fill="#454545" d="M440.2969,636.3193h-91.9063V544.374h91.9063V636.3193L440.2969,636.3193z M368.5908,616.1191h51.5059
					v-51.5449h-51.5059V616.1191L368.5908,616.1191z"/>
			</g>
			<g>
				<rect x="470.9326" y="554.4746" fill="#BDC3C7" width="71.7354" height="71.7451"/>
				<path fill="#454545" d="M552.7681,636.3193H460.832V544.374h91.9361V636.3193L552.7681,636.3193z M481.0322,616.1191h51.5357
					v-51.5449h-51.5357V616.1191L481.0322,616.1191z"/>
			</g>
		</g>
		<g>
			<rect x="358.4912" y="671.1465" fill="#BDC3C7" width="71.7061" height="71.7363"/>
			<path fill="#454545" d="M440.2969,752.9824h-91.9063v-91.9355h91.9063V752.9824L440.2969,752.9824z M368.5908,732.7822h51.5059
				v-51.5352h-51.5059V732.7822L368.5908,732.7822z"/>
		</g>
		<g>
			<rect x="470.9326" y="671.1465" fill="#BDC3C7" width="71.7354" height="71.7363"/>
			<path fill="#454545" d="M552.7681,752.9824H460.832v-91.9355h91.9361V752.9824L552.7681,752.9824z M481.0322,732.7822h51.5357
				v-51.5352h-51.5357V732.7822L481.0322,732.7822z"/>
		</g>
		<g>
			<rect x="579.7734" y="554.4746" fill="#FC6E51" width="71.7364" height="188.4082"/>
			<path fill="#454545" d="M661.6094,752.9824h-91.9356V544.374h91.9356V752.9824L661.6094,752.9824z M589.873,732.7822h51.5362
				v-168.208H589.873V732.7822L589.873,732.7822z"/>
		</g>
	</g>
</g>
</svg>
