<?xml version="1.0" encoding="utf-8"?>
<!-- Generator: Adobe Illustrator 17.1.0, SVG Export Plug-In . SVG Version: 6.00 Build 0)  -->
<!DOCTYPE svg PUBLIC "-//W3C//DTD SVG 1.1//EN" "http://www.w3.org/Graphics/SVG/1.1/DTD/svg11.dtd">
<svg version="1.1" id="cash-register" xmlns="http://www.w3.org/2000/svg" xmlns:xlink="http://www.w3.org/1999/xlink" x="0px"
	 y="0px" viewBox="0 0 1010 1010" enable-background="new 0 0 1010 1010" xml:space="preserve">
<g id="cash-register-cash-register">
	<path id="cash-register-label" fill="#FFB933" d="M1010,505c0,278.9043-226.1055,505-505,505C226.0859,1010,0,783.9043,0,505
		S226.0859,0,505,0C783.8945,0,1010,226.0957,1010,505z"/>
	<g id="cash-register-cash-register_1_">
		<polyline fill="#FFFFFF" points="247.1738,695.9727 247.1738,390.4082 762.8262,390.4082 762.8262,695.9727 		"/>
		<g>
			<rect x="495.4624" y="242.3999" fill="#ACAF48" width="248.2778" height="85.939"/>
			<path fill="#454545" d="M743.7402,338.4385H495.4624c-5.5776,0-10.1001-4.5274-10.1001-10.0996v-85.939
				c0-5.5825,4.5225-10.1001,10.1001-10.1001h248.2778c5.5782,0,10.1006,4.5176,10.1006,10.1001v85.939
				C753.8408,333.9111,749.3184,338.4385,743.7402,338.4385L743.7402,338.4385z M505.5625,318.2388h228.0781V252.5H505.5625
				V318.2388L505.5625,318.2388z"/>
		</g>
		<g>
			<rect x="228.0786" y="700.7559" fill="#3BAFDA" width="553.8433" height="66.8437"/>
			<path fill="#454545" d="M781.9219,777.7002H228.0786c-5.5776,0-10.1001-4.5176-10.1001-10.1006v-66.8437
				c0-5.5723,4.5225-10.0997,10.1001-10.0997h553.8433c5.5771,0,10.0996,4.5274,10.0996,10.0997v66.8437
				C792.0215,773.1826,787.499,777.7002,781.9219,777.7002L781.9219,777.7002z M238.1787,757.5h533.6426v-46.6436H238.1787V757.5
				L238.1787,757.5z"/>
		</g>
		<g>
			<rect x="315.3389" y="543.1904" fill="#BDC3C7" width="38.1909" height="38.21"/>
			<path fill="#454545" d="M353.5298,591.501h-38.1909c-5.5772,0-10.0996-4.5273-10.0996-10.1006v-38.21
				c0-5.583,4.5224-10.0996,10.0996-10.0996h38.1909c5.5776,0,10.1001,4.5166,10.1001,10.0996v38.21
				C363.6299,586.9736,359.1074,591.501,353.5298,591.501L353.5298,591.501z M325.439,571.3008h17.9907V553.291H325.439V571.3008
				L325.439,571.3008z"/>
		</g>
		<g>
			<rect x="410.8252" y="543.1904" fill="#BDC3C7" width="38.2109" height="38.21"/>
			<path fill="#454545" d="M449.0361,591.501h-38.2109c-5.5772,0-10.0996-4.5273-10.0996-10.1006v-38.21
				c0-5.583,4.5224-10.0996,10.0996-10.0996h38.2109c5.5772,0,10.0996,4.5166,10.0996,10.0996v38.21
				C459.1357,586.9736,454.6133,591.501,449.0361,591.501L449.0361,591.501z M420.9258,571.3008h18.0097V553.291h-18.0097V571.3008
				L420.9258,571.3008z"/>
		</g>
		<g>
			<rect x="506.3315" y="543.1904" fill="#BDC3C7" width="38.191" height="38.21"/>
			<path fill="#454545" d="M544.5225,591.501h-38.191c-5.5776,0-10.1001-4.5273-10.1001-10.1006v-38.21
				c0-5.583,4.5225-10.0996,10.1001-10.0996h38.191c5.5771,0,10.0995,4.5166,10.0995,10.0996v38.21
				C554.6221,586.9736,550.0996,591.501,544.5225,591.501L544.5225,591.501z M516.4316,571.3008h17.9908V553.291h-17.9908V571.3008
				L516.4316,571.3008z"/>
		</g>
		<g>
			<rect x="315.3389" y="619.5918" fill="#BDC3C7" width="38.1909" height="38.1904"/>
			<path fill="#454545" d="M353.5298,667.8818h-38.1909c-5.5772,0-10.0996-4.5166-10.0996-10.0995v-38.1904
				c0-5.583,4.5224-10.1006,10.0996-10.1006h38.1909c5.5776,0,10.1001,4.5176,10.1001,10.1006v38.1904
				C363.6299,663.3652,359.1074,667.8818,353.5298,667.8818L353.5298,667.8818z M325.439,647.6816h17.9907v-17.9902H325.439
				V647.6816L325.439,647.6816z"/>
		</g>
		<g>
			<rect x="410.8252" y="619.5918" fill="#BDC3C7" width="38.2109" height="38.1904"/>
			<path fill="#454545" d="M449.0361,667.8818h-38.2109c-5.5772,0-10.0996-4.5166-10.0996-10.0995v-38.1904
				c0-5.583,4.5224-10.1006,10.0996-10.1006h38.2109c5.5772,0,10.0996,4.5176,10.0996,10.1006v38.1904
				C459.1357,663.3652,454.6133,667.8818,449.0361,667.8818L449.0361,667.8818z M420.9258,647.6816h18.0097v-17.9902h-18.0097
				V647.6816L420.9258,647.6816z"/>
		</g>
		<g>
			<rect x="506.3315" y="619.5918" fill="#BDC3C7" width="38.191" height="38.1904"/>
			<path fill="#454545" d="M544.5225,667.8818h-38.191c-5.5776,0-10.1001-4.5166-10.1001-10.0995v-38.1904
				c0-5.583,4.5225-10.1006,10.1001-10.1006h38.191c5.5771,0,10.0995,4.5176,10.0995,10.1006v38.1904
				C554.6221,663.3652,550.0996,667.8818,544.5225,667.8818L544.5225,667.8818z M516.4316,647.6816h17.9908v-17.9902h-17.9908
				V647.6816L516.4316,647.6816z"/>
		</g>
		<g>
			<rect x="601.8379" y="619.5918" fill="#ACAF48" width="95.4863" height="38.1904"/>
			<path fill="#454545" d="M697.3242,667.8818h-95.4863c-5.5781,0-10.0996-4.5166-10.0996-10.0995v-38.1904
				c0-5.583,4.5215-10.1006,10.0996-10.1006h95.4863c5.5781,0,10.0995,4.5176,10.0995,10.1006v38.1904
				C707.4238,663.3652,702.9023,667.8818,697.3242,667.8818L697.3242,667.8818z M611.9375,647.6816h75.2871v-17.9902h-75.2871
				V647.6816L611.9375,647.6816z"/>
		</g>
		<g>
			<rect x="601.8379" y="543.1904" fill="#FC6E51" width="95.4863" height="38.21"/>
			<path fill="#454545" d="M697.3242,591.501h-95.4863c-5.5781,0-10.0996-4.5273-10.0996-10.1006v-38.21
				c0-5.583,4.5215-10.0996,10.0996-10.0996h95.4863c5.5781,0,10.0995,4.5166,10.0995,10.0996v38.21
				C707.4238,586.9736,702.9023,591.501,697.3242,591.501L697.3242,591.501z M611.9375,571.3008h75.2871V553.291h-75.2871V571.3008
				L611.9375,571.3008z"/>
		</g>
		<g>
			<rect x="506.3315" y="428.6187" fill="#BDC3C7" width="190.9927" height="57.2758"/>
			<path fill="#454545" d="M697.3242,495.9941H506.3315c-5.5776,0-10.1001-4.5263-10.1001-10.0996v-57.2758
				c0-5.5826,4.5225-10.1001,10.1001-10.1001h190.9927c5.5781,0,10.0995,4.5175,10.0995,10.1001v57.2758
				C707.4238,491.4678,702.9023,495.9941,697.3242,495.9941L697.3242,495.9941z M516.4316,475.7949h170.793v-37.0762h-170.793
				V475.7949L516.4316,475.7949z"/>
		</g>
		<g>
			<polyline fill="#BDC3C7" points="464.916,386.3252 464.916,486.7822 296.7861,486.7822 296.7861,386.3252 			"/>
			<path fill="#454545" d="M464.916,496.8828H296.7861c-5.5776,0-10.0996-4.5273-10.0996-10.1006v-100.457h20.1997v90.3574h147.9292
				v-90.3574h20.2002v100.457C475.0156,492.3555,470.4932,496.8828,464.916,496.8828L464.916,496.8828z"/>
		</g>
		<g>
			<path fill="#454545" d="M762.8262,706.0723c-5.5782,0-10.0996-4.5166-10.0996-10.0996V400.5083H257.2739v295.4644
				c0,5.583-4.522,10.0996-10.1001,10.0996c-5.5776,0-10.0996-4.5166-10.0996-10.0996V390.4082
				c0-5.5728,4.522-10.0996,10.0996-10.0996h515.6523c5.5781,0,10.0996,4.5268,10.0996,10.0996v305.5645
				C772.9258,701.5557,768.4043,706.0723,762.8262,706.0723L762.8262,706.0723z"/>
		</g>
		<g>
			<path fill="#454545" d="M615.4199,400.5083c-5.5781,0-10.1006-4.5171-10.1006-10.1001v-57.2861
				c0-5.5821,4.5225-10.0996,10.1006-10.0996c5.5772,0,10.0996,4.5175,10.0996,10.0996v57.2861
				C625.5195,395.9912,620.9971,400.5083,615.4199,400.5083L615.4199,400.5083z"/>
		</g>
		<g>
			<polygon fill="#454545" points="533.6729,744.2832 476.3472,744.2832 476.3472,724.083 533.6729,724.083 533.6729,744.2832 			
				"/>
		</g>
		<g>
			<polygon fill="#FFFFFF" points="321.1387,451.8369 440.583,451.8369 440.583,281.2412 426.9224,294.8823 416.7041,281.2412 
				406.4561,294.8823 392.8052,281.2412 382.5869,294.8823 368.9263,281.2412 358.6685,294.8823 345.0176,281.2412 
				334.7993,294.8823 321.1387,281.2412 			"/>
			<path fill="#454545" d="M440.583,461.9365H321.1387c-5.5777,0-10.1001-4.5166-10.1001-10.0996V281.2412
				c0-4.083,2.4609-7.772,6.2339-9.3301c3.7724-1.5586,8.122-0.6904,11.0019,2.1797l5.4199,5.4151l3.2403-4.3204
				c1.7558-2.3476,4.4384-3.8076,7.3633-4.0244c2.9292-0.2168,5.7944,0.8682,7.8608,2.9395l5.4248,5.415l3.27-4.3496
				c1.7554-2.3379,4.4434-3.7978,7.3574-4.0049c2.92-0.2168,5.7852,0.8682,7.8516,2.9297l5.4199,5.4151l3.2403-4.3204
				c1.7553-2.3476,4.4384-3.8076,7.3623-4.0244c2.9492-0.2168,5.7949,0.8682,7.8613,2.9395l5.4199,5.415l3.2598-4.3496
				c1.9082-2.5351,4.9023-4.0244,8.0781-4.0244h0.0049c3.1806,0,6.1743,1.499,8.0781,4.0439l3.2402,4.3204l5.42-5.4151
				c2.8798-2.8901,7.249-3.748,11.0019-2.1797c3.773,1.5581,6.2339,5.2471,6.2339,9.3301v170.5957
				C450.6831,457.4199,446.1606,461.9365,440.583,461.9365L440.583,461.9365z M331.2388,441.7363h99.2441v-137.395
				c-1.3511,0.5029-2.8452,0.7105-4.2808,0.6118c-2.9243-0.2075-5.6074-1.6767-7.3627-4.0146l-2.1451-2.8701l-2.1601,2.8798
				c-1.7608,2.3379-4.4434,3.8077-7.3633,4.0049c-2.998,0.1773-5.7847-0.8681-7.856-2.9297l-5.4096-5.4052l-3.2354,4.3203
				c-1.7558,2.3379-4.4385,3.8071-7.3633,4.0146c-2.8403,0.1773-5.7895-0.8486-7.8554-2.9199l-5.4351-5.4346l-3.2749,4.3496
				c-1.7554,2.3477-4.4433,3.8077-7.3623,4.0049c-2.9492,0.1773-5.7851-0.8681-7.8516-2.9297l-5.4101-5.4052l-3.2349,4.3203
				c-1.7553,2.3379-4.4385,3.8071-7.3628,4.0146c-1.4204,0.1182-2.9297-0.1089-4.2807-0.6118V441.7363L331.2388,441.7363z"/>
		</g>
	</g>
</g>
</svg>
