<?xml version="1.0" encoding="utf-8"?>
<!-- Generator: Adobe Illustrator 17.1.0, SVG Export Plug-In . SVG Version: 6.00 Build 0)  -->
<!DOCTYPE svg PUBLIC "-//W3C//DTD SVG 1.1//EN" "http://www.w3.org/Graphics/SVG/1.1/DTD/svg11.dtd">
<svg version="1.1" id="discount-coupon" xmlns="http://www.w3.org/2000/svg" xmlns:xlink="http://www.w3.org/1999/xlink" x="0px"
	 y="0px" viewBox="0 0 1010 1010" enable-background="new 0 0 1010 1010" xml:space="preserve">
<g id="discount-coupon-discount-coupon">
	<circle id="discount-coupon-label" fill="#ACAF48" cx="505" cy="505" r="505"/>
	<g id="discount-coupon-discount-coupon_1_">
		<g>
			<path fill="#FFFFFF" d="M221.0854,351.3105c26.9371,0,48.7447-21.5219,48.7447-48.1132h468.1113
				c0,26.5913,21.8076,48.1132,48.7441,48.1132v307.8331c-26.9365,0-48.7441,21.5214-48.7441,48.083H269.8301
				c0-26.5616-21.8076-48.083-48.7447-48.083V351.3105z"/>
			<path fill="#454545" d="M748.041,717.3262H259.73v-10.0995c0-20.9395-17.3345-37.9834-38.6446-37.9834h-10.1V341.21h10.1
				c21.3101,0,38.6446-17.0533,38.6446-38.0127v-10.1001h488.311v10.1001c0,20.9594,17.335,38.0127,38.6445,38.0127h10.0997
				v328.0332h-10.0997c-21.3095,0-38.6445,17.0439-38.6445,37.9834V717.3262L748.041,717.3262z M279.042,697.127h449.6865
				c4.2764-24.0469,23.5244-43.0538,47.8574-47.2354V360.542c-24.333-4.1719-43.5859-23.1885-47.8574-47.2451H279.042
				c-4.2705,24.0566-23.5234,43.0732-47.8565,47.2451v289.3496C255.5186,654.0732,274.7666,673.0801,279.042,697.127
				L279.042,697.127z"/>
		</g>
		<g>
			<path fill="#FC6E51" d="M299.686,668.7598c-8.5122-16.836-22.4882-30.6447-39.6206-39.0782V380.7617
				c17.1324-8.4228,31.1084-22.2119,39.6206-39.0976h408.3794c8.5323,16.8857,22.5274,30.6748,39.6504,39.0976v248.9199
				c-17.123,8.4336-31.118,22.2422-39.6504,39.0782H299.686z"/>
			<path fill="#454545" d="M714.2695,678.8594H293.4722l-2.8013-5.543c-7.5059-14.8535-19.9629-27.1338-35.0688-34.5703
				l-5.6367-2.7813V374.4692l5.647-2.7714c15.1055-7.4273,27.5576-19.6968,35.0537-34.5806l2.8013-5.5532h420.812l2.8008,5.5434
				c7.5156,14.8736,19.9785,27.1631,35.0937,34.5904l5.6416,2.7714v261.4956l-5.6367,2.7813
				c-15.1104,7.4365-27.5771,19.7266-35.1035,34.5801L714.2695,678.8594L714.2695,678.8594z M305.6631,658.6602h396.4297
				c8.5566-14.42,20.8906-26.5821,35.5224-35.0245V386.8184c-14.6416-8.4434-26.9756-20.6143-35.5273-35.0547H305.668
				c-8.5367,14.4502-20.8604,26.6211-35.503,35.0547v236.8173C284.7974,632.0781,297.1216,644.2305,305.6631,658.6602
				L305.6631,658.6602z"/>
		</g>
		<path fill="#FFB933" d="M630.6777,505.2168c0,69.0625-56.7627,125.0566-126.792,125.0566
			c-70.0493,0-126.7929-55.9941-126.7929-125.0566s56.7436-125.0664,126.7929-125.0664
			C573.915,380.1504,630.6777,436.1543,630.6777,505.2168z"/>
		<g>
			<g>
				<polygon fill="#454545" points="445.9683,576.5479 431.7852,562.168 561.8027,433.876 575.9863,448.2559 445.9683,576.5479 				
					"/>
			</g>
			<g>
				<path fill="#FFFFFF" d="M487.6406,465.123c0,13.2754-10.9287,24.0567-24.3916,24.0567c-13.4536,0-24.372-10.7813-24.372-24.0567
					c0-13.2861,10.9184-24.0566,24.372-24.0566C476.7119,441.0664,487.6406,451.8369,487.6406,465.123z"/>
				<path fill="#454545" d="M463.249,499.2793c-19.0068,0-34.4726-15.3281-34.4726-34.1563
					c0-18.8291,15.4658-34.1572,34.4726-34.1572c19.0161,0,34.4917,15.3281,34.4917,34.1572
					C497.7407,483.9512,482.2651,499.2793,463.249,499.2793L463.249,499.2793z M463.249,451.166
					c-7.8711,0-14.2724,6.2637-14.2724,13.957c0,7.6934,6.4013,13.9561,14.2724,13.9561c7.8809,0,14.292-6.2627,14.292-13.9561
					C477.541,457.4297,471.1299,451.166,463.249,451.166L463.249,451.166z"/>
			</g>
			<g>
				<path fill="#FFFFFF" d="M568.8945,545.3008c0,13.2763-10.8891,24.0664-24.3623,24.0664
					c-13.4536,0-24.3818-10.7901-24.3818-24.0664c0-13.2754,10.9282-24.0459,24.3818-24.0459
					C558.0054,521.2549,568.8945,532.0254,568.8945,545.3008z"/>
				<path fill="#454545" d="M544.5322,579.4678c-19.0117,0-34.4824-15.3272-34.4824-34.1671
					c0-18.8281,15.4707-34.1465,34.4824-34.1465c19.0015,0,34.4619,15.3184,34.4619,34.1465
					C578.9941,564.1406,563.5337,579.4678,544.5322,579.4678L544.5322,579.4678z M544.5322,531.3545
					c-7.8759,0-14.2822,6.2529-14.2822,13.9463c0,7.6933,6.4063,13.9668,14.2822,13.9668c7.8662,0,14.2622-6.2735,14.2622-13.9668
					C558.7944,537.6074,552.3984,531.3545,544.5322,531.3545L544.5322,531.3545z"/>
			</g>
		</g>
		<g>
			<g>
				<polygon fill="#454545" points="347.3354,515.3164 327.1357,515.3164 327.1357,495.1172 347.3354,495.1172 347.3354,515.3164 
									"/>
			</g>
			<g>
				<polygon fill="#454545" points="680.6357,515.3164 660.4355,515.3164 660.4355,495.1172 680.6357,495.1172 680.6357,515.3164 
									"/>
			</g>
		</g>
	</g>
</g>
</svg>
