<?xml version="1.0" encoding="utf-8"?>
<!-- Generator: Adobe Illustrator 17.1.0, SVG Export Plug-In . SVG Version: 6.00 Build 0)  -->
<!DOCTYPE svg PUBLIC "-//W3C//DTD SVG 1.1//EN" "http://www.w3.org/Graphics/SVG/1.1/DTD/svg11.dtd">
<svg version="1.1" id="dollar-bills" xmlns="http://www.w3.org/2000/svg" xmlns:xlink="http://www.w3.org/1999/xlink" x="0px"
	 y="0px" viewBox="0 0 1010 1010" enable-background="new 0 0 1010 1010" xml:space="preserve">
<g id="dollar-bills-dollar-bills">
	<circle id="dollar-bills-label" fill="#3BAFDA" cx="505" cy="505" r="505"/>
	<g id="dollar-bills-dollar-bills_1_">
		<rect x="232.2998" y="495.7578" fill="#818336" width="545.4004" height="202"/>
		<g>
			<polygon fill="#454545" points="777.7002,666.5996 232.2998,666.5996 232.2998,646.4004 777.7002,646.4004 777.7002,666.5996 			
				"/>
		</g>
		<g>
			<polygon fill="#454545" points="777.7002,707 232.2998,707 232.2998,686.7998 777.7002,686.7998 777.7002,707 			"/>
		</g>
		<g>
			<polygon fill="#454545" points="777.7002,626.2002 232.2998,626.2002 232.2998,606 777.7002,606 777.7002,626.2002 			"/>
		</g>
		<g>
			<rect x="242.4004" y="313.0996" fill="#ACAF48" width="525.1992" height="262.6006"/>
			<path fill="#454545" d="M777.7002,585.7998H232.2998V303h545.4004V585.7998L777.7002,585.7998z M252.5,565.5996h505V323.2002
				h-505V565.5996L252.5,565.5996z"/>
		</g>
		<g>
			<path fill="#FC6E51" d="M333.2998,535.2998c0-30.2998-20.1997-40.3994-50.5-40.3994V393.8999
				c30.3003,0,50.5-10.1001,50.5-40.3999h353.5c0,30.2998,20.2002,40.3999,40.4004,40.3999v101.0005
				c-20.2002,0-40.4004,10.0996-40.4004,40.3994H333.2998z"/>
			<path fill="#454545" d="M696.9004,545.4004H323.2002v-10.1006c0-15.7412-4.8926-30.2998-40.4004-30.2998h-10.0996V383.7998
				h10.0996c35.5078,0,40.4004-14.5581,40.4004-30.2998v-10.1001h373.7002V353.5c0,25.043,16.4766,30.2998,30.2998,30.2998h10.0996
				V505h-10.0996c-13.8232,0-30.2998,5.2568-30.2998,30.2998V545.4004L696.9004,545.4004z M342.665,525.2002h334.7354
				c3.6543-25.0635,21.0488-36.6719,39.6992-39.6211v-82.3584c-18.6504-2.9492-36.0449-14.5581-39.6992-39.6211H342.665
				c-2.8403,18.5728-14.7402,37.0566-49.7646,39.9961v81.6084C327.9248,488.1436,339.8247,506.627,342.665,525.2002
				L342.665,525.2002z"/>
		</g>
		<g>
			<path fill="#FFFFFF" d="M505,393.8999c27.8936,0,50.5,22.6069,50.5,50.5005c0,27.8926-22.6064,50.5-50.5,50.5
				s-50.5-22.6074-50.5-50.5C454.5,416.5068,477.1064,393.8999,505,393.8999z"/>
			<path fill="#454545" d="M505,505c-33.417,0-60.5996-27.1836-60.5996-60.5996c0-33.417,27.1826-60.6006,60.5996-60.6006
				s60.6001,27.1836,60.6001,60.6006C565.6001,477.8164,538.417,505,505,505L505,505z M505,404
				c-22.2764,0-40.3999,18.1187-40.3999,40.4004c0,22.2812,18.1235,40.3994,40.3999,40.3994
				c22.2764,0,40.4004-18.1182,40.4004-40.3994C545.4004,422.1187,527.2764,404,505,404L505,404z"/>
		</g>
		<g>
			<g>
				<polygon fill="#454545" points="388.8501,454.5 368.6504,454.5 368.6504,434.2998 388.8501,434.2998 388.8501,454.5 				"/>
			</g>
			<g>
				<polygon fill="#454545" points="641.3496,454.5 621.1504,454.5 621.1504,434.2998 641.3496,434.2998 641.3496,454.5 				"/>
			</g>
		</g>
	</g>
</g>
</svg>
