<?xml version="1.0" encoding="utf-8"?>
<!-- Generator: Adobe Illustrator 17.1.0, SVG Export Plug-In . SVG Version: 6.00 Build 0)  -->
<!DOCTYPE svg PUBLIC "-//W3C//DTD SVG 1.1//EN" "http://www.w3.org/Graphics/SVG/1.1/DTD/svg11.dtd">
<svg version="1.1" id="dollar-bill" xmlns="http://www.w3.org/2000/svg" xmlns:xlink="http://www.w3.org/1999/xlink" x="0px"
	 y="0px" viewBox="0 0 1010 1010" enable-background="new 0 0 1010 1010" xml:space="preserve">
<g id="dollar-bill-dollar-bill">
	<path id="dollar-bill-label" fill="#3BAFDA" d="M1010,505c0,278.9043-226.0859,505-505,505C226.106,1010,0,783.9043,0,505
		S226.106,0,505,0C783.9141,0,1010,226.0957,1010,505z"/>
	<g id="dollar-bill-dollar-bill_1_">
		<g>
			<polyline fill="#FFFFFF" points="259.917,325.8828 259.917,269.3267 750.1025,269.3267 750.1025,325.8828 			"/>
			<path fill="#454545" d="M750.1025,335.9824c-5.583,0-10.0996-4.5171-10.0996-10.0996v-46.456H270.0176v46.456
				c0,5.5825-4.5176,10.0996-10.1006,10.0996c-5.582,0-10.0996-4.5171-10.0996-10.0996v-56.5561
				c0-5.5826,4.5176-10.1001,10.0996-10.1001h490.1855c5.583,0,10.1006,4.5175,10.1006,10.1001v56.5561
				C760.2031,331.4653,755.6855,335.9824,750.1025,335.9824L750.1025,335.9824z"/>
		</g>
		<g>
			<rect x="222.21" y="325.8828" fill="#ACAF48" width="565.6005" height="414.7901"/>
			<path fill="#454545" d="M787.8105,750.7734H222.21c-5.5826,0-10.1001-4.5176-10.1001-10.1005V325.8828
				c0-5.583,4.5175-10.1001,10.1001-10.1001h565.6005c5.5821,0,10.0997,4.5171,10.0997,10.1001v414.7901
				C797.9102,746.2559,793.3926,750.7734,787.8105,750.7734L787.8105,750.7734z M232.3101,730.5732H777.71V335.9824H232.3101
				V730.5732L232.3101,730.5732z"/>
		</g>
		<g>
			<path fill="#FC6E51" d="M636.9707,401.2974H373.0293c0,42.4321-33.0024,75.4145-75.4146,75.4145l1.8741,108.417
				c42.4321,0,73.5405,37.6973,73.5405,80.1299h263.9414c0-42.4326,33.0029-75.4151,75.4346-75.4151V476.7119
				C669.9736,476.7119,636.9707,443.7295,636.9707,401.2974z"/>
			<path fill="#454545" d="M636.9707,675.3584H373.0293c-5.5825,0-10.0996-4.5176-10.0996-10.0996
				c0-38.6152-28.4561-70.0293-63.4409-70.0293c-5.5137,0-10.0015-4.419-10.1001-9.9229l-1.8741-108.417
				c-0.0493-2.7119,0.9961-5.3261,2.9-7.2597c1.894-1.9326,4.4877-3.0176,7.2001-3.0176c36.6226,0,65.315-28.6924,65.315-65.3149
				c0-5.5826,4.5171-10.1001,10.0996-10.1001h263.9414c5.583,0,10.0996,4.5175,10.0996,10.1001
				c0,36.6225,28.7031,65.3149,65.335,65.3149c5.583,0,10.0996,4.5166,10.0996,10.0996v113.1318
				c0,5.5831-4.5166,10.0997-10.0996,10.0997c-36.6319,0-65.335,28.6933-65.335,65.3154
				C647.0703,670.8408,642.5537,675.3584,636.9707,675.3584L636.9707,675.3584z M382.6064,655.1582h244.8272
				c4.4873-39.7187,35.1426-70.374,74.8711-74.8516V486.25c-39.7285-4.4785-70.3838-35.1328-74.8711-74.8525H382.5674
				c-4.478,39.6601-35.0542,70.2861-74.6851,74.833l1.5484,89.4297C347.8091,580.582,378.3062,613.6641,382.6064,655.1582
				L382.6064,655.1582z"/>
		</g>
		<g>
			<path fill="#FFB933" d="M505,476.7119c31.2471,0,56.5762,25.3291,56.5762,56.5762c0,31.2373-25.3291,56.5556-56.5762,56.5556
				s-56.5557-25.3183-56.5557-56.5556C448.4443,502.041,473.7529,476.7119,505,476.7119z"/>
			<path fill="#454545" d="M505,599.9434c-36.7505,0-66.6562-29.9053-66.6562-66.6553c0-36.7608,29.9057-66.6758,66.6562-66.6758
				c36.7607,0,66.6758,29.915,66.6758,66.6758C571.6758,570.0381,541.7607,599.9434,505,599.9434L505,599.9434z M505,486.8125
				c-25.6147,0-46.4561,20.8506-46.4561,46.4756c0,25.6142,20.8414,46.456,46.4561,46.456c25.625,0,46.4756-20.8418,46.4756-46.456
				C551.4756,507.6631,530.625,486.8125,505,486.8125L505,486.8125z"/>
		</g>
		<g>
			<g>
				<polygon fill="#454545" points="388.8599,539.3437 368.6602,539.3437 368.6602,519.1436 388.8599,519.1436 388.8599,539.3437 
									"/>
			</g>
			<g>
				<polygon fill="#454545" points="641.3594,539.3437 621.1602,539.3437 621.1602,519.1436 641.3594,519.1436 641.3594,539.3437 
									"/>
			</g>
		</g>
	</g>
</g>
</svg>
