<?xml version="1.0" encoding="utf-8"?>
<!-- Generator: Adobe Illustrator 17.1.0, SVG Export Plug-In . SVG Version: 6.00 Build 0)  -->
<!DOCTYPE svg PUBLIC "-//W3C//DTD SVG 1.1//EN" "http://www.w3.org/Graphics/SVG/1.1/DTD/svg11.dtd">
<svg version="1.1" id="dress" xmlns="http://www.w3.org/2000/svg" xmlns:xlink="http://www.w3.org/1999/xlink" x="0px" y="0px"
	 viewBox="0 0 1010 1010" enable-background="new 0 0 1010 1010" xml:space="preserve">
<g id="dress-dress">
	<path id="dress-label" fill="#3BAFDA" d="M1010,505c0,278.9043-226.1055,505-505,505C226.0859,1010,0,783.9043,0,505
		S226.0859,0,505,0C783.8945,0,1010,226.0957,1010,505z"/>
	<g id="dress-dress_1_">
		<g>
			<path fill="#FFFFFF" d="M398.4175,536.5137V400.3311h-45.1538c0,0-38.8814-27.1441-38.8814-73.8467
				c0-109.0386,105.064-93.4151,105.064-93.4151v73.9253c0,0,85.6919,46.6631,171.206-3.8667v-70.0586
				c0,0,104.9854-15.6235,104.9854,93.4151c0,46.7026-38.9404,73.8467-38.9404,73.8467h-45.0557v136.1826"/>
			<path fill="#454545" d="M611.6416,546.6133c-5.5771,0-10.0996-4.5274-10.0996-10.0995V400.3311
				c0-5.5831,4.5225-10.1006,10.0996-10.1006h41.5986c7.753-6.3911,32.2969-29.3526,32.2969-63.7461
				c0-29.5308-8.2305-51.6343-24.4609-65.6797c-19.5879-16.9649-46.7021-18.7305-60.3233-18.3457v60.6689
				c0,3.5708-1.8885,6.875-4.9619,8.6895c-89.4101,52.8281-177.4697,6.0566-181.1728,4.0439
				c-3.25-1.7651-5.2725-5.1679-5.2725-8.8667V242.459c-13.7393-0.3452-40.7988,1.3808-60.4072,18.3652
				c-16.2256,14.0459-24.4561,36.1397-24.4561,65.6602c0,34.3637,24.4707,57.3154,32.2481,63.7461h41.687
				c5.5776,0,10.1001,4.5175,10.1001,10.1006v136.1826c0,5.5721-4.5225,10.0995-10.1001,10.0995
				c-5.5777,0-10.1001-4.5274-10.1001-10.0995v-126.083h-35.0537c-2.0664,0-4.084-0.6411-5.7803-1.8247
				c-1.7656-1.233-43.2012-30.7437-43.2012-82.1216c0-35.7149,10.6182-62.9868,31.5674-81.0469
				c34.2207-29.5107,83.0391-22.6455,85.0811-22.3496c4.9511,0.7295,8.6152,4.9805,8.6152,9.9814v67.5635
				c18.8193,8.3345,84.918,32.5879,151.0068-3.3833v-64.1802c0-5.0009,3.6641-9.2519,8.6114-9.9814
				c2.0654-0.3159,50.79-7.1709,85.0058,22.3301c20.9453,18.0595,31.5674,45.332,31.5674,81.0664
				c0,51.3779-41.499,80.8984-43.2646,82.1318c-1.6973,1.1836-3.709,1.8145-5.7755,1.8145h-34.9551v126.083
				C621.7422,542.0859,617.2197,546.6133,611.6416,546.6133L611.6416,546.6133z"/>
		</g>
		<g>
			<polyline fill="#FC6E51" points="611.6416,536.5137 771.9004,777.7002 238.0996,777.7002 398.4175,536.5137 			"/>
			<path fill="#454545" d="M771.9004,787.7998H238.0996c-3.7236,0-7.1406-2.0518-8.9014-5.3262
				c-1.7607-3.2841-1.5683-7.2588,0.4883-10.3661l160.3174-241.1865c3.0874-4.6455,9.3506-5.8984,14.0059-2.8213
				c4.6455,3.0977,5.9082,9.3604,2.8213,14.0059L256.9385,767.5996h496.123L603.2285,542.1055
				c-3.0869-4.6553-1.8203-10.918,2.8262-14.0059c4.6504-3.0674,10.9131-1.8144,14,2.8213l160.2598,241.1963
				c2.0556,3.0976,2.248,7.082,0.4872,10.3564C779.041,785.748,775.624,787.7998,771.9004,787.7998L771.9004,787.7998z"/>
		</g>
		<g>
			<line fill="#FFFFFF" x1="407.2354" y1="530.6543" x2="602.7646" y2="530.6543"/>
			<path fill="#454545" d="M602.7646,540.7539H407.2354c-5.5782,0-10.1001-4.5273-10.1001-10.0996s4.5219-10.0996,10.1001-10.0996
				h195.5292c5.5782,0,10.1006,4.5273,10.1006,10.0996S608.3428,540.7539,602.7646,540.7539L602.7646,540.7539z"/>
		</g>
		<g>
			<path fill="#454545" d="M471.4404,403.6445c-1.4599,0-2.9443-0.3154-4.3447-0.9863c-5.0352-2.4062-7.166-8.4326-4.7642-13.4629
				l29.2544-61.2807c1.5928-3.3335,4.8775-5.5333,8.5664-5.7305c3.876-0.2271,7.1954,1.6372,9.1382,4.7837l37.8555,61.2705
				c2.9341,4.7441,1.4644,10.9678-3.2847,13.8974c-4.7441,2.9493-10.9677,1.4698-13.8974-3.2841l-28.125-45.5293l-21.2803,44.5722
				C478.8281,401.5244,475.208,403.6445,471.4404,403.6445L471.4404,403.6445z"/>
		</g>
		<g>
			<g>
				<g>
					<line fill="#454545" x1="409.1289" y1="604.3232" x2="425.2852" y2="604.3232"/>
					<path fill="#454545" d="M425.2852,614.4229h-16.1563c-5.5776,0-10.0996-4.5167-10.0996-10.0997
						c0-5.5732,4.522-10.1005,10.0996-10.1005h16.1563c5.5776,0,10.0996,4.5273,10.0996,10.1005
						C435.3848,609.9062,430.8628,614.4229,425.2852,614.4229L425.2852,614.4229z"/>
				</g>
				<g>
					<line fill="#454545" x1="450.4858" y1="604.3232" x2="466.7305" y2="604.3232"/>
					<path fill="#454545" d="M466.7305,614.4229h-16.2447c-5.5776,0-10.1001-4.5167-10.1001-10.0997
						c0-5.5732,4.5225-10.1005,10.1001-10.1005h16.2447c5.5781,0,10.1001,4.5273,10.1001,10.1005
						C476.8306,609.9062,472.3086,614.4229,466.7305,614.4229L466.7305,614.4229z"/>
				</g>
				<g>
					<line fill="#454545" x1="437.8906" y1="577.3574" x2="437.8906" y2="593.5527"/>
					<path fill="#454545" d="M437.8906,603.6523c-5.5781,0-10.1006-4.5175-10.1006-10.0995v-16.1953
						c0-5.5732,4.5225-10.1006,10.1006-10.1006c5.5772,0,10.0996,4.5274,10.0996,10.1006v16.1953
						C447.9902,599.1348,443.4678,603.6523,437.8906,603.6523L437.8906,603.6523z"/>
				</g>
				<g>
					<line fill="#454545" x1="437.8906" y1="618.7432" x2="437.8906" y2="634.9385"/>
					<path fill="#454545" d="M437.8906,645.0391c-5.5781,0-10.1006-4.5176-10.1006-10.1006v-16.1953
						c0-5.583,4.5225-10.0996,10.1006-10.0996c5.5772,0,10.0996,4.5166,10.0996,10.0996v16.1953
						C447.9902,640.5215,443.4678,645.0391,437.8906,645.0391L437.8906,645.0391z"/>
				</g>
			</g>
			<g>
				<g>
					<line fill="#454545" x1="476.1992" y1="703.9619" x2="492.375" y2="703.9619"/>
					<path fill="#454545" d="M492.375,714.0625h-16.1758c-5.5776,0-10.0996-4.5176-10.0996-10.1006
						c0-5.5732,4.522-10.0996,10.0996-10.0996h16.1758c5.5781,0,10.1001,4.5264,10.1001,10.0996
						C502.4751,709.5449,497.9531,714.0625,492.375,714.0625L492.375,714.0625z"/>
				</g>
				<g>
					<line fill="#454545" x1="517.5757" y1="703.9619" x2="533.8008" y2="703.9619"/>
					<path fill="#454545" d="M533.8008,714.0625h-16.2251c-5.5777,0-10.1001-4.5176-10.1001-10.1006
						c0-5.5732,4.5224-10.0996,10.1001-10.0996h16.2251c5.5781,0,10.1001,4.5264,10.1001,10.0996
						C543.9009,709.5449,539.3789,714.0625,533.8008,714.0625L533.8008,714.0625z"/>
				</g>
				<g>
					<line fill="#454545" x1="504.9805" y1="677.0059" x2="504.9805" y2="693.2012"/>
					<path fill="#454545" d="M504.9805,703.3008c-5.5782,0-10.1001-4.5274-10.1001-10.0996v-16.1953
						c0-5.5733,4.5219-10.0997,10.1001-10.0997c5.5776,0,10.0996,4.5264,10.0996,10.0997v16.1953
						C515.0801,698.7734,510.5581,703.3008,504.9805,703.3008L504.9805,703.3008z"/>
				</g>
				<g>
					<line fill="#454545" x1="504.9805" y1="718.3818" x2="504.9805" y2="734.5879"/>
					<path fill="#454545" d="M504.9805,744.6875c-5.5782,0-10.1001-4.5273-10.1001-10.0996v-16.2061
						c0-5.582,4.5219-10.0995,10.1001-10.0995c5.5776,0,10.0996,4.5176,10.0996,10.0995v16.2061
						C515.0801,740.1602,510.5581,744.6875,504.9805,744.6875L504.9805,744.6875z"/>
				</g>
			</g>
			<g>
				<g>
					<line fill="#454545" x1="607.499" y1="703.9619" x2="623.6748" y2="703.9619"/>
					<path fill="#454545" d="M623.6748,714.0625H607.499c-5.5771,0-10.0996-4.5176-10.0996-10.1006
						c0-5.5732,4.5225-10.0996,10.0996-10.0996h16.1758c5.5781,0,10.1006,4.5264,10.1006,10.0996
						C633.7754,709.5449,629.2529,714.0625,623.6748,714.0625L623.6748,714.0625z"/>
				</g>
				<g>
					<line fill="#454545" x1="648.876" y1="703.9619" x2="665.1006" y2="703.9619"/>
					<path fill="#454545" d="M665.1006,714.0625H648.876c-5.5781,0-10.1006-4.5176-10.1006-10.1006
						c0-5.5732,4.5225-10.0996,10.1006-10.0996h16.2246c5.5781,0,10.1006,4.5264,10.1006,10.0996
						C675.2012,709.5449,670.6787,714.0625,665.1006,714.0625L665.1006,714.0625z"/>
				</g>
				<g>
					<line fill="#454545" x1="636.2803" y1="677.0059" x2="636.2803" y2="693.2012"/>
					<path fill="#454545" d="M636.2803,703.3008c-5.5772,0-10.0996-4.5274-10.0996-10.0996v-16.1953
						c0-5.5733,4.5224-10.0997,10.0996-10.0997c5.5781,0,10.1006,4.5264,10.1006,10.0997v16.1953
						C646.3809,698.7734,641.8584,703.3008,636.2803,703.3008L636.2803,703.3008z"/>
				</g>
				<g>
					<line fill="#454545" x1="636.2803" y1="718.3818" x2="636.2803" y2="734.5879"/>
					<path fill="#454545" d="M636.2803,744.6875c-5.5772,0-10.0996-4.5273-10.0996-10.0996v-16.2061
						c0-5.582,4.5224-10.0995,10.0996-10.0995c5.5781,0,10.1006,4.5176,10.1006,10.0995v16.2061
						C646.3809,740.1602,641.8584,744.6875,636.2803,744.6875L636.2803,744.6875z"/>
				</g>
			</g>
			<g>
				<g>
					<line fill="#454545" x1="344.8994" y1="703.9619" x2="361.0752" y2="703.9619"/>
					<path fill="#454545" d="M361.0752,714.0625h-16.1758c-5.5781,0-10.1001-4.5176-10.1001-10.1006
						c0-5.5732,4.522-10.0996,10.1001-10.0996h16.1758c5.5776,0,10.0996,4.5264,10.0996,10.0996
						C371.1748,709.5449,366.6528,714.0625,361.0752,714.0625L361.0752,714.0625z"/>
				</g>
				<g>
					<line fill="#454545" x1="386.2759" y1="703.9619" x2="402.501" y2="703.9619"/>
					<path fill="#454545" d="M402.501,714.0625h-16.2251c-5.5777,0-10.1001-4.5176-10.1001-10.1006
						c0-5.5732,4.5224-10.0996,10.1001-10.0996h16.2251c5.5776,0,10.0996,4.5264,10.0996,10.0996
						C412.6006,709.5449,408.0786,714.0625,402.501,714.0625L402.501,714.0625z"/>
				</g>
				<g>
					<line fill="#454545" x1="373.6807" y1="677.0059" x2="373.6807" y2="693.2012"/>
					<path fill="#454545" d="M373.6807,703.3008c-5.5782,0-10.1006-4.5274-10.1006-10.0996v-16.1953
						c0-5.5733,4.5224-10.0997,10.1006-10.0997c5.5771,0,10.0996,4.5264,10.0996,10.0997v16.1953
						C383.7803,698.7734,379.2578,703.3008,373.6807,703.3008L373.6807,703.3008z"/>
				</g>
				<g>
					<line fill="#454545" x1="373.6807" y1="718.3818" x2="373.6807" y2="734.5879"/>
					<path fill="#454545" d="M373.6807,744.6875c-5.5782,0-10.1006-4.5273-10.1006-10.0996v-16.2061
						c0-5.582,4.5224-10.0995,10.1006-10.0995c5.5771,0,10.0996,4.5176,10.0996,10.0995v16.2061
						C383.7803,740.1602,379.2578,744.6875,373.6807,744.6875L373.6807,744.6875z"/>
				</g>
			</g>
			<g>
				<g>
					<line fill="#454545" x1="536.2275" y1="602.0742" x2="552.4131" y2="602.0742"/>
					<path fill="#454545" d="M552.4131,612.1738h-16.1856c-5.5781,0-10.1005-4.5166-10.1005-10.0996
						c0-5.5722,4.5224-10.0996,10.1005-10.0996h16.1856c5.5771,0,10.0996,4.5274,10.0996,10.0996
						C562.5127,607.6572,557.9902,612.1738,552.4131,612.1738L552.4131,612.1738z"/>
				</g>
				<g>
					<line fill="#454545" x1="577.5645" y1="602.0742" x2="593.7695" y2="602.0742"/>
					<path fill="#454545" d="M593.7695,612.1738h-16.205c-5.5782,0-10.1001-4.5166-10.1001-10.0996
						c0-5.5722,4.5219-10.0996,10.1001-10.0996h16.205c5.5782,0,10.0996,4.5274,10.0996,10.0996
						C603.8691,607.6572,599.3477,612.1738,593.7695,612.1738L593.7695,612.1738z"/>
				</g>
				<g>
					<line fill="#454545" x1="565.0083" y1="575.0879" x2="565.0083" y2="591.2734"/>
					<path fill="#454545" d="M565.0083,601.374c-5.5776,0-10.1001-4.5273-10.1001-10.1006v-16.1855
						c0-5.582,4.5225-10.0996,10.1001-10.0996c5.5776,0,10.1001,4.5176,10.1001,10.0996v16.1855
						C575.1084,596.8467,570.5859,601.374,565.0083,601.374L565.0083,601.374z"/>
				</g>
				<g>
					<line fill="#454545" x1="565.0083" y1="616.4551" x2="565.0083" y2="632.6699"/>
					<path fill="#454545" d="M565.0083,642.7705c-5.5776,0-10.1001-4.5273-10.1001-10.1006v-16.2148
						c0-5.5723,4.5225-10.0995,10.1001-10.0995c5.5776,0,10.1001,4.5273,10.1001,10.0995v16.2148
						C575.1084,638.2432,570.5859,642.7705,565.0083,642.7705L565.0083,642.7705z"/>
				</g>
			</g>
		</g>
	</g>
</g>
</svg>
