<?xml version="1.0" encoding="utf-8"?>
<!-- Generator: Adobe Illustrator 17.1.0, SVG Export Plug-In . SVG Version: 6.00 Build 0)  -->
<!DOCTYPE svg PUBLIC "-//W3C//DTD SVG 1.1//EN" "http://www.w3.org/Graphics/SVG/1.1/DTD/svg11.dtd">
<svg version="1.1" id="euro-bill" xmlns="http://www.w3.org/2000/svg" xmlns:xlink="http://www.w3.org/1999/xlink" x="0px" y="0px"
	 viewBox="0 0 1010 1010" enable-background="new 0 0 1010 1010" xml:space="preserve">
<g id="euro-bill-euro-bill">
	<path id="euro-bill-label" fill="#ACAF48" d="M1010,505c0,278.9043-226.1055,505-505,505C226.0859,1010,0,783.9043,0,505
		S226.0859,0,505,0C783.8945,0,1010,226.0957,1010,505z"/>
	<g id="euro-bill-euro-bill_1_">
		<g>
			<path fill="#3BAFDA" d="M767.0283,699.4551c10.0606,0,18.2373-9.6768,18.2373-21.6211V332.1655
				c0-11.9345-8.1767-21.6201-18.2373-21.6201H237.9219c-10.0801,0-18.2471,9.6856-18.2471,21.6201V677.834
				c0,11.9443,8.167,21.6211,18.2471,21.6211H767.0283z"/>
			<path fill="#454545" d="M767.0283,709.5547H237.9219c-15.6328,0-28.3467-14.2324-28.3467-31.7207V332.1655
				c0-17.4878,12.7139-31.7202,28.3467-31.7202h529.1063c15.6231,0,28.3369,14.2324,28.3369,31.7202V677.834
				C795.3652,695.3223,782.6514,709.5547,767.0283,709.5547L767.0283,709.5547z M237.9219,320.6455
				c-4.4185,0-8.1465,5.2764-8.1465,11.52V677.834c0,6.2441,3.728,11.5205,8.1465,11.5205h529.1063
				c4.4092,0,8.1367-5.2764,8.1367-11.5205V332.1655c0-6.1347-3.8076-11.52-8.1367-11.52H237.9219L237.9219,320.6455z"/>
		</g>
		<g>
			<path fill="#FFFFFF" d="M640.6299,366.8154H364.2808c0,44.4239-34.5513,78.9658-78.9654,78.9658l1.9629,113.5059
				c44.4238,0,77.0025,39.4727,77.0025,83.8975h276.3491c0-44.4248,34.5517-78.9561,78.9853-78.9561V445.7812
				C675.1816,445.7812,640.6299,411.2393,640.6299,366.8154z"/>
			<path fill="#454545" d="M640.6299,653.2842H364.2808c-5.5826,0-10.1001-4.5166-10.1001-10.0995
				c0-40.6964-30.0137-73.7969-66.9024-73.7969c-5.5137,0-10.0019-4.419-10.1006-9.9229l-1.9624-113.5068
				c-0.0493-2.7119,0.9961-5.3262,2.8999-7.2588c1.8936-1.9336,4.4873-3.0185,7.2002-3.0185
				c38.6143,0,68.8653-30.2505,68.8653-68.8653c0-5.583,4.5175-10.1001,10.1001-10.1001h276.3491
				c5.583,0,10.1006,4.5171,10.1006,10.1001c0,38.6148,30.2597,68.8653,68.8847,68.8653c5.5821,0,10.0996,4.5175,10.0996,10.1005
				v118.4473c0,5.583-4.5175,10.1006-10.0996,10.1006c-38.625,0-68.8847,30.2412-68.8847,68.8555
				C650.7305,648.7676,646.2129,653.2842,640.6299,653.2842L640.6299,653.2842z M373.8779,633.084h257.1944
				c4.5078-41.7012,36.7208-73.9053,78.4433-78.4121v-99.334c-41.7225-4.5068-73.9355-36.7109-78.4433-78.4229H373.8379
				c-4.5073,41.6529-36.6318,73.8272-78.2549,78.4034l1.6372,94.4804C337.5117,554.7598,369.5479,589.5088,373.8779,633.084
				L373.8779,633.084z"/>
		</g>
		<g>
			<path fill="#FFB933" d="M603.4648,505c0,55.7871-45.2226,101-100.9995,101c-55.7768,0-101-45.2129-101-101
				c0-55.7773,45.2232-101,101-101C558.2422,404,603.4648,449.2227,603.4648,505z"/>
			<g>
				<g>
					<polygon fill="#454545" points="514.3604,528.2285 436.1641,528.2285 436.1641,508.0273 514.3604,508.0273 514.3604,528.2285 
											"/>
				</g>
				<g>
					<polygon fill="#454545" points="514.3604,501.9814 436.2036,501.9814 436.2036,481.7812 514.3604,481.7812 514.3604,501.9814 
											"/>
				</g>
				<g>
					<path fill="#454545" d="M506.6377,580.7598c-33.5552,0-60.8467-33.9786-60.8467-75.75
						c0-41.7715,27.2915-75.7598,60.8467-75.7598c15.2978,0,29.8955,7.0322,41.1001,19.7852l-15.1699,13.3359
						c-7.3184-8.335-16.521-12.9209-25.9302-12.9209c-22.4097,0-40.647,24.9248-40.647,55.5596
						c0,30.625,18.2373,55.5498,40.647,55.5498c9.6855,0,19.0947-4.8233,26.4727-13.5714l15.4462,13.0195
						C537.2627,573.3916,522.3789,580.7598,506.6377,580.7598L506.6377,580.7598z"/>
				</g>
			</g>
		</g>
		<g>
			<g>
				<polygon fill="#454545" points="376.2153,510.5527 356.0151,510.5527 356.0151,490.3535 376.2153,490.3535 376.2153,510.5527 
									"/>
			</g>
			<g>
				<polygon fill="#454545" points="648.915,510.5527 628.7148,510.5527 628.7148,490.3535 648.915,490.3535 648.915,510.5527 				
					"/>
			</g>
		</g>
	</g>
</g>
</svg>
