<?xml version="1.0" encoding="utf-8"?>
<!-- Generator: Adobe Illustrator 17.1.0, SVG Export Plug-In . SVG Version: 6.00 Build 0)  -->
<!DOCTYPE svg PUBLIC "-//W3C//DTD SVG 1.1//EN" "http://www.w3.org/Graphics/SVG/1.1/DTD/svg11.dtd">
<svg version="1.1" id="giftbox" xmlns="http://www.w3.org/2000/svg" xmlns:xlink="http://www.w3.org/1999/xlink" x="0px" y="0px"
	 viewBox="0 0 1010 1010" enable-background="new 0 0 1010 1010" xml:space="preserve">
<g id="giftbox-giftbox">
	<path id="giftbox-label" fill="#FFB933" d="M1010,505c0,278.8945-226.0957,505-505,505C226.0962,1010,0,783.8945,0,505
		C0,226.0859,226.0962,0,505,0C783.9043,0,1010,226.0859,1010,505z"/>
	<g id="giftbox-giftbox_1_">
		<g>
			<rect x="554.6123" y="351.1919" fill="#3BAFDA" width="208.3818" height="99.2241"/>
			<rect x="455.3877" y="351.1919" fill="#FC6E51" width="99.2246" height="99.2241"/>
			<rect x="455.3877" y="450.416" fill="#FC6E51" width="99.2246" height="337.3838"/>
			<rect x="247.0063" y="351.1919" fill="#3BAFDA" width="208.3813" height="99.2241"/>
			<rect x="267.0684" y="450.416" fill="#FFFFFF" width="188.3193" height="337.3838"/>
			<rect x="554.6123" y="450.416" fill="#FFFFFF" width="189.5625" height="337.3838"/>
		</g>
		<g>
			<g>
				<polygon fill="#454545" points="465.4878,787.7998 445.2881,787.7998 445.2881,351.1919 465.4878,351.1919 465.4878,787.7998 
									"/>
			</g>
			<g>
				<polygon fill="#454545" points="564.7124,787.7998 544.5127,787.7998 544.5127,351.1919 564.7124,351.1919 564.7124,787.7998 
									"/>
			</g>
			<g>
				<path fill="#454545" d="M744.1748,797.9004H267.0684c-5.5782,0-10.1001-4.5176-10.1001-10.1006V450.416h20.1997v327.2842
					h456.9062V450.416h20.2012v337.3838C754.2754,793.3828,749.7578,797.9004,744.1748,797.9004L744.1748,797.9004z"/>
			</g>
			<g>
				<path fill="#454545" d="M762.9941,460.5166H247.0063c-5.5777,0-10.1001-4.5176-10.1001-10.1006v-99.2241
					c0-5.5825,4.5225-10.1001,10.1001-10.1001h515.9877c5.5821,0,10.0997,4.5176,10.0997,10.1001v99.2241
					C773.0938,455.999,768.5762,460.5166,762.9941,460.5166L762.9941,460.5166z M257.1064,440.3164h495.788V361.292h-495.788
					V440.3164L257.1064,440.3164z"/>
			</g>
			<g>
				<g>
					<path fill="#454545" d="M505,351.3691c-0.3301,0-0.666-0.0195-1.001-0.0488c-3.2793-0.3257-80.6426-8.3447-110.9175-38.5952
						c-22.9716-22.9814-22.9716-60.3833-0.0053-83.3647c11.1455-11.1353,25.9507-17.2608,41.6924-17.2608
						c15.7421,0,30.5468,6.1255,41.6772,17.2608c30.2754,30.2509,38.2798,107.6284,38.605,110.913
						c0.3008,3.0078-0.7695,5.9966-2.9097,8.1368C510.2373,350.314,507.6631,351.3691,505,351.3691L505,351.3691z
						 M434.7686,232.2998c-10.3516,0-20.0816,4.0244-27.4053,11.3428c-15.1006,15.1103-15.1006,39.6899,0.0049,54.8008
						c17.458,17.4477,60.4082,27.2026,85.9292,31.1279c-3.9204-25.5259-13.6704-68.4805-31.1333-85.9287
						C454.8452,236.3242,445.1152,232.2998,434.7686,232.2998L434.7686,232.2998z"/>
				</g>
				<g>
					<path fill="#454545" d="M505,351.3691c-2.6631,0-5.2373-1.0551-7.1406-2.9589c-2.1406-2.1402-3.211-5.129-2.9102-8.1368
						c0.3257-3.2846,8.3399-80.6621,38.605-110.913c11.1309-11.1353,25.9355-17.2608,41.6772-17.2608
						c15.7422,0,30.5469,6.1255,41.6875,17.2608c22.9717,22.9814,22.9717,60.3833,0.0049,83.3647
						c-30.2802,30.2505-107.643,38.2695-110.9228,38.5952C505.666,351.3496,505.3306,351.3691,505,351.3691L505,351.3691z
						 M575.2314,232.2998c-10.3466,0-20.0766,4.0244-27.395,11.3428c-17.4531,17.4482-27.2129,60.4028-31.1333,85.9287
						c25.5211-3.9253,68.4707-13.6802,85.9337-31.1279c15.1006-15.1109,15.1006-39.6905-0.0049-54.8008
						C595.3135,236.3242,585.583,232.2998,575.2314,232.2998L575.2314,232.2998z"/>
				</g>
			</g>
			<g>
				<path fill="#FFFFFF" d="M515.1001,767.9551h-20.1997v-15.1504h20.1997V767.9551L515.1001,767.9551z M515.1001,732.6055h-20.1997
					v-20.2003h20.1997V732.6055L515.1001,732.6055z M515.1001,692.2051h-20.1997v-20.2002h20.1997V692.2051L515.1001,692.2051z
					 M515.1001,651.8047h-20.1997v-20.1992h20.1997V651.8047L515.1001,651.8047z M515.1001,611.4053h-20.1997v-20.2002h20.1997
					V611.4053L515.1001,611.4053z M515.1001,571.0049h-20.1997v-20.2002h20.1997V571.0049L515.1001,571.0049z M515.1001,530.6055
					h-20.1997v-20.2002h20.1997V530.6055L515.1001,530.6055z M515.1001,490.2051h-20.1997v-20.2002h20.1997V490.2051
					L515.1001,490.2051z"/>
			</g>
		</g>
	</g>
</g>
</svg>
