<?xml version="1.0" encoding="utf-8"?>
<!-- Generator: Adobe Illustrator 17.1.0, SVG Export Plug-In . SVG Version: 6.00 Build 0)  -->
<!DOCTYPE svg PUBLIC "-//W3C//DTD SVG 1.1//EN" "http://www.w3.org/Graphics/SVG/1.1/DTD/svg11.dtd">
<svg version="1.1" id="hand-package" xmlns="http://www.w3.org/2000/svg" xmlns:xlink="http://www.w3.org/1999/xlink" x="0px"
	 y="0px" viewBox="0 0 1010 1010" enable-background="new 0 0 1010 1010" xml:space="preserve">
<g id="hand-package-hand-package">
	<circle id="hand-package-label" fill="#FC6E51" cx="505" cy="505" r="505"/>
	<g id="hand-package-hand-package_1_">
		<g id="hand-package-package">
			<g>
				<rect x="362.3965" y="280.2549" fill="#FFB933" width="386.207" height="287.8896"/>
				<path fill="#454545" d="M748.6035,578.2441h-386.207c-5.582,0-10.0996-4.5166-10.0996-10.0995V280.2549
					c0-5.582,4.5176-10.0996,10.0996-10.0996h386.207c5.582,0,10.0995,4.5176,10.0995,10.0996v287.8896
					C758.7031,573.7275,754.1855,578.2441,748.6035,578.2441L748.6035,578.2441z M372.4971,558.0449h366.0068V290.3555H372.4971
					V558.0449L372.4971,558.0449z"/>
			</g>
			<g>
				<path fill="#454545" d="M368.3643,574.5957c-1.5391,0-3.1075-0.3555-4.5767-1.1055c-4.9712-2.5352-6.9438-8.6104-4.4087-13.582
					l71.0645-139.3774c1.7265-3.3833,5.1982-5.5137,8.9956-5.5137h243.2182c4.0049,0,7.6348,2.3672,9.2422,6.0366l60.126,136.6553
					c2.25,5.0996-0.0684,11.0664-5.1777,13.3056c-5.1192,2.2491-11.0664-0.0693-13.3057-5.1777l-57.4736-130.6201H445.623
					L377.3691,569.082C375.584,572.583,372.043,574.5957,368.3643,574.5957L368.3643,574.5957z"/>
			</g>
			<g>
				<path fill="#454545" d="M682.6475,435.2168c-1.4004,0-2.8213-0.2852-4.1719-0.9072c-5.0791-2.3076-7.3184-8.3047-5.0108-13.3745
					l65.9463-144.8619c2.3174-5.0795,8.3145-7.3286,13.3741-5.0107c5.08,2.3081,7.3183,8.3047,5.0107,13.375l-65.9463,144.8618
					C690.1533,433.0176,686.4844,435.2168,682.6475,435.2168L682.6475,435.2168z"/>
			</g>
			<g>
				<path fill="#454545" d="M439.4487,435.2168c-3.6196,0-7.1113-1.9424-8.9262-5.3555l-77.042-144.8618
					c-2.6241-4.9219-0.75-11.0469,4.1718-13.6606c4.9219-2.6436,11.0469-0.75,13.6612,4.1718l77.042,144.8623
					c2.6235,4.9219,0.7495,11.0469-4.1724,13.6602C442.6738,434.8418,441.0469,435.2168,439.4487,435.2168L439.4487,435.2168z"/>
			</g>
		</g>
		<g id="hand-package-hand">
			<g>
				<path fill="#FFFFFF" d="M362.6138,525.1211c108.3974,1.499,134.1704,53.0449,162.2114,53.0449
					c28.0312,0,104.9756-0.8877,95.1123,53.6563c38.9004,11.165,101.167-71.8448,126.9395-71.8448
					c25.7734,0,40.9228,13.6709,40.9228,42.4522c0,38.664-165.959,127.3144-234.9434,127.3144
					c-65.9257,0-162.9414-67.4648-194.7597-67.4648"/>
				<path fill="#454545" d="M552.8564,739.8447c-41.1689,0-92.4775-24.2441-133.706-43.7138
					c-25.8521-12.211-50.2734-23.751-61.0537-23.751c-5.583,0-10.1006-4.5176-10.1006-10.1006
					c0-5.582,4.5176-10.0996,10.1006-10.0996c15.3076,0,39.3047,11.333,69.6836,25.6836
					c39.4043,18.6123,88.4443,41.7812,125.0761,41.7812c68.4024,0,224.8438-87.2704,224.8438-117.2148
					c0-22.0742-9.7939-32.3516-30.8232-32.3516c-6.963,0-25.9698,15.9492-39.8477,27.5977
					c-29.0078,24.3222-61.8125,51.9005-89.8838,43.8515c-4.9814-1.4296-8.0684-6.4013-7.1514-11.5
					c1.7657-9.7656,0.2276-17.3798-4.6943-23.2773c-15.4756-18.5234-60.2451-18.7109-79.1431-18.4844h-1.3315
					c-12.4868,0-23.1094-6.8154-36.563-15.4551c-24.0864-15.4668-57.0889-36.6425-125.7866-37.5898
					c-5.5825-0.0781-10.041-4.665-9.9619-10.2383c0.0791-5.582,5.0107-10.1582,10.2383-9.9609
					c74.4775,1.0351,111.7509,24.9531,136.4189,40.7939c10.6719,6.8448,19.0952,12.25,25.6543,12.25h1.3218
					c23.6621,0.2862,73.1167-0.0293,94.6479,25.7237c6.7266,8.0586,10.1201,17.6953,10.1201,28.7714
					c17.8028-2.3378,42.6192-23.1591,63.125-40.3613c21.5215-18.0586,38.5254-32.3213,52.837-32.3213
					c32.4306,0,51.0234,19.1543,51.0234,52.5518C797.9004,649.6748,624.0693,739.8447,552.8564,739.8447L552.8564,739.8447z"/>
			</g>
			<g>
				<rect x="222.2002" y="476.6133" fill="#3BAFDA" width="135.8076" height="213.4023"/>
				<path fill="#454545" d="M358.0078,700.1152H222.2002c-5.583,0-10.1001-4.5175-10.1001-10.0995V476.6133
					c0-5.5821,4.5171-10.0996,10.1001-10.0996h135.8076c5.5825,0,10.0996,4.5175,10.0996,10.0996v213.4023
					C368.1074,695.5977,363.5903,700.1152,358.0078,700.1152L358.0078,700.1152z M232.2998,679.915h115.6079V486.7129H232.2998
					V679.915L232.2998,679.915z"/>
			</g>
			<g>
				<path fill="#454545" d="M619.9375,641.9219H464.7188c-5.5831,0-10.1006-4.5176-10.1006-10.0995
					c0-5.583,4.5175-10.1006,10.1006-10.1006h155.2187c5.582,0,10.0996,4.5176,10.0996,10.1006
					C630.0371,637.4043,625.5195,641.9219,619.9375,641.9219L619.9375,641.9219z"/>
			</g>
			<g>
				<g>
					<path fill="#454545" d="M356.7354,525.7715H233.9668c-5.5825,0-10.0996-4.5166-10.0996-10.0995
						c0-5.5821,4.5171-10.0996,10.0996-10.0996h122.7686c5.5825,0,10.0996,4.5175,10.0996,10.0996
						C366.835,521.2549,362.3179,525.7715,356.7354,525.7715L356.7354,525.7715z"/>
				</g>
				<g>
					<path fill="#454545" d="M356.7354,568.9932H233.9668c-5.5825,0-10.0996-4.5176-10.0996-10.1006
						c0-5.5821,4.5171-10.0995,10.0996-10.0995h122.7686c5.5825,0,10.0996,4.5175,10.0996,10.0995
						C366.835,564.4756,362.3179,568.9932,356.7354,568.9932L356.7354,568.9932z"/>
				</g>
				<g>
					<path fill="#454545" d="M356.7354,612.1738H233.9668c-5.5825,0-10.0996-4.5166-10.0996-10.0996
						c0-5.582,4.5171-10.0996,10.0996-10.0996h122.7686c5.5825,0,10.0996,4.5176,10.0996,10.0996
						C366.835,607.6572,362.3179,612.1738,356.7354,612.1738L356.7354,612.1738z"/>
				</g>
				<g>
					<path fill="#454545" d="M356.7354,655.3955H233.9668c-5.5825,0-10.0996-4.5176-10.0996-10.1006
						c0-5.582,4.5171-10.0996,10.0996-10.0996h122.7686c5.5825,0,10.0996,4.5176,10.0996,10.0996
						C366.835,650.8779,362.3179,655.3955,356.7354,655.3955L356.7354,655.3955z"/>
				</g>
			</g>
		</g>
	</g>
</g>
</svg>
