<?xml version="1.0" encoding="utf-8"?>
<!-- Generator: Adobe Illustrator 17.1.0, SVG Export Plug-In . SVG Version: 6.00 Build 0)  -->
<!DOCTYPE svg PUBLIC "-//W3C//DTD SVG 1.1//EN" "http://www.w3.org/Graphics/SVG/1.1/DTD/svg11.dtd">
<svg version="1.1" id="heart-label-tag" xmlns="http://www.w3.org/2000/svg" xmlns:xlink="http://www.w3.org/1999/xlink" x="0px"
	 y="0px" viewBox="0 0 1010 1010" enable-background="new 0 0 1010 1010" xml:space="preserve">
<g id="heart-label-tag-heart-label-tag">
	<path id="heart-label-tag-label" fill="#3BAFDA" d="M1010,505c0,278.8945-226.0859,505-505,505C226.106,1010,0,783.8945,0,505
		C0,226.0859,226.106,0,505,0C783.9141,0,1010,226.0859,1010,505z"/>
	<g id="heart-label-tag-heart-label-tag_1_">
		<g>
			<path fill="#FFFFFF" d="M706.4375,293.4131H521.0674c-4.0933,0-8.0288,1.6367-10.9483,4.5371L232.0439,576.0156
				c-6.0366,6.0557-6.0268,15.8203,0,21.8574l185.4195,185.3897c3.0083,2.999,6.9341,4.5371,10.9087,4.5371
				c3.9355,0,7.8808-1.5381,10.9384-4.5371l278.0459-278.085c2.8995-2.8808,4.5274-6.8261,4.5274-10.9287V308.8584
				C721.8936,300.3564,714.9697,293.4131,706.4375,293.4131z"/>
			<path fill="#454545" d="M428.3721,797.9004c-6.791,0-13.1968-2.6436-18.0401-7.4766L224.9023,605.0137
				c-9.9419-9.9619-9.9419-26.1573-0.0146-36.1192L502.978,290.8086c4.8726-4.8525,11.2886-7.4961,18.0894-7.4961h185.3701
				c6.8262,0,13.2422,2.6631,18.0752,7.4961c4.8271,4.833,7.4814,11.2441,7.4717,18.0498V494.249
				c0,6.7666-2.7373,13.3545-7.5117,18.0889l-278.021,278.0664C441.5,795.2764,435.104,797.9004,428.3721,797.9004
				L428.3721,797.9004z M521.0674,303.5127c-1.4102,0-2.8062,0.5723-3.832,1.5977L239.1846,583.1562
				c-2.0762,2.0918-2.0762,5.4844,0.0049,7.5752l185.415,185.3907c2.0317,2.0312,5.4643,2.0714,7.6343-0.0596l277.977-278.0264
				c1.0059-1.0058,1.5674-2.3672,1.5674-3.7871V308.8584c0-1.9326-0.9805-3.1953-1.5625-3.7676
				c-0.5869-0.5918-1.8594-1.5781-3.7832-1.5781H521.0674L521.0674,303.5127z"/>
		</g>
		<g>
			<path fill="#3BAFDA" d="M633.2227,346.3789c19.4902,0,35.3105,15.8008,35.3105,35.3106c0,19.5092-15.8203,35.33-35.3105,35.33
				c-19.4904,0-35.3106-15.8208-35.3106-35.33C597.9023,362.1797,613.7324,346.3789,633.2227,346.3789z"/>
			<path fill="#454545" d="M633.2227,427.1191c-25.0381,0-45.4102-20.3769-45.4102-45.4296
				c-0.0049-12.1319,4.7188-23.5342,13.3008-32.1153c8.5801-8.581,19.9824-13.2959,32.1094-13.2959
				c25.038,0,45.4101,20.3779,45.4101,45.4112C678.6328,406.7422,658.2607,427.1191,633.2227,427.1191L633.2227,427.1191z
				 M633.2227,356.4785c-6.7315,0-13.0635,2.624-17.8282,7.3779c-4.7635,4.7735-7.3867,11.106-7.3828,17.8331
				c0,13.9072,11.3086,25.2299,25.211,25.2299c13.9023,0,25.2109-11.3227,25.2109-25.2299
				C658.4336,367.7822,647.125,356.4785,633.2227,356.4785L633.2227,356.4785z"/>
		</g>
		<g>
			<path fill="#FC6E51" d="M505.5723,510.6416c7.3877-18.9971,3.4814-41.3467-11.8457-56.6748
				c-20.5948-20.5938-52.5225-18.4043-74.7149,0.0205c0,0-6.0263,4.0439-12.9009,15.3272
				c-9.3403,15.3867-13.1577,33.4765-12.0429,51.4072l7.0717,94.3916l93.4449,6.1152c17.9809,1.1641,36.0307-2.6826,51.437-11.9931
				c11.2837-6.9249,15.3076-12.9405,15.3076-12.9405c18.4541-22.1533,20.6436-54.0713,0.0298-74.7051
				C546.0215,506.2627,524.5,503.2051,505.5723,510.6416z"/>
			<path fill="#454545" d="M500.8184,631.5264c0,0,0,0-0.0049,0c-2.2886,0-4.5869-0.0596-6.8799-0.2178l-93.4546-6.1152
				c-5.0205-0.335-9.0347-4.3194-9.4097-9.3301l-7.0722-94.3916c-1.3018-20.9297,3.3637-40.7354,13.4834-57.4043
				c6.9287-11.3623,13.2758-16.5703,15.3867-18.1094c13.1377-10.79,29.1855-16.7275,45.2329-16.7275
				c16.2397,0,31.4292,6.2529,42.7671,17.5957c13.3945,13.3945,19.8154,31.8584,18.1733,50.1845
				c18.252-1.8545,36.4005,4.3995,49.4595,17.4385c23.3457,23.376,23.6768,60.3233,0.853,88
				c-1.5435,2.1309-6.7319,8.4629-18.0547,15.3867C536.4736,626.8115,519.0356,631.5264,500.8184,631.5264L500.8184,631.5264z
				 M410.5542,605.6055l84.6909,5.5428c16.3779,1.0656,32.4453-2.623,45.5488-10.5536
				c8.8326-5.4248,12.2061-10.0205,12.2403-10.0605c14.4746-17.4385,19.1694-43.793,1.1787-61.8036
				c-11.7026-11.6973-29.0225-14.9522-44.9473-8.6797c-3.7177,1.4804-7.9741,0.5918-10.8247-2.248
				c-2.8403-2.8408-3.7378-7.082-2.2832-10.8105c6.1792-15.8799,2.4214-33.8906-9.5723-45.8838
				c-7.6391-7.6338-17.4877-11.6787-28.4853-11.6787c-11.4712,0-23.0601,4.3799-32.6372,12.3301
				c-0.2617,0.2168-0.5381,0.4336-0.8242,0.6113l0,0c0.0102,0-4.5469,3.4121-9.9024,12.2109
				c-7.9599,13.0977-11.624,28.8399-10.5884,45.5088L410.5542,605.6055L410.5542,605.6055z"/>
		</g>
		<g>
			<path fill="#454545" d="M637.4443,378.6318c-5.5781,0-10.1005-4.5175-10.1005-10.1006c0-5.6611-4.418-12.0527-9.5372-19.4501
				c-7.2099-10.4551-16.1855-23.4351-17.7392-41.6231c-1.4209-16.5107,7.6982-33.2393,15.7471-47.9946
				c6.6425-12.1909,14.1678-25.9995,10.5634-32.1939c-2.8066-4.8134-1.1738-10.9873,3.6446-13.8086
				c4.8232-2.8007,11.002-1.1836,13.8134,3.6495c9.335,16.038-0.6416,34.3242-10.2871,52.019
				c-7.0088,12.8618-14.2529,26.1377-13.3553,36.6128c1.0947,12.8418,7.7724,22.5078,14.2324,31.8384
				c6.4512,9.3501,13.1181,18.9965,13.1181,30.9506C647.5439,374.1143,643.0215,378.6318,637.4443,378.6318L637.4443,378.6318z"/>
		</g>
	</g>
</g>
</svg>
