<?xml version="1.0" encoding="utf-8"?>
<!-- Generator: Adobe Illustrator 17.1.0, SVG Export Plug-In . SVG Version: 6.00 Build 0)  -->
<!DOCTYPE svg PUBLIC "-//W3C//DTD SVG 1.1//EN" "http://www.w3.org/Graphics/SVG/1.1/DTD/svg11.dtd">
<svg version="1.1" id="heart-bag" xmlns="http://www.w3.org/2000/svg" xmlns:xlink="http://www.w3.org/1999/xlink" x="0px" y="0px"
	 viewBox="0 0 1010 1010" enable-background="new 0 0 1010 1010" xml:space="preserve">
<g id="heart-bag-heart-bag">
	<path id="heart-bag-label" fill="#FFB933" d="M504.9805,1010C783.875,1010,1010,783.9336,1010,505.0195
		C1010,226.1455,783.875,0,504.9805,0C226.106,0,0,226.1455,0,505.0195C0,783.9336,226.106,1010,504.9805,1010z"/>
	<g id="heart-bag-heart-bag_1_">
		<g>
			<path fill="#FFFFFF" d="M591.334,335.8838c17.3291,0,45.6562,0,62.9765,0h35.1924c17.3194,0,31.4834,14.1738,31.4834,31.4839
				v378.8491c0,17.3389-14.164,31.4834-31.4834,31.4834H320.4976c-17.3296,0-31.4839-14.1445-31.4839-31.4834V367.3677
				c0-17.3101,14.1543-31.4839,31.4839-31.4839h35.2119c17.31,0,45.6572,0,62.9673,0H591.334z"/>
			<path fill="#454545" d="M689.5029,787.7998H320.4976c-22.9322,0-41.5835-18.6514-41.5835-41.583V367.3677
				c0-22.9322,18.6513-41.5835,41.5835-41.5835h369.0053c22.9317,0,41.583,18.6513,41.583,41.5835v378.8491
				C731.0859,769.1484,712.4346,787.7998,689.5029,787.7998L689.5029,787.7998z M320.4976,345.9844
				c-11.7867,0-21.3833,9.5967-21.3833,21.3833v378.8491c0,11.7861,9.5966,21.3828,21.3833,21.3828h369.0053
				c11.7862,0,21.3839-9.5967,21.3839-21.3828V367.3677c0-11.7866-9.5977-21.3833-21.3839-21.3833H320.4976L320.4976,345.9844z"/>
		</g>
		<g>
			<path fill="#454545" d="M603.1797,394.0186c-5.583,0-10.1006-4.5176-10.1006-10.1006v-97.1133
				c0-35.6265-39.5122-64.6045-88.0889-64.6045c-48.5566,0-88.0693,28.978-88.0693,64.6045v97.1133
				c0,5.583-4.5176,10.1006-10.0996,10.1006c-5.583,0-10.1006-4.5176-10.1006-10.1006v-97.1133
				c0-46.7622,48.5674-84.8047,108.2695-84.8047c59.7124,0,108.2891,38.0425,108.2891,84.8047v97.1133
				C613.2793,389.501,608.7617,394.0186,603.1797,394.0186L603.1797,394.0186z"/>
		</g>
		<path fill="#3BAFDA" d="M689.5029,767.4219H320.4976c-11.6978,0-21.2061-9.5176-21.2061-21.2051v-22.4297H710.709v22.4297
			C710.709,757.9043,701.2002,767.4219,689.5029,767.4219z"/>
		<g>
			<path fill="#454545" d="M716.5977,723.5996H293.4033c-5.583,0-10.1001-4.5176-10.1001-10.0996
				c0-5.583,4.5171-10.0996,10.1001-10.0996h423.1944c5.582,0,10.0995,4.5166,10.0995,10.0996
				C726.6973,719.082,722.1797,723.5996,716.5977,723.5996L716.5977,723.5996z"/>
		</g>
		<g>
			<path fill="#454545" d="M428.4512,394.0186h-45.3809c-5.583,0-10.1001-4.5176-10.1001-10.1006
				c0-5.5821,4.5171-10.0996,10.1001-10.0996h45.3809c5.5825,0,10.1001,4.5175,10.1001,10.0996
				C438.5513,389.501,434.0337,394.0186,428.4512,394.0186L428.4512,394.0186z"/>
		</g>
		<g>
			<path fill="#454545" d="M626.9102,394.0186h-45.3615c-5.5825,0-10.0995-4.5176-10.0995-10.1006
				c0-5.5821,4.5171-10.0996,10.0995-10.0996h45.3615c5.5829,0,10.0995,4.5175,10.0995,10.0996
				C637.0098,389.501,632.4932,394.0186,626.9102,394.0186L626.9102,394.0186z"/>
		</g>
		<g>
			<path fill="#FC6E51" d="M505,513.0488c0-31.5625-25.5752-57.1484-57.1675-57.1484c-31.5425,0-57.1382,25.5859-57.1382,57.1484
				c0,16.5303,7.1411,31.3057,18.3457,41.7704l-0.1279,0.0294L505,650.9277l96.1279-96.079
				c-0.04-0.0294-0.0594-0.0294-0.0986-0.0888c11.1846-10.4248,18.2764-25.1807,18.2764-41.711
				c0-31.5625-25.5752-57.1484-57.1578-57.1484C530.6055,455.9004,505,481.4863,505,513.0488z"/>
			<path fill="#454545" d="M505,661.0273c-2.584,0-5.168-0.9863-7.1406-2.9589l-96.0884-96.0782
				c-0.3057-0.3066-0.582-0.6212-0.8384-0.957c-13.1279-12.8418-20.3379-29.8262-20.3379-47.9844
				c0-37.0761,30.1616-67.248,67.2378-67.248c24.106,0,45.2822,12.7431,57.1675,31.8379
				c11.8755-19.0948,33.0518-31.8379,57.1479-31.8379c37.0865,0,67.2584,30.1719,67.2584,67.248
				c0,18.1581-7.1612,35.0928-20.2208,47.8858c-0.2753,0.3652-0.582,0.7197-0.9169,1.0556l-96.1275,96.0782
				C510.1685,660.041,507.584,661.0273,505,661.0273L505,661.0273z M417.1675,548.8125L505,636.6445l87.8223-87.7724
				c0.3847-0.5332,0.8291-1.0363,1.3222-1.4991c9.7149-9.0546,15.0606-21.246,15.0606-34.3242
				c0-25.9414-21.1074-47.0488-47.0572-47.0488c-25.9404,0-47.0478,21.1074-47.0478,47.0488
				c0,5.5821-4.5171,10.0995-10.1001,10.0995c-5.5825,0-10.0996-4.5175-10.0996-10.0995c0-25.9414-21.1177-47.0488-47.0679-47.0488
				c-25.9404,0-47.0381,21.1074-47.0381,47.0488c0,13.0586,5.3755,25.2696,15.1402,34.3926
				C416.3887,547.8652,416.8027,548.3291,417.1675,548.8125L417.1675,548.8125z"/>
		</g>
	</g>
</g>
</svg>
