<?xml version="1.0" encoding="utf-8"?>
<!-- Generator: Adobe Illustrator 17.1.0, SVG Export Plug-In . SVG Version: 6.00 Build 0)  -->
<!DOCTYPE svg PUBLIC "-//W3C//DTD SVG 1.1//EN" "http://www.w3.org/Graphics/SVG/1.1/DTD/svg11.dtd">
<svg version="1.1" id="heart-shirt" xmlns="http://www.w3.org/2000/svg" xmlns:xlink="http://www.w3.org/1999/xlink" x="0px"
	 y="0px" viewBox="0 0 1010 1010" enable-background="new 0 0 1010 1010" xml:space="preserve">
<g id="heart-shirt-heart-shirt">
	<path id="heart-shirt-label" fill="#3BAFDA" d="M1010,505c0,278.9043-226.0859,505-505,505C226.106,1010,0,783.9043,0,505
		S226.106,0,505,0C783.9141,0,1010,226.0957,1010,505z"/>
	<g id="heart-shirt-heart-shirt_1_">
		<g>
			<path fill="#FFB933" d="M505,365.7109c-59.3965,0-110.4883-36.021-126.4668-71.3515l-0.1382-0.1675l-4.0239-10.021
				L404.71,266.999l4.9912,9.1826c15.8994,29.1558,54.1884,48.7442,95.2988,48.7442s79.3994-19.5884,95.2988-48.7442l4.9912-9.1826
				l30.6553,17.3496l-4.4385,9.9522C615.6465,329.5713,564.4561,365.7109,505,365.7109L505,365.7109z"/>
			<path fill="#FFFFFF" d="M347.3652,743.3955V462.6172l-59.3574,15.3281l-65.8076-107.6484l151.855-85.9483l4.6557,10.208
				c15.7217,34.4922,65.334,71.1543,126.2891,71.1543c60.916,0,110.5479-36.6621,126.3096-71.1543l4.6552-10.1982l151.835,85.9385
				l-65.8076,107.6484l-59.3574-15.3281v280.7783H347.3652z"/>
			<path fill="#FC6E51" d="M445.3467,539.6699c-11.9146-10.5742-20.0225-23.6035-23.4746-37.7969
				c-1.065-4.458-1.4991-8.1269-1.6367-10.8496l-0.7891-0.8672l0.9863-5.0605c2.0513-22.084,17.9512-44.4238,44.3848-44.4238
				c17.6152,0,33.5937,10.4648,40.7353,26.6699c7.2393-16.6982,22.0537-26.6699,39.6104-26.6699
				c26.3945,0,42.3535,22.6455,44.5029,45.0644c0.3555,2.8516,0.3164,8.4932-1.5381,16.0977
				c-3.4716,14.292-11.5796,27.3213-23.3954,37.7265l-59.1797,51.8809L445.3467,539.6699z"/>
		</g>
		<g>
			<g>
				<path fill="#454545" d="M662.6348,753.4951H347.3652c-5.5781,0-10.1001-4.5166-10.1001-10.0996V475.6562l-46.7319,12.0635
					c-4.2959,1.1143-8.8232-0.7197-11.1406-4.5078L213.5845,375.564c-1.4302-2.3374-1.8491-5.1485-1.1636-7.8018
					c0.6904-2.6533,2.4209-4.9018,4.8032-6.2534l183.2007-103.6924c2.5938-1.46,5.7109-1.7266,8.5068-0.6709
					c2.7964,1.0357,4.9864,3.2647,5.9873,6.0757c10.8047,30.3789,47.8467,51.605,90.0811,51.605
					c42.2246,0,79.2568-21.2261,90.0615-51.605c1.001-2.811,3.1906-5.04,5.9873-6.0757c2.8008-1.0557,5.9033-0.7988,8.5069,0.6709
					l183.2207,103.6924c2.3818,1.3516,4.1123,3.6001,4.8037,6.2534c0.6855,2.6533,0.2656,5.4644-1.1641,7.8018l-65.8087,107.6479
					c-2.3125,3.7881-6.8398,5.6221-11.1406,4.5078l-46.7314-12.0635v267.7393
					C672.7354,748.9785,668.2129,753.4951,662.6348,753.4951L662.6348,753.4951z M357.4648,733.2949h295.0704V462.6172
					c0-3.127,1.4453-6.0762,3.916-7.9893c2.4756-1.9033,5.6904-2.5742,8.709-1.7851l52.1171,13.4541l56.4581-92.3506
					l-164.4903-93.0996C591.6738,313.248,550.6816,335.0259,505,335.0259c-45.6914,0-86.6885-21.7779-104.2646-54.1792
					l-164.4703,93.0898l56.4576,92.3604l52.1171-13.4541c3.0235-0.7989,6.2339-0.128,8.7095,1.7851
					c2.4712,1.9131,3.9155,4.8623,3.9155,7.9893V733.2949L357.4648,733.2949z"/>
			</g>
			<g>
				<path fill="#454545" d="M505,375.8105c-66.8237,0-120.1689-40.7158-136.4336-79.0244
					c-2.1797-5.1289,0.2119-11.0664,5.3506-13.2465c5.1387-2.1597,11.0664,0.227,13.2412,5.3559
					c13.9272,32.7954,61.8086,66.7149,117.8418,66.7149s103.915-33.9195,117.8418-66.7149
					c2.1797-5.1289,8.1221-7.5156,13.2412-5.3559c5.1387,2.1801,7.5303,8.1176,5.3506,13.2465
					C625.1699,335.0947,571.8237,375.8105,505,375.8105L505,375.8105z"/>
			</g>
			<g>
				<path fill="#454545" d="M505.5527,601.542c-2.3476,0-4.6953-0.8096-6.5888-2.4463l-60.3042-51.8809
					c-13.4976-11.9248-22.6607-26.7597-26.6011-42.9648c-2.9736-12.3086-1.8052-19.7266-1.5391-21.0879
					c2.752-30.0625,25.6446-52.5908,54.2979-52.5908c15.7314,0,30.4082,6.7959,40.6015,18.1592
					c9.9375-11.4717,24.1358-18.1592,39.7442-18.1592c28.7021,0,51.6142,22.5381,54.4805,53.5869
					c0.123,0.3652,1.2919,7.793-1.7022,20.0918c-3.9795,16.2852-13.1621,31.1191-26.5615,42.8955L512.21,599.0361
					C510.3066,600.7031,507.9297,601.542,505.5527,601.542L505.5527,601.542z M464.8174,450.7715
					c-20.3779,0-32.6973,17.7344-34.3291,35.2519c-0.1089,0.8282-0.7549,5.3653,1.2031,13.4727
					c2.9541,12.1621,9.957,23.4062,20.2441,32.5l53.5528,46.0713l52.5664-46.1016c10.2578-9.0244,17.2705-20.2685,20.2641-32.499
					c1.9678-8.0879,1.3218-12.6152,1.3169-12.6641c-1.7216-18.2968-14.0454-36.0312-34.4726-36.0312
					c-13.4038,0-24.752,7.6933-30.3438,20.5947c-1.5981,3.6787-5.2275,6.0654-9.2422,6.0752c-0.0048,0-0.0146,0-0.0244,0
					c-4.0048,0-7.6298-2.3672-9.2422-6.0254C490.7871,458.8691,478.4287,450.7715,464.8174,450.7715L464.8174,450.7715z"/>
			</g>
		</g>
	</g>
</g>
</svg>
