<?xml version="1.0" encoding="utf-8"?>
<!-- Generator: Adobe Illustrator 17.1.0, SVG Export Plug-In . SVG Version: 6.00 Build 0)  -->
<!DOCTYPE svg PUBLIC "-//W3C//DTD SVG 1.1//EN" "http://www.w3.org/Graphics/SVG/1.1/DTD/svg11.dtd">
<svg version="1.1" id="label-tag" xmlns="http://www.w3.org/2000/svg" xmlns:xlink="http://www.w3.org/1999/xlink" x="0px" y="0px"
	 viewBox="0 0 1010 1010" enable-background="new 0 0 1010 1010" xml:space="preserve">
<g id="label-tag-label-tag">
	<path id="label-tag-label" fill="#3BAFDA" d="M1010,505c0,278.9141-226.0957,505-505,505C226.0962,1010,0,783.9141,0,505
		C0,226.1055,226.0962,0,505,0C783.9043,0,1010,226.1055,1010,505z"/>
	<g id="label-tag-label-tag_1_">
		<g>
			<polyline fill="#FC6E51" points="722.5049,514.6064 434.2114,802.8711 193.3799,562.0293 474.6904,277.5332 			"/>
			<path fill="#454545" d="M434.2114,812.9707c-2.5844,0-5.1684-0.9863-7.1411-2.959l-240.832-240.8418
				c-3.9302-3.9248-3.9453-10.2871-0.0391-14.2422l281.3106-284.4961c3.9111-3.9751,10.312-4.0146,14.2822-0.0791
				c3.9648,3.9156,4.0044,10.3169,0.0786,14.2823L207.6221,561.9902l226.5893,226.5987l281.1529-281.1231
				c3.9453-3.9453,10.3369-3.9453,14.2822,0c3.9453,3.9453,3.9453,10.3369,0,14.2822l-288.294,288.2637
				C439.3799,811.9844,436.7954,812.9707,434.2114,812.9707L434.2114,812.9707z"/>
		</g>
		<g>
			<polyline fill="#FFFFFF" points="474.6904,277.5332 722.3867,277.5332 722.5049,514.9121 			"/>
			<path fill="#454545" d="M722.5049,525.0127c-5.5723,0-10.0996-4.5176-10.0996-10.0908l-0.1084-227.2891H474.6904
				c-5.5781,0-10.1001-4.5176-10.1001-10.0996c0-5.583,4.522-10.1006,10.1001-10.1006h257.7862l0.1289,247.4697
				c0,5.5831-4.5176,10.1104-10.0899,10.1104C722.5049,525.0127,722.5049,525.0127,722.5049,525.0127L722.5049,525.0127z"/>
		</g>
		<g>
			<path fill="#3BAFDA" d="M661.6094,383.2476c0,22.7841-18.4639,41.268-41.2676,41.268c-22.834,0-41.3076-18.4638-41.3276-41.2881
				c0.02-22.7841,18.4936-41.2675,41.3276-41.2675C643.1455,341.96,661.6094,360.4336,661.6094,383.2476z"/>
			<path fill="#454545" d="M620.3418,434.6152c-28.333,0-51.4033-23.0503-51.4277-51.3774
				c0.0244-28.3374,23.0947-51.3779,51.4277-51.3779c28.3223,0,51.3672,23.0503,51.3672,51.3877
				C671.709,411.5752,648.6641,434.6152,620.3418,434.6152L620.3418,434.6152z M620.3418,352.0596
				c-17.2022,0-31.2129,13.9863-31.2275,31.1782c0.0146,17.1816,14.0253,31.1777,31.2275,31.1777
				c17.1865,0,31.168-13.9858,31.168-31.1679C651.5098,366.0459,637.5283,352.0596,620.3418,352.0596L620.3418,352.0596z"/>
		</g>
		<g>
			<path fill="#454545" d="M613.0225,400.627c-2.584,0-5.168-0.9864-7.1407-2.959c-3.9453-3.9453-3.9453-10.3369,0-14.2823
				l145.9571-145.9472c3.9453-3.9453,10.3369-3.9453,14.2822,0c3.9453,3.9453,3.9453,10.3369,0,14.2822L620.1641,397.668
				C618.1914,399.6406,615.6074,400.627,613.0225,400.627L613.0225,400.627z"/>
		</g>
		<g>
			<path fill="#454545" d="M426.9424,718.0859c-2.5845,0-5.169-0.9863-7.1416-2.9589c-3.9453-3.9454-3.9453-10.336,0-14.2813
				L602.252,518.3945c3.9453-3.9453,10.3369-3.9453,14.2822,0c3.9453,3.9453,3.9453,10.336,0,14.2812L434.083,715.127
				C432.1104,717.0996,429.5264,718.0859,426.9424,718.0859L426.9424,718.0859z"/>
		</g>
		<g>
			<path fill="#454545" d="M339.3662,630.5195c-2.5845,0-5.1684-0.9863-7.1411-2.959c-3.9453-3.9453-3.9453-10.3359,0-14.2812
				l182.4507-182.4414c3.9453-3.9453,10.3369-3.9453,14.2822,0c3.9453,3.9453,3.9453,10.3369,0,14.2822L346.5068,627.5605
				C344.5342,629.5332,341.9502,630.5195,339.3662,630.5195L339.3662,630.5195z"/>
		</g>
		<g>
			<path fill="#454545" d="M382.6265,673.7803c-2.5845,0-5.1685-0.9864-7.1411-2.959c-3.9454-3.9453-3.9454-10.3369,0-14.2822
				l182.4511-182.4307c3.9453-3.9453,10.3364-3.9453,14.2818,0c3.9453,3.9453,3.9453,10.3369,0,14.2822L389.7676,670.8213
				C387.7949,672.7939,385.2104,673.7803,382.6265,673.7803L382.6265,673.7803z"/>
		</g>
		<g>
			<path fill="#454545" d="M295.5435,586.7471c-2.5845,0-5.1685-0.9865-7.1412-2.959c-3.9453-3.9453-3.9453-10.3369,0-14.2822
				l182.4707-182.461c3.9454-3.9453,10.337-3.9453,14.2823,0c3.9453,3.9453,3.9453,10.3369,0,14.2822l-182.4707,182.461
				C300.7119,585.7607,298.1279,586.7471,295.5435,586.7471L295.5435,586.7471z"/>
		</g>
	</g>
</g>
</svg>
