<?xml version="1.0" encoding="utf-8"?>
<!-- Generator: Adobe Illustrator 17.1.0, SVG Export Plug-In . SVG Version: 6.00 Build 0)  -->
<!DOCTYPE svg PUBLIC "-//W3C//DTD SVG 1.1//EN" "http://www.w3.org/Graphics/SVG/1.1/DTD/svg11.dtd">
<svg version="1.1" id="megaphone" xmlns="http://www.w3.org/2000/svg" xmlns:xlink="http://www.w3.org/1999/xlink" x="0px" y="0px"
	 viewBox="0 0 1010 1010" enable-background="new 0 0 1010 1010" xml:space="preserve">
<g id="megaphone-megaphone">
	<circle id="megaphone-label" fill="#ACAF48" cx="505" cy="505" r="505"/>
	<g id="megaphone-megaphone_1_">
		<g>
			<polyline fill="#BDC3C7" points="378.2964,557.9854 378.2964,755.3398 453.5332,710.8857 453.5332,557.9854 			"/>
			<path fill="#454545" d="M378.2964,765.4395c-1.7261,0-3.4522-0.4434-5.0054-1.3311c-3.1514-1.7949-5.0947-5.1387-5.0947-8.7686
				V557.9854c0-5.5831,4.5225-10.0997,10.1001-10.0997c5.5776,0,10.1001,4.5166,10.1001,10.0997v179.6591l55.0371-32.5185V557.9854
				c0-5.5831,4.5225-10.0997,10.0996-10.0997c5.5781,0,10.1006,4.5166,10.1006,10.0997v152.9003
				c0,3.5713-1.8892,6.875-4.9614,8.7002l-75.2373,44.4532C381.8521,764.9668,380.0718,765.4395,378.2964,765.4395
				L378.2964,765.4395z"/>
		</g>
		<g>
			<polyline fill="#3BAFDA" points="272.0098,514.6064 222.2002,514.6064 222.2002,396.0996 272.0098,396.0996 			"/>
			<polygon fill="#454545" points="272.0098,524.707 212.1001,524.707 212.1001,385.9995 272.0098,385.9995 272.0098,406.1992 
				232.2998,406.1992 232.2998,504.5068 272.0098,504.5068 272.0098,524.707 			"/>
		</g>
		<g>
			<polyline fill="#FFFFFF" points="747.4785,411.5254 787.7998,411.5254 787.7998,499.2197 747.4785,499.2197 			"/>
			<polygon fill="#454545" points="797.9004,509.3203 747.4785,509.3203 747.4785,489.1201 777.7002,489.1201 777.7002,421.6255 
				747.4785,421.6255 747.4785,401.4258 797.9004,401.4258 797.9004,509.3203 			"/>
		</g>
		<polyline fill="#FFFFFF" points="599.875,355.0186 277.9277,355.0186 277.9277,555.707 599.875,555.707 		"/>
		<polyline fill="#FFB933" points="599.875,555.707 729.459,656.0361 746.207,656.0361 746.207,455.3682 746.207,254.6602 
			729.459,254.6602 599.875,355.0186 		"/>
		<rect x="500.1279" y="360.2563" fill="#FC6E51" width="92.6455" height="192.6001"/>
		<g>
			<path fill="#454545" d="M746.207,666.1367h-16.748c-2.2393,0-4.4141-0.7402-6.1846-2.1113l-126.8515-98.2188H277.9277
				c-5.5781,0-10.1001-4.5175-10.1001-10.0996V355.0186c0-5.5821,4.522-10.0997,10.1001-10.0997h318.4952l126.8515-98.248
				c1.7704-1.3711,3.9453-2.1108,6.1846-2.1108h16.748c5.5772,0,10.0996,4.517,10.0996,10.1001v401.3759
				C756.3066,661.6191,751.7842,666.1367,746.207,666.1367L746.207,666.1367z M732.9111,645.9365h3.1953V264.7598h-3.1953
				l-126.8515,98.248c-1.7705,1.3711-3.9453,2.1113-6.1846,2.1113H288.0273v180.4883H599.875c2.2393,0,4.4141,0.7393,6.1846,2.1104
				L732.9111,645.9365L732.9111,645.9365z"/>
		</g>
		<g>
			<path fill="#454545" d="M593.7598,565.8066c-5.5782,0-10.0995-4.5175-10.0995-10.0996V355.0186
				c0-5.5821,4.5214-10.0997,10.0995-10.0997c5.5781,0,10.0996,4.5176,10.0996,10.0997V555.707
				C603.8594,561.2891,599.3379,565.8066,593.7598,565.8066L593.7598,565.8066z"/>
		</g>
		<g>
			<polygon fill="#454545" points="511.4014,555.707 491.2012,555.707 491.2012,355.0186 511.4014,355.0186 511.4014,555.707 			"/>
		</g>
	</g>
</g>
</svg>
