<?xml version="1.0" encoding="utf-8"?>
<!-- Generator: Adobe Illustrator 17.1.0, SVG Export Plug-In . SVG Version: 6.00 Build 0)  -->
<!DOCTYPE svg PUBLIC "-//W3C//DTD SVG 1.1//EN" "http://www.w3.org/Graphics/SVG/1.1/DTD/svg11.dtd">
<svg version="1.1" id="mobile-atm" xmlns="http://www.w3.org/2000/svg" xmlns:xlink="http://www.w3.org/1999/xlink" x="0px" y="0px"
	 viewBox="0 0 1010 1010" enable-background="new 0 0 1010 1010" xml:space="preserve">
<g id="mobile-atm-mobile-atm">
	<path id="mobile-atm-label" fill="#FFB933" d="M1010,505c0,278.9141-226.0957,505-505,505C226.0962,1010,0,783.9141,0,505
		C0,226.1055,226.0962,0,505,0C783.9043,0,1010,226.1055,1010,505z"/>
	<g id="mobile-atm-mobile-atm_1_">
		<g>
			<rect x="287.8501" y="222.2002" fill="#FFFFFF" width="434.3003" height="565.5996"/>
			<path fill="#454545" d="M732.25,797.9004h-454.5V212.0996h454.5V797.9004L732.25,797.9004z M297.9502,777.7002h414.0996V232.2998
				H297.9502V777.7002L297.9502,777.7002z"/>
		</g>
		<g>
			<rect x="358.5498" y="272.7197" fill="#3BAFDA" width="292.9004" height="100.9805"/>
			<path fill="#454545" d="M661.5498,383.7998H348.4502V262.6196h313.0996V383.7998L661.5498,383.7998z M368.6504,363.5996h272.6992
				v-80.7803H368.6504V363.5996L368.6504,363.5996z"/>
		</g>
		<g>
			<path fill="#454545" d="M547.1558,322.5293c0,7.9102-6.4312,14.3408-14.3609,14.3408c-7.8906,0-14.3214-6.4306-14.3214-14.3408
				c0-7.9102,6.4307-14.3413,14.3214-14.3413C540.7246,308.188,547.1558,314.6191,547.1558,322.5293z"/>
			<path fill="#454545" d="M602.7451,322.5293c0,7.9297-6.4111,14.3608-14.3017,14.3608c-7.9297,0-14.3809-6.4311-14.3809-14.3608
				c0-7.9102,6.4512-14.3613,14.3809-14.3613C596.334,308.168,602.7451,314.6191,602.7451,322.5293z"/>
			<path fill="#454545" d="M491.5469,322.5293c0,7.9297-6.4512,14.3408-14.3418,14.3408c-7.9297,0-14.3408-6.4111-14.3408-14.3408
				c0-7.9102,6.4111-14.3413,14.3408-14.3413C485.0957,308.188,491.5469,314.6191,491.5469,322.5293z"/>
			<path fill="#454545" d="M435.9375,322.5293c0,7.9297-6.4507,14.3608-14.3413,14.3608c-7.9302,0-14.3608-6.4311-14.3608-14.3608
				c0-7.9102,6.4306-14.3613,14.3608-14.3613C429.4868,308.168,435.9375,314.6191,435.9375,322.5293z"/>
		</g>
		<g>
			<g>
				<rect x="358.4912" y="438.8369" fill="#BDC3C7" width="71.7061" height="71.7256"/>
				<path fill="#454545" d="M440.2969,520.6631h-91.9063v-91.9258h91.9063V520.6631L440.2969,520.6631z M368.5908,500.4629h51.5059
					v-51.5254h-51.5059V500.4629L368.5908,500.4629z"/>
			</g>
			<g>
				<rect x="470.9326" y="438.8369" fill="#BDC3C7" width="71.7256" height="71.7256"/>
				<path fill="#454545" d="M552.7578,520.6631H460.832v-91.9258h91.9258V520.6631L552.7578,520.6631z M481.0322,500.4629h51.5259
					v-51.5254h-51.5259V500.4629L481.0322,500.4629z"/>
			</g>
			<g>
				<rect x="579.7832" y="438.8369" fill="#BDC3C7" width="71.7266" height="71.7256"/>
				<path fill="#454545" d="M661.6094,520.6631h-91.9258v-91.9258h91.9258V520.6631L661.6094,520.6631z M589.8838,500.4629h51.5254
					v-51.5254h-51.5254V500.4629L589.8838,500.4629z"/>
			</g>
		</g>
		<g>
			<g>
				<rect x="358.4912" y="554.4746" fill="#BDC3C7" width="71.7061" height="71.7256"/>
				<path fill="#454545" d="M440.2969,636.2998h-91.9063V544.374h91.9063V636.2998L440.2969,636.2998z M368.5908,616.0996h51.5059
					v-51.5254h-51.5059V616.0996L368.5908,616.0996z"/>
			</g>
			<g>
				<rect x="470.9326" y="554.4746" fill="#BDC3C7" width="71.7256" height="71.7256"/>
				<path fill="#454545" d="M552.7578,636.2998H460.832V544.374h91.9258V636.2998L552.7578,636.2998z M481.0322,616.0996h51.5259
					v-51.5254h-51.5259V616.0996L481.0322,616.0996z"/>
			</g>
			<g>
				<rect x="579.7832" y="554.4746" fill="#BDC3C7" width="71.7266" height="71.7256"/>
				<path fill="#454545" d="M661.6094,636.2998h-91.9258V544.374h91.9258V636.2998L661.6094,636.2998z M589.8838,616.0996h51.5254
					v-51.5254h-51.5254V616.0996L589.8838,616.0996z"/>
			</g>
		</g>
		<g>
			<g>
				<rect x="358.4912" y="671.1367" fill="#FC6E51" width="71.7061" height="71.7266"/>
				<path fill="#454545" d="M440.2969,752.9629h-91.9063v-91.9258h91.9063V752.9629L440.2969,752.9629z M368.5908,732.7627h51.5059
					v-51.5254h-51.5059V732.7627L368.5908,732.7627z"/>
			</g>
			<g>
				<rect x="470.9326" y="671.1367" fill="#BDC3C7" width="71.7256" height="71.7266"/>
				<path fill="#454545" d="M552.7578,752.9629H460.832v-91.9258h91.9258V752.9629L552.7578,752.9629z M481.0322,732.7627h51.5259
					v-51.5254h-51.5259V732.7627L481.0322,732.7627z"/>
			</g>
			<g>
				<rect x="579.7832" y="671.1367" fill="#ACAF48" width="71.7266" height="71.7266"/>
				<path fill="#454545" d="M661.6094,752.9629h-91.9258v-91.9258h91.9258V752.9629L661.6094,752.9629z M589.8838,732.7627h51.5254
					v-51.5254h-51.5254V732.7627L589.8838,732.7627z"/>
			</g>
		</g>
	</g>
</g>
</svg>
