<?xml version="1.0" encoding="utf-8"?>
<!-- Generator: Adobe Illustrator 17.1.0, SVG Export Plug-In . SVG Version: 6.00 Build 0)  -->
<!DOCTYPE svg PUBLIC "-//W3C//DTD SVG 1.1//EN" "http://www.w3.org/Graphics/SVG/1.1/DTD/svg11.dtd">
<svg version="1.1" id="money-pig" xmlns="http://www.w3.org/2000/svg" xmlns:xlink="http://www.w3.org/1999/xlink" x="0px" y="0px"
	 viewBox="0 0 1010 1010" enable-background="new 0 0 1010 1010" xml:space="preserve">
<g id="money-pig-money-pig">
	<circle id="money-pig-label" fill="#ACAF48" cx="505" cy="505" r="505"/>
	<g id="money-pig-money-pig_1_">
		<path fill="#FC6E51" d="M505,348.5288c24.3525,0,68.708,4.5371,90.9004,10.1001
			c50.4014-52.3643,124.1982-46.6831,129.0605-36.3955c2.9493,6.2632-21.5908,41.5635-38.1611,66.6953
			c26.6904,23.2383,49.2773,59.1602,60.6006,90.9004h40.3994v86.0078l-41.8994,19.4111
			c-15.9385,43.8516-49.3066,81.4502-92.7734,107.4502v70.1866c0,2.2695-0.8487,4.5175-2.584,6.2148
			c-1.7266,1.7354-7.1417,3.4717-9.3701,3.4717H557.374v-52.3545c0,0-39.019,0.0586-52.3545,0c-12.3877-0.0596-41.8891,0-41.8891,0
			v52.3545h-82.4468c-3.1563,0-6.3525-1.7363-9.2422-3.4922c-2.8896-1.7949-1.1738-4.1221-2.5937-6.9629v-41.8994
			c0,0-81.2539-65.6104-83.7793-157.1025c-0.2559-9.212,0.2763-22.0342,0-31.4248C293.4229,424.5947,375.3867,348.5288,505,348.5288
			z"/>
		<g>
			<path fill="#454545" d="M641.1729,782.6709H557.374c-5.5776,0-10.0996-4.5176-10.0996-10.0996v-42.2451
				c-12.5068,0.0195-33.2793,0.0302-42.2988-0.0098c-7.6934-0.0293-22.0249-0.0098-31.7451-0.0195v42.2744
				c0,5.582-4.5225,10.0996-10.1001,10.0996h-82.4468c-5.5586,0-10.2481-2.3867-14.4844-4.9609
				c-6.2485-3.876-6.6181-9.8438-6.7368-11.8067c-0.0049-0.0195-0.0049-0.0498-0.0049-0.0693
				c-0.4682-1.1836-0.7104-2.4453-0.7104-3.7178v-37.2344c-16.6441-14.6269-81.4409-76.874-83.7735-161.4911
				c-0.1279-4.6552-0.0693-10.209,0-15.8008c0.0293-2.4072,0.0591-4.8134,0.0743-7.1513
				c-34.3887-6.3223-61.2959-27.1436-62.8741-49.7901c-0.3945-5.6416,0.4981-24.5791,28.5596-31.5918
				c5.3604-1.292,10.8936,1.9434,12.2451,7.3584c1.3516,5.4151-1.9434,10.8985-7.353,12.25
				c-5.1538,1.2823-13.7349,4.3692-13.3008,10.583c0.7007,10.0215,17.3545,25.2305,43.7681,30.8125
				C289.8027,409.3359,378.4839,338.4287,505,338.4287c22.6563,0,63.0068,3.8076,87.7188,9.104
				c42.5507-40.9429,96.9707-44.8979,120.416-41.0312c11.3535,1.854,18.208,5.5922,20.9599,11.4116
				c4.4092,9.3799-2.4756,21.8672-32.1844,66.5181l-1.9229,2.8999c22.2217,21.4824,42.3232,51.9003,54.3955,82.3974h33.417
				c5.583,0,10.1006,4.5176,10.1006,10.1006v86.0078c0,3.9346-2.2891,7.5059-5.8594,9.1631l-38.1406,17.6748
				c-16.2852,41.7705-48.2422,79.0049-90.6738,105.6748v64.5352c0,5.1191-1.9971,9.8936-5.627,13.4345
				C653.5762,780.373,645.3105,782.6709,641.1729,782.6709L641.1729,782.6709z M379.3174,761.9189
				c0.833,0.4141,1.2627,0.5322,1.4697,0.5518h72.2432v-42.2539c0-5.5723,4.5078-10.0898,10.0805-10.0996
				c-0.0102,0,29.5455-0.0693,41.9585,0c13.3252,0.0683,52.2852,0,52.2901,0c0.0049,0,0.0097,0,0.0146,0
				c2.6778,0,5.2422,1.0644,7.1363,2.9492c1.8989,1.8926,2.9638,4.4678,2.9638,7.1504v42.2539h73.6988
				c0.2411-0.0488,1.0947-0.3252,1.8544-0.6309v-69.1417c0-3.5507,1.8633-6.8447,4.9161-8.6699
				c42.2744-25.29,73.6932-61.5967,88.4687-102.2334c0.918-2.5244,2.8018-4.5859,5.2481-5.7109l36.04-16.6983v-69.457h-30.2998
				c-4.2715,0-8.0781-2.6826-9.5088-6.707c-11.4512-32.0947-34.1064-66.1133-57.7246-86.6787
				c-3.8115-3.3135-4.5811-8.9458-1.7998-13.1768l6.7217-10.1299c9.2715-13.9267,23.8935-35.9023,28.5888-46.1206
				c-15.9492-4.1821-70.4531-3.0776-110.498,38.5161c-2.5108,2.6036-6.2295,3.6988-9.7354,2.7911
				c-22.0097-5.5137-65.6157-9.794-88.4443-9.794c-119.0498,0-201.3535,68.0073-209.8213,173.3174
				c0.1231,4.7744,0.0591,10.3467-0.0049,15.8799c-0.0644,5.3163-0.1333,10.584-0.0097,15.0117
				c2.372,85.8398,79.2509,148.8965,80.0302,149.5176c2.3721,1.9238,3.753,4.8134,3.753,7.8613v40.124
				C379.1055,760.8926,379.2285,761.4258,379.3174,761.9189L379.3174,761.9189z"/>
		</g>
		<path fill="#454545" d="M625.9043,451.9551c0,11.6191,9.4492,21.0683,21.0684,21.0683c11.6484,0,21.0673-9.4492,21.0673-21.0683
			c0-11.6387-9.4189-21.1074-21.0673-21.1074C635.3535,430.8477,625.9043,440.3164,625.9043,451.9551z"/>
		<g>
			<path fill="#454545" d="M570.3145,398.585h-130.629c-5.5781,0-10.1001-4.5176-10.1001-10.1001
				c0-5.5826,4.522-10.1001,10.1001-10.1001h130.629c5.5781,0,10.1005,4.5175,10.1005,10.1001
				C580.415,394.0674,575.8926,398.585,570.3145,398.585L570.3145,398.585z"/>
		</g>
		<g>
			<path fill="#FFFFFF" d="M429.25,313.1787c0,41.8399,33.9102,75.75,75.75,75.75s75.75-33.9101,75.75-75.75
				c0-41.8398-33.9102-75.75-75.75-75.75S429.25,271.3389,429.25,313.1787z"/>
			<path fill="#454545" d="M505,399.0288c-47.3389,0-85.8496-38.5161-85.8496-85.8501S457.6611,227.3291,505,227.3291
				s85.8496,38.5156,85.8496,85.8496S552.3389,399.0288,505,399.0288L505,399.0288z M505,247.5288
				c-36.1982,0-65.6499,29.4517-65.6499,65.6499c0,36.1983,29.4517,65.6504,65.6499,65.6504s65.6504-29.4521,65.6504-65.6504
				C570.6504,276.9805,541.1982,247.5288,505,247.5288L505,247.5288z"/>
		</g>
		<circle fill="#FFB933" cx="505" cy="313.1787" r="45.4502"/>
	</g>
</g>
</svg>
