<?xml version="1.0" encoding="utf-8"?>
<!-- Generator: Adobe Illustrator 17.1.0, SVG Export Plug-In . SVG Version: 6.00 Build 0)  -->
<!DOCTYPE svg PUBLIC "-//W3C//DTD SVG 1.1//EN" "http://www.w3.org/Graphics/SVG/1.1/DTD/svg11.dtd">
<svg version="1.1" id="sign-open" xmlns="http://www.w3.org/2000/svg" xmlns:xlink="http://www.w3.org/1999/xlink" x="0px" y="0px"
	 viewBox="0 0 1010 1010" enable-background="new 0 0 1010 1010" xml:space="preserve">
<g id="sign-open-sign-open">
	<circle id="sign-open-label" fill="#FC6E51" cx="505" cy="505" r="505"/>
	<g id="sign-open-sign-open_1_">
		<g>
			<g>
				<path fill="#454545" d="M339.4697,465.9609c-2.3379,0-4.6855-0.8086-6.5937-2.456c-4.2217-3.6397-4.69-10.0303-1.0508-14.252
					l139.1514-161.2646c3.6396-4.2217,10.0214-4.6856,14.2475-1.0459c4.2217,3.6396,4.69,10.0215,1.0503,14.2427L347.1235,462.4492
					C345.126,464.7676,342.3052,465.9609,339.4697,465.9609L339.4697,465.9609z"/>
			</g>
		</g>
		<g>
			<g>
				<path fill="#454545" d="M670.5303,465.9609c-2.835,0-5.6562-1.1933-7.6533-3.5117L523.7256,301.1851
					c-3.6397-4.2212-3.1709-10.6031,1.0503-14.2427c4.2163-3.6494,10.5981-3.1758,14.2475,1.0459l139.1514,161.2646
					c3.6397,4.2217,3.1709,10.6123-1.0508,14.252C675.2158,465.1523,672.8682,465.9609,670.5303,465.9609L670.5303,465.9609z"/>
			</g>
		</g>
		<g>
			<path fill="#FFB933" d="M773.2129,678.5742c0,24.875-20.6152,45.2324-45.8652,45.2324H283.7964
				c-25.2305,0-45.8843-20.3574-45.8843-45.2324V501.3506c0-24.8955,20.6538-45.2529,45.8843-45.2529h443.5513
				c25.25,0,45.8652,20.3574,45.8652,45.2529V678.5742z"/>
			<path fill="#454545" d="M727.3477,733.9072H283.7964c-30.8721,0-55.9839-24.8164-55.9839-55.333V501.3506
				c0-30.5166,25.1118-55.3526,55.9839-55.3526h443.5513c30.8574,0,55.9648,24.836,55.9648,55.3526v177.2236
				C783.3125,709.0908,758.2051,733.9072,727.3477,733.9072L727.3477,733.9072z M283.7964,466.1973
				c-19.7319,0-35.7842,15.7617-35.7842,35.1533v177.2236c0,19.3711,16.0522,35.1328,35.7842,35.1328h443.5513
				c19.7216,0,35.7646-15.7617,35.7646-35.1328V501.3506c0-19.3916-16.043-35.1533-35.7646-35.1533H283.7964L283.7964,466.1973z"/>
		</g>
		<g>
			<path fill="#454545" d="M404.3604,592.3691c0,28.2871-22.9717,50.2139-52.6011,50.2139
				c-29.6343,0-52.6011-21.9268-52.6011-50.2139c0-28.4462,22.9668-49.9482,52.6011-49.9482
				C381.3887,542.4209,404.3604,564.0713,404.3604,592.3691z M316.1729,592.3691c0,19.6573,16.3037,35.2217,35.7246,35.2217
				c19.4257,0,35.3056-15.5644,35.3056-35.2217c0-19.6678-15.8799-34.9453-35.3056-34.9453
				C332.3335,557.4238,316.1729,572.7012,316.1729,592.3691z"/>
			<path fill="#454545" d="M463.229,542.8555c24.9492,0,39.271,12.3086,39.271,33.8105c0,22.3506-14.3218,35.3604-39.271,35.3604
				h-22.8286v29.8564h-16.728v-99.0273H463.229z M440.4004,597.0342h22.1235c15.3028,0,23.9527-6.5098,23.9527-19.9531
				c0-13.0098-8.6499-19.2334-23.9527-19.2334h-22.1235V597.0342z"/>
			<path fill="#454545" d="M537.2529,557.8477v26.7392h48.4932v14.9922h-48.4932v27.3018h55.8662v15.0019h-72.5942v-99.0273h70.8921
				v14.9922H537.2529z"/>
			<path fill="#454545" d="M684.5908,641.8828l-52.8867-71.0156v71.0156h-16.7383v-99.0273h16.4522l53.1727,71.1533v-71.1533
				h16.4424v99.0273H684.5908z"/>
		</g>
		<g>
			<g>
				<polygon fill="#454545" points="298.5122,509.1523 278.3125,509.1523 278.3125,488.9521 298.5122,488.9521 298.5122,509.1523 
									"/>
			</g>
			<g>
				<polygon fill="#454545" points="298.5122,690.9521 278.3125,690.9521 278.3125,670.752 298.5122,670.752 298.5122,690.9521 				
					"/>
			</g>
			<g>
				<polygon fill="#454545" points="732.8125,509.1523 712.6123,509.1523 712.6123,488.9521 732.8125,488.9521 732.8125,509.1523 
									"/>
			</g>
			<g>
				<polygon fill="#454545" points="732.8125,690.9521 712.6123,690.9521 712.6123,670.752 732.8125,670.752 732.8125,690.9521 				
					"/>
			</g>
		</g>
		<g>
			<path fill="#FFFFFF" d="M536.7007,277.4736c0,17.4976-14.2031,31.6807-31.6909,31.6807
				c-17.4971,0-31.6905-14.1831-31.6905-31.6807c0-17.4775,14.1934-31.6806,31.6905-31.6806
				C522.4976,245.793,536.7007,259.9961,536.7007,277.4736z"/>
			<path fill="#454545" d="M505.0098,319.2549c-23.0454,0-41.7906-18.7403-41.7906-41.7813
				c0-23.0405,18.7452-41.7807,41.7906-41.7807c23.0459,0,41.791,18.7402,41.791,41.7807
				C546.8008,300.5146,528.0557,319.2549,505.0098,319.2549L505.0098,319.2549z M505.0098,255.8926
				c-11.9048,0-21.5909,9.686-21.5909,21.581c0,11.9053,9.6861,21.5811,21.5909,21.5811c11.9052,0,21.5908-9.6758,21.5908-21.5811
				C526.6006,265.5786,516.915,255.8926,505.0098,255.8926L505.0098,255.8926z"/>
		</g>
	</g>
</g>
</svg>
