<?xml version="1.0" encoding="utf-8"?>
<!-- Generator: Adobe Illustrator 17.1.0, SVG Export Plug-In . SVG Version: 6.00 Build 0)  -->
<!DOCTYPE svg PUBLIC "-//W3C//DTD SVG 1.1//EN" "http://www.w3.org/Graphics/SVG/1.1/DTD/svg11.dtd">
<svg version="1.1" id="telephone-support" xmlns="http://www.w3.org/2000/svg" xmlns:xlink="http://www.w3.org/1999/xlink" x="0px"
	 y="0px" viewBox="0 0 1010 1010" enable-background="new 0 0 1010 1010" xml:space="preserve">
<g id="telephone-support-telephone-support">
	<circle id="telephone-support-label" fill="#ACAF48" cx="505" cy="505" r="505"/>
	<g id="telephone-support-telephone-support_1_">
		<g>
			<path fill="#454545" d="M230.3916,747.4004c-0.9619,0-1.9385-0.1387-2.9048-0.4248c-5.3462-1.6074-8.3789-7.2295-6.7759-12.5752
				l20.6143-68.7578c1.6768-5.6211,6.7461-9.419,12.6152-9.4286c0.0146,0,0.0293,0,0.0439,0c5.8589,0,10.9434,3.7675,12.6548,9.3896
				l10.9629,36.5332l10.9482-36.4941c1.6768-5.6211,6.7515-9.419,12.625-9.4286c0.0151,0,0.0298,0,0.0444,0
				c5.8638,0,10.9532,3.7675,12.6646,9.3896l10.9531,36.544l10.9385-36.5049c1.7309-5.6709,6.8105-9.4286,12.6841-9.4286
				c0.0395,0,0.0839,0,0.123,0c5.8984,0.0497,10.9434,3.8954,12.561,9.5673l10.9234,36.3663l10.9536-36.5049
				c1.6816-5.6309,6.771-9.4385,12.6645-9.4385c5.8931,0,10.9825,3.8076,12.669,9.459l10.9531,36.5039l10.9585-36.5244
				c1.6275-5.5723,6.687-9.3994,12.5708-9.4286c0.0244,0,0.0542,0,0.0791,0c5.8682,0,10.9531,3.7578,12.6641,9.3896l7.1362,23.7608
				c6.7808,22.6259,27.2227,37.8359,50.8648,37.8359c20.2841,0,45.7162-5.3565,51.6738-30.8428
				c1.2676-5.4345,6.7217-8.7685,12.1318-7.5351c5.4297,1.2714,8.8076,6.6971,7.5352,12.1308
				c-6.9976,29.9551-32.3316,46.4473-71.3408,46.4473c-32.6377,0-60.8565-20.9893-70.2168-52.2363l-0.4336-1.4406l-10.9483,36.4942
				c-1.6767,5.6416-6.7715,9.4395-12.6748,9.4395c-5.9028,0-10.9971-3.7979-12.6787-9.459l-10.9434-36.4746l-10.9482,36.4942
				c-1.6768,5.6416-6.7666,9.4395-12.6645,9.4395c-5.8985,0-10.9878-3.7979-12.6695-9.459l-10.9531-36.4746l-10.9385,36.4942
				c-1.6767,5.6416-6.7715,9.4395-12.6743,9.4395s-10.9976-3.7979-12.6792-9.459l-10.9385-36.4941l-10.9531,36.5137
				c-1.6768,5.6416-6.7661,9.4395-12.6645,9.4395c-5.898,0-10.9878-3.7979-12.6695-9.459l-10.9385-36.4638l-13.9316,46.4648
				C238.751,744.5791,234.7363,747.4004,230.3916,747.4004L230.3916,747.4004z"/>
		</g>
		<g>
			<path fill="#FFFFFF" d="M606.8281,680.5859l36.0996-36.08c14.4004-14.42,12.9219-38.1905-3.1357-50.6778l-56.5166-43.9902
				c-12.3096-9.5869-29.5508-9.5274-41.8008,0.1484l-12.5459,9.9219c-13.4932,10.6426-32.8252,9.5186-44.9766-2.6035
				L382.873,456.1963c-12.1513-12.1514-13.2763-31.4639-2.624-44.937l9.9033-12.5757c9.6856-12.2402,9.7647-29.4815,0.1773-41.771
				l-44.0103-56.5166c-12.4668-16.0972-36.2373-17.5566-50.6377-3.1763l-36.1191,36.0996
				c-24.8555,24.8853-24.7568,94.6485,113.9404,233.3262C512.2197,705.3623,583.9453,703.4785,606.8281,680.5859z"/>
			<path fill="#454545" d="M573.2393,702.3936c-0.0049,0-0.0049,0-0.0098,0c-35.7051-0.0098-100.5811-22.3204-206.8677-128.6075
				C203.2231,410.6772,232.3296,346.29,252.416,326.1787l36.1245-36.0996c8.3101-8.2949,19.3369-12.8618,31.0645-12.8618
				c13.685,0,26.3349,6.1938,34.6987,16.9946l43.9951,56.4966c12.4776,15.9985,12.3887,38.2993-0.2265,54.2383l-9.8877,12.5659
				c-7.4864,9.459-6.6924,23.0205,1.8291,31.543l101.0791,101.1084c8.2949,8.2656,22.3354,9.1035,31.582,1.8144l12.5366-9.9121
				c15.3867-12.1621,38.812-12.2402,54.2672-0.1973l56.5176,43.9903c9.9268,7.7226,16.0762,19.3613,16.8652,31.9277
				c0.7891,12.5947-3.8711,24.9336-12.787,33.8604l-36.1046,36.0791C607.2822,694.4141,594.791,702.3936,573.2393,702.3936
				L573.2393,702.3936z M319.605,297.417c-6.3374,0-12.2945,2.4658-16.7876,6.9541l-36.1143,36.0898
				c-24.229,24.2637-8.9311,96.1866,113.9405,219.043C487.3892,666.2451,547.126,682.1934,573.2344,682.1934c0,0,0,0,0.0049,0
				c14.6318,0,22.4589-4.7539,26.4482-8.7481l36.0996-36.0801c4.8184-4.8232,7.3379-11.5009,6.9141-18.3163
				c-0.4287-6.7851-3.7481-13.0781-9.1084-17.2509l-56.5215-43.9903c-8.4234-6.5586-20.9551-6.499-29.3389,0.1084l-12.541,9.9131
				c-7.7422,6.1152-17.4282,9.4688-27.2817,9.4688c-11.7471,0-22.7891-4.5567-31.0889-12.8418L375.7319,463.3379
				c-15.7715-15.7715-17.2358-40.8545-3.4077-58.3418l9.8926-12.5659c6.8306-8.6304,6.8848-20.6734,0.1484-29.3037l-44.0151-56.5264
				C333.8228,300.751,326.9922,297.417,319.605,297.417L319.605,297.417z"/>
		</g>
		<g>
			<g>
				<g>
					<path fill="#FFB933" d="M779.6133,294.5566v144.2608c0,11.9053-9.9619,21.8467-21.877,21.8467H631.0137l-43.7149,48.0839
						v-48.0839h-39.334c-11.8955,0-21.8769-9.9414-21.8769-21.8467V294.5566c0-11.8945,9.9814-21.8564,21.8769-21.8564h209.7715
						C769.6514,272.7002,779.6133,282.6621,779.6133,294.5566z"/>
					<path fill="#454545" d="M587.2988,517.8418c-1.0995,0-2.209-0.207-3.2793-0.6113c-3.5009-1.3615-5.8094-4.7246-5.8094-8.4825
						v-38.9902h-30.2452c-16.7876,0-30.9658-14.1728-30.9658-30.9404V294.5566c0-16.7773,14.1782-30.9506,30.9658-30.9506h209.7715
						c17.0742,0,30.9668,13.8872,30.9668,30.9506v144.2608c0,17.0635-13.8926,30.9404-30.9668,30.9404H635.0332l-41.0068,45.1055
						C592.2705,516.7969,589.8096,517.8418,587.2988,517.8418L587.2988,517.8418z M547.9648,281.7939
						c-6.9292,0-12.788,5.8389-12.788,12.7627v144.2608c0,6.914,5.8588,12.7529,12.788,12.7529h39.334
						c5.0215,0,9.0899,4.0742,9.0899,9.0938v24.5703l27.8984-30.6856c1.7207-1.8935,4.167-2.9785,6.7266-2.9785h126.7226
						c6.9297,0,12.7881-5.8389,12.7881-12.7529V294.5566c0-6.9238-5.8584-12.7627-12.7881-12.7627H547.9648L547.9648,281.7939z"/>
				</g>
			</g>
			<g>
				<path fill="#454545" d="M613.2939,345.9248c0,7.5752-5.5478,15.5449-13.2216,23.4155l-15.6485,16.3531h31.2969v13.3256H563.731
					v-10.8989l25.5405-27.0552c4.3398-4.4482,7.3681-9.3896,7.3681-12.8222c0-4.4385-3.4326-7.0718-9.2861-7.0718
					c-5.8535,0-13.0244,3.4326-19.2827,8.8965l-6.1548-11.9151c8.5811-6.5683,17.9658-10.4941,27.7598-10.4941
					C603.5049,327.6582,613.2939,334.8188,613.2939,345.9248z"/>
				<path fill="#454545" d="M657.0371,370.1494v-15.5449h14.8399v15.5449h9.7939v12.9209h-9.7939v15.9487h-14.8399v-15.9487
					h-33.6133v-11.3037l22.9171-43.4082h15.3428l-21.6055,41.791H657.0371z"/>
				<path fill="#454545" d="M746.71,364.9019v34.1171h-15.545v-29.58c0-6.8648-4.039-11.106-10.7021-11.106
					c-7.7715,0.1084-12.5156,5.957-12.5156,13.9365v26.7495h-15.545v-74.9018h15.545v30.1816
					c3.8359-6.7563,10.2968-10.0898,18.7744-10.1884C738.9375,344.1104,746.71,352.1782,746.71,364.9019z"/>
			</g>
		</g>
	</g>
</g>
</svg>
