<?xml version="1.0" encoding="utf-8"?>
<!-- Generator: Adobe Illustrator 17.1.0, SVG Export Plug-In . SVG Version: 6.00 Build 0)  -->
<!DOCTYPE svg PUBLIC "-//W3C//DTD SVG 1.1//EN" "http://www.w3.org/Graphics/SVG/1.1/DTD/svg11.dtd">
<svg version="1.1" id="wallet" xmlns="http://www.w3.org/2000/svg" xmlns:xlink="http://www.w3.org/1999/xlink" x="0px" y="0px"
	 viewBox="0 0 1010 1010" enable-background="new 0 0 1010 1010" xml:space="preserve">
<g id="wallet-wallet">
	<path id="wallet-label" fill="#3BAFDA" d="M1010,505c0,278.9043-226.1055,505-505,505C226.0859,1010,0,783.9043,0,505
		S226.0859,0,505,0C783.8945,0,1010,226.0957,1010,505z"/>
	<g id="wallet-wallet_1_">
		<g>
			<path fill="#FFB933" d="M757.5,595.9004h-101c-11.165,0-20.2002-9.0449-20.2002-20.2002v-60.6006
				c0-11.1553,9.0352-20.1992,20.2002-20.1992h101c11.1455,0,20.2002,9.0439,20.2002,20.1992v60.6006
				C777.7002,586.8555,768.6455,595.9004,757.5,595.9004z"/>
			<path fill="#454545" d="M757.5,606h-101c-16.708,0-30.2998-13.5918-30.2998-30.2998v-60.6006
				c0-16.708,13.5918-30.2998,30.2998-30.2998h101c16.709,0,30.2998,13.5918,30.2998,30.2998v60.6006
				C787.7998,592.4082,774.209,606,757.5,606L757.5,606z M656.5,505c-5.5674,0-10.0996,4.5371-10.0996,10.0996v60.6006
				c0,5.5625,4.5322,10.0996,10.0996,10.0996h101c5.5684,0,10.0996-4.5371,10.0996-10.0996v-60.6006
				c0-5.5625-4.5312-10.0996-10.0996-10.0996H656.5L656.5,505z"/>
		</g>
		<g>
			<path fill="#454545" d="M686.7998,565.5996c-11.1406,0-20.2002-9.0547-20.2002-20.1992c0-11.1465,9.0596-20.2002,20.2002-20.2002
				c11.1406,0,20.2002,9.0537,20.2002,20.2002C707,556.5449,697.9404,565.5996,686.7998,565.5996L686.7998,565.5996z"/>
		</g>
		<g>
			<path fill="#ACAF48" d="M656.5,595.9004c-11.165,0-20.2002-9.0449-20.2002-20.2002v-60.6006
				c0-11.1553,9.0352-20.1992,20.2002-20.1992h101V373.7002c0-22.311-18.0889-40.4004-40.4004-40.4004H272.7002
				c-22.3105,0-40.4004-18.0889-40.4004-40.3999v424.1997c0,22.3106,18.0898,40.4004,40.4004,40.4004h444.3994
				c22.3115,0,40.4004-18.0898,40.4004-40.4004V595.9004H656.5z"/>
			<path fill="#454545" d="M717.0996,767.5996H272.7002c-27.8442,0-50.5-22.6562-50.5-50.5V292.8999
				c0-5.5825,4.5225-10.1001,10.0996-10.1001c5.5781,0,10.1006,4.5176,10.1006,10.1001c0,16.7085,13.5913,30.3003,30.2998,30.3003
				h444.3994c27.8447,0,50.5,22.6558,50.5,50.5v121.2002c0,5.582-4.5215,10.0996-10.0996,10.0996h-101
				c-5.5674,0-10.0996,4.5371-10.0996,10.0996v60.6006c0,5.5625,4.5322,10.0996,10.0996,10.0996h101
				c5.5781,0,10.0996,4.5176,10.0996,10.1006v121.1992C767.5996,744.9434,744.9443,767.5996,717.0996,767.5996L717.0996,767.5996z
				 M242.4004,333.2803v383.8193c0,16.709,13.5913,30.3008,30.2998,30.3008h444.3994c16.709,0,30.3008-13.5918,30.3008-30.3008V606
				H656.5c-16.708,0-30.2998-13.5918-30.2998-30.2998v-60.6006c0-16.708,13.5918-30.2998,30.2998-30.2998h90.9004V373.7002
				c0-16.709-13.5918-30.3003-30.3008-30.3003H272.7002C261.3428,343.3999,250.8477,339.6318,242.4004,333.2803L242.4004,333.2803z"
				/>
		</g>
		<g>
			<g>
				<g>
					<line fill="none" x1="717.0996" y1="454.5" x2="717.0996" y2="454.5"/>
				</g>
				<g>
					<path fill="#454545" d="M717.0996,424.2002c-5.5576,0-10.0996-4.5474-10.0996-10.1006C707,408.5371,711.542,404,717.0996,404
						c5.5536,0,10.1006,4.5371,10.1006,10.0996C727.2002,419.6528,722.6533,424.2002,717.0996,424.2002L717.0996,424.2002z"/>
				</g>
				<g>
					<line fill="none" x1="717.0996" y1="373.7002" x2="717.0996" y2="373.7002"/>
				</g>
				<g>
					<path fill="#454545" d="M676.7002,383.7998c-5.5576,0-10.1006-4.5469-10.1006-10.0996c0-5.5635,4.543-10.1006,10.1006-10.1006
						c5.5527,0,10.0996,4.5371,10.0996,10.1006C686.7998,379.2529,682.2529,383.7998,676.7002,383.7998L676.7002,383.7998z
						 M636.2998,383.7998c-5.5576,0-10.0996-4.5469-10.0996-10.0996c0-5.5635,4.542-10.1006,10.0996-10.1006
						c5.5537,0,10.1006,4.5371,10.1006,10.1006C646.4004,379.2529,641.8535,383.7998,636.2998,383.7998L636.2998,383.7998z
						 M595.9004,383.7998c-5.5586,0-10.1006-4.5469-10.1006-10.0996c0-5.5635,4.542-10.1006,10.1006-10.1006
						c5.5527,0,10.0996,4.5371,10.0996,10.1006C606,379.2529,601.4531,383.7998,595.9004,383.7998L595.9004,383.7998z
						 M555.5,383.7998c-5.5576,0-10.0996-4.5469-10.0996-10.0996c0-5.5635,4.542-10.1006,10.0996-10.1006
						c5.5532,0,10.1001,4.5371,10.1001,10.1006C565.6001,379.2529,561.0532,383.7998,555.5,383.7998L555.5,383.7998z
						 M515.1001,383.7998c-5.5581,0-10.1001-4.5469-10.1001-10.0996c0-5.5635,4.542-10.1006,10.1001-10.1006
						c5.5532,0,10.1001,4.5371,10.1001,10.1006C525.2002,379.2529,520.6533,383.7998,515.1001,383.7998L515.1001,383.7998z
						 M474.7002,383.7998c-5.5581,0-10.1001-4.5469-10.1001-10.0996c0-5.5635,4.542-10.1006,10.1001-10.1006
						c5.5527,0,10.0996,4.5371,10.0996,10.1006C484.7998,379.2529,480.2529,383.7998,474.7002,383.7998L474.7002,383.7998z
						 M434.2998,383.7998c-5.5576,0-10.0996-4.5469-10.0996-10.0996c0-5.5635,4.542-10.1006,10.0996-10.1006
						c5.5532,0,10.1006,4.5371,10.1006,10.1006C444.4004,379.2529,439.853,383.7998,434.2998,383.7998L434.2998,383.7998z
						 M393.9004,383.7998c-5.5586,0-10.1006-4.5469-10.1006-10.0996c0-5.5635,4.542-10.1006,10.1006-10.1006
						c5.5527,0,10.0996,4.5371,10.0996,10.1006C404,379.2529,399.4531,383.7998,393.9004,383.7998L393.9004,383.7998z
						 M353.5,383.7998c-5.5576,0-10.0996-4.5469-10.0996-10.0996c0-5.5635,4.542-10.1006,10.0996-10.1006
						c5.5532,0,10.1001,4.5371,10.1001,10.1006C363.6001,379.2529,359.0532,383.7998,353.5,383.7998L353.5,383.7998z
						 M313.1001,383.7998c-5.5581,0-10.1001-4.5469-10.1001-10.0996c0-5.5635,4.542-10.1006,10.1001-10.1006
						c5.5532,0,10.1001,4.5371,10.1001,10.1006C323.2002,379.2529,318.6533,383.7998,313.1001,383.7998L313.1001,383.7998z"/>
				</g>
				<g>
					<line fill="none" x1="272.7002" y1="373.7002" x2="272.7002" y2="373.7002"/>
				</g>
			</g>
		</g>
		<g>
			<g>
				<g>
					<line fill="none" x1="717.0996" y1="636.2998" x2="717.0996" y2="636.2998"/>
				</g>
				<g>
					<path fill="#454545" d="M717.0996,686.7998c-5.5576,0-10.0996-4.5469-10.0996-10.0996c0-5.5635,4.542-10.1006,10.0996-10.1006
						c5.5536,0,10.1006,4.5371,10.1006,10.1006C727.2002,682.2529,722.6533,686.7998,717.0996,686.7998L717.0996,686.7998z"/>
				</g>
				<g>
					<line fill="none" x1="717.0996" y1="717.0996" x2="717.0996" y2="717.0996"/>
				</g>
				<g>
					<path fill="#454545" d="M676.7002,727.2002c-5.5576,0-10.1006-4.5479-10.1006-10.1006c0-5.5625,4.543-10.0996,10.1006-10.0996
						c5.5527,0,10.0996,4.5371,10.0996,10.0996C686.7998,722.6523,682.2529,727.2002,676.7002,727.2002L676.7002,727.2002z
						 M636.2998,727.2002c-5.5576,0-10.0996-4.5479-10.0996-10.1006c0-5.5625,4.542-10.0996,10.0996-10.0996
						c5.5537,0,10.1006,4.5371,10.1006,10.0996C646.4004,722.6523,641.8535,727.2002,636.2998,727.2002L636.2998,727.2002z
						 M595.9004,727.2002c-5.5586,0-10.1006-4.5479-10.1006-10.1006c0-5.5625,4.542-10.0996,10.1006-10.0996
						C601.4531,707,606,711.5371,606,717.0996C606,722.6523,601.4531,727.2002,595.9004,727.2002L595.9004,727.2002z
						 M555.5,727.2002c-5.5576,0-10.0996-4.5479-10.0996-10.1006c0-5.5625,4.542-10.0996,10.0996-10.0996
						c5.5532,0,10.1001,4.5371,10.1001,10.0996C565.6001,722.6523,561.0532,727.2002,555.5,727.2002L555.5,727.2002z
						 M515.1001,727.2002c-5.5581,0-10.1001-4.5479-10.1001-10.1006C505,711.5371,509.542,707,515.1001,707
						c5.5532,0,10.1001,4.5371,10.1001,10.0996C525.2002,722.6523,520.6533,727.2002,515.1001,727.2002L515.1001,727.2002z
						 M474.7002,727.2002c-5.5581,0-10.1001-4.5479-10.1001-10.1006c0-5.5625,4.542-10.0996,10.1001-10.0996
						c5.5527,0,10.0996,4.5371,10.0996,10.0996C484.7998,722.6523,480.2529,727.2002,474.7002,727.2002L474.7002,727.2002z
						 M434.2998,727.2002c-5.5576,0-10.0996-4.5479-10.0996-10.1006c0-5.5625,4.542-10.0996,10.0996-10.0996
						c5.5532,0,10.1006,4.5371,10.1006,10.0996C444.4004,722.6523,439.853,727.2002,434.2998,727.2002L434.2998,727.2002z
						 M393.9004,727.2002c-5.5586,0-10.1006-4.5479-10.1006-10.1006c0-5.5625,4.542-10.0996,10.1006-10.0996
						C399.4531,707,404,711.5371,404,717.0996C404,722.6523,399.4531,727.2002,393.9004,727.2002L393.9004,727.2002z
						 M353.5,727.2002c-5.5576,0-10.0996-4.5479-10.0996-10.1006c0-5.5625,4.542-10.0996,10.0996-10.0996
						c5.5532,0,10.1001,4.5371,10.1001,10.0996C363.6001,722.6523,359.0532,727.2002,353.5,727.2002L353.5,727.2002z
						 M313.1001,727.2002c-5.5581,0-10.1001-4.5479-10.1001-10.1006C303,711.5371,307.542,707,313.1001,707
						c5.5532,0,10.1001,4.5371,10.1001,10.0996C323.2002,722.6523,318.6533,727.2002,313.1001,727.2002L313.1001,727.2002z"/>
				</g>
				<g>
					<line fill="none" x1="272.7002" y1="717.0996" x2="272.7002" y2="717.0996"/>
				</g>
			</g>
		</g>
		<g>
			<path fill="#818336" d="M717.0996,333.2998H272.7002c-22.3105,0-40.4004-18.0889-40.4004-40.3999l0,0
				c0-22.311,18.0898-40.3999,40.4004-40.3999h404c22.3105,0,40.3994,18.0889,40.3994,40.3999V333.2998z"/>
			<path fill="#454545" d="M717.0996,343.3999H272.7002c-27.8442,0-50.5-22.6558-50.5-50.5c0-27.8442,22.6558-50.5,50.5-50.5h404
				c27.8437,0,50.5,22.6558,50.5,50.5v40.3999C727.2002,338.8828,722.6777,343.3999,717.0996,343.3999L717.0996,343.3999z
				 M272.7002,262.5996c-16.7085,0-30.2998,13.5918-30.2998,30.3003s13.5913,30.3003,30.2998,30.3003H707v-30.3003
				c0-16.7085-13.5918-30.3003-30.2998-30.3003H272.7002L272.7002,262.5996z"/>
		</g>
	</g>
</g>
</svg>
