<?xml version="1.0" encoding="utf-8"?>
<!-- Generator: Adobe Illustrator 17.1.0, SVG Export Plug-In . SVG Version: 6.00 Build 0)  -->
<!DOCTYPE svg PUBLIC "-//W3C//DTD SVG 1.1//EN" "http://www.w3.org/Graphics/SVG/1.1/DTD/svg11.dtd">
<svg version="1.1" id="wish-list" xmlns="http://www.w3.org/2000/svg" xmlns:xlink="http://www.w3.org/1999/xlink" x="0px" y="0px"
	 viewBox="0 0 1010 1010" enable-background="new 0 0 1010 1010" xml:space="preserve">
<g id="wish-list-wish-list">
	<circle id="wish-list-label" fill="#FC6E51" cx="505" cy="505" r="505"/>
	<g id="wish-list-wish-list_1_">
		<g>
			<g>
				<polygon fill="#FFB933" points="702.8281,772.6504 307.1724,772.6504 307.1724,361.0059 427.7314,237.3496 702.8281,237.3496 
									"/>
				<path fill="#454545" d="M702.8281,782.75H307.1724c-5.5777,0-10.1001-4.5176-10.1001-10.0996V361.0059
					c0-2.6338,1.0307-5.1685,2.8701-7.0523l120.5591-123.6557c1.8989-1.9532,4.5073-3.0479,7.2299-3.0479h275.0967
					c5.5822,0,10.0996,4.5176,10.0996,10.0996v535.3008C712.9277,778.2324,708.4102,782.75,702.8281,782.75L702.8281,782.75z
					 M317.2725,762.5498h375.456V247.4502H431.9922L317.2725,365.1191V762.5498L317.2725,762.5498z"/>
			</g>
			<g>
				<polyline fill="#3BAFDA" points="318.811,376.9941 435.1777,376.9941 435.1777,248.9883 				"/>
				<path fill="#454545" d="M435.1777,387.0942H318.811c-5.5776,0-10.1001-4.5171-10.1001-10.1001
					c0-5.5825,4.5225-10.0996,10.1001-10.0996h106.2671V248.9883c0-5.5821,4.5225-10.0996,10.0996-10.0996
					c5.5782,0,10.1001,4.5175,10.1001,10.0996v128.0058C445.2778,382.5771,440.7559,387.0942,435.1777,387.0942L435.1777,387.0942z"
					/>
			</g>
		</g>
		<g>
			<polygon fill="#FFFFFF" points="505.0098,411.21 528.8496,484.6025 606,484.6025 543.5752,526.9551 567.4346,598.79 
				505.0098,552.6895 442.5752,597.6953 466.4346,527.1328 404,484.6025 481.1606,484.6025 			"/>
			<path fill="#454545" d="M567.4346,608.8896c-2.1104,0-4.2168-0.6611-6.002-1.9726l-56.4966-41.7217l-56.4526,40.6963
				c-3.5605,2.5742-8.3691,2.5244-11.9102-0.0693c-3.5307-2.6133-4.9707-7.2002-3.5654-11.3623l21.4033-63.293l-56.0971-38.2197
				c-3.6646-2.4961-5.272-7.0821-3.9654-11.3233c1.3072-4.2314,5.2178-7.1211,9.6514-7.1211h69.8223l21.581-66.4096
				c1.3511-4.1626,5.2324-6.9834,9.6065-6.9834l0,0c4.3745,0,8.2558,2.8208,9.6069,6.9834l21.5708,66.4096H606
				c4.4336,0,8.3545,2.8897,9.6563,7.1309c1.3017,4.2412-0.3155,8.8369-3.9844,11.3232l-56.1026,38.0625l21.4522,64.584
				c1.3857,4.1826-0.0938,8.7793-3.6543,11.3633C571.5967,608.249,569.5156,608.8896,567.4346,608.8896L567.4346,608.8896z
				 M505.0098,542.5889c2.1108,0,4.2168,0.6611,6.0019,1.9726l36.7949,27.1729l-13.8183-41.5928
				c-1.4204-4.291,0.1777-9.0049,3.916-11.54l35.2217-23.8985h-44.2764c-4.3745,0-8.2558-2.8213-9.6069-6.9834l-14.2329-43.8232
				l-14.2422,43.8232c-1.3516,4.1621-5.2324,6.9834-9.607,6.9834h-44.395l35.3555,24.086c3.748,2.5449,5.3359,7.289,3.8809,11.5791
				l-13.7593,40.6963l36.8589-26.5723C500.8672,543.2207,502.9385,542.5889,505.0098,542.5889L505.0098,542.5889z"/>
		</g>
	</g>
</g>
</svg>
