<?xml version="1.0" encoding="iso-8859-1"?>
<!-- Generator: Adobe Illustrator 17.1.0, SVG Export Plug-In . SVG Version: 6.00 Build 0)  -->
<!DOCTYPE svg PUBLIC "-//W3C//DTD SVG 1.1//EN" "http://www.w3.org/Graphics/SVG/1.1/DTD/svg11.dtd">
<svg version="1.1" xmlns="http://www.w3.org/2000/svg" xmlns:xlink="http://www.w3.org/1999/xlink" x="0px" y="0px"
	 viewBox="0 0 1010 776.984" style="enable-background:new 0 0 1010 776.984;" xml:space="preserve">
<g id="arrow-17">
	<path id="arrow-17_1_" style="fill:#32383F;" d="M1000.514,88.523L852.578,3.135c-12.645-7.334-22.991-1.365-22.991,13.355v32.222
		c-138.071,1.417-258.692,76.384-324.578,187.595C439.072,125.096,318.451,50.18,180.406,48.712V16.49
		c0-14.72-10.396-20.689-23.017-13.355L9.504,88.523c-12.672,7.31-12.672,19.272,0,26.531l147.885,85.464
		c12.621,7.335,23.017,1.315,23.017-13.33v-31.969c149.983,2.175,271.388,124.692,271.388,275.156v344.079
		c17.502,1.62,35.232,2.529,53.215,2.529c17.958,0,35.662-0.909,53.215-2.529V430.376c0-150.465,121.354-272.981,271.363-275.156
		v31.969c0,14.645,10.345,20.665,22.991,13.33l147.937-85.464C1013.162,107.795,1013.162,95.833,1000.514,88.523z"/>
</g>
<g id="Layer_1">
</g>
</svg>
