<?xml version="1.0" encoding="iso-8859-1"?>
<!-- Generator: Adobe Illustrator 17.1.0, SVG Export Plug-In . SVG Version: 6.00 Build 0)  -->
<!DOCTYPE svg PUBLIC "-//W3C//DTD SVG 1.1//EN" "http://www.w3.org/Graphics/SVG/1.1/DTD/svg11.dtd">
<svg version="1.1" xmlns="http://www.w3.org/2000/svg" xmlns:xlink="http://www.w3.org/1999/xlink" x="0px" y="0px"
	 viewBox="0 0 1010 1010.013" style="enable-background:new 0 0 1010 1010.013;" xml:space="preserve">
<g id="arrow-9">
	<path id="arrow-9_1_" style="fill:#32383F;" d="M380.188,791.613L1010,791.668v218.346H598.476
		C565.73,977.209,464.11,875.535,380.188,791.613z M380.188,613.904h98.011c33.423-33.423,134.366-134.422,217.725-217.782h-98.04
		C564.49,429.545,463.546,530.546,380.188,613.904z M1010,613.904V333.561L729.628,613.904H1010z M477.636,0H0v218.317
		l695.924,0.055C612.002,134.45,510.328,32.718,477.636,0z M347.047,1010.013L39.82,702.731l306.606-306.609H0v613.891H347.047z
		 M1010,0H729.038L1010,280.99V0z"/>
</g>
<g id="Layer_1">
</g>
</svg>
