<?xml version="1.0" encoding="iso-8859-1"?>
<!-- Generator: Adobe Illustrator 17.1.0, SVG Export Plug-In . SVG Version: 6.00 Build 0)  -->
<!DOCTYPE svg PUBLIC "-//W3C//DTD SVG 1.1//EN" "http://www.w3.org/Graphics/SVG/1.1/DTD/svg11.dtd">
<svg version="1.1" xmlns="http://www.w3.org/2000/svg" xmlns:xlink="http://www.w3.org/1999/xlink" x="0px" y="0px"
	 viewBox="0 0 1010 625.616" style="enable-background:new 0 0 1010 625.616;" xml:space="preserve">
<g id="arrow-12">
	<path id="arrow-12_2_" style="fill:#32383F;" d="M122.502,313.146c0,33.831-27.42,61.252-61.202,61.252
		c-33.88,0-61.3-27.421-61.3-61.252c0-33.831,27.42-61.25,61.3-61.25C95.081,251.896,122.502,279.315,122.502,313.146z
		 M226.017,250.91c-33.879,0-61.3,27.419-61.3,61.25c0,33.831,27.421,61.3,61.3,61.3c33.782,0,61.202-27.469,61.202-61.3
		C287.218,278.329,259.799,250.91,226.017,250.91z M392.657,250.91c-33.831,0-61.3,27.419-61.3,61.25
		c0,33.831,27.469,61.3,61.3,61.3c33.781,0,61.251-27.469,61.251-61.3C453.908,278.329,426.439,250.91,392.657,250.91z
		 M559.248,250.91c-33.831,0-61.251,27.419-61.251,61.25c0,33.831,27.42,61.3,61.251,61.3c33.879,0,61.3-27.469,61.3-61.3
		C620.548,278.329,593.127,250.91,559.248,250.91z M725.937,250.91c-33.829,0-61.25,27.419-61.25,61.25
		c0,33.831,27.42,61.3,61.25,61.3c33.831,0,61.252-27.469,61.252-61.3C787.189,278.329,759.768,250.91,725.937,250.91z
		 M725.74,122.526c33.831,0,61.252-27.42,61.252-61.251C786.992,27.42,759.572,0,725.74,0c-33.88,0-61.252,27.42-61.252,61.275
		C664.488,95.106,691.861,122.526,725.74,122.526z M835.716,248.936c33.783,0,61.3-27.42,61.3-61.251
		c0-33.831-27.517-61.264-61.3-61.264c-33.831,0-61.25,27.432-61.25,61.264C774.466,221.517,801.884,248.936,835.716,248.936z
		 M948.7,251.55h-0.05c0,0-0.048,0-0.098,0c-33.831,0-61.25,27.47-61.25,61.251c0,33.831,27.419,61.3,61.25,61.3
		c0.05,0,0.098,0,0.098,0h0.05c33.879,0,61.3-27.469,61.3-61.3C1010,279.02,982.579,251.55,948.7,251.55z M725.494,503.114
		c-33.781,0-61.252,27.419-61.252,61.25c0,33.881,27.471,61.252,61.252,61.252s61.252-27.371,61.252-61.252
		C786.746,530.533,759.275,503.114,725.494,503.114z M835.617,376.665c-33.831,0-61.25,27.471-61.25,61.252
		c0,33.879,27.419,61.3,61.25,61.3s61.3-27.421,61.3-61.3C896.918,404.136,869.449,376.665,835.617,376.665z"/>
</g>
<g id="Layer_1">
</g>
</svg>
