<?xml version="1.0" encoding="iso-8859-1"?>
<!-- Generator: Adobe Illustrator 17.1.0, SVG Export Plug-In . SVG Version: 6.00 Build 0)  -->
<!DOCTYPE svg PUBLIC "-//W3C//DTD SVG 1.1//EN" "http://www.w3.org/Graphics/SVG/1.1/DTD/svg11.dtd">
<svg version="1.1" xmlns="http://www.w3.org/2000/svg" xmlns:xlink="http://www.w3.org/1999/xlink" x="0px" y="0px"
	 viewBox="0 0 1010 1009.987" style="enable-background:new 0 0 1010 1009.987;" xml:space="preserve">
<g id="arrow-16">
	<path id="arrow-16_2_" style="fill:#32383F;" d="M306.067,263.234l190.415-0.621l242.365,242.323L496.483,747.345l-190.415-0.676
		c0,0,97.053-97.055,174.127-174.156H0V437.417h480.194C403.149,360.371,306.067,263.234,306.067,263.234z M0,0v257.288h135.098
		c0-55.205,0-98.97,0-122.219c105.422,0,634.411,0,739.75,0c0,105.423,0,634.398,0,739.82c-105.339,0-634.328,0-739.75,0
		c0-23.249,0-67.014,0-122.246H0v257.343h1010V0H67.577H0z"/>
</g>
<g id="Layer_1">
</g>
</svg>
