<?xml version="1.0" encoding="iso-8859-1"?>
<!-- Generator: Adobe Illustrator 17.1.0, SVG Export Plug-In . SVG Version: 6.00 Build 0)  -->
<!DOCTYPE svg PUBLIC "-//W3C//DTD SVG 1.1//EN" "http://www.w3.org/Graphics/SVG/1.1/DTD/svg11.dtd">
<svg version="1.1" xmlns="http://www.w3.org/2000/svg" xmlns:xlink="http://www.w3.org/1999/xlink" x="0px" y="0px"
	 viewBox="0 0 1010 1009.943" style="enable-background:new 0 0 1010 1009.943;" xml:space="preserve">
<g id="arrow-18">
	<path id="arrow-18_2_" style="fill:#32383F;" d="M505.057,0C226.123,0,0,226.094,0,505c0,278.932,226.123,504.943,505.057,504.943
		C783.934,1009.943,1010,783.932,1010,505C1010,226.094,783.934,0,505.057,0z M372.606,536.223l-4.001,12.007l-7.946,14.877
		l-8.906,10.202l-13.415,11.443l-11.102,5.748l-16.711,5.242l-19.868,0.958l-14.147-2.536l-13.301-5.523l-12.963-9.187
		l-10.934-10.877l-4.622-6.087l-9.947-19.445l-2.058-7.326l-2.31-15.837l4.115-21.363l2.395-6.818l11.356-17.811l5.242-6.369
		l13.133-10.877l10.709-6.257l14.288-4.959l15.64-2.424l22.094,4.115l6.764,2.536l19.107,11.723l15.668,16.458l4.171,6.199
		l5.89,13.356l3.184,15.895L372.606,536.223z M776.24,541.41c0,0,0,0.055-0.029,0.055c-1.466,3.663-3.494,7.159-5.552,10.596
		c-0.647,1.072-1.041,2.254-1.717,3.269c-1.636,2.481-3.778,4.735-5.722,7.047c-1.521,1.803-2.763,3.776-4.454,5.466h-0.026
		c0,0,0,0,0,0.055L537.83,789.061c-15.527,15.613-35.93,23.391-56.305,23.391c-20.347,0-40.722-7.778-56.249-23.276
		c-31.082-31.056-31.14-81.443-0.056-112.556l164.604-164.857L430.716,353.048c-31.14-31.055-31.197-81.442-0.17-112.582
		c31.055-31.112,81.443-31.168,112.554-0.141L758.6,455.289c0.026,0,0.026,0,0.055,0.056
		C781.962,478.566,787.822,512.666,776.24,541.41z"/>
</g>
<g id="Layer_1">
</g>
</svg>
