<?xml version="1.0" encoding="iso-8859-1"?>
<!-- Generator: Adobe Illustrator 17.1.0, SVG Export Plug-In . SVG Version: 6.00 Build 0)  -->
<!DOCTYPE svg PUBLIC "-//W3C//DTD SVG 1.1//EN" "http://www.w3.org/Graphics/SVG/1.1/DTD/svg11.dtd">
<svg version="1.1" xmlns="http://www.w3.org/2000/svg" xmlns:xlink="http://www.w3.org/1999/xlink" x="0px" y="0px"
	 viewBox="0 0 1007.344 1010" style="enable-background:new 0 0 1007.344 1010;" xml:space="preserve">
<g id="arrow-23">
	<path id="arrow-23_1_" style="fill:#32383F;" d="M678.496,791.835h239.245C826.618,923.545,674.673,1010,502.38,1010
		C240.93,1010,25.915,811.342,0,556.751h370.559L183.199,734.217l115.856,120.859l377.137-369.77L345.882,154.925l-123.22,101.072
		l133.114,142.965H8.768C57.45,171.001,259.875,0,502.38,0c278.931,0,504.965,226.091,504.965,504.979
		c0,66.727-13.266,130.248-36.764,188.541H669.276l116.757-110.572l-72.179-75.27l-235.03,230.419l205.854,205.799l76.789-62.961
		L678.496,791.835z"/>
</g>
<g id="Layer_1">
</g>
</svg>
