<?xml version="1.0" encoding="iso-8859-1"?>
<!-- Generator: Adobe Illustrator 17.1.0, SVG Export Plug-In . SVG Version: 6.00 Build 0)  -->
<!DOCTYPE svg PUBLIC "-//W3C//DTD SVG 1.1//EN" "http://www.w3.org/Graphics/SVG/1.1/DTD/svg11.dtd">
<svg version="1.1" xmlns="http://www.w3.org/2000/svg" xmlns:xlink="http://www.w3.org/1999/xlink" x="0px" y="0px"
	 viewBox="0 0 1010 952.409" style="enable-background:new 0 0 1010 952.409;" xml:space="preserve">
<g id="arrow-26">
	<g id="arrow-26_2_">
		<path style="fill:#32383F;" d="M1006.466,704.121l-88.599,152.857c-4.679,8.051-8.557,14.881-8.557,15.068
			c0,0.187-7.708,0.399-17.063,0.399H650.58c-9.354,0-17.009,7.627-17.009,17.006v53.575c0,9.354-5.952,12.199-13.234,6.326
			L436.469,800.613c-7.295-5.927-7.295-15.572,0-21.472l183.868-148.817c7.283-5.873,13.234-3.031,13.234,6.35v53.575
			c0,9.354,7.654,17.033,17.009,17.033h142.865c9.458,0,13.18-6.564,8.343-14.669l-81.85-136.965
			c-4.729-8.026-1.009-14.297,8.345-13.899l82.487,3.376c9.354,0.451,20.461-6.166,24.555-14.484l33.484-67.951
			c4.2-8.423,11.374-8.582,15.998-0.477l121.711,212.357C1011.195,682.728,1011.143,696.069,1006.466,704.121z M376.608,711.616
			c5.024-7.974,1.41-14.324-7.945-14.11l-159.554,2.869c-9.3,0.187-13.22-6.404-8.57-14.482l71.046-124.023
			c4.677-8.107,15.134-10.949,23.241-6.274l46.504,26.548c8.119,4.679,13.579,0.959,12.065-8.316l-37.71-233.431
			c-1.435-9.247-9.832-14.058-18.549-10.683L76.595,415.256c-8.73,3.401-9.234,9.992-1.115,14.669l46.544,26.627
			c8.119,4.704,10.936,15.122,6.313,23.28L8.179,689.558c-4.729,8.08-8.37,14.856-8.171,14.962c0.172,0.052,4.106,6.776,8.85,14.908
			l88.545,152.805c4.704,8.132,16.224,14.775,25.605,14.775h244.779c9.394,0,12.767-6.377,7.534-14.137l-42.215-62.851
			c-5.248-7.785-5.474-20.594-0.45-28.513L376.608,711.616z M510.146,183.551c4.49-8.211,12.066-8.343,16.849-0.266l72.402,123.253
			c4.783,8.053,2.074,18.549-6.006,23.28l-46.241,27.158c-8.026,4.784-7.494,11.347,1.329,14.669l221.312,83.073
			c8.823,3.322,17.114-1.567,18.497-10.869l35.184-233.857c1.329-9.3-4.144-13.021-12.169-8.264l-46.241,27.186
			c-8.08,4.757-18.603,2.02-23.332-6.059L619.274,14.485c-4.729-8.08-8.769-14.59-8.983-14.484c-0.16,0.081-8.024,0.24-17.378,0.266
			l-176.629,1.09c-9.354,0.054-20.847,6.803-25.47,14.935l-121.46,212.465c-4.625,8.238-0.785,14.27,8.57,13.579l75.446-5.474
			c9.381-0.718,20.648,5.474,25.047,13.793l38.864,72.867c4.426,8.211,11.719,8.292,16.224,0.053L510.146,183.551z"/>
	</g>
</g>
<g id="Layer_1">
</g>
</svg>
