<?xml version="1.0" encoding="iso-8859-1"?>
<!-- Generator: Adobe Illustrator 17.1.0, SVG Export Plug-In . SVG Version: 6.00 Build 0)  -->
<!DOCTYPE svg PUBLIC "-//W3C//DTD SVG 1.1//EN" "http://www.w3.org/Graphics/SVG/1.1/DTD/svg11.dtd">
<svg version="1.1" xmlns="http://www.w3.org/2000/svg" xmlns:xlink="http://www.w3.org/1999/xlink" x="0px" y="0px"
	 viewBox="0 0 1010 480.257" style="enable-background:new 0 0 1010 480.257;" xml:space="preserve">
<g id="arrow-29">
	<path id="arrow-29_1_" style="fill:#32383F;" d="M247.469,240.134L53.878,480.257H0l193.591-240.123L0,0h53.878L247.469,240.134z
		 M158.33,0h-53.878l193.542,240.134L104.452,480.257h53.878l193.591-240.123L158.33,0z M262.781,0h-53.902l193.542,240.134
		L208.879,480.257h53.902l193.592-240.123L262.781,0z M393.52,0h-79.622l193.592,240.134L313.898,480.257h79.622l193.541-240.123
		L393.52,0z M556.018,0H444.834l193.592,240.134L444.834,480.257h111.184l193.591-240.123L556.018,0z M816.409,0H608.12
		l193.616,240.134L608.12,480.257h208.289L1010,240.134L816.409,0z"/>
</g>
<g id="Layer_1">
</g>
</svg>
