<?xml version="1.0" encoding="iso-8859-1"?>
<!-- Generator: Adobe Illustrator 17.1.0, SVG Export Plug-In . SVG Version: 6.00 Build 0)  -->
<!DOCTYPE svg PUBLIC "-//W3C//DTD SVG 1.1//EN" "http://www.w3.org/Graphics/SVG/1.1/DTD/svg11.dtd">
<svg version="1.1" xmlns="http://www.w3.org/2000/svg" xmlns:xlink="http://www.w3.org/1999/xlink" x="0px" y="0px"
	 viewBox="0 0 1010 1010.013" style="enable-background:new 0 0 1010 1010.013;" xml:space="preserve">
<g id="arrow-30">
	<path id="arrow-30_2_" style="fill:#32383F;" d="M746.762,306.113l0.621,190.389L505.057,738.857L262.645,496.502l0.676-190.389
		c0,0,97.056,96.999,174.158,174.1V0h135.099v480.214C649.651,403.169,746.762,306.113,746.762,306.113z M1010,0H752.708v135.099
		c55.206,0,98.971,0,122.221,0c0,105.424,0,634.419,0,739.759c-105.424,0-634.406,0-739.83,0c0-105.34,0-634.336,0-739.759
		c23.25,0,67.013,0,122.248,0V0H0v1010.013h1010V67.55V0z"/>
</g>
<g id="Layer_1">
</g>
</svg>
