<?xml version="1.0" encoding="iso-8859-1"?>
<!-- Generator: Adobe Illustrator 17.1.0, SVG Export Plug-In . SVG Version: 6.00 Build 0)  -->
<!DOCTYPE svg PUBLIC "-//W3C//DTD SVG 1.1//EN" "http://www.w3.org/Graphics/SVG/1.1/DTD/svg11.dtd">
<svg version="1.1" xmlns="http://www.w3.org/2000/svg" xmlns:xlink="http://www.w3.org/1999/xlink" x="0px" y="0px"
	 viewBox="0 0 1010 887.507" style="enable-background:new 0 0 1010 887.507;" xml:space="preserve">
<g id="arrow-37">
	<path id="arrow-37_1_" style="fill:#32383F;" d="M212.092,432.848h-51.119c5.778-185.172,157.584-333.57,344.194-333.57
		c94.346,0,179.733,37.931,241.956,99.392c6.538,6.51,14.71,7.723,21.867,0.621c7.073-7.158,39.058-39.086,47.456-47.456
		c8.286-8.37,6.708-17.415-0.169-24.376C737.063,47.793,626.455,0,505.167,0C263.719,0,67.527,192.864,61.722,432.848H11.393
		c-10.512,0-14.485,7.326-8.792,16.176l98.884,138.872c5.72,8.876,15.019,8.821,20.741-0.029l98.659-138.844
		C226.578,440.174,222.575,432.848,212.092,432.848z M1007.395,438.457l-98.912-138.846c-5.721-8.905-15.02-8.848-20.713,0.057
		l-98.659,138.789c-5.693,8.876-1.746,16.174,8.847,16.174h51.064C843.218,639.803,691.439,788.23,504.828,788.23
		c-94.346,0-179.733-37.959-241.955-99.392c-6.538-6.51-14.711-7.778-21.839-0.649c-7.102,7.159-39.086,39.115-47.427,47.485
		c-8.398,8.37-6.82,17.387,0.112,24.348c79.214,79.665,189.851,127.486,311.109,127.486c241.421,0,437.667-192.864,443.501-432.876
		h50.219C1009.143,454.631,1013.088,447.333,1007.395,438.457z"/>
</g>
<g id="Layer_1">
</g>
</svg>
