<?xml version="1.0" encoding="iso-8859-1"?>
<!-- Generator: Adobe Illustrator 17.1.0, SVG Export Plug-In . SVG Version: 6.00 Build 0)  -->
<!DOCTYPE svg PUBLIC "-//W3C//DTD SVG 1.1//EN" "http://www.w3.org/Graphics/SVG/1.1/DTD/svg11.dtd">
<svg version="1.1" xmlns="http://www.w3.org/2000/svg" xmlns:xlink="http://www.w3.org/1999/xlink" x="0px" y="0px"
	 viewBox="0 0 1010 1009.859" style="enable-background:new 0 0 1010 1009.859;" xml:space="preserve">
<g id="arrow-10">
	<path id="arrow-10_2_" style="fill:#32383F;" d="M380.379,506.444L254.327,380.309l126.052-126.065l126.078,126.065
		L380.379,506.444z M252.159,126.081L126.078,0L0,126.081l126.078,126.107L252.159,126.081z M758.629,632.468L632.551,506.275
		L506.402,632.468l126.149,126.023L758.629,632.468z M884.316,758.097L758.235,631.961L632.1,758.097l126.136,126.078
		L884.316,758.097z M1010,883.669L883.922,757.646L757.784,883.669l126.138,126.191L1010,883.669z M757.784,883.669L631.706,757.646
		L505.641,883.669l126.065,126.191L757.784,883.669z M505.641,883.669L379.534,757.646L253.455,883.669l126.078,126.191
		L505.641,883.669z M1009.943,631.622L883.807,505.544L757.784,631.567l126.138,126.078L1009.943,631.622z M1009.943,379.408
		L883.807,253.343L757.729,379.408l126.078,126.136L1009.943,379.408z"/>
</g>
<g id="Layer_1">
</g>
</svg>
