<?xml version="1.0" encoding="iso-8859-1"?>
<!-- Generator: Adobe Illustrator 17.1.0, SVG Export Plug-In . SVG Version: 6.00 Build 0)  -->
<!DOCTYPE svg PUBLIC "-//W3C//DTD SVG 1.1//EN" "http://www.w3.org/Graphics/SVG/1.1/DTD/svg11.dtd">
<svg version="1.1" xmlns="http://www.w3.org/2000/svg" xmlns:xlink="http://www.w3.org/1999/xlink" x="0px" y="0px"
	 viewBox="0 0 1010 1010.04" style="enable-background:new 0 0 1010 1010.04;" xml:space="preserve">
<g id="arrow-14">
	<path id="arrow-14_2_" style="fill:#32383F;" d="M592.429,570.858H192.481V458.307h399.948
		C528.198,394.117,447.38,313.26,447.38,313.26l158.599-0.494L807.822,514.61L605.979,716.426l-158.599-0.546
		C447.38,715.881,528.223,635.024,592.429,570.858z M248.873,247.796c132.226-131.344,340.649-140.065,482.843-26.399
		l100.869-101.077C635.31-48.273,336.257-39.888,148.406,146.718c-187.541,186.658-197.353,485.58-29.332,684.335l101.078-101.027
		C107.407,587.029,117.036,379.138,248.873,247.796z M891.195,179.268L789.911,280.164
		c112.707,142.323,103.257,350.551-29.228,482.181c-131.603,131.161-339.935,139.57-482.31,26.424l-100.83,100.871
		c197.832,168.669,496.027,160.336,683.645-26.349C1049.222,676.348,1058.878,377.919,891.195,179.268z"/>
</g>
<g id="Layer_1">
</g>
</svg>
