<?xml version="1.0" encoding="iso-8859-1"?>
<!-- Generator: Adobe Illustrator 17.1.0, SVG Export Plug-In . SVG Version: 6.00 Build 0)  -->
<!DOCTYPE svg PUBLIC "-//W3C//DTD SVG 1.1//EN" "http://www.w3.org/Graphics/SVG/1.1/DTD/svg11.dtd">
<svg version="1.1" xmlns="http://www.w3.org/2000/svg" xmlns:xlink="http://www.w3.org/1999/xlink" x="0px" y="0px"
	 viewBox="0 0 1010 1009.958" style="enable-background:new 0 0 1010 1009.958;" xml:space="preserve">
<g id="arrow-2">
	<path id="arrow-2_2_" style="fill:#32383F;" d="M504.993,0C226.105,0,0,226.063,0,504.993
		c0,278.873,226.105,504.965,504.993,504.965c278.886,0,505.007-226.092,505.007-504.965C1010,226.063,783.88,0,504.993,0z
		 M729.379,482.844c0,1.465-0.282,2.931-0.394,4.369c-0.112,1.605-0.17,3.241-0.451,4.874c0,0.057-0.055,0.112-0.055,0.169
		c-0.282,1.438-0.79,2.761-1.241,4.115c-0.449,1.55-0.731,3.128-1.352,4.621c-0.057,0.115-0.115,0.198-0.115,0.282
		c-0.676,1.636-1.633,3.1-2.422,4.623c-0.678,1.182-1.127,2.395-1.86,3.494c-0.057,0.086-0.112,0.141-0.169,0.227
		c-1.748,2.648-3.775,5.072-5.975,7.326v0.026h-0.055c0,0.029,0,0.029,0,0.029L523.338,709.245
		c-9.44,9.442-21.812,14.146-34.155,14.146c-12.341,0-24.671-4.678-34.098-14.118c-18.853-18.824-18.88-49.343-0.042-68.224
		l109.482-109.623l-384.522,0.903c-0.042,0-0.084,0-0.112,0c-26.602,0-48.189-21.53-48.26-48.132
		c-0.055-26.659,21.488-48.302,48.148-48.358l384.914-0.901L459.791,330.303c-18.882-18.796-18.923-49.344-0.112-68.225
		c18.824-18.882,49.372-18.937,68.253-0.112l187.3,186.779l0,0l0,0c0.112,0.113,0.227,0.254,0.282,0.367
		c2.142,2.142,4.057,4.48,5.748,6.96c0.057,0.085,0.115,0.17,0.169,0.226c0.733,1.156,1.239,2.424,1.86,3.607
		c0.845,1.465,1.748,2.874,2.369,4.452c0.055,0.112,0.168,0.226,0.168,0.339c0.621,1.521,0.96,3.1,1.409,4.678
		c0.396,1.323,0.903,2.591,1.184,4.001c0.057,0.056,0.057,0.168,0.112,0.282c0.282,1.577,0.282,3.184,0.451,4.79
		c0.112,1.297,0.339,2.537,0.339,3.833c0,0.168,0.055,0.338,0.055,0.507C729.379,482.816,729.379,482.844,729.379,482.844z
		 M905.337,505.106l-6.932,13.077l-7.835,8.962l-11.778,10.032l-9.807,5.072l-14.71,4.621l-17.473,0.845l-12.341-2.254l-11.725-4.79
		l-11.384-8.117l-9.638-9.581l-4.115-5.299l-8.735-17.189l-1.805-6.369l-2.03-13.978l3.608-18.768l2.142-5.974l10.032-15.725
		l4.508-5.523l11.61-9.638l9.356-5.41l12.568-4.396l13.752-2.113l19.445,3.578l5.917,2.254l16.797,10.258l13.807,14.513l3.72,5.439
		l5.129,11.723l2.761,13.978l-1.297,20.235L905.337,505.106z"/>
</g>
<g id="Layer_1">
</g>
</svg>
