<?xml version="1.0" encoding="iso-8859-1"?>
<!-- Generator: Adobe Illustrator 17.1.0, SVG Export Plug-In . SVG Version: 6.00 Build 0)  -->
<!DOCTYPE svg PUBLIC "-//W3C//DTD SVG 1.1//EN" "http://www.w3.org/Graphics/SVG/1.1/DTD/svg11.dtd">
<svg version="1.1" xmlns="http://www.w3.org/2000/svg" xmlns:xlink="http://www.w3.org/1999/xlink" x="0px" y="0px"
	 viewBox="0 0 561.792 1010" style="enable-background:new 0 0 561.792 1010;" xml:space="preserve">
<g id="arrow-1">
	<path id="arrow-1_1_" style="fill:#32383F;" d="M449.997,447.42V335.553H338.153V223.71h-111.89V111.867H114.443V0H0v114.443
		h111.867V223.71H0v114.42h110.985v109.29H0v114.396h110.985v110.077H0v114.443h111.867v109.267H0V1010h114.443V898.156h111.819
		v-111.82h111.89V674.494h111.844V561.816h111.795V447.42H449.997z M223.687,783.737H114.443V674.494h109.243V783.737z
		 M223.687,560.075H114.443V449.996h109.243V560.075z M223.687,335.553H114.443V226.31h109.243V335.553z M335.576,671.893H225.404
		V561.816h110.172V671.893z M335.576,447.42H225.404V338.13h110.172V447.42z M447.398,560.075H338.153V449.996h109.245V560.075z"/>
</g>
<g id="Layer_1">
</g>
</svg>
