<?xml version="1.0" encoding="iso-8859-1"?>
<!-- Generator: Adobe Illustrator 17.1.0, SVG Export Plug-In . SVG Version: 6.00 Build 0)  -->
<!DOCTYPE svg PUBLIC "-//W3C//DTD SVG 1.1//EN" "http://www.w3.org/Graphics/SVG/1.1/DTD/svg11.dtd">
<svg version="1.1" xmlns="http://www.w3.org/2000/svg" xmlns:xlink="http://www.w3.org/1999/xlink" x="0px" y="0px"
	 viewBox="0 0 1010 626.565" style="enable-background:new 0 0 1010 626.565;" xml:space="preserve">
<g id="arrow-36">
	<path id="arrow-36_2_" style="fill:#32383F;" d="M811.112,102.567l-156.322,0.482c0,0,79.651,79.696,142.951,142.974h-178.81
		c-12.318-56.55-40.109-110.447-84.035-154.349C412.701-30.543,213.857-30.565,91.663,91.652
		c-122.217,122.195-122.217,321.038,0,443.235c122.195,122.217,321.038,122.237,443.277,0.065
		c47.037-47.06,75.705-105.427,86.578-166.427v-11.616h176.223c-63.278,63.257-142.951,142.93-142.951,142.93l156.322,0.503
		L1010,301.455L811.112,102.567z M456.735,456.724c-79.125,79.06-207.764,79.039-286.845-0.043
		c-79.06-79.104-79.148-207.764-0.044-286.868c79.103-79.037,207.852-79.037,286.889,0
		C535.794,248.872,535.794,377.599,456.735,456.724z"/>
</g>
<g id="Layer_1">
</g>
</svg>
