<?xml version="1.0" encoding="iso-8859-1"?>
<!-- Generator: Adobe Illustrator 17.1.0, SVG Export Plug-In . SVG Version: 6.00 Build 0)  -->
<!DOCTYPE svg PUBLIC "-//W3C//DTD SVG 1.1//EN" "http://www.w3.org/Graphics/SVG/1.1/DTD/svg11.dtd">
<svg version="1.1" xmlns="http://www.w3.org/2000/svg" xmlns:xlink="http://www.w3.org/1999/xlink" x="0px" y="0px"
	 viewBox="0 0 1010 1009.987" style="enable-background:new 0 0 1010 1009.987;" xml:space="preserve">
<g id="arrow-3">
	<path id="arrow-3_1_" style="fill:#32383F;" d="M458.043,612.727H0v-26.151h484.196L458.043,612.727z M720.08,571.472l-41.2,41.255
		H1010v-41.255H720.08z M786.922,504.542l-25.869,25.926H1010v-41.255H771.649L786.922,504.542z M485.999,424.736l-17.81-17.782H0
		v17.782H485.999z M689.364,406.954l41.255,41.256H1010v-41.256H689.364z M427.159,365.923l-41.228-41.227H0v41.227H427.159z
		 M607.076,324.696l41.257,41.227H1010v-41.227H607.076z M375.785,695.043l41.229-41.286H0v41.286H375.785z M637.905,653.758
		l-41.2,41.286H1010v-41.286H637.905z M230.966,839.805l21.504-21.501H0v41.228h1010v-41.228H473.601l-21.052,21.05L230.966,839.805
		z M344.901,283.665l-41.229-41.256H0v41.256H344.901z M524.804,242.409l41.242,41.256H1010v-41.256H524.804z M1010,900.562H0
		v41.255h1010V900.562z M555.787,736.045l-41.242,41.229H1010v-41.229H555.787z M293.499,777.273l41.255-41.229H0v41.229H293.499z
		 M1010,982.821H0v27.166h1010V982.821z M0,119.12h1010V77.862H0V119.12z M452.549,170.153l31.225,31.253H1010V160.15H0v41.256
		h262.671l-31.254-31.253H452.549z M0,36.861h1010V0H0V36.861z"/>
</g>
<g id="Layer_1">
</g>
</svg>
