<?xml version="1.0" encoding="iso-8859-1"?>
<!-- Generator: Adobe Illustrator 17.1.0, SVG Export Plug-In . SVG Version: 6.00 Build 0)  -->
<!DOCTYPE svg PUBLIC "-//W3C//DTD SVG 1.1//EN" "http://www.w3.org/Graphics/SVG/1.1/DTD/svg11.dtd">
<svg version="1.1" xmlns="http://www.w3.org/2000/svg" xmlns:xlink="http://www.w3.org/1999/xlink" x="0px" y="0px"
	 viewBox="0 0 1010 357.701" style="enable-background:new 0 0 1010 357.701;" xml:space="preserve">
<g id="arrow-15">
	<path id="arrow-15_2_" style="fill:#32383F;" d="M240.374,355.552l90.456-152.986c-12.033,0-24.527,0-37.349,0L202.96,355.552
		h-42.937L250.5,202.566h-37.019l-90.499,152.986H80.023l90.499-152.986H133.48L42.959,355.552H0l90.52-152.986H40.264v-47.431
		H90.52L0,2.148h42.959l90.521,152.987h37.042L80.023,2.148h42.959l90.499,152.987H250.5L160.023,2.148h42.937l90.521,152.987
		c12.801,0,25.271,0,37.26,0L240.374,2.148h42.916l90.543,152.987c315.642,0,319.388,0,319.388,0V0L1010,178.85L693.22,357.701
		V202.566c0,0-3.746,0-319.366,0l-90.565,152.986H240.374z"/>
</g>
<g id="Layer_1">
</g>
</svg>
