<?xml version="1.0" encoding="iso-8859-1"?>
<!-- Generator: Adobe Illustrator 17.1.0, SVG Export Plug-In . SVG Version: 6.00 Build 0)  -->
<!DOCTYPE svg PUBLIC "-//W3C//DTD SVG 1.1//EN" "http://www.w3.org/Graphics/SVG/1.1/DTD/svg11.dtd">
<svg version="1.1" xmlns="http://www.w3.org/2000/svg" xmlns:xlink="http://www.w3.org/1999/xlink" x="0px" y="0px"
	 viewBox="0 0 1010 956.878" style="enable-background:new 0 0 1010 956.878;" xml:space="preserve">
<g id="arrow-13">
	<polygon id="arrow-13_1_" style="fill:#32383F;" points="401.565,200.274 401.565,293.973 594.627,147.014 401.565,0 
		401.565,93.698 144.762,93.698 124.979,94.543 106.013,98.008 87.893,104.012 71.521,113.48 55.177,122.921 42.243,135.826 
		29.307,148.733 19.839,165.077 11.216,181.393 5.158,199.458 0.874,218.338 0,238.148 1.719,812.429 2.593,832.21 6.032,851.092 
		12.09,868.338 21.558,885.526 31.027,900.124 43.962,913.876 56.868,925.937 73.269,937.096 89.612,944.819 107.732,951.694 
		126.67,955.132 146.508,956.878 865.209,956.878 866.929,955.978 869.522,955.978 874.706,955.978 884.994,955.132 
		903.985,951.694 921.233,944.819 938.45,937.096 945.327,931.066 953.103,925.937 967.757,913.876 978.973,900.124 
		984.129,892.403 990.161,885.526 997.91,868.338 1004.813,851.092 1008.252,832.21 1009.126,821.897 1009.126,816.71 
		1009.126,814.174 1010,812.429 1010,238.148 1007.407,217.492 1003.942,198.555 997.91,180.52 990.161,165.077 978.973,148.733 
		966.038,135.826 951.385,122.921 936.731,113.48 919.514,104.012 902.268,98.008 892.797,95.417 884.148,94.543 865.209,93.698 
		676.517,93.698 737.669,145.267 676.517,200.274 865.209,200.274 872.087,200.274 878.99,202.868 884.994,205.431 891.08,210.588 
		903.113,238.148 903.113,812.429 902.268,815.865 902.268,820.149 900.549,827.926 897.081,833.958 895.364,834.804 
		894.519,836.494 892.797,839.931 885.867,844.215 879.864,847.653 872.087,849.401 865.209,850.247 146.508,850.247 
		118.92,839.931 113.763,833.958 111.199,827.926 108.577,820.149 108.577,812.429 106.887,238.148 107.732,229.524 110.325,222.65 
		113.763,215.773 118.92,210.588 130.107,202.868 144.762,200.274 401.565,200.274 	"/>
</g>
<g id="Layer_1">
</g>
</svg>
