<?xml version="1.0" encoding="UTF-8" standalone="no"?>
<svg width="619px" height="397px" viewBox="0 0 619 397" version="1.1" xmlns="http://www.w3.org/2000/svg" xmlns:xlink="http://www.w3.org/1999/xlink" xmlns:sketch="http://www.bohemiancoding.com/sketch/ns">
    <!-- Generator: Sketch Beta 3.0.4 (8156) - http://www.bohemiancoding.com/sketch -->
    <title>box - table</title>
    <desc>Created with Sketch Beta.</desc>
    <defs>
        <filter x="-50%" y="-50%" width="200%" height="200%" filterUnits="objectBoundingBox" id="filter-1">
            <feOffset dx="0" dy="1" in="SourceAlpha" result="shadowOffsetOuter1"></feOffset>
            <feGaussianBlur stdDeviation="1.5" in="shadowOffsetOuter1" result="shadowBlurOuter1"></feGaussianBlur>
            <feColorMatrix values="0 0 0 0 0   0 0 0 0 0   0 0 0 0 0  0 0 0 0.35 0" in="shadowBlurOuter1" type="matrix" result="shadowMatrixOuter1"></feColorMatrix>
            <feMerge>
                <feMergeNode in="shadowMatrixOuter1"></feMergeNode>
                <feMergeNode in="SourceGraphic"></feMergeNode>
            </feMerge>
        </filter>
        <filter x="-50%" y="-50%" width="200%" height="200%" filterUnits="objectBoundingBox" id="filter-2">
            <feOffset dx="0" dy="2" in="SourceAlpha" result="shadowOffsetInner1"></feOffset>
            <feGaussianBlur stdDeviation="1.5" in="shadowOffsetInner1" result="shadowBlurInner1"></feGaussianBlur>
            <feComposite in="shadowBlurInner1" in2="SourceAlpha" operator="arithmetic" k2="-1" k3="1" result="shadowInnerInner1"></feComposite>
            <feColorMatrix values="0 0 0 0 0   0 0 0 0 0   0 0 0 0 0  0 0 0 0.211290786 0" in="shadowInnerInner1" type="matrix" result="shadowMatrixInner1"></feColorMatrix>
            <feOffset dx="0" dy="-1" in="SourceAlpha" result="shadowOffsetInner2"></feOffset>
            <feGaussianBlur stdDeviation="1.5" in="shadowOffsetInner2" result="shadowBlurInner2"></feGaussianBlur>
            <feComposite in="shadowBlurInner2" in2="SourceAlpha" operator="arithmetic" k2="-1" k3="1" result="shadowInnerInner2"></feComposite>
            <feColorMatrix values="0 0 0 0 1   0 0 0 0 1   0 0 0 0 1  0 0 0 0.217262178 0" in="shadowInnerInner2" type="matrix" result="shadowMatrixInner2"></feColorMatrix>
            <feMerge>
                <feMergeNode in="SourceGraphic"></feMergeNode>
                <feMergeNode in="shadowMatrixInner1"></feMergeNode>
                <feMergeNode in="shadowMatrixInner2"></feMergeNode>
            </feMerge>
        </filter>
        <rect id="path-3" x="-0.221220129" y="0.112839033" width="261.977367" height="38.9005012" rx="21"></rect>
        <linearGradient x1="50%" y1="0%" x2="50%" y2="100%" id="linearGradient-4">
            <stop stop-color="#508ECF" offset="0%"></stop>
            <stop stop-color="#427CB9" offset="100%"></stop>
        </linearGradient>
        <rect id="path-5" x="129.169501" y="0.112839033" width="130.988683" height="38.9005012" rx="19"></rect>
    </defs>
    <g id="Data-Visualization-elements-" stroke="none" stroke-width="1" fill="none" fill-rule="evenodd" sketch:type="MSPage">
        <g id="Data-Visualization-Elements" sketch:type="MSArtboardGroup" transform="translate(-616.000000, -1613.000000)">
            <g id="box---table" sketch:type="MSLayerGroup" transform="translate(619.000000, 1615.000000)">
                <rect id="BG" fill="#FFFFFF" filter="url(#filter-1)" sketch:type="MSShapeGroup" x="0" y="0" width="614" height="392" rx="3"></rect>
                <g id="table" transform="translate(22.000000, 80.000000)">
                    <text id="domain.com" sketch:type="MSTextLayer" font-family="Open Sans" font-size="16" font-weight="normal" line-spacing="44" fill="#707070">
                        <tspan x="29" y="58">domain.com</tspan>
                        <tspan x="29" y="102">domain.com</tspan>
                        <tspan x="29" y="146">domain.com</tspan>
                        <tspan x="29" y="190">domain.com</tspan>
                        <tspan x="29" y="234">domain.com</tspan>
                    </text>
                    <rect id="Rectangle-20" fill="#EAEAEA" sketch:type="MSShapeGroup" x="0" y="67" width="16" height="16" rx="4"></rect>
                    <rect id="Rectangle-20" fill="#EAEAEA" sketch:type="MSShapeGroup" x="0" y="110" width="16" height="16" rx="4"></rect>
                    <rect id="Rectangle-21" fill="#EAEAEA" sketch:type="MSShapeGroup" x="0" y="155" width="16" height="16" rx="4"></rect>
                    <rect id="Rectangle-22" fill="#EAEAEA" sketch:type="MSShapeGroup" x="0" y="199" width="16" height="16" rx="4"></rect>
                    <rect id="Rectangle-23" fill="#EAEAEA" sketch:type="MSShapeGroup" x="0" y="242" width="16" height="16" rx="4"></rect>
                    <text id="3,402" sketch:type="MSTextLayer" font-family="Open Sans" font-size="16" font-weight="526" line-spacing="44" fill="#707070">
                        <tspan x="329" y="57">3</tspan>
                        <tspan x="338.132812" y="57" font-family="Lucida Grande" font-weight="bold">,</tspan>
                        <tspan x="342.085938" y="57">402</tspan>
                        <tspan x="329" y="101">3,201</tspan>
                        <tspan x="329" y="145">15,890</tspan>
                        <tspan x="329" y="189">6,439</tspan>
                        <tspan x="329" y="233">9,430,102</tspan>
                    </text>
                    <text id="76" sketch:type="MSTextLayer" font-family="Open Sans" font-size="16" font-weight="normal" line-spacing="44" fill="#7CC923">
                        <tspan x="487" y="57">76</tspan>
                        <tspan x="487" y="101">44</tspan>
                        <tspan x="487" y="145">34</tspan>
                        <tspan x="487" y="189">14</tspan>
                        <tspan x="487" y="233">9</tspan>
                    </text>
                    <text id="Rank" sketch:type="MSTextLayer" font-family="Open Sans" font-size="16" font-weight="526" line-spacing="44" fill="#508ECF">
                        <tspan x="328" y="17">Rank</tspan>
                    </text>
                    <text id="Trend" sketch:type="MSTextLayer" font-family="Open Sans" font-size="16" font-weight="526" line-spacing="44" fill="#508ECF">
                        <tspan x="469" y="17">Trend</tspan>
                    </text>
                    <path d="M471,69.2105263 L475.5,65 L480,69.2105263 L471,69.2105263 L471,69.2105263 Z M476.4,81 L474.6,81 L474.6,69.2105263 L476.4,69.2105263 L476.4,81 L476.4,81 Z" id="Shape" fill="#7CC923" sketch:type="MSShapeGroup"></path>
                    <path d="M471,112.210526 L475.5,108 L480,112.210526 L471,112.210526 L471,112.210526 Z M476.4,124 L474.6,124 L474.6,112.210526 L476.4,112.210526 L476.4,124 L476.4,124 Z" id="Shape-2" fill="#7CC923" sketch:type="MSShapeGroup"></path>
                    <path d="M471,201.210526 L475.5,197 L480,201.210526 L471,201.210526 L471,201.210526 Z M476.4,213 L474.6,213 L474.6,201.210526 L476.4,201.210526 L476.4,213 L476.4,213 Z" id="Shape-3" fill="#7CC923" sketch:type="MSShapeGroup"></path>
                    <path d="M471,157.210526 L475.5,153 L480,157.210526 L471,157.210526 L471,157.210526 Z M476.4,169 L474.6,169 L474.6,157.210526 L476.4,157.210526 L476.4,169 L476.4,169 Z" id="Shape-3" fill="#7CC923" sketch:type="MSShapeGroup"></path>
                    <path d="M471,245.210526 L475.5,241 L480,245.210526 L471,245.210526 L471,245.210526 Z M476.4,257 L474.6,257 L474.6,245.210526 L476.4,245.210526 L476.4,257 L476.4,257 Z" id="Shape-4" fill="#7CC923" sketch:type="MSShapeGroup"></path>
                    <text id="Site" sketch:type="MSTextLayer" font-family="Open Sans" font-size="16" font-weight="526" line-spacing="44" fill="#508ECF">
                        <tspan x="3" y="17">Site</tspan>
                    </text>
                    <path d="M0.5,276.5 L562.5,276.5" id="Line-12" stroke="#EAEAEA" stroke-linecap="square" sketch:type="MSShapeGroup"></path>
                    <path d="M0.5,228.5 L562.5,228.5" id="Line-11" stroke="#EAEAEA" stroke-linecap="square" sketch:type="MSShapeGroup"></path>
                    <path d="M0.5,184.5 L562.5,184.5" id="Line-10" stroke="#EAEAEA" stroke-linecap="square" sketch:type="MSShapeGroup"></path>
                    <path d="M0.5,140.5 L562.5,140.5" id="Line-9" stroke="#EAEAEA" stroke-linecap="square" sketch:type="MSShapeGroup"></path>
                    <path d="M0.5,96.5 L562.5,96.5" id="Line-8" stroke="#EAEAEA" stroke-linecap="square" sketch:type="MSShapeGroup"></path>
                    <path d="M0.5,52.5 L562.5,52.5" id="Line-7" stroke="#EAEAEA" stroke-linecap="square" sketch:type="MSShapeGroup"></path>
                </g>
                <g id="tabs-recents-favs" transform="translate(176.000000, 21.000000)">
                    <g id="Bar-button" transform="translate(131.000000, 19.500000) scale(-1, 1) translate(-131.000000, -19.500000) ">
                        <g id="Button" filter="url(#filter-2)">
                            <use stroke="#888888" stroke-width="1" sketch:type="MSShapeGroup" xlink:href="#path-3"></use>
                            <use stroke="none" fill-opacity="0.02" fill-rule="evenodd" xlink:href="#path-3"></use>
                        </g>
                        <g id="Button">
                            <use stroke="#888888" stroke-width="1" fill="url(#linearGradient-4)" fill-rule="evenodd" sketch:type="MSShapeGroup" xlink:href="#path-5"></use>
                            <use stroke="none" fill="none" xlink:href="#path-5"></use>
                        </g>
                    </g>
                    <text id="Recents-------------" sketch:type="MSTextLayer" font-family="Open Sans" font-size="16" font-weight="normal">
                        <tspan x="52" y="26" fill="#FFFFFF">Recents</tspan>
                        <tspan x="110.5625" y="26" fill="#233A56">           </tspan>
                        <tspan x="156.28125" y="26" fill="#ABA99F">   </tspan>
                        <tspan x="168.75" y="26" fill="#ABB1B8">Favorites</tspan>
                    </text>
                    <g id="favorites" transform="translate(146.000000, 10.000000)" fill="#ABB1B8" sketch:type="MSShapeGroup">
                        <path d="M10,0 L13.0930931,5.92890995 L20,6.88151659 L15,11.4881517 L16.1711712,18 L10,14.92891 L3.82882883,18 L5,11.4881517 L0,6.88151659 L6.90690691,5.92890995 L10,0 Z"></path>
                    </g>
                    <g id="recents" transform="translate(26.000000, 11.000000)" fill="#FFFFFF" sketch:type="MSShapeGroup">
                        <path d="M9,18 C3.75,18 0,14.25 0,9 C0,3.75 3.75,0 9,0 C14.25,0 18,3.75 18,9 C18,14.25 14.25,18 9,18 L9,18 Z M12,12 L9.75,9 L9.75,8.25 L9,3.75 L9,3 L8.25,3 C8.25,3 7.5,3 7.5,3.75 L7.5,9 L7.5,9.75 L11.25,12.75 L12,12.75 C12.75,12 12.75,12 12,12 L12,12 Z" id="Shape"></path>
                    </g>
                </g>
            </g>
        </g>
    </g>
</svg>