<?xml version="1.0" encoding="UTF-8" standalone="no"?>
<svg width="253px" height="195px" viewBox="0 0 253 195" version="1.1" xmlns="http://www.w3.org/2000/svg" xmlns:xlink="http://www.w3.org/1999/xlink" xmlns:sketch="http://www.bohemiancoding.com/sketch/ns">
    <!-- Generator: Sketch Beta 3.0.4 (8156) - http://www.bohemiancoding.com/sketch -->
    <title>Search Auto-complete</title>
    <desc>Created with Sketch Beta.</desc>
    <defs>
        <path d="M240.640187,6.47595793 L233.45815,0 L226.276113,6.47595793 L3.00563246,6.47595793 C1.34566749,6.47595793 0,7.8250882 0,9.47839249 L0,190.997565 C0,192.655764 1.34069,194 3.00563246,194 L248.994368,194 C250.654333,194 252,192.65087 252,190.997565 L252,9.47839249 C252,7.82019367 250.65931,6.47595793 248.994368,6.47595793 L240.640187,6.47595793 Z" id="path-1"></path>
    </defs>
    <g id="Data-Visualization-elements-" stroke="none" stroke-width="1" fill="none" fill-rule="evenodd" sketch:type="MSPage">
        <g id="Data-Visualization-Elements" sketch:type="MSArtboardGroup" transform="translate(-1329.000000, -1776.000000)">
            <g id="Search" sketch:type="MSLayerGroup" transform="translate(1324.000000, 1667.000000)">
                <g id="Search-Auto-complete" transform="translate(6.000000, 110.000000)">
                    <mask id="mask-2" sketch:name="Triangle 852" fill="white">
                        <use xlink:href="#path-1"></use>
                    </mask>
                    <use id="Triangle-852" stroke="#979797" fill="#FFFFFF" sketch:type="MSShapeGroup" xlink:href="#path-1"></use>
                    <rect id="Rectangle-329" fill="#4A86C5" sketch:type="MSShapeGroup" mask="url(#mask-2)" x="0" y="25" width="254" height="38"></rect>
                    <text id="Search-Item-1" sketch:type="MSTextLayer" font-family="Open Sans" font-size="14" font-weight="normal" line-spacing="40">
                        <tspan x="17" y="29" fill="#FFFFFF">Search Item 1</tspan>
                        <tspan x="17" y="69" fill="#707070">Search Item 2</tspan>
                        <tspan x="17" y="109" fill="#707070">Search Item 3</tspan>
                        <tspan x="17" y="149" fill="#707070">Search Item 4</tspan>
                    </text>
                </g>
            </g>
        </g>
    </g>
</svg>