<?xml version="1.0" encoding="UTF-8" standalone="no"?>
<svg width="108px" height="26px" viewBox="0 0 108 26" version="1.1" xmlns="http://www.w3.org/2000/svg" xmlns:xlink="http://www.w3.org/1999/xlink" xmlns:sketch="http://www.bohemiancoding.com/sketch/ns">
    <!-- Generator: Sketch Beta 3.0.4 (8156) - http://www.bohemiancoding.com/sketch -->
    <title>app store logo</title>
    <desc>Created with Sketch Beta.</desc>
    <defs>
        <linearGradient x1="50%" y1="0%" x2="50%" y2="100%" id="linearGradient-1">
            <stop stop-color="#00D6FE" offset="0%"></stop>
            <stop stop-color="#145CF4" offset="100%"></stop>
        </linearGradient>
    </defs>
    <g id="Page-1" stroke="none" stroke-width="1" fill="none" fill-rule="evenodd" sketch:type="MSPage">
        <g id="Data-Visualization-Elements" sketch:type="MSArtboardGroup" transform="translate(-3001.000000, -1894.000000)">
            <g id="App-Tooltip" sketch:type="MSLayerGroup" transform="translate(2846.000000, 1708.000000)">
                <g id="app-tooltip" transform="translate(2.000000, 98.000000)">
                    <g id="app-store-logo" transform="translate(153.000000, 88.000000)">
                        <text id="App-Store" sketch:type="MSTextLayer" font-family="Helvetica Neue" font-size="17.2482272" font-weight="260" fill="#434343">
                            <tspan x="34.0837754" y="19.9827586">App Store</tspan>
                        </text>
                        <g id="icons-/-app-store-2" sketch:type="MSShapeGroup">
                            <rect id="icon" fill="url(#linearGradient-1)" x="0" y="0" width="26.8448276" height="26.8448276" rx="4"></rect>
                            <path d="M13.3990705,25.1174213 C19.8709369,25.1174213 25.1174213,19.8709369 25.1174213,13.3990705 C25.1174213,6.92720401 19.8709369,1.68071964 13.3990705,1.68071964 C6.92720401,1.68071964 1.68071964,6.92720401 1.68071964,13.3990705 C1.68071964,19.8709369 6.92720401,25.1174213 13.3990705,25.1174213 Z M13.3990705,24.0903148 C19.3036817,24.0903148 24.0903148,19.3036817 24.0903148,13.3990705 C24.0903148,7.49445924 19.3036817,2.70782609 13.3990705,2.70782609 C7.49445924,2.70782609 2.70782609,7.49445924 2.70782609,13.3990705 C2.70782609,19.3036817 7.49445924,24.0903148 13.3990705,24.0903148 Z" id="circle" fill="#FFFFFF"></path>
                            <g id="App-Store-icon" transform="translate(6.069265, 6.256012)" fill="#FFFFFF">
                                <path d="M4.68345812,8.03010495 L10.1159927,8.03010495 L10.1159927,8.03010495 L9.19216736,6.44275862 L5.61225309,6.44275862 L4.68345812,8.03010495 Z M2.17625017,8.03010495 L0.0466866567,8.03010495 L0.0466866567,6.44275862 L3.09987705,6.44275862 L2.17625017,8.03010495 Z M12.6434272,8.03010495 L14.7062969,8.03010495 L14.7062969,6.44275862 L11.7349138,6.44275862 L12.6434272,8.03010495 Z" id="ruler"></path>
                                <path d="M10.4604894,8.07092569 L6.68367917,1.52929844 C6.45487445,1.13299702 6.58888221,0.633523792 6.97965517,0.407910917 C7.37315253,0.180725111 7.87148332,0.318569593 8.09879325,0.712281943 L11.8756035,7.2539092 L10.4604894,8.07092569 Z M10.6005494,8.31351667 L11.4076304,9.71142192 L12.8227444,8.89440542 L12.0156635,7.49650018 L10.6005494,8.31351667 Z M11.7183508,9.82754123 C11.7883808,9.71082459 12.534559,9.24395802 12.6754273,9.24395802 C12.8162955,9.24395802 13.9826537,9.36067466 13.9826537,11.2748276 C14.005997,11.6016342 13.7725637,12.8154873 13.5391304,12.7921439 C13.3523838,12.8154873 13.5391304,12.1618741 12.9555472,11.8350675 C12.371964,11.5082609 11.7723732,10.8609812 11.6483208,10.4578111 C11.5549475,10.1543478 11.6483208,9.94425787 11.7183508,9.82754123 Z" id="brush"></path>
                                <path d="M1.48906542,9.75706217 L4.93102349,3.79541591 L4.93102349,3.79541591 L6.34613756,4.6124324 L2.90417949,10.5740787 L1.48906542,9.75706217 Z M1.36134482,10.0067773 L0.67695639,12.7688007 L2.75190668,10.8096186 L1.36134482,10.0067773 Z M5.07108346,3.55282492 L5.46783985,2.8656227 C5.69322024,2.47525242 6.19204563,2.34284298 6.58281859,2.56845585 C6.97631595,2.79564166 7.10792122,3.29298439 6.88285231,3.68281519 L6.48619753,4.36984141 L5.07108346,3.55282492 L5.07108346,3.55282492 Z" id="pencil"></path>
                            </g>
                        </g>
                    </g>
                </g>
            </g>
        </g>
    </g>
</svg>