<?xml version="1.0" encoding="UTF-8" standalone="no"?>
<svg width="39px" height="48px" viewBox="0 0 39 48" version="1.1" xmlns="http://www.w3.org/2000/svg" xmlns:xlink="http://www.w3.org/1999/xlink" xmlns:sketch="http://www.bohemiancoding.com/sketch/ns">
    <!-- Generator: Sketch Beta 3.0.4 (8156) - http://www.bohemiancoding.com/sketch -->
    <title>apple-bw</title>
    <desc>Created with Sketch Beta.</desc>
    <defs></defs>
    <g id="Page-1" stroke="none" stroke-width="1" fill="none" fill-rule="evenodd" sketch:type="MSPage">
        <g id="icons" sketch:type="MSLayerGroup" transform="translate(-347.000000, -68.000000)" fill="#707070">
            <path d="M368.941355,71.6621821 C370.653844,69.6207721 373.548437,68.1020705 375.937019,68 C376.241685,70.8359483 375.120514,73.6756571 373.46313,75.721902 C371.803097,77.7643865 369.086006,79.3556119 366.41925,79.1434127 C366.05683,76.3687067 367.40054,73.4752766 368.941355,71.6621821 L368.941355,71.6621821 Z M382.529993,110.346902 C380.547809,113.294054 378.497804,116.223477 375.261455,116.284719 C372.076502,116.345962 371.055473,114.365794 367.420674,114.365794 C363.782166,114.365794 362.64351,116.223477 359.636588,116.345962 C356.512038,116.465223 354.135643,113.162974 352.138093,110.228715 C348.056627,104.229656 344.940025,93.2656723 349.130111,85.8666354 C351.20502,82.1920974 354.923536,79.867576 358.952016,79.8057965 C362.020931,79.7483147 364.919763,81.9100605 366.793327,81.9100605 C368.67113,81.9100605 372.189891,79.3147837 375.888272,79.6956678 C377.436506,79.7606706 381.781839,80.3301165 384.573111,84.4833115 C384.352161,84.6305079 379.386369,87.5696011 379.446242,93.6916824 C379.506646,101.004765 385.747267,103.435118 385.819857,103.468425 C385.762633,103.640333 384.821612,106.938822 382.529993,110.346902 L382.529993,110.346902 Z" id="apple-bw" sketch:type="MSShapeGroup"></path>
        </g>
    </g>
</svg>