<?xml version="1.0" encoding="UTF-8" standalone="no"?>
<svg width="52px" height="50px" viewBox="0 0 52 50" version="1.1" xmlns="http://www.w3.org/2000/svg" xmlns:xlink="http://www.w3.org/1999/xlink" xmlns:sketch="http://www.bohemiancoding.com/sketch/ns">
    <!-- Generator: Sketch Beta 3.0.4 (8156) - http://www.bohemiancoding.com/sketch -->
    <title>Browser-large</title>
    <desc>Created with Sketch Beta.</desc>
    <defs></defs>
    <g id="Page-1" stroke="none" stroke-width="1" fill="none" fill-rule="evenodd" sketch:type="MSPage">
        <g id="icons" sketch:type="MSLayerGroup" transform="translate(0.000000, -68.000000)" fill="#707070">
            <path d="M48.406,119 L4.594,119 C2.061,119 0,116.912 0,114.345 L0,78 L0,76 L0,72.655 C0,70.088 2.061,68 4.594,68 L48.406,68 C50.939,68 53,70.088 53,72.655 L53,114.345 C53,116.912 50.939,119 48.406,119 L48.406,119 Z M50.938,71.655 C50.938,70.8 50.252,69.903 49.407,69.903 L3.594,69.903 C2.749,69.903 2.063,70.8 2.063,71.655 L2.063,76 L50.938,76 L50.938,71.655 L50.938,71.655 Z M50.938,78 L2.062,78 L2.062,115.545 C2.062,116.4 2.748,117.097 3.593,117.097 L49.405,117.097 C50.25,117.097 50.936,116.4 50.936,115.545 L50.936,78 L50.938,78 Z M7,72 C7.552,72 8,72.448 8,73 C8,73.553 7.552,74 7,74 C6.448,74 6,73.552 6,73 C6,72.447 6.448,72 7,72 L7,72 Z M11,72 C11.552,72 12,72.448 12,73 C12,73.553 11.552,74 11,74 C10.448,74 10,73.552 10,73 C10,72.447 10.448,72 11,72 L11,72 Z M15,72 C15.552,72 16,72.448 16,73 C16,73.553 15.552,74 15,74 C14.448,74 14,73.552 14,73 C14,72.447 14.448,72 15,72 L15,72 Z" id="Browser-large" sketch:type="MSShapeGroup"></path>
        </g>
    </g>
</svg>