<?xml version="1.0" encoding="UTF-8" standalone="no"?>
<svg width="43px" height="39px" viewBox="0 0 43 39" version="1.1" xmlns="http://www.w3.org/2000/svg" xmlns:xlink="http://www.w3.org/1999/xlink" xmlns:sketch="http://www.bohemiancoding.com/sketch/ns">
    <!-- Generator: Sketch Beta 3.0.4 (8156) - http://www.bohemiancoding.com/sketch -->
    <title>direct-traffic</title>
    <desc>Created with Sketch Beta.</desc>
    <defs></defs>
    <g id="Page-1" stroke="none" stroke-width="1" fill="none" fill-rule="evenodd" sketch:type="MSPage">
        <g id="icons" sketch:type="MSLayerGroup" transform="translate(-309.000000, -156.000000)" fill="#707070">
            <path d="M344.252109,166.423188 L352.081887,167.478463 L351.614339,169.072076 L342.762212,167.629922 L336.568852,171.758829 C336.578729,171.775292 336.5919,171.790109 336.601777,171.806572 L335.209012,172.692278 C335.20572,172.685693 335.200781,172.680754 335.197488,172.674169 L324.261152,179.963962 L323.372153,178.579428 L325.976591,176.842588 C325.395449,176.325651 324.654617,175.986514 323.816653,175.986514 C322.005728,175.986514 320.530648,177.459948 320.530648,179.272519 C320.530648,181.085089 322.005728,182.558523 323.816653,182.558523 C325.43496,182.558523 326.775044,181.381422 327.045037,179.838844 L328.706148,178.781923 C328.722611,178.944906 328.755537,179.10295 328.755537,179.270872 C328.755537,181.998783 326.544563,184.209756 323.816653,184.209756 C321.088742,184.209756 318.877768,181.998783 318.877768,179.270872 C318.877768,176.542962 321.088742,174.331988 323.816653,174.331988 C325.232466,174.331988 326.490235,174.94441 327.38582,175.902553 L330.115376,174.083398 C328.615602,172.249425 326.368409,171.055862 323.816653,171.055862 C319.287696,171.055862 315.601642,174.741915 315.601642,179.270872 C315.601642,183.799829 319.287696,187.485883 323.816653,187.485883 C328.347256,187.485883 332.031663,183.799829 332.031663,179.270872 C332.031663,178.444432 331.871973,177.664089 331.644784,176.911732 L333.093523,175.989807 C333.459001,177.022034 333.694421,178.115173 333.694421,179.272519 C333.694421,184.728339 329.272473,189.150287 323.816653,189.150287 C318.360832,189.150287 313.938884,184.728339 313.938884,179.272519 C313.938884,173.816698 318.360832,169.39475 323.816653,169.39475 C326.949551,169.39475 329.702156,170.879708 331.503203,173.159826 L334.282148,171.307745 C331.875265,168.148505 328.085495,166.102161 323.816653,166.102161 C316.556493,166.102161 310.646295,172.010712 310.646295,179.272519 C310.646295,186.534325 316.556493,192.442876 323.816653,192.442876 C331.080105,192.442876 336.98701,186.534325 336.98701,179.272519 C336.98701,177.463241 336.619887,175.73957 335.95643,174.169005 L337.359073,173.276713 C338.172343,175.110685 338.633305,177.135628 338.633305,179.272519 C338.633305,187.45625 332.000384,194.089171 323.816653,194.089171 C315.632921,194.089171 309,187.45625 309,179.272519 C309,171.088787 315.632921,164.455866 323.816653,164.455866 C328.663344,164.455866 332.947003,166.796897 335.648573,170.395697 L341.311827,166.620744 L345.050562,156.938884 L346.663931,157.330702 L343.442132,165.020545 L344.252109,166.423188 L344.252109,166.423188 Z" id="direct-traffic" sketch:type="MSShapeGroup"></path>
        </g>
    </g>
</svg>