<?xml version="1.0" encoding="UTF-8" standalone="no"?>
<svg width="17px" height="15px" viewBox="0 0 17 15" version="1.1" xmlns="http://www.w3.org/2000/svg" xmlns:xlink="http://www.w3.org/1999/xlink" xmlns:sketch="http://www.bohemiancoding.com/sketch/ns">
    <!-- Generator: Sketch Beta 3.0.4 (8156) - http://www.bohemiancoding.com/sketch -->
    <title>message</title>
    <desc>Created with Sketch Beta.</desc>
    <defs></defs>
    <g id="Page-1" stroke="none" stroke-width="1" fill="none" fill-rule="evenodd" sketch:type="MSPage">
        <g id="icons" sketch:type="MSLayerGroup" transform="translate(0.000000, -10.000000)" fill="#707070">
            <path d="M8.25,22.6666667 L12.75,26 L13.5,26 L13.5,26 L13.5,22.6666667 C13.5,22 13.5,22 14.25,22 L15.75,22 C17.25,22 18,21.3333333 18,20.6666667 L18,11.3333333 C18,10.6666667 17.25,10 15.75,10 L2.25,10 C0.75,10 0,10.6666667 0,11.3333333 L0,20.6666667 C0,21.3333333 0.75,22 2.25,22 L6.75,22 C6.75,22 7.5,22 8.25,22.6666667 L8.25,22.6666667 Z" id="message" sketch:type="MSShapeGroup"></path>
        </g>
    </g>
</svg>