<?xml version="1.0" encoding="UTF-8" standalone="no"?>
<svg width="35px" height="57px" viewBox="0 0 35 57" version="1.1" xmlns="http://www.w3.org/2000/svg" xmlns:xlink="http://www.w3.org/1999/xlink" xmlns:sketch="http://www.bohemiancoding.com/sketch/ns">
    <!-- Generator: Sketch Beta 3.0.4 (8156) - http://www.bohemiancoding.com/sketch -->
    <title>mobile-large</title>
    <desc>Created with Sketch Beta.</desc>
    <defs></defs>
    <g id="Page-1" stroke="none" stroke-width="1" fill="none" fill-rule="evenodd" sketch:type="MSPage">
        <g id="icons" sketch:type="MSLayerGroup" transform="translate(-97.000000, -64.000000)" fill="#707070">
            <path d="M128.406,122 L101.594,122 C99.061,122 97,119.912 97,117.345 L97,68.655 C97,66.088 99.061,64 101.594,64 L128.406,64 C130.939,64 133,66.088 133,68.655 L133,75 L133,77 L133,107 L133,109 L133,117.345 C133,119.912 130.939,122 128.406,122 L128.406,122 Z M130.938,67.655 C130.938,66.8 130.252,65.903 129.407,65.903 L100.344,65.903 C99.499,65.903 98.813,66.8 98.813,67.655 L98.813,75 L130.938,75 L130.938,67.655 L130.938,67.655 Z M130.938,77 L98.813,77 L98.813,107 L130.938,107 L130.938,77 L130.938,77 Z M130.938,109 L98.813,109 L98.813,118.545 C98.813,119.4 99.499,120.097 100.344,120.097 L129.406,120.097 C130.251,120.097 130.937,119.4 130.937,118.545 L130.937,109 L130.938,109 Z M115,118 C113.343,118 112,116.657 112,115 C112,113.343 113.343,112 115,112 C116.657,112 118,113.343 118,115 C118,116.657 116.657,118 115,118 L115,118 Z M109.5,69 L121.5,69 C122.328,69 123,69.672 123,70.5 C123,71.328 122.328,72 121.5,72 L109.5,72 C108.672,72 108,71.328 108,70.5 C108,69.672 108.672,69 109.5,69 L109.5,69 Z" id="mobile-large" sketch:type="MSShapeGroup"></path>
        </g>
    </g>
</svg>