<?xml version="1.0" encoding="UTF-8" standalone="no"?>
<svg width="46px" height="31px" viewBox="0 0 46 31" version="1.1" xmlns="http://www.w3.org/2000/svg" xmlns:xlink="http://www.w3.org/1999/xlink" xmlns:sketch="http://www.bohemiancoding.com/sketch/ns">
    <!-- Generator: Sketch Beta 3.0.4 (8156) - http://www.bohemiancoding.com/sketch -->
    <title>money-ads</title>
    <desc>Created with Sketch Beta.</desc>
    <defs></defs>
    <g id="Page-1" stroke="none" stroke-width="1" fill="none" fill-rule="evenodd" sketch:type="MSPage">
        <g id="icons" sketch:type="MSLayerGroup" transform="translate(0.000000, -164.000000)" fill="#707070">
            <path d="M6.58517893,188.694421 L6.58517893,164 L46.0962525,164 L46.0962525,188.694421 L6.58517893,188.694421 L6.58517893,188.694421 Z M44.4499578,181.478711 L44.4499578,179.783028 L44.4499578,171.263452 L44.4499578,169.569415 L44.4499578,165.646295 L40.5597633,165.646295 L38.8443242,165.646295 L13.802535,165.646295 L12.0920348,165.646295 L8.23147366,165.646295 L8.23147366,169.551306 L8.23147366,171.26016 L8.23147366,179.78632 L8.23147366,181.495174 L8.23147366,187.048126 L12.0920348,187.048126 L13.802535,187.048126 L38.8443242,187.048126 L40.558117,187.048126 L44.4499578,187.048126 L44.4499578,181.478711 L44.4499578,181.478711 Z M37.8647788,183.755537 L42.803663,183.755537 L42.803663,185.401832 L37.8647788,185.401832 L37.8647788,183.755537 L37.8647788,183.755537 Z M37.8647788,167.343625 L42.803663,167.343625 L42.803663,168.989919 L37.8647788,168.989919 L37.8647788,167.343625 L37.8647788,167.343625 Z M26.3407157,181.286095 C23.6128053,181.286095 21.4018315,179.075121 21.4018315,176.345564 C21.4018315,173.6193 23.6128053,171.408326 26.3407157,171.408326 C29.0686261,171.408326 31.2795999,173.6193 31.2795999,176.345564 C31.2795999,179.075121 29.0686261,181.286095 26.3407157,181.286095 L26.3407157,181.286095 Z M26.3407157,173.054621 C24.5264989,173.054621 23.0481263,174.531347 23.0481263,176.34721 C23.0481263,178.163074 24.5264989,179.6398 26.3407157,179.6398 C28.1565788,179.6398 29.6333052,178.163074 29.6333052,176.34721 C29.6333052,174.531347 28.1565788,173.054621 26.3407157,173.054621 L26.3407157,173.054621 Z M9.8777684,183.755537 L14.8166526,183.755537 L14.8166526,185.401832 L9.8777684,185.401832 L9.8777684,183.755537 L9.8777684,183.755537 Z M9.8777684,167.292589 L14.8166526,167.292589 L14.8166526,168.938884 L9.8777684,168.938884 L9.8777684,167.292589 L9.8777684,167.292589 Z M10.5099456,190.340716 L35.5517347,190.340716 L37.2655276,190.340716 L41.1573683,190.340716 L42.803663,190.340716 L42.803663,191.98701 L3.29258947,191.98701 L3.29258947,167.292589 L4.9388842,167.292589 L4.9388842,168.938884 L4.9388842,172.845542 L4.9388842,174.554396 L4.9388842,183.080556 L4.9388842,184.78941 L4.9388842,190.340716 L8.79944535,190.340716 L10.5099456,190.340716 L10.5099456,190.340716 Z M7.21735611,193.633305 L33.90544,193.633305 L33.9729381,193.633305 L37.8647788,193.633305 L39.5110736,193.633305 L39.5110736,195.2796 L0,195.2796 L0,170.585179 L1.64629473,170.585179 L1.64629473,172.231474 L1.64629473,176.138131 L1.64629473,177.846985 L1.64629473,186.373145 L1.64629473,188.081999 L1.64629473,193.633305 L5.50685588,193.633305 L7.21735611,193.633305 L7.21735611,193.633305 Z" id="money-ads" sketch:type="MSShapeGroup"></path>
        </g>
    </g>
</svg>